<?xml version="1.0" encoding="UTF-8"?>
<!DOCTYPE svg PUBLIC "-//W3C//DTD SVG 1.1//EN" "http://www.w3.org/Graphics/SVG/1.1/DTD/svg11.dtd">
<!-- Creator: CorelDRAW -->
<svg xmlns="http://www.w3.org/2000/svg" xml:space="preserve" width="1.53726in" height="0.52in" version="1.1" style="shape-rendering:geometricPrecision; text-rendering:geometricPrecision; image-rendering:optimizeQuality; fill-rule:evenodd; clip-rule:evenodd"
viewBox="0 0 118.33 40.03"
 xmlns:xlink="http://www.w3.org/1999/xlink">
 <defs>
  <style type="text/css">
   <![CDATA[
    .fil0 {fill:white;fill-rule:nonzero}
    .fil3 {fill:#EEEEEC;fill-rule:nonzero}
    .fil2 {fill:#3D332D;fill-rule:nonzero}
    .fil1 {fill:#444343;fill-rule:nonzero}
   ]]>
  </style>
 </defs>
 <g id="Layer_x0020_1">
  <metadata id="CorelCorpID_0Corel-Layer"/>
  <g id="_105553410354208">
   <polygon class="fil0" points="41.4,5.54 29.05,34.18 21.83,34.18 20.9,18.41 14.37,34.18 7.14,34.18 4.96,5.54 12.79,5.54 13.48,22.41 20.34,5.95 25.86,5.95 26.91,22.45 33.61,5.54 "/>
   <path class="fil1" d="M58.03 19.07c-0.14,-5.12 4.87,-13.04 1.35,-13.87 -23.34,-5.52 -38.2,-3.84 -46.57,0.45l0.68 16.71 6.83 -16.4 5.51 0 1.05 16.44 6.67 -16.84 7.76 0 -12.3 28.54 -7.19 0 -0.93 -15.72 -5.49 13.24c4.99,5.58 10.02,10.52 30.42,4.14 10.96,-3.43 18.25,1.63 19.55,-1.08 1.44,-2.99 -7.11,-7.03 -7.34,-15.61z"/>
   <path class="fil1" d="M6.38 23.45l-0.86 -11.32c-2.28,3.99 -1.76,8.3 0.86,11.32l0 -0z"/>
   <path class="fil0" d="M44.9 34.1c-5.11,1.47 -9.42,-1.11 -9.91,-6.61 -0.48,-5.07 2.54,-10.02 8.03,-11.59 4.07,-1.17 7.51,0.03 8.1,3.6 0.43,2.75 -2.15,5.94 -8.74,8.6 0.68,0.86 1.65,0.91 2.89,0.55 1.65,-0.47 3.77,-1.56 4.77,-2.39 -0.03,0.43 0.13,1.34 0.61,2.34 0.44,0.9 0.91,1.45 1.25,1.71 -1.07,1.08 -3.51,2.79 -6.99,3.8z"/>
   <path class="fil1" d="M20.46 32.14c-0.37,-1.53 -1.49,-3.48 -3.04,-5.42l-3.05 7.35 -7.19 0 -1.16 -15.26c-1.26,-0.18 -2.44,-0.05 -3.48,0.5 -4.87,2.59 -2.01,12.29 2.47,16.06 8.57,7.2 17.64,5.96 15.45,-3.24z"/>
   <path class="fil1" d="M44.75 21.84c-0.1,1.05 -0.68,1.8 -3.36,3 -0.04,-2.28 0.95,-3.4 2.03,-3.71 0.74,-0.21 1.31,-0.01 1.33,0.71z"/>
   <path class="fil1" d="M98.68 20.8c-0.09,2.04 -0.73,4.41 -2.21,5.86 0.41,-1.96 0.65,-5.05 2.2,-6.43 0.03,0.18 0.02,0.39 0.01,0.56zm-0.85 -6.81c-2.64,-0.12 -3.6,2.34 -4.29,4.43 0.1,-2.18 0.24,-4.54 1.04,-6.62 0.24,-0.66 0.54,-1.03 0.99,-1.54 0.04,-0.07 0.11,-0.17 0.12,-0.24 0.07,-1.55 -3.87,-3.32 -5.18,-3.38 -2.04,-0.09 -2.38,6.53 -2.44,7.9 -0.06,1.37 -0.12,2.71 -0.19,4.09l-0.17 4.66c-0.04,-0.11 -0.09,-0.22 -0.14,-0.32 -0.06,-0.12 -0.12,-0.23 -0.19,-0.35l-0.15 4.2c-0.06,1.34 -0.12,2.71 -0.19,4.09 -0.02,0.39 0.15,0.57 0.39,0.83 0.16,0.17 0.3,0.34 0.42,0.49 -0.02,-0.22 -0.03,-0.45 -0.03,-0.69 0.33,0.16 0.81,0.18 1.16,0.2 1.2,0.05 2.4,0.11 3.59,0.16 0.35,-0.02 0.71,-0.07 0.73,-0.53 0.01,-0.18 0.01,-0.32 0.02,-0.49l0.01 -0.95c0.01,-0.14 0.01,-0.32 0.02,-0.46 0.88,1.59 2.7,2.77 4.53,2.85 4.44,0.2 6.47,-4.05 6.64,-7.89 0.18,-4.01 -1.9,-10.21 -6.69,-10.43z"/>
   <path class="fil1" d="M113.79 15.47c-0.15,2.32 -0.36,4.13 -0.63,5.55 -0.39,1.98 -1.06,5.86 -3.25,6.03 -0.11,0.01 -0.23,0.01 -0.34,-0 -1.34,-0.12 -2.44,-1.89 -3.24,-3.85 0.18,1.01 0.24,2.05 0.2,3.05 -0.19,4.12 -2.29,8.44 -7.01,8.22 -1.62,-0.08 -3.14,-0.89 -4.17,-2.13 -0.04,0.92 0.09,1.77 -1.14,1.71l-3.59 -0.16c-1.6,-0.07 -1.89,-0.62 -2.76,-1.67 -0.02,-0.22 -0.03,-0.45 -0.03,-0.69 0.33,0.16 0.81,0.18 1.16,0.2 1.2,0.05 2.4,0.11 3.59,0.16 0.35,-0.02 0.71,-0.07 0.73,-0.53 0.01,-0.18 0.01,-0.32 0.02,-0.49l0.01 -0.95c0.01,-0.14 0.01,-0.32 0.02,-0.46 0.88,1.59 2.7,2.77 4.53,2.85 4.44,0.2 6.47,-4.05 6.64,-7.89 0.18,-4.01 -1.9,-10.21 -6.69,-10.43 -2.64,-0.12 -3.6,2.34 -4.29,4.43 0.1,-2.18 0.24,-4.54 1.04,-6.62 0.24,-0.66 0.54,-1.03 0.99,-1.54 0.04,-0.07 0.11,-0.17 0.12,-0.24 0.07,-1.55 -3.87,-3.32 -5.18,-3.38 -2.04,-0.09 -2.38,6.53 -2.44,7.9 -0.06,1.37 -0.12,2.71 -0.19,4.09l-0.17 4.66c-0.04,-0.11 -0.09,-0.22 -0.14,-0.32 -0.06,-0.12 -0.12,-0.23 -0.19,-0.35l0.15 -4.01c0.06,-1.38 0.12,-2.71 0.19,-4.09 0.07,-1.62 0.38,-8.35 2.81,-8.24 1.37,0.06 3.99,1.42 4.9,2.41l1.68 1.84c0.3,0.33 0.6,0.8 0.58,1.3 -0.02,0.42 -0.91,1.3 -1.11,1.92l-0.04 0.03c0.43,-0.12 0.85,-0.17 1.31,-0.15 1.65,0.08 3.17,0.99 4.28,2.21l1.64 1.84c0.56,0.63 1.03,1.32 1.41,2.06 -0.19,-0.73 -0.32,-1.33 -0.38,-1.65 -0.02,-0.12 -0.06,-0.33 -0.12,-0.62 -0.62,-3.06 -2.71,-12.61 -3.62,-14.69 -0.12,-0.27 -0.11,-0.54 0.03,-0.79 0.27,-0.47 1,-0.79 2.23,-1l5.85 -0.97c0.22,-0.04 0.41,-0.05 0.58,-0.03 0.47,0.05 0.82,0.3 1.06,0.76 1.84,3.55 3.09,12.86 2.97,14.7z"/>
   <path class="fil1" d="M61.93 26.14c-0.33,-0.7 -1.16,-1.13 -1.68,-1.67 0.67,0.19 1.35,0.42 2.02,0.64 -0.07,0.36 -0.19,0.71 -0.34,1.03zm10.88 -2.13c-0.01,-0.13 -0.03,-0.25 -0.06,-0.36 -0.14,-0.66 -0.47,-1.14 -1.06,-1.74l-1.8 -1.79c-2,-1.98 -6.71,-3.14 -9.4,-4.18 0.31,-0.71 0.81,-1.31 1.32,-1.91 0.16,0.31 0.44,0.59 0.68,0.82 2.2,2.14 4.04,3.97 7.31,3.93 0.2,-0 0.48,-0.02 0.76,-0.07 0.14,-0.03 0.28,-0.07 0.4,-0.12 0.3,-0.12 0.53,-0.33 0.52,-0.66l-0 -0.02c-0,-0.1 -0.04,-0.22 -0.1,-0.37 -0.34,-0.89 -1.44,-2.66 -1.46,-4.4 -0.02,-1.5 1.55,-1.76 1.54,-2.62 -0.01,-0.59 -0.45,-1.14 -0.85,-1.53l-1.96 -1.95c-1.04,-1.05 -4.25,-2.66 -5.75,-2.64 -0.91,0.01 -1.41,0.57 -1.64,1.4 -1.31,-0.69 -3.09,-1.26 -4.59,-1.24 -4.02,0.05 -7.03,8.34 -6.99,11.57 0.03,2.48 2.1,3.76 3.74,5.36 -0.28,-0.08 -0.55,-0.11 -0.83,-0.11 -1.7,0.02 -1.83,1.8 -1.81,3.1 0.03,2.76 0.41,4.02 2.44,6l1.32 1.29c2.6,2.53 6.13,4.06 9.8,4.01 1.22,-0.02 2.09,-0.15 3.1,-0.87 1.08,-0.8 2.18,-2.12 3.1,-3.64 0.07,-0.12 0.15,-0.24 0.21,-0.36 -0.39,-0.76 -0.61,-1.54 -0.56,-2.27 0.13,-1.89 1.1,-3.66 2.6,-4.62z"/>
   <path class="fil1" d="M78.61 30.21c0.21,-0.41 0.43,-0.64 0.84,-0.9l-0 0.04c-0.17,0.38 -0.44,0.75 -0.84,0.86zm0.44 -3.29c-1.26,-0.09 -2.41,0.57 -2.5,1.95 -0.04,0.63 0.8,1.75 1.43,1.8 1.83,0.13 2.16,-2.08 2.29,-3.45 -0.38,-0.17 -0.79,-0.27 -1.22,-0.3zm-0.44 3.29c0.21,-0.41 0.43,-0.64 0.84,-0.9l-0 0.04c-0.17,0.38 -0.44,0.75 -0.84,0.86zm0.44 -3.29c-1.26,-0.09 -2.41,0.57 -2.5,1.95 -0.04,0.63 0.8,1.75 1.43,1.8 1.83,0.13 2.16,-2.08 2.29,-3.45 -0.38,-0.17 -0.79,-0.27 -1.22,-0.3zm0.39 2.43c-0.17,0.38 -0.44,0.75 -0.84,0.86 0.21,-0.41 0.43,-0.64 0.84,-0.9l-0 0.04zm-2.9 -0.49c-0.04,0.63 0.8,1.75 1.43,1.8 1.83,0.13 2.16,-2.08 2.29,-3.45 -0.38,-0.17 -0.79,-0.27 -1.22,-0.3 -1.26,-0.09 -2.41,0.57 -2.5,1.95zm1.92 -5.24c0.43,-0.08 0.89,-0.12 1.31,-0.09 0.14,0.01 0.31,0.06 0.45,0.1l-0.06 0.88c-0.58,-0.32 -1.12,-0.61 -1.7,-0.9zm2.61 11.56c-1.16,-0.08 -1.07,-2.41 -1.05,-3.22 -0.79,1.22 -2.57,2.93 -4.16,2.82 -1.86,-0.13 -4.1,-1.91 -5.12,-3.89 -0.39,-0.76 -0.61,-1.54 -0.56,-2.27 0.13,-1.89 1.1,-3.66 2.6,-4.62 0.84,-0.54 1.85,-0.82 2.97,-0.75 1.58,0.11 3.39,1.05 4.71,1.89l0.11 -1.51c0.08,-1.12 -1.33,-2.22 -2.38,-2.29 -0.95,-0.07 -2.02,0.04 -2.7,0.73 -0.38,0.4 -0.36,1.07 -0.96,1.03 -0.81,-0.06 -3.72,-3.34 -3.67,-4.14 0.01,-0.13 0.04,-0.25 0.08,-0.37 0.3,-0.12 0.53,-0.33 0.52,-0.66l-0 -0.02c1.57,-1.29 5.73,-1.4 7.06,-1.3 3.27,0.23 7.89,3.34 7.64,7 -0.03,0.39 -0.06,0.78 -0.08,1.16l-0.13 2.36c-0.03,0.39 -0.05,0.77 -0.08,1.16 -0.09,1.23 -0.17,2.89 0.64,3.9 0.06,0.07 0.09,0.15 0.09,0.25 -0.11,1.51 -4.26,2.85 -5.53,2.76zm6.77 -2.84c-0,-0.04 -0.01,-0.09 -0.01,-0.13 -0.02,-0.22 -0.03,-0.45 -0.03,-0.69 -0.06,-0.03 -0.12,-0.07 -0.17,-0.11 -0.21,-0.12 -0.27,-0.3 -0.26,-0.51 0.06,-1.38 0.12,-2.75 0.19,-4.09l0.13 -3.54c-0.04,-0.11 -0.09,-0.22 -0.14,-0.32 -0.06,-0.12 -0.12,-0.23 -0.19,-0.35 -0.66,-1.16 -1.67,-2.13 -2.54,-3.13 -1.57,-1.77 -3.88,-3.06 -6.28,-3.24 -1.45,-0.1 -5.42,-0.01 -7.18,1.28 -0.43,0.32 -0.72,0.7 -0.82,1.18 -0.02,0.07 -0.03,0.15 -0.03,0.23 -0.07,0.99 2.56,3.75 3.06,4.28 -0.3,0.12 -0.57,0.27 -0.84,0.43 -1.72,1.06 -2.75,2.89 -2.9,4.96 -0.07,0.96 0.23,1.84 0.69,2.66 0.68,1.2 1.74,2.25 2.57,3.19 1.05,1.2 2.69,2.42 4.35,2.53 1.44,0.1 2.18,-0.8 3.29,-1.5l0.31 0.06 0.36 0.41c0.13,0.65 0.47,1.38 1.24,1.43 1.55,0.11 5.78,-1.29 5.91,-3.08 0.02,-0.32 -0.62,-1.21 -0.71,-1.96zm-9.25 -2.14c0.21,-0.41 0.43,-0.64 0.84,-0.9l-0 0.04c-0.17,0.38 -0.44,0.75 -0.84,0.86zm0.44 -3.29c-1.26,-0.09 -2.41,0.57 -2.5,1.95 -0.04,0.63 0.8,1.75 1.43,1.8 1.83,0.13 2.16,-2.08 2.29,-3.45 -0.38,-0.17 -0.79,-0.27 -1.22,-0.3zm-0.44 3.29c0.21,-0.41 0.43,-0.64 0.84,-0.9l-0 0.04c-0.17,0.38 -0.44,0.75 -0.84,0.86zm0.44 -3.29c-1.26,-0.09 -2.41,0.57 -2.5,1.95 -0.04,0.63 0.8,1.75 1.43,1.8 1.83,0.13 2.16,-2.08 2.29,-3.45 -0.38,-0.17 -0.79,-0.27 -1.22,-0.3z"/>
   <path class="fil0" d="M69.63 20.4c-2.6,-2.61 -8.72,-3.2 -11.47,-5.06 -0.2,-0.12 -0.28,-0.31 -0.28,-0.55 -0.02,-1.34 2.28,-3.74 3.29,-4.58 -0.03,3.83 2.92,6.27 6.67,6.22 0.39,-0 1.26,0.02 1.26,-0.53 -0,-0.24 -1.53,-2.78 -1.56,-4.67 -0.02,-1.7 1.55,-2.03 1.54,-2.62 -0.02,-1.7 -4.67,-3.84 -6.16,-3.83 -1.02,0.01 -1.17,0.84 -1.44,1.64 -1.35,-0.73 -3.25,-1.5 -4.79,-1.48 -3.67,0.05 -6.64,8.06 -6.6,11.17 0.07,5.64 12.27,6.15 12.57,7.92 0.04,0.16 0.04,0.35 0.05,0.51 0.02,1.38 -1.17,3.72 -2.75,3.74 -0.67,0.01 -0.76,-0.58 -0.76,-1.17 -0.01,-0.87 0.45,-1.74 0.44,-2.53 -0.02,-1.58 -5.76,-2.84 -7.02,-2.83 -1.42,0.02 -1.44,1.64 -1.42,2.7 0.01,0.79 0.1,1.62 0.23,2.4 0.65,4.13 7.31,6.65 10.97,6.6 1.18,-0.02 1.85,-0.1 2.87,-0.83 2.5,-1.81 5.27,-6.97 5.23,-10.09 -0.01,-0.87 -0.26,-1.53 -0.86,-2.16z"/>
   <path class="fil1" d="M71.49 17.91c-0.24,0.2 -0.42,0.42 -0.52,0.68 0.3,-0.12 0.53,-0.33 0.52,-0.66l-0 -0.02z"/>
   <path class="fil0" d="M77.98 30.66c-0.63,-0.05 -1.47,-1.16 -1.43,-1.8 0.1,-1.37 1.24,-2.03 2.5,-1.95 0.42,0.03 0.84,0.13 1.22,0.3 -0.13,1.37 -0.46,3.57 -2.29,3.45zm8.55 1.52c-0.81,-1.01 -0.73,-2.67 -0.64,-3.9 0.03,-0.39 0.05,-0.77 0.08,-1.16l0.13 -2.36c0.03,-0.39 0.05,-0.78 0.08,-1.16 0.26,-3.66 -4.37,-6.77 -7.64,-7 -1.32,-0.09 -5.49,0.01 -7.06,1.3l0 0.02c0,0.33 -0.22,0.54 -0.52,0.66 -0.05,0.12 -0.07,0.24 -0.08,0.37 -0.06,0.81 2.86,4.09 3.67,4.14 0.6,0.04 0.57,-0.63 0.96,-1.03 0.69,-0.69 1.75,-0.8 2.7,-0.73 1.05,0.07 2.46,1.16 2.38,2.29l-0.11 1.51c-1.32,-0.84 -3.13,-1.77 -4.71,-1.89 -1.12,-0.08 -2.13,0.21 -2.97,0.75 -1.5,0.96 -2.47,2.73 -2.6,4.62 -0.05,0.73 0.16,1.51 0.56,2.27 1.03,1.98 3.27,3.76 5.12,3.89 1.58,0.11 3.36,-1.6 4.16,-2.82 -0.02,0.81 -0.12,3.14 1.05,3.22 1.27,0.09 5.42,-1.24 5.53,-2.76 0.01,-0.1 -0.02,-0.18 -0.09,-0.25z"/>
   <path class="fil0" d="M99.03 20.82c-0.14,3.17 -1.68,7.37 -5.42,7.48 0.88,-2.22 1.29,-10.6 4.18,-10.47 1.23,0.06 1.28,2.14 1.24,2.99zm-1.21 -6.83c-2.64,-0.12 -3.6,2.34 -4.29,4.43 0.1,-2.18 0.24,-4.54 1.04,-6.62 0.24,-0.66 0.54,-1.03 0.99,-1.54 0.04,-0.07 0.11,-0.17 0.12,-0.24 0.07,-1.55 -3.87,-3.32 -5.18,-3.38 -2.04,-0.09 -2.38,6.53 -2.44,7.9 -0.06,1.37 -0.12,2.71 -0.19,4.09l-0.3 8.21c-0.06,1.34 -0.12,2.71 -0.19,4.09 -0.01,0.21 0.05,0.39 0.26,0.51 0.05,0.04 0.1,0.08 0.17,0.11 0.33,0.16 0.81,0.18 1.16,0.2 1.2,0.05 2.4,0.11 3.59,0.16 0.35,-0.02 0.71,-0.07 0.73,-0.53 0.01,-0.18 0.01,-0.32 0.02,-0.49l0.01 -0.95c0.01,-0.14 0.01,-0.32 0.02,-0.46 0.88,1.59 2.7,2.77 4.53,2.85 4.44,0.2 6.47,-4.05 6.64,-7.89 0.18,-4.01 -1.9,-10.21 -6.69,-10.43z"/>
   <path class="fil2" d="M108.02 28.46c-1.12,2.33 0.1,5.11 2.72,5.84 -0.5,-0.34 -0.97,-0.71 -1.38,-1.12 -1.26,-1.26 -1.57,-3.04 -1.34,-4.72z"/>
   <path class="fil1" d="M106.46 28.51c0,0 -0.24,1.01 0.03,1.85 0.26,-3.17 2.55,-4.05 2.55,-4.05 0.23,1.89 0.38,1.82 0.38,1.82 0,0 0.05,-0.21 0.78,-0.83 1.46,0.79 1.82,2.28 1.82,2.28 0.04,-0.74 -0.29,-1.33 -0.29,-1.33 1.05,0.47 1.96,1.23 1.59,2.89 -0.64,2.88 0.95,3.86 0.95,3.86 -0.36,-0.08 -1.77,-0.58 -2.1,-1.82 0.46,1.71 1.77,2.18 3.59,2.4 -2.76,1.31 -12.42,0.17 -9.29,-7.08zm11.84 7.16c-0.12,-0.62 -0.63,-1.1 -1.28,-1.23 -0.05,-0.01 -0.1,-0.02 -0.15,-0.02 -0.13,-0.01 -0.26,-0.03 -0.37,-0.05 -0.11,-0.1 -0.24,-0.19 -0.39,-0.27 -0.13,-0.13 -0.62,-0.72 -0.3,-2.21 0.25,-1.18 0.26,-3.33 -2.55,-4.53 -0.11,-0.04 -0.21,-0.08 -0.32,-0.1 -0.14,-0.13 -0.3,-0.25 -0.47,-0.37 1.88,-1.16 2.42,-3.96 2.65,-5.16 0.27,-1.41 0.47,-3.2 0.63,-5.49 0.13,-1.96 0.36,-8.66 -1.43,-12.38 -0.54,-1.12 -1.24,-2.01 -2.72,-3.04 -0.22,-0.15 -1.05,-0.74 -1.36,-0.68l-5.3 0.96c-1.53,0.28 -2.45,0.79 -2.9,1.6 -0.31,0.57 -0.35,1.22 -0.1,1.83 0.72,1.77 2.52,10.64 3.12,13.87 0.05,0.26 0.08,0.45 0.1,0.56 0.12,0.74 0.55,2.63 1.33,4.44 0.5,1.16 1.04,2.07 1.63,2.72 -0.46,0.36 -0.94,0.85 -1.34,1.47 -0.42,0.14 -0.77,0.44 -0.94,0.85 -0.94,2.2 -0.95,4.15 -0,5.8 0.97,1.69 2.93,2.91 5.51,3.43 2.26,0.45 4.66,0.3 6.11,-0.38 0.64,-0.3 0.98,-0.96 0.85,-1.62z"/>
   <path class="fil3" d="M17.47 26.63l-3.09 7.46 -7.19 0 -1.16 -15.27c3.9,0.55 8.48,4.13 11.44,7.81z"/>
   <path class="fil0" d="M105.21 4c0.31,0.72 2.97,-1.44 5.07,0.19 0.04,0.08 0.1,0.17 0.18,0.25 0.06,0.06 0.12,0.09 0.2,0.09 0.36,0.33 1.2,0.48 0.94,-0.44 -0.23,-0.82 -0.6,-1.95 -1.02,-2.75 -0.23,-0.44 -0.55,-0.67 -0.99,-0.71 -0.08,-0.01 -0.17,-0.01 -0.27,-0 -0.14,-0.01 -0.29,-0 -0.46,0.03l-0.01 0 -0.02 0.04 -0.69 0.11 -0.01 -0.03 -0.27 0.05 0.04 0.03 -1.04 0.17c0.01,-0.01 0.03,-0.03 0.04,-0.04l-0.6 0.1 0 0.03 -0.73 0.12c-0.02,-0.02 -0.06,-0.03 -0.09,-0.03 -0.08,0.01 -0.16,0.02 -0.24,0.03 -0.1,0.03 -0.17,0.05 -0.21,0.09l-0.73 0.12c0,0 0.68,1.98 0.93,2.56z"/>
   <path class="fil0" d="M109.22 16.9c-1.55,0.96 -3.78,-1.42 -4.63,-2.44 -0.09,-0.11 -0.26,-0.02 -0.23,0.11 0.12,0.55 0.3,1.43 0.46,2.16 -0.02,0.01 -0.04,0.02 -0.06,0.03 0.02,0.08 0.03,0.15 0.05,0.23l0.02 -0.01 0.04 -0.01c0.1,0.49 0.18,0.88 0.21,1.01 0.01,0.05 0.02,0.1 0.03,0.15 -0.01,-0.02 -0.01,-0.03 -0.02,-0.04 -0.06,-0.16 -0.12,-0.32 -0.17,-0.48 0,0.02 0.01,0.03 0.01,0.04 0.03,0.19 0.09,0.44 0.16,0.74 0.03,0 0.05,0 0.08,-0.01 0.05,0.21 0.12,0.45 0.19,0.72l-0 0c-0.03,0.01 -0.05,0.02 -0.06,0.04 0.02,0.06 0.04,0.13 0.06,0.19l0 0c0.02,0 0.03,0 0.05,0l0.02 -0.01c0.06,0.21 0.13,0.43 0.21,0.66 -0.01,0.05 -0.02,0.09 -0.03,0.14 0.05,0.16 0.11,0.31 0.17,0.47 0.02,-0 0.04,-0.01 0.07,-0.02 0.03,0.08 0.06,0.16 0.09,0.24 -0.02,0.01 -0.04,0.01 -0.06,0.03 0.08,0.22 0.17,0.43 0.27,0.65 0.02,0 0.04,-0 0.06,-0 0.88,2.16 2.2,4.38 3.73,4.34 1.63,-0.05 2.65,-2.56 3.07,-6.91 0.09,-0.95 -2.22,-2.96 -3.78,-2z"/>
   <path class="fil0" d="M110.06 14.76c0.07,-0.03 0.08,-0.02 0.09,0.05 0.06,0.33 0.11,0.66 0.17,0.99 0.01,0.05 0.01,0.1 0.02,0.14 0.02,0.09 0.06,0.12 0.15,0.12 0.07,-0.01 0.13,-0.02 0.2,-0.04 0.22,-0.08 0.43,-0.16 0.65,-0.24 0.01,-0.01 0.03,-0.01 0.05,-0.02 0.01,0.03 0.02,0.06 0.02,0.09 0.02,0.24 0.04,0.48 0.06,0.73 0.01,0.09 0,0.09 0.09,0.11l0.02 0c0.1,0.02 0.13,-0.01 0.14,-0.11 0.01,-0.13 0.03,-0.26 0.05,-0.4 0.02,-0.19 0.04,-0.37 0.06,-0.56 0.02,-0.18 0.03,-0.35 0.05,-0.53l0 -0.01c-0.01,-0.03 -0.01,-0.08 -0.03,-0.1 -0.03,-0.03 -0.08,-0.01 -0.11,0.01 -0.14,0.1 -0.28,0.19 -0.41,0.3 -0.15,0.11 -0.3,0.22 -0.47,0.29 -0.06,0.02 -0.07,0.02 -0.08,-0.04 -0.02,-0.12 -0.03,-0.24 -0.04,-0.36 -0.03,-0.33 -0.05,-0.65 -0.07,-0.98 -0.01,-0.18 -0.06,-0.21 -0.23,-0.16 -0.31,0.09 -0.6,0.22 -0.89,0.35 -0.07,0.03 -0.14,0.06 -0.21,0.09 -0.06,0.02 -0.08,0.01 -0.1,-0.04 -0.03,-0.11 -0.06,-0.23 -0.08,-0.34 -0.03,-0.22 -0.05,-0.45 -0.08,-0.67 -0,-0.03 -0.01,-0.07 -0.02,-0.1 -0.02,-0.04 -0.05,-0.05 -0.09,-0.03 -0.02,0.01 -0.03,0.03 -0.05,0.04 -0.25,0.25 -0.5,0.5 -0.75,0.75 -0.12,0.12 -0.23,0.24 -0.35,0.37 -0.06,0.07 -0.06,0.11 0.01,0.16 0.13,0.09 0.27,0.18 0.4,0.27 0.04,0.03 0.07,0.01 0.11,-0.02 0.12,-0.1 0.22,-0.21 0.3,-0.35 0.05,-0.07 0.09,-0.15 0.15,-0.23 0.04,0.12 0.07,0.22 0.11,0.33 0.05,0.13 0.1,0.27 0.15,0.4 0.06,0.14 0.1,0.15 0.24,0.09 0.25,-0.11 0.5,-0.23 0.75,-0.34l0.03 -0.01z"/>
   <path class="fil0" d="M111.34 9.73c-0.13,0.08 -0.25,0.17 -0.36,0.27 -0.13,0.11 -0.17,0.25 -0.12,0.42 0.15,0.49 0.32,0.97 0.55,1.44 0.08,0.16 0.19,0.3 0.34,0.41 0.09,0.06 0.17,0.09 0.27,0.05 0.22,-0.07 0.44,-0.14 0.66,-0.22 -0.03,-0.27 -0.07,-0.55 -0.11,-0.84 -0.13,0.07 -0.27,0.13 -0.4,0.2 -0.02,0.01 -0.06,0.03 -0.08,0.01 -0.02,-0.01 -0.04,-0.04 -0.05,-0.07 -0,-0.01 0.03,-0.03 0.05,-0.05 0.15,-0.09 0.3,-0.17 0.46,-0.26 -0.03,-0.25 -0.07,-0.51 -0.11,-0.78 -0.19,0.1 -0.37,0.23 -0.54,0.36 -0.06,0.04 -0.11,0.08 -0.19,0.14 -0.05,-0.14 -0.09,-0.26 -0.13,-0.39 -0.01,-0.04 0.02,-0.06 0.05,-0.08 0.19,-0.1 0.37,-0.21 0.56,-0.31 0.07,-0.04 0.13,-0.07 0.2,-0.11 -0.03,-0.22 -0.07,-0.43 -0.1,-0.66 -0.09,0.04 -0.18,0.09 -0.27,0.13 -0.22,0.12 -0.44,0.22 -0.66,0.35z"/>
   <path class="fil0" d="M105.44 13.42c-0.05,-0.61 -0.22,-1.26 -0.93,-1.45 -0.27,-0.08 -0.55,-0.14 -0.84,-0.2 0.19,0.84 0.37,1.65 0.53,2.39 0.3,-0.11 0.6,-0.19 0.89,-0.3 0.24,-0.09 0.37,-0.19 0.35,-0.43z"/>
   <path class="fil0" d="M104.51 10.09c0.12,-0.03 0.18,-0.09 0.22,-0.19 0.06,-0.16 0.07,-0.31 -0.03,-0.45 -0.05,-0.07 -0.11,-0.11 -0.2,-0.12 -0.3,-0.05 -0.61,-0.09 -0.91,-0.14 -0.06,-0.01 -0.12,-0.02 -0.18,-0.04 -0.04,-0.01 -0.05,-0.03 -0.04,-0.07 0.02,-0.09 0.04,-0.19 0.06,-0.28 0.02,-0.13 -0.01,-0.23 -0.1,-0.33 -0.14,-0.14 -0.27,-0.29 -0.41,-0.44 -0.07,-0.07 -0.09,-0.14 -0.06,-0.24 0.17,-0.53 0.38,-1.03 0.63,-1.52 0.03,-0.06 0.06,-0.12 0.08,-0.18 0.03,-0.08 0.02,-0.15 -0.05,-0.19 -0.08,-0.06 -0.16,-0.13 -0.25,-0.18 -0.12,-0.08 -0.23,-0.05 -0.31,0.06 -0.03,0.04 -0.06,0.09 -0.08,0.14 -0.13,0.28 -0.26,0.55 -0.39,0.83l0 0c0.25,1 0.52,2.09 0.77,3.2l0.01 0c0.25,0.05 0.5,0.09 0.75,0.14 0.17,0.03 0.34,0.04 0.5,0.01z"/>
   <path class="fil0" d="M104.91 5.55c-0.02,-0 -0.03,-0.01 -0.05,-0.02 -0.2,-0.09 -0.36,-0.03 -0.49,0.12 -0.08,0.09 -0.15,0.19 -0.2,0.29 -0.27,0.55 -0.46,1.12 -0.56,1.72 -0.04,0.24 -0.05,0.48 0.07,0.7 0.05,0.09 0.11,0.18 0.18,0.25 0.16,0.16 0.39,0.19 0.6,0.1 0.15,-0.07 0.27,-0.17 0.38,-0.28 0.23,-0.25 0.41,-0.54 0.5,-0.87 0.06,-0.23 0.12,-0.45 0.17,-0.68 0.05,-0.23 0,-0.46 -0.05,-0.69l0.02 -0.01c-0.06,-0.13 -0.12,-0.26 -0.19,-0.37 -0.08,-0.14 -0.21,-0.23 -0.37,-0.27z"/>
   <path class="fil0" d="M108.57 8.62c-0.08,0.03 -0.2,0.09 -0.31,0.15 -0.76,0.42 -1.52,0.85 -2.28,1.27 -0.11,0.06 -0.21,0.13 -0.31,0.2 -0.04,0.03 -0.09,0.07 -0.12,0.11 -0.1,0.11 -0.08,0.24 0.06,0.29 0.13,0.05 0.26,0.1 0.39,0.12 0.43,0.08 0.86,0.16 1.29,0.22 0.13,0.02 0.27,0.01 0.41,0.01 0.11,-0 0.19,-0.06 0.25,-0.15 0.31,-0.52 0.62,-1.03 0.89,-1.58 0.07,-0.15 0.11,-0.3 0.09,-0.46 -0.02,-0.18 -0.12,-0.25 -0.36,-0.18z"/>
   <path class="fil0" d="M105.36 10.01c0.13,-0.05 0.26,-0.12 0.39,-0.19 0.86,-0.46 1.71,-0.93 2.57,-1.39 0.07,-0.04 0.15,-0.07 0.22,-0.11 0.06,-0.03 0.1,-0.13 0.09,-0.21 -0.01,-0.06 -0.06,-0.11 -0.14,-0.12 -0.48,-0.09 -0.96,-0.17 -1.43,-0.26 -0.26,-0.04 -0.51,-0.08 -0.78,-0.05 -0.05,0 -0.09,0.01 -0.14,0.02 -0.15,0.04 -0.27,0.12 -0.36,0.25 -0.09,0.14 -0.17,0.29 -0.24,0.45 -0.17,0.36 -0.3,0.73 -0.41,1.11 -0.03,0.09 -0.05,0.19 -0.05,0.29 -0.01,0.17 0.11,0.26 0.27,0.2z"/>
   <path class="fil0" d="M102.4 4.07c-0.04,-0.11 -0.09,-0.23 -0.14,-0.34 -0.06,-0.12 -0.11,-0.15 -0.24,-0.12 -0.09,0.01 -0.17,0.03 -0.26,0.06 -0.04,0.01 -0.06,0 -0.07,-0.04 -0.03,-0.1 -0.06,-0.2 -0.09,-0.29 -0.03,-0.08 -0.07,-0.12 -0.13,-0.13 0.12,0.32 0.25,0.73 0.39,1.21 0.01,-0.01 0.02,-0.02 0.04,-0.02 0.13,-0.03 0.25,-0.06 0.38,-0.09 0.14,-0.03 0.18,-0.1 0.13,-0.23z"/>
   <path class="fil0" d="M102.29 5.55c0.08,-0.03 0.16,-0.05 0.24,-0.08 0.08,-0.04 0.12,-0.1 0.1,-0.19 -0.02,-0.14 -0.04,-0.27 -0.07,-0.41 -0.03,-0.13 -0.1,-0.17 -0.24,-0.15 -0.11,0.02 -0.23,0.03 -0.34,0.06l-0.01 0c0.11,0.38 0.22,0.8 0.33,1.24 0,-0.02 0,-0.03 0,-0.05 -0.01,-0.11 -0.04,-0.22 -0.06,-0.33 -0.02,-0.07 -0.02,-0.07 0.05,-0.09z"/>
   <path class="fil0" d="M105.81 5.2c-0.1,0.1 -0.15,0.22 -0.13,0.36 0.06,0.35 0.15,0.7 0.31,1.03 0.19,0.38 0.45,0.51 0.89,0.43 0.22,-0.04 0.43,-0.1 0.65,-0.15 0.26,-0.1 0.52,-0.19 0.78,-0.3 0.29,-0.12 0.45,-0.34 0.54,-0.63 0.09,-0.31 0.08,-0.63 0.05,-0.96 -0,-0.06 -0.01,-0.12 -0.03,-0.18 -0.03,-0.09 -0.09,-0.1 -0.18,-0.08 -0.14,0.04 -0.19,0.14 -0.22,0.27 -0.04,0.19 -0.09,0.37 -0.14,0.56 -0.05,0.21 -0.19,0.36 -0.39,0.44 -0.33,0.14 -0.67,0.24 -1.03,0.3 -0.02,0 -0.05,0.01 -0.07,0.01 -0.19,0.03 -0.24,0.01 -0.34,-0.15 -0.15,-0.25 -0.2,-0.53 -0.24,-0.81 -0.01,-0.07 -0.01,-0.15 -0.03,-0.22 -0.03,-0.14 -0.14,-0.18 -0.26,-0.09 -0.06,0.05 -0.12,0.1 -0.18,0.15z"/>
   <path class="fil0" d="M111.96 16.97c-0.04,0.1 -0.01,0.14 0.1,0.14 0.23,-0.01 0.46,-0.01 0.69,-0.02 0.05,-0.55 0.1,-1.13 0.14,-1.73 -0.33,0.5 -0.64,1.02 -0.9,1.56 -0.01,0.02 -0.01,0.03 -0.02,0.05z"/>
   <path class="fil0" d="M103.67 3.79l-0.03 0.04c-0.09,0.01 -0.19,0.03 -0.28,0.03 -0.02,0 -0.05,-0.04 -0.07,-0.07l0.02 -0.05c0.09,-0.05 0.19,-0.09 0.3,-0.14 0.02,0.07 0.04,0.13 0.05,0.19zm0.22 -0.3c0.18,-0.07 0.18,-0.07 0.25,0.11l0 0.01c0.05,0.12 0.05,0.14 -0.08,0.18 -0.13,0.05 -0.14,0.04 -0.18,-0.09l-0.01 -0.04 -0 0c-0.01,-0.03 -0.02,-0.06 -0.03,-0.09 -0.02,-0.04 -0,-0.06 0.04,-0.08zm-0.45 -1.28c-0.03,-0.05 -0.07,-0.08 -0.13,-0.06 -0.06,0.01 -0.08,0.06 -0.08,0.11 0,0.03 0.01,0.06 0.02,0.09 0.05,0.18 0.1,0.37 0.16,0.55 0.02,0.05 0.01,0.08 -0.05,0.09 -0.09,0.01 -0.19,0.03 -0.28,0.05 -0.06,0.01 -0.08,-0.03 -0.1,-0.07 -0.05,-0.14 -0.09,-0.28 -0.14,-0.42 -0.01,-0.03 -0.02,-0.07 -0.03,-0.11 -0.03,-0.06 -0.08,-0.08 -0.14,-0.06 -0.06,0.02 -0.09,0.07 -0.07,0.12 0.04,0.22 0.1,0.44 0.22,0.63 0.08,0.13 0.21,0.17 0.36,0.12 0.09,-0.03 0.19,-0.04 0.28,-0.06 0.02,-0 0.04,0.01 0.05,0.03 0.06,0.12 0.06,0.13 -0.07,0.19 -0.08,0.03 -0.17,0.07 -0.25,0.11 -0.14,0.07 -0.18,0.18 -0.11,0.33 0.01,0.03 0.03,0.06 0.05,0.09 0.05,0.1 0.13,0.14 0.24,0.13 0.1,-0.01 0.19,-0.02 0.29,-0.03 0.08,-0.01 0.11,0.01 0.13,0.07 0.01,0.04 0,0.06 -0.03,0.07 -0.09,0.05 -0.18,0.1 -0.26,0.15 -0.18,0.12 -0.27,0.29 -0.22,0.5 0.03,0.14 0.07,0.29 0.11,0.43 0.03,0.08 0.09,0.12 0.16,0.1 0.06,-0.02 0.09,-0.08 0.06,-0.17 -0.04,-0.14 -0.07,-0.28 -0.11,-0.42 -0.02,-0.1 0.01,-0.18 0.09,-0.23 0.08,-0.06 0.17,-0.11 0.26,-0.16 0.01,0.04 0.02,0.06 0.03,0.09 0.04,0.14 0.07,0.28 0.11,0.42 0.02,0.1 0.08,0.14 0.15,0.12 0.07,-0.02 0.1,-0.08 0.08,-0.18 -0.01,-0.04 -0.02,-0.08 -0.03,-0.12 -0.03,-0.12 -0.06,-0.23 -0.09,-0.35 -0.02,-0.05 -0.01,-0.08 0.05,-0.09 0.12,-0.03 0.23,-0.06 0.34,-0.08 0.06,-0.01 0.12,0.01 0.14,0.07 0.06,0.14 0.13,0.28 0.18,0.42 0.03,0.09 0.06,0.19 0.08,0.28 0.01,0.03 0.01,0.05 0.03,0.08 0.03,0.05 0.07,0.07 0.13,0.06 0.06,-0.02 0.08,-0.06 0.08,-0.12l-0 -0.03c-0.06,-0.25 -0.13,-0.49 -0.25,-0.72 -0.03,-0.05 -0.06,-0.1 -0.09,-0.15 -0.07,-0.09 -0.16,-0.13 -0.27,-0.12 -0.08,0.01 -0.16,0.02 -0.24,0.04 -0.07,0.01 -0.14,0.04 -0.21,0.05 -0.02,0.01 -0.04,-0.01 -0.06,-0.01 0.02,-0.01 0.03,-0.03 0.05,-0.03 0.06,-0.02 0.13,-0.04 0.19,-0.07 0.18,-0.09 0.22,-0.18 0.16,-0.37 -0.03,-0.09 -0.08,-0.19 -0.13,-0.27 -0.06,-0.11 -0.16,-0.14 -0.28,-0.1 -0.06,0.02 -0.11,0.04 -0.16,0.06 -0.04,0.01 -0.06,0.01 -0.07,-0.03 -0,-0.02 -0.01,-0.04 -0.02,-0.06 -0.02,-0.04 0,-0.05 0.04,-0.07 0.08,-0.03 0.15,-0.05 0.23,-0.08l0.04 -0.01c0.3,-0.12 0.39,-0.3 0.28,-0.61 -0.03,-0.1 -0.07,-0.2 -0.11,-0.3 -0,-0.02 -0.01,-0.03 -0.02,-0.04 -0.03,-0.05 -0.09,-0.07 -0.14,-0.05 -0.05,0.02 -0.08,0.07 -0.06,0.14 0.03,0.1 0.07,0.19 0.11,0.29 0.09,0.22 0.06,0.28 -0.16,0.36 -0.06,0.02 -0.12,0.04 -0.19,0.07 -0.05,0.02 -0.08,0.01 -0.09,-0.04 -0.05,-0.18 -0.11,-0.37 -0.16,-0.55 -0.01,-0.03 -0.02,-0.06 -0.03,-0.08z"/>
   <path class="fil0" d="M111.09 6.25c-0.26,0.02 -0.52,0.05 -0.77,0.1 -0.41,0.07 -0.8,0.2 -1.16,0.39 -0.02,0.01 -0.04,0.02 -0.06,0.03 -0.27,0.15 -0.4,0.37 -0.35,0.67 0.05,0.27 0.1,0.53 0.12,0.67 0.13,0.45 0.24,0.76 0.39,1.06 0.05,0.09 0.11,0.18 0.17,0.27 0.18,0.24 0.43,0.33 0.73,0.25 0.21,-0.06 0.41,-0.13 0.6,-0.21 0.38,-0.15 0.76,-0.3 1.14,-0.47 0.1,-0.04 0.2,-0.1 0.3,-0.16 -0.01,-0.09 -0.03,-0.17 -0.04,-0.25 -0.01,0.01 -0.02,0.02 -0.04,0.03 -0.1,0.06 -0.2,0.13 -0.31,0.17 -0.42,0.18 -0.84,0.35 -1.26,0.51 -0.17,0.06 -0.35,0.12 -0.53,0.16 -0.13,0.03 -0.26,-0.01 -0.35,-0.12 -0.08,-0.09 -0.15,-0.18 -0.2,-0.28 -0.16,-0.28 -0.25,-0.59 -0.37,-0.99 -0.03,-0.13 -0.08,-0.36 -0.11,-0.6 -0.05,-0.3 0,-0.39 0.28,-0.54 0.23,-0.12 0.47,-0.21 0.72,-0.28 0.36,-0.11 0.72,-0.16 1.1,-0.18 0.08,-0 0.17,0.02 0.24,0.05 0.03,0.01 0.05,0.05 0.07,0.08 0.02,0.04 0.03,0.08 0.05,0.12 0.08,0.16 0.18,0.31 0.24,0.47 0.14,0.33 0.26,0.67 0.39,1 -0.08,-0.44 -0.16,-0.87 -0.26,-1.31 -0.01,-0.03 -0.03,-0.06 -0.04,-0.1 -0.03,-0.08 -0.08,-0.16 -0.12,-0.23 -0.13,-0.22 -0.33,-0.33 -0.58,-0.31z"/>
   <path class="fil0" d="M111.63 13.38c-0.19,-0.06 -0.41,0.03 -0.4,0.24 0,0.24 0.01,0.47 0.06,0.7 0.03,0.08 0.06,0.17 0.11,0.24 0.06,0.1 0.14,0.11 0.28,0.06 0.09,-0.04 0.19,-0.08 0.28,-0.12 0.28,-0.13 0.57,-0.26 0.85,-0.4 0.02,-0.01 0.05,-0.03 0.07,-0.04 -0.01,-0.09 -0.01,-0.18 -0.02,-0.28l-0.03 -0.01c-0.37,-0.12 -0.74,-0.25 -1.1,-0.37 -0.03,-0.01 -0.06,-0.01 -0.09,-0.03z"/>
   <path class="fil0" d="M104.64 11.6c0.14,-0.02 0.21,-0.1 0.22,-0.24 0.01,-0.12 0.03,-0.23 0.04,-0.35 0.02,-0.14 -0.01,-0.16 -0.13,-0.22 -0.27,-0.13 -0.56,-0.2 -0.84,-0.28 -0.19,-0.05 -0.38,-0.1 -0.57,-0.14 0.09,0.37 0.17,0.75 0.25,1.11 0.25,0.06 0.51,0.12 0.77,0.14 0.09,0.01 0.18,-0 0.27,-0.02z"/>
   <path class="fil0" d="M106.72 15.52c-0.04,0.04 -0.05,0.09 -0.02,0.14 0.03,0.05 0.09,0.07 0.15,0.05 0.04,-0.02 0.08,-0.04 0.11,-0.08 0.13,-0.16 0.27,-0.32 0.4,-0.49 0.08,-0.11 0.07,-0.23 -0.04,-0.31 -0.07,-0.05 -0.15,-0.09 -0.24,-0.11 -0.09,-0.03 -0.19,-0.04 -0.29,-0.06 -0.04,-0.01 -0.07,-0.02 -0.12,-0.03 0.03,-0.04 0.04,-0.06 0.06,-0.09 0.11,-0.15 0.22,-0.3 0.32,-0.45 0.12,-0.19 0.07,-0.32 -0.14,-0.41 -0.11,-0.05 -0.23,-0.07 -0.35,-0.1 -0.09,-0.03 -0.19,-0.06 -0.29,-0.09 0.02,-0.03 0.03,-0.05 0.05,-0.07 0.08,-0.1 0.15,-0.19 0.23,-0.29 0.04,-0.05 0.07,-0.1 0.1,-0.16 0.1,-0.19 0.06,-0.3 -0.15,-0.37 -0.14,-0.04 -0.28,-0.08 -0.42,-0.12 -0.03,-0.01 -0.05,-0.02 -0.09,-0.03 0.05,-0.1 0.1,-0.19 0.15,-0.28 0.04,-0.09 0.09,-0.17 0.12,-0.26 0.05,-0.14 0.01,-0.24 -0.13,-0.28 -0.12,-0.04 -0.25,-0.06 -0.38,-0.09 -0.08,-0.02 -0.15,-0.03 -0.23,-0.04 -0.11,-0.02 -0.17,0.01 -0.18,0.09 -0.01,0.07 0.04,0.12 0.14,0.14 0.16,0.03 0.32,0.06 0.48,0.09 0.02,0 0.05,0.01 0.08,0.02 -0.02,0.04 -0.03,0.08 -0.05,0.11 -0.07,0.13 -0.14,0.26 -0.21,0.4 -0.02,0.03 -0.03,0.05 -0.04,0.08 -0.04,0.1 -0,0.19 0.1,0.22 0.09,0.03 0.19,0.05 0.28,0.07 0.1,0.03 0.19,0.06 0.29,0.08 0.01,0 0.02,0.01 0.04,0.02 -0.05,0.07 -0.09,0.14 -0.14,0.21 -0.07,0.09 -0.14,0.17 -0.21,0.26 -0.02,0.03 -0.04,0.05 -0.06,0.08 -0.08,0.13 -0.05,0.25 0.1,0.3 0.17,0.06 0.34,0.11 0.52,0.16 0.05,0.02 0.1,0.03 0.15,0.05 0.04,0.01 0.05,0.04 0.03,0.08 -0.08,0.11 -0.15,0.22 -0.22,0.33 -0.06,0.09 -0.13,0.17 -0.18,0.26 -0.09,0.15 -0.04,0.26 0.13,0.3 0.12,0.03 0.24,0.04 0.37,0.07 0.07,0.02 0.15,0.04 0.22,0.07l0.01 0.02 -0.03 0.04c-0.13,0.15 -0.27,0.31 -0.4,0.47z"/>
   <path class="fil0" d="M109.8 4.5c-0.01,-0.22 -0.08,-0.26 -0.29,-0.2 -0.18,0.05 -0.24,0.12 -0.22,0.31 0.03,0.43 0.1,0.85 0.19,1.27 0.01,0.07 0.04,0.14 0.08,0.2 0.05,0.09 0.15,0.14 0.25,0.12 0.09,-0.01 0.18,-0.04 0.26,-0.08 0.31,-0.14 0.58,-0.35 0.84,-0.56 0.1,-0.08 0.21,-0.16 0.3,-0.25 0.13,-0.11 0.09,-0.3 -0.08,-0.35 -0.09,-0.03 -0.18,-0.03 -0.26,0.03 -0.1,0.07 -0.19,0.15 -0.29,0.21 -0.22,0.15 -0.44,0.3 -0.65,0.45 -0.03,0.02 -0.06,0.03 -0.12,0.05 0,-0.12 0,-0.23 0,-0.33 -0.01,-0.3 -0.01,-0.59 -0.02,-0.89z"/>
   <path class="fil0" d="M105.79 14.71c-0.12,0.08 -0.24,0.15 -0.39,0.18 -0.04,0.01 -0.07,0 -0.09,-0.03l-0.03 -0.04c-0.07,-0.1 -0.14,-0.21 -0.21,-0.31l-0 0c-0.02,-0.04 -0.05,-0.09 -0.07,-0.13 -0.01,-0.03 -0.01,-0.04 0.01,-0.05 0.03,-0.02 0.06,-0.03 0.09,-0.05 0.08,-0.05 0.17,-0.1 0.25,-0.15 0.07,-0.04 0.07,-0.04 0.12,0.02 0.07,0.07 0.13,0.15 0.2,0.23 0.05,0.06 0.1,0.13 0.15,0.2 0.04,0.06 0.03,0.09 -0.02,0.13zm-0.25 -0.64c-0.02,-0.02 -0.04,-0.04 -0.06,-0.05 -0.05,-0.03 -0.1,-0.03 -0.14,-0 -0.11,0.06 -0.21,0.12 -0.32,0.18 -0.03,0.02 -0.06,0.04 -0.1,0.06 -0.08,0.04 -0.09,0.06 -0.05,0.16 0.02,0.05 0.06,0.1 0.08,0.14 0.09,0.13 0.16,0.24 0.24,0.35 0.01,0.02 0.03,0.03 0.04,0.05 0.05,0.05 0.11,0.07 0.18,0.05 0.1,-0.02 0.19,-0.05 0.27,-0.1 0.06,-0.03 0.13,-0.07 0.18,-0.12 0.08,-0.06 0.1,-0.14 0.05,-0.23 -0.03,-0.06 -0.07,-0.12 -0.11,-0.17 -0.09,-0.11 -0.18,-0.22 -0.28,-0.32z"/>
   <path class="fil0" d="M112.5 12.84c-0.12,0.08 -0.13,0.21 -0.03,0.31 0.05,0.05 0.1,0.09 0.16,0.13 0.06,0.05 0.13,0.09 0.19,0.14 -0.01,-0.1 -0.02,-0.21 -0.03,-0.32 -0.04,-0.03 -0.08,-0.06 -0.12,-0.09 0.04,-0.01 0.07,-0.03 0.11,-0.04 -0.01,-0.08 -0.02,-0.15 -0.02,-0.23 -0.05,0.02 -0.1,0.03 -0.15,0.05 -0.03,0.01 -0.07,0.03 -0.1,0.05z"/>
   <path class="fil0" d="M102.71 1.89c0.28,-0.09 0.55,-0.2 0.79,-0.35l-0.24 0.04c-0.25,0.04 -0.54,0.1 -0.84,0.18 0.05,0.12 0.15,0.17 0.28,0.13z"/>
   <path class="fil0" d="M108.76 11.27c-0.14,0.03 -0.28,0.06 -0.4,0.09 -0.53,0.18 -1.03,0.39 -1.51,0.63 -0.1,0.05 -0.12,0.12 -0.09,0.22 0.03,0.1 0.11,0.16 0.21,0.13 0.09,-0.02 0.19,-0.06 0.28,-0.09 0.54,-0.21 1.07,-0.43 1.61,-0.65 0.03,-0.01 0.07,-0.03 0.09,-0.05 0.02,-0.03 0.04,-0.07 0.03,-0.1 -0.01,-0.09 -0.13,-0.19 -0.22,-0.17z"/>
   <path class="fil0" d="M108.13 15.49c0,-0.02 0.04,-0.04 0.06,-0.04 0.03,-0 0.07,0.01 0.09,0.02 0.22,0.1 0.43,0.23 0.6,0.4 0.1,0.1 0.1,0.1 -0.02,0.18l-0.04 0.03c-0.2,0.11 -0.39,0.23 -0.59,0.33 -0.11,0.05 -0.14,0.03 -0.17,-0.09l-0 -0.02c-0.05,-0.28 0,-0.54 0.07,-0.81zm-0.25 1c0.07,0.14 0.18,0.2 0.33,0.16 0.09,-0.02 0.18,-0.05 0.26,-0.1 0.19,-0.1 0.38,-0.21 0.56,-0.32 0.07,-0.04 0.12,-0.11 0.17,-0.18 0.05,-0.06 0.03,-0.14 -0.01,-0.2 -0.06,-0.08 -0.12,-0.17 -0.2,-0.23 -0.17,-0.12 -0.35,-0.24 -0.53,-0.35 -0.07,-0.04 -0.16,-0.06 -0.24,-0.07 -0.13,-0.02 -0.24,0.04 -0.28,0.16 -0.1,0.32 -0.15,0.65 -0.09,0.98l0.01 0.03 -0 0c0.01,0.04 0.02,0.07 0.04,0.1z"/>
   <path class="fil0" d="M109.02 11.85c-0.05,-0.01 -0.1,-0.01 -0.15,0 -0.11,0.03 -0.23,0.07 -0.34,0.11l-0 -0c-0.37,0.13 -0.75,0.27 -1.12,0.4 -0.08,0.03 -0.16,0.08 -0.25,0.12 -0.11,0.05 -0.15,0.11 -0.13,0.18 0.02,0.09 0.11,0.18 0.21,0.19 0.05,0 0.1,-0 0.15,-0.02 0.2,-0.07 0.39,-0.15 0.59,-0.22 0.35,-0.14 0.71,-0.28 1.06,-0.41 0.09,-0.04 0.12,-0.07 0.11,-0.21 -0,-0.07 -0.04,-0.12 -0.12,-0.14z"/>
   <path class="fil0" d="M101.51 2.53c0.15,-0.09 0.29,-0.18 0.44,-0.26 0.14,-0.08 0.15,-0.22 0.03,-0.32l-0.02 -0.02c-0.09,0.04 -0.17,0.08 -0.25,0.13 0.02,0.01 0.04,0.02 0.06,0.03 -0.14,0.1 -0.28,0.2 -0.42,0.3 -0.05,0.1 -0.07,0.2 -0.05,0.32l0.02 -0.01c0.04,-0.02 0.07,-0.05 0.11,-0.08 0.03,-0.02 0.07,-0.05 0.1,-0.08l-0.01 -0.01z"/>
   <path class="fil0" d="M106.65 5.34c0.01,0.05 0.03,0.09 0.04,0.14l-0.01 0c0.04,0.1 0.07,0.2 0.12,0.3 0.07,0.14 0.19,0.19 0.33,0.14 0.21,-0.07 0.42,-0.14 0.63,-0.24 0.25,-0.12 0.31,-0.35 0.19,-0.59 -0.03,-0.06 -0.07,-0.1 -0.14,-0.09 -0.07,0.01 -0.09,0.05 -0.1,0.11 -0.02,0.09 -0.04,0.18 -0.07,0.27 -0.01,0.03 -0.03,0.05 -0.06,0.06 -0.13,0.03 -0.27,0.06 -0.4,0.09 -0.05,0.01 -0.08,-0.01 -0.1,-0.06 -0.03,-0.12 -0.07,-0.23 -0.1,-0.35 -0.02,-0.09 -0.09,-0.13 -0.18,-0.09 -0.14,0.06 -0.18,0.15 -0.15,0.29z"/>
   <path class="fil0" d="M111.13 12.67c0.01,0.02 0.02,0.04 0.03,0.05 0.04,0.06 0.1,0.08 0.15,0.06 0.06,-0.02 0.08,-0.08 0.05,-0.16 -0.03,-0.07 -0.08,-0.15 -0.12,-0.24 -0.12,-0.32 -0.24,-0.65 -0.37,-0.97 -0.13,-0.33 -0.26,-0.66 -0.39,-0.98 -0.02,-0.05 -0.05,-0.09 -0.08,-0.13 -0.04,-0.05 -0.11,-0.05 -0.16,-0.02 -0.05,0.03 -0.05,0.09 -0.02,0.15 0.17,0.41 0.34,0.81 0.49,1.22 0.13,0.34 0.24,0.69 0.42,1.02z"/>
   <path class="fil0" d="M109.18 10.55c-0.01,-0.02 -0.03,-0.05 -0.05,-0.07 -0.04,-0.04 -0.09,-0.05 -0.14,-0.02 -0.05,0.03 -0.06,0.08 -0.04,0.13 0.01,0.04 0.03,0.07 0.05,0.11 0.24,0.53 0.47,1.05 0.7,1.58 0.08,0.17 0.15,0.34 0.23,0.51 0.01,0.03 0.03,0.06 0.05,0.08 0.04,0.05 0.1,0.06 0.15,0.03 0.05,-0.03 0.07,-0.08 0.04,-0.14 -0.07,-0.16 -0.15,-0.33 -0.22,-0.49 -0.23,-0.52 -0.46,-1.04 -0.69,-1.55 -0.03,-0.06 -0.06,-0.11 -0.09,-0.17z"/>
   <path class="fil0" d="M110.21 13.44c-0.13,-0.06 -0.27,-0.12 -0.41,-0.15 -0.23,-0.05 -0.34,0.05 -0.32,0.28 0,0.04 0.01,0.08 0.02,0.13 0.02,0.04 0.03,0.08 0.05,0.12 0.05,0.09 0.14,0.14 0.24,0.1 0.15,-0.05 0.29,-0.11 0.43,-0.18 0.13,-0.07 0.12,-0.24 -0.01,-0.3z"/>
   <path class="fil0" d="M108.08 7.43c-0.04,0.01 -0.09,-0.03 -0.11,-0.07 -0.01,-0.05 0.02,-0.09 0.07,-0.11 0.04,-0.01 0.08,-0.01 0.1,0.04 0.02,0.05 -0.03,0.13 -0.07,0.14zm-0.1 -0.4c-0.18,0.05 -0.28,0.22 -0.24,0.39 0.05,0.19 0.24,0.29 0.44,0.23 0.18,-0.05 0.25,-0.22 0.19,-0.43 -0.05,-0.15 -0.22,-0.24 -0.39,-0.19z"/>
   <path class="fil0" d="M107.75 13.67c0.17,-0.05 0.25,-0.2 0.2,-0.38 -0.04,-0.14 -0.21,-0.24 -0.34,-0.2 -0.16,0.04 -0.25,0.21 -0.21,0.38 0.04,0.15 0.2,0.24 0.35,0.2z"/>
   <path class="fil0" d="M106.77 4.34c0.03,0.06 0.06,0.11 0.1,0.17 0.05,0.06 0.11,0.07 0.18,0.06 0.03,-0.01 0.07,-0.02 0.1,-0.04 0.18,-0.06 0.23,-0.25 0.09,-0.39 -0.04,-0.04 -0.09,-0.06 -0.14,-0.05 -0.05,0.01 -0.09,0.02 -0.14,0.03l0 0c-0.04,0.01 -0.08,0.02 -0.12,0.03 -0.08,0.03 -0.11,0.11 -0.08,0.19z"/>
   <path class="fil0" d="M108.35 4.26c0.09,-0 0.18,-0.02 0.27,-0.04 0.08,-0.02 0.13,-0.11 0.11,-0.21 -0.01,-0.04 -0.02,-0.09 -0.04,-0.13 -0.03,-0.08 -0.09,-0.11 -0.17,-0.09 -0.04,0.01 -0.07,0.02 -0.11,0.02l-0 -0c-0.06,0.02 -0.11,0.04 -0.16,0.07 -0.08,0.05 -0.1,0.11 -0.07,0.21 0.03,0.12 0.08,0.17 0.18,0.17z"/>
   <path class="fil0" d="M105.78 4.38c-0.07,0.01 -0.14,0.02 -0.21,0.04 -0.09,0.03 -0.13,0.1 -0.11,0.2 0.01,0.03 0.02,0.06 0.03,0.09 0.06,0.14 0.13,0.17 0.28,0.13 0.2,-0.04 0.24,-0.24 0.16,-0.36 -0.04,-0.06 -0.09,-0.1 -0.16,-0.09z"/>
   <path class="fil0" d="M106.25 4.68c0.04,0.01 0.09,0.01 0.13,0.01 0.03,-0 0.05,-0.02 0.08,-0.03 0.06,-0.03 0.14,-0.05 0.15,-0.13 0.01,-0.1 -0.01,-0.2 -0.08,-0.27 -0.03,-0.03 -0.08,-0.03 -0.13,-0.04 -0.03,-0 -0.07,0.01 -0.09,0.02 -0.02,0.01 -0.02,0.01 -0.03,0.01 -0.09,0.03 -0.18,0.05 -0.2,0.16 -0.01,0.08 0.09,0.24 0.17,0.27z"/>
   <path class="fil0" d="M107.81 4.37c0.02,-0.01 0.05,-0.01 0.07,-0.02 0.15,-0.05 0.19,-0.23 0.08,-0.35 -0.02,-0.02 -0.07,-0.05 -0.1,-0.04 -0.09,0.01 -0.18,0.03 -0.26,0.07 -0.07,0.03 -0.09,0.09 -0.07,0.17l0.01 0.04c0.05,0.15 0.12,0.19 0.27,0.14z"/>
   <path class="fil0" d="M110.05 11.84c0.01,0.09 0.12,0.15 0.22,0.13 0.1,-0.03 0.15,-0.12 0.1,-0.22 -0.03,-0.06 -0.08,-0.08 -0.13,-0.07 -0.13,0.03 -0.2,0.09 -0.19,0.16z"/>
   <path class="fil0" d="M110.51 12.67c0.08,-0.02 0.12,-0.09 0.1,-0.17 -0.02,-0.08 -0.09,-0.11 -0.19,-0.08 -0.08,0.02 -0.12,0.08 -0.1,0.15 0.02,0.08 0.11,0.12 0.19,0.1z"/>
   <path class="fil0" d="M107.37 4.95c-0.03,0.01 -0.05,0.02 -0.08,0.03 -0.06,0.03 -0.09,0.09 -0.06,0.15 0.02,0.06 0.09,0.09 0.16,0.08 0.04,-0.03 0.08,-0.06 0.11,-0.1 0.03,-0.04 0.03,-0.09 -0.01,-0.13 -0.03,-0.04 -0.08,-0.05 -0.13,-0.03z"/>
   <path class="fil0" d="M109.95 11.02c-0.06,0.02 -0.09,0.07 -0.08,0.13 0.02,0.08 0.12,0.14 0.19,0.12 0.07,-0.02 0.12,-0.09 0.1,-0.16 -0.02,-0.07 -0.12,-0.12 -0.21,-0.09z"/>
   <path class="fil0" d="M109.76 10.45c-0.07,0.02 -0.1,0.09 -0.08,0.16 0.02,0.07 0.09,0.1 0.16,0.08 0.07,-0.02 0.11,-0.09 0.09,-0.15 -0.02,-0.07 -0.09,-0.11 -0.16,-0.09z"/>
   <path class="fil0" d="M109.72 15.33c-0.06,0.02 -0.09,0.07 -0.08,0.13 0.02,0.06 0.09,0.1 0.16,0.08 0.06,-0.02 0.09,-0.07 0.08,-0.13 -0.02,-0.06 -0.09,-0.1 -0.16,-0.08z"/>
   <path class="fil0" d="M111.22 8.25c-0.21,0.1 -0.42,0.2 -0.63,0.29 -0.13,0.05 -0.26,0.09 -0.4,0.12 -0.11,0.03 -0.19,-0.01 -0.25,-0.11 -0.17,-0.25 -0.3,-0.52 -0.36,-0.82 -0.03,-0.16 -0.03,-0.19 0.12,-0.26 0.22,-0.1 0.45,-0.19 0.68,-0.28l0.01 0.03c0.11,-0.03 0.21,-0.06 0.32,-0.09 0.07,-0.02 0.13,0 0.18,0.06 0.05,0.07 0.1,0.14 0.13,0.22 0.09,0.23 0.17,0.47 0.26,0.7 0.03,0.07 0,0.11 -0.06,0.13zm-0.08 -1.2c-0.06,-0.11 -0.16,-0.17 -0.28,-0.17 -0.08,-0 -0.16,0 -0.24,0.01 -0.1,0.01 -0.2,0.04 -0.3,0.06l-0.01 -0.01c-0.25,0.1 -0.5,0.21 -0.75,0.31 -0.23,0.09 -0.25,0.2 -0.22,0.45 0.02,0.16 0.07,0.32 0.13,0.46 0.08,0.18 0.18,0.34 0.27,0.51 0.11,0.18 0.27,0.25 0.48,0.21 0.16,-0.03 0.32,-0.09 0.48,-0.15 0.18,-0.07 0.36,-0.16 0.54,-0.24 0.04,-0.02 0.07,-0.04 0.11,-0.06 0.23,-0.14 0.27,-0.23 0.17,-0.48 -0.1,-0.27 -0.21,-0.53 -0.31,-0.79 -0.02,-0.04 -0.04,-0.08 -0.07,-0.12z"/>
   <path class="fil0" d="M105.36 14.43c-0.03,0.01 -0.04,0.05 -0.02,0.08 0.02,0.03 0.06,0.04 0.09,0.03 0.03,-0.01 0.04,-0.05 0.02,-0.07 -0.02,-0.03 -0.06,-0.04 -0.08,-0.03z"/>
   <path class="fil0" d="M110.64 7.93c-0.07,0.04 -0.15,0.07 -0.22,0.11 -0.04,-0.05 -0.08,-0.1 -0.12,-0.15 -0,-0 -0.01,-0.01 -0.01,-0.03l0.02 -0.04c0.05,-0.04 0.11,-0.08 0.16,-0.11l0.05 0.01c0.04,0.05 0.08,0.11 0.12,0.17l-0 0.05zm0.04 -0.41c-0.08,-0.1 -0.17,-0.11 -0.28,-0.05 -0.09,0.06 -0.19,0.12 -0.27,0.19 -0.1,0.08 -0.11,0.17 -0.05,0.28 0.04,0.08 0.08,0.15 0.13,0.22 0.07,0.1 0.17,0.13 0.31,0.09 0.11,-0.06 0.27,-0.1 0.36,-0.24 0.03,-0.05 0.04,-0.1 0.01,-0.16 -0.07,-0.11 -0.14,-0.23 -0.22,-0.33z"/>
  </g>
 </g>
</svg>
