<?xml version="1.0" encoding="UTF-8"?>
<!DOCTYPE svg PUBLIC "-//W3C//DTD SVG 1.1//EN" "http://www.w3.org/Graphics/SVG/1.1/DTD/svg11.dtd">
<!-- Creator: CorelDRAW X8 -->
<svg xmlns="http://www.w3.org/2000/svg" xml:space="preserve" width="0.571732in" height="0.380811in" version="1.1" style="shape-rendering:geometricPrecision; text-rendering:geometricPrecision; image-rendering:optimizeQuality; fill-rule:evenodd; clip-rule:evenodd"
viewBox="0 0 86 57"
 xmlns:xlink="http://www.w3.org/1999/xlink">
 <defs>
  <style type="text/css">
   <![CDATA[
    .fil0 {fill:#44D594}
   ]]>
  </style>
 </defs>
 <g id="Layer_x0020_1">
  <metadata id="CorelCorpID_0Corel-Layer"/>
  <g id="_2002979506352">
   <path class="fil0" d="M57 41c-3,-4 -6,-9 -9,-12 -2,-2 -3,-4 -5,-5 -2,-1 -4,-1 -6,-3 -2,-1 -4,-4 -4,-7 0,-8 8,-11 13,-11 10,-1 21,8 29,17 6,6 11,15 11,23 0,8 -4,13 -9,14 -6,1 -11,-4 -15,-9 -2,-2 -4,-5 -5,-7z"/>
   <path class="fil0" d="M7 23c6,3 13,1 16,-5 3,-6 1,-13 -5,-17 -6,-3 -13,-1 -17,5 -3,6 -1,14 6,17z"/>
  </g>
 </g>
</svg>
