<?xml version="1.0" encoding="UTF-8"?>
<!DOCTYPE svg PUBLIC "-//W3C//DTD SVG 1.1//EN" "http://www.w3.org/Graphics/SVG/1.1/DTD/svg11.dtd">
<!-- Creator: CorelDRAW X8 -->
<svg xmlns="http://www.w3.org/2000/svg" xml:space="preserve" width="0.571732in" height="0.380811in" version="1.1" style="shape-rendering:geometricPrecision; text-rendering:geometricPrecision; image-rendering:optimizeQuality; fill-rule:evenodd; clip-rule:evenodd"
viewBox="0 0 85 56"
 xmlns:xlink="http://www.w3.org/1999/xlink">
 <defs>
  <style type="text/css">
   <![CDATA[
    .fil0 {fill:#FF0055}
   ]]>
  </style>
 </defs>
 <g id="Layer_x0020_1">
  <metadata id="CorelCorpID_0Corel-Layer"/>
  <g id="_2003101472768">
   <path class="fil0" d="M56 40c-3,-4 -5,-8 -9,-12 -1,-1 -3,-3 -5,-4 -2,-1 -4,-2 -5,-3 -2,-2 -4,-4 -4,-7 -1,-8 7,-11 13,-11 9,-1 20,7 28,16 6,7 11,16 11,24 0,7 -3,12 -9,13 -5,1 -11,-3 -15,-8 -2,-2 -3,-5 -5,-8z"/>
   <path class="fil0" d="M6 23c6,3 14,1 17,-5 3,-6 1,-13 -5,-17 -6,-3 -13,-1 -17,5 -3,6 -1,14 5,17z"/>
  </g>
 </g>
</svg>
