<?xml version="1.0" encoding="UTF-8"?>
<!DOCTYPE svg PUBLIC "-//W3C//DTD SVG 1.1//EN" "http://www.w3.org/Graphics/SVG/1.1/DTD/svg11.dtd">
<!-- Creator: CorelDRAW X8 -->
<svg xmlns="http://www.w3.org/2000/svg" xml:space="preserve" width="0.571732in" height="0.380811in" version="1.1" style="shape-rendering:geometricPrecision; text-rendering:geometricPrecision; image-rendering:optimizeQuality; fill-rule:evenodd; clip-rule:evenodd"
viewBox="0 0 90 60"
 xmlns:xlink="http://www.w3.org/1999/xlink">
 <defs>
  <style type="text/css">
   <![CDATA[
    .fil0 {fill:#4949BF}
   ]]>
  </style>
 </defs>
 <g id="Layer_x0020_1">
  <metadata id="CorelCorpID_0Corel-Layer"/>
  <g id="_2002837797840">
   <path class="fil0" d="M60 43c-3,-4 -6,-9 -9,-13 -2,-2 -4,-3 -6,-4 -2,-2 -4,-2 -6,-3 -2,-2 -4,-5 -4,-8 -1,-8 8,-12 14,-12 10,-1 22,8 30,18 6,7 11,16 11,25 0,7 -3,13 -9,14 -6,1 -12,-4 -16,-9 -2,-3 -4,-5 -5,-8z"/>
   <path class="fil0" d="M7 24c6,4 14,2 18,-5 3,-6 1,-14 -6,-17 -6,-4 -14,-1 -17,5 -4,6 -1,14 5,17z"/>
  </g>
 </g>
</svg>
