<?xml version="1.0" encoding="UTF-8"?>
<!DOCTYPE svg PUBLIC "-//W3C//DTD SVG 1.1//EN" "http://www.w3.org/Graphics/SVG/1.1/DTD/svg11.dtd">
<!-- Creator: CorelDRAW X8 -->
<svg xmlns="http://www.w3.org/2000/svg" xml:space="preserve" width="0.571732in" height="0.380811in" version="1.1" style="shape-rendering:geometricPrecision; text-rendering:geometricPrecision; image-rendering:optimizeQuality; fill-rule:evenodd; clip-rule:evenodd"
viewBox="0 0 92 61"
 xmlns:xlink="http://www.w3.org/1999/xlink">
 <defs>
  <style type="text/css">
   <![CDATA[
    .fil0 {fill:#FBB34B}
   ]]>
  </style>
 </defs>
 <g id="Layer_x0020_1">
  <metadata id="CorelCorpID_0Corel-Layer"/>
  <g id="_2002979554032">
   <path class="fil0" d="M61 44c-3,-5 -6,-9 -9,-13 -2,-2 -4,-4 -6,-5 -2,-1 -4,-2 -6,-3 -3,-2 -4,-5 -4,-7 -1,-9 8,-12 14,-13 10,-1 22,8 31,18 6,7 11,16 11,26 0,7 -3,13 -10,14 -5,1 -11,-4 -16,-9 -2,-3 -4,-5 -5,-8z"/>
   <path class="fil0" d="M7 25c6,3 15,1 18,-5 3,-7 1,-15 -5,-18 -7,-4 -15,-1 -18,5 -4,6 -1,14 5,18z"/>
  </g>
 </g>
</svg>
