<?xml version="1.0" encoding="UTF-8"?>
<!DOCTYPE svg PUBLIC "-//W3C//DTD SVG 1.1//EN" "http://www.w3.org/Graphics/SVG/1.1/DTD/svg11.dtd">
<!-- Creator: CorelDRAW X8 -->
<svg xmlns="http://www.w3.org/2000/svg" xml:space="preserve" width="1in" height="1in" version="1.1" style="shape-rendering:geometricPrecision; text-rendering:geometricPrecision; image-rendering:optimizeQuality; fill-rule:evenodd; clip-rule:evenodd"
viewBox="0 0 49 49"
 xmlns:xlink="http://www.w3.org/1999/xlink">
 <defs>
  <style type="text/css">
   <![CDATA[
    .fil0 {fill:none}
    .fil1 {fill:#4949BF;fill-rule:nonzero}
   ]]>
  </style>
 </defs>
 <g id="Layer_x0020_1">
  <metadata id="CorelCorpID_0Corel-Layer"/>
  <rect class="fil0" width="48.6727" height="48.6727"/>
  <g id="_1493526217392">
   <path class="fil1" d="M33 28l-1 2 0 6c0,0 -1,1 -1,1l-17 0c0,0 -1,-1 -1,-1l0 -18c0,0 1,-1 1,-1l17 0c0,0 1,1 1,1l0 2 3 -3 0 -4c0,-1 -1,-2 -2,-2l-1 0 0 2c0,1 -1,1 -2,1 -1,0 -2,0 -2,-1l0 -2 -1 0 0 2c0,1 -1,1 -2,1 -1,0 -2,0 -2,-1l0 -2 -1 0 0 2c0,1 -1,1 -2,1 -1,0 -2,0 -2,-1l0 -2 -1 0 0 2c0,1 -1,1 -2,1 -1,0 -2,0 -2,-1l0 -2 -1 0c-1,0 -2,1 -2,2l0 25c0,1 1,2 2,2l21 0c1,0 2,-1 2,-2l0 -10c0,0 -1,0 -1,0 0,0 0,0 -1,0z"/>
   <path class="fil1" d="M33 27l1 0c0,0 0,0 1,0l5 -6 -5 -4 -5 6c0,1 0,1 0,1l1 1 -4 3 3 3 3 -4zm-7 6c0,0 0,0 0,0l1 -1c0,0 0,0 0,0 1,0 2,0 2,-1l1 0 -3 -2 0 0c-1,1 -1,2 0,2 0,0 0,0 0,0l-1 2c0,0 0,0 0,0 0,0 0,0 0,0z"/>
   <path class="fil1" d="M15 14c1,0 1,-1 1,-1l0 -3c0,-1 0,-1 -1,-1 0,0 -1,0 -1,1l0 3c0,0 1,1 1,1z"/>
   <path class="fil1" d="M30 14c1,0 1,-1 1,-1l0 -3c0,-1 0,-1 -1,-1 -1,0 -1,0 -1,1l0 3c0,0 0,1 1,1z"/>
   <path class="fil1" d="M25 14c1,0 1,-1 1,-1l0 -3c0,-1 0,-1 -1,-1 -1,0 -1,0 -1,1l0 3c0,0 0,1 1,1z"/>
   <path class="fil1" d="M20 14c1,0 1,-1 1,-1l0 -3c0,-1 0,-1 -1,-1 0,0 -1,0 -1,1l0 3c0,0 1,1 1,1z"/>
   <path class="fil1" d="M16 29c-1,0 -1,0 -1,1 0,0 0,0 1,0l5 0c0,0 0,0 0,0 0,-1 0,-1 0,-1l-5 0z"/>
   <path class="fil1" d="M27 27c0,0 0,-1 0,-1l-11 0c-1,0 -1,1 -1,1 0,0 0,0 1,0l11 0c0,0 0,0 0,0z"/>
   <path class="fil1" d="M16 24l11 0c0,0 0,0 0,0 0,0 0,0 0,0l-11 0c-1,0 -1,0 -1,0 0,0 0,0 1,0z"/>
   <path class="fil1" d="M16 22l11 0c0,0 0,-1 0,-1 0,0 0,0 0,0l-11 0c-1,0 -1,0 -1,0 0,0 0,1 1,1z"/>
   <path class="fil1" d="M42 20l-1 -1c0,0 0,0 0,0l0 0c1,0 1,-1 0,-2l-3 -2c0,0 -1,0 -1,0l-1 2 4 4 1 -1 0 0 0 0c0,1 1,1 1,1 0,0 -1,0 -1,1l-4 5c0,0 0,0 0,0 0,0 0,0 0,0 0,0 0,0 1,0l4 -5c0,0 0,-1 0,-1 0,-1 0,-1 0,-1z"/>
  </g>
 </g>
</svg>
