<?xml version="1.0" encoding="UTF-8"?>
<!DOCTYPE svg PUBLIC "-//W3C//DTD SVG 1.1//EN" "http://www.w3.org/Graphics/SVG/1.1/DTD/svg11.dtd">
<!-- Creator: CorelDRAW -->
<svg xmlns="http://www.w3.org/2000/svg" xml:space="preserve" width="0.356264in" height="0.30098in" version="1.1" style="shape-rendering:geometricPrecision; text-rendering:geometricPrecision; image-rendering:optimizeQuality; fill-rule:evenodd; clip-rule:evenodd"
viewBox="0 0 11.24 9.5"
 xmlns:xlink="http://www.w3.org/1999/xlink">
 <defs>
  <style type="text/css">
   <![CDATA[
    .fil0 {fill:#FAB53C;fill-rule:nonzero}
    .fil1 {fill:#5497D2;fill-rule:nonzero}
    .fil2 {fill:black;fill-rule:nonzero}
   ]]>
  </style>
 </defs>
 <g id="Layer_x0020_1">
  <metadata id="CorelCorpID_0Corel-Layer"/>
  <path class="fil0" d="M6.5 9.37l0 -0.04 -0.05 0 0.01 0.05 0.04 -0.01 0 -0.04 0 0.04 0.04 -0.01 -0.16 -0.78 0 0c-0.01,-0.03 -0.03,-0.05 -0.06,-0.05l-1.7 0c-0.03,0 -0.06,0.02 -0.06,0.06l-0.12 0.75 -0 0.01c0,0.04 0.03,0.07 0.07,0.07l2.05 0 -0.01 -0.05 -0.04 0.01zm0.8 -3.45l0.03 -0.02 -1.6 -2.64c-0.02,-0.03 -0.05,-0.04 -0.07,-0.04 -0.02,0 -0.04,0.01 -0.06,0.02 -0.02,0.01 -0.03,0.04 -0.03,0.06l0 2.38 0.03 0.01c0.08,0.02 0.14,0.1 0.14,0.19 0,0.05 -0.02,0.1 -0.06,0.14 -0.04,0.04 -0.08,0.06 -0.14,0.06 -0.05,0 -0.1,-0.02 -0.14,-0.06 -0.04,-0.04 -0.06,-0.08 -0.06,-0.14 -0,-0.09 0.06,-0.17 0.15,-0.19l0.03 -0.01 0 -2.39c0,-0.03 -0.01,-0.05 -0.03,-0.06 -0.02,-0.01 -0.04,-0.02 -0.06,-0.02 -0.03,-0 -0.06,0.01 -0.07,0.04l-1.72 2.67c-0.01,0.01 -0.01,0.03 -0.01,0.05 0,0.01 0,0.02 0.01,0.03l0.94 2.29c0.01,0.03 0.04,0.05 0.08,0.05l1.68 0c0.04,0 0.07,-0.02 0.08,-0.05l0.92 -2.32 0 0c0,-0.01 0.01,-0.02 0.01,-0.03 0,-0.02 -0,-0.03 -0.01,-0.04l-0.03 0.02 -0.03 0.02 0.03 -0.02z"/>
  <path class="fil1" d="M3.4 3.22c0.08,-0.08 0.28,-0.29 0.59,-0.5 0.35,-0.24 0.84,-0.46 1.43,-0.48l0 0.09 0.21 0 0 -0.08c0.59,0.03 1.26,0.28 1.97,0.94 -0.02,0.03 -0.03,0.06 -0.03,0.1 0,0.08 0.06,0.15 0.13,0.15 0.07,0 0.13,-0.07 0.13,-0.15 0,-0.08 -0.06,-0.15 -0.13,-0.15 -0.01,0 -0.03,0 -0.04,0.01 -0.73,-0.68 -1.42,-0.94 -2.03,-0.98l0 -0.09 -0.21 0 0 0.09c-0.62,0.02 -1.13,0.27 -1.49,0.52 -0.29,0.2 -0.49,0.4 -0.56,0.48 -0.02,-0.02 -0.04,-0.03 -0.07,-0.03 -0.07,0 -0.13,0.07 -0.13,0.15 0,0.08 0.06,0.15 0.13,0.15 0.07,0 0.13,-0.07 0.13,-0.15 0,-0.02 -0,-0.05 -0.01,-0.07z"/>
  <path class="fil0" d="M5.47 8.9c-1.84,0 -3.43,-1.2 -3.95,-2.91l1.01 0 -1.26 -1.73 -1.26 1.73 0.9 0c0.55,2.05 2.41,3.51 4.57,3.51 2.13,0 4.01,-1.43 4.57,-3.49l-0.57 -0.16c-0.49,1.8 -2.13,3.05 -4,3.05zm-4.52 -5.34l0.57 0.16c0.49,-1.8 2.13,-3.05 4,-3.05 1.84,0 3.43,1.2 3.95,2.91l-1.01 0 1.26 1.73 1.26 -1.73 -0.9 0c-0.55,-2.05 -2.41,-3.51 -4.57,-3.51 -2.13,0 -4.01,1.43 -4.57,3.49z"/>
  <g>
   <path class="fil2" d="M6.61 8.52l0.04 0.22 -0.06 0.01 -0.04 -0.22 -0 -0.01 0.06 -0.01zm-0.06 0.01l0 -0.31 0.06 0.3 -0.06 0.01zm0 0l0 -0 0.06 0 0 0 -0.06 0.01 -0 -0.01zm0.06 0l0 0.3 -0.06 -0.29 0.06 -0.01zm-0.09 -0.02l0 -0.06 0 0 0 0 0 0 0 0 0 0 0 0 0 0 0 0 0 0 0 0 0 0 0 0 0 0 0 0 0 0 0 0 0 0 0 0 0 0 0 0 0 0 0 0 0 0 0 0 0 0 0 0 0 0 0 0 0 0 0 0 0 0 0 0 0 0 -0.06 0.01 -0 -0 -0 -0 -0 -0 -0 -0 -0 -0 -0 -0 -0 -0 -0 -0 -0 -0 -0 -0 -0 -0 -0 -0 -0 -0 -0 -0 -0 -0 -0 -0 -0 -0 -0 -0 -0 -0 -0 -0 -0 -0 -0 -0 -0 -0 -0 -0 -0 -0 -0 -0 -0 -0 -0 -0 -0 -0 -0 -0 -0 0 -0 -0 0 0zm-1.7 -0.06l1.7 0 0 0.06 -1.7 0 -0 -0.06 0 0zm-0 0l0 0 0 0 -0 0zm-0.03 0.09l-0.06 -0.01 0 0 0 -0 0 -0 0 -0 0 -0 0 -0 0 -0 0 -0 0 -0 0 -0 0 -0 0 -0 0 -0 0 -0 0 -0 0 -0 0 -0 0 -0 0 -0 0 -0 0 -0 0 -0 0 -0 0 -0 0 -0 0 -0 0 -0 0 -0 0 -0 0 -0 0 -0 0 -0 0 -0 0 0.06 -0 0 -0 0 -0 0 -0 0 -0 0 -0 0 -0 0 -0 0 -0 0 -0 0 -0 0 -0 0 -0 0 -0 0 -0 0 -0 0 -0 0 -0 0 -0 0 -0 0 -0 0 -0 0 -0 0 -0 0 -0 0 -0 0 -0 0 -0 0 -0 0 -0 0 -0 0 -0 0 0 0zm-0.06 -0.01l0 0 0 0 0 0zm-0.03 0.22l0.03 -0.22 0.06 0.01 -0.03 0.22 -0.04 0.03 -0.02 -0.03zm0.06 0.01l-0.01 0.03 -0.03 -0.01 0.04 -0.03zm-3.04 -2.84l0 0.06 0.03 -0.04 0.04 0.13 0.05 0.13 0.05 0.13 0.05 0.12 0.06 0.12 0.06 0.12 0.07 0.12 0.07 0.11 0.07 0.11 0.08 0.11 0.08 0.11 0.08 0.1 0.09 0.1 0.09 0.1 0.09 0.09 0.1 0.09 0.1 0.09 0.1 0.09 0.1 0.08 0.11 0.08 0.11 0.08 0.11 0.07 0.11 0.07 0.12 0.06 0.12 0.06 0.12 0.06 0.12 0.05 0.12 0.05 0.13 0.05 0.13 0.04 0.13 0.04 0.13 0.03 -0.01 0.06 -0.13 -0.03 -0.13 -0.04 -0.13 -0.04 -0.13 -0.05 -0.13 -0.05 -0.12 -0.05 -0.12 -0.06 -0.12 -0.06 -0.12 -0.07 -0.12 -0.07 -0.11 -0.07 -0.11 -0.08 -0.11 -0.08 -0.11 -0.08 -0.1 -0.09 -0.1 -0.09 -0.1 -0.09 -0.09 -0.1 -0.09 -0.1 -0.09 -0.1 -0.08 -0.1 -0.08 -0.11 -0.08 -0.11 -0.07 -0.11 -0.07 -0.12 -0.07 -0.12 -0.06 -0.12 -0.06 -0.12 -0.06 -0.13 -0.05 -0.13 -0.05 -0.13 -0.04 -0.13 0.03 -0.04zm-0.03 0.04l-0.01 -0.04 0.04 0 -0.03 0.04zm1.04 0.02l-1.01 0 0 -0.06 1.01 0 0.02 0.01 -0.02 0.05zm0.02 -0.05l0.04 0.05 -0.06 0 0.02 -0.05zm-1.26 -1.73l1.26 1.73 -0.05 0.04 -1.26 -1.73 0 -0.04 0.05 0zm-0.05 0l0.02 -0.03 0.02 0.03 -0.05 0zm-1.26 1.73l1.26 -1.73 0.05 0.04 -1.26 1.73 -0.02 0.01 -0.02 -0.05zm0.02 0.05l-0.06 0 0.04 -0.05 0.02 0.05zm0.9 0l-0.9 0 0 -0.06 0.9 0 0.03 0.02 -0.03 0.04zm0 -0.06l0.02 0 0.01 0.02 -0.03 -0.02zm3.58 3.4l-0.04 0.05 0.01 0.01 -0.16 -0.04 -0.16 -0.04 -0.16 -0.05 -0.15 -0.05 -0.15 -0.06 -0.15 -0.06 -0.15 -0.07 -0.14 -0.07 -0.14 -0.08 -0.14 -0.08 -0.14 -0.09 -0.13 -0.09 -0.13 -0.1 -0.13 -0.1 -0.12 -0.1 -0.12 -0.11 -0.12 -0.11 -0.11 -0.12 -0.11 -0.12 -0.1 -0.12 -0.1 -0.13 -0.09 -0.13 -0.09 -0.13 -0.09 -0.14 -0.08 -0.14 -0.08 -0.14 -0.07 -0.15 -0.07 -0.15 -0.06 -0.15 -0.06 -0.16 -0.05 -0.16 -0.05 -0.16 0.06 -0.02 0.05 0.16 0.05 0.16 0.06 0.15 0.06 0.15 0.07 0.15 0.07 0.15 0.08 0.14 0.08 0.14 0.08 0.14 0.09 0.13 0.09 0.13 0.1 0.13 0.1 0.12 0.11 0.12 0.11 0.12 0.11 0.11 0.12 0.11 0.12 0.1 0.12 0.1 0.13 0.1 0.13 0.09 0.13 0.09 0.14 0.08 0.14 0.08 0.14 0.07 0.14 0.07 0.15 0.06 0.15 0.06 0.15 0.05 0.15 0.05 0.16 0.04 0.16 0.04 0.01 0.01zm-0.01 -0.01l0.01 0 0.01 0 -0.01 -0.01zm0.03 0.01l0 0.06 -0 0 -0 0 -0 -0 -0 0 -0 -0 -0 -0 -0 -0 -0 -0 -0 -0 -0 -0 -0 -0 -0 -0 -0 -0 -0 -0 -0 -0 -0 -0 -0 -0 -0 -0 -0 -0 -0 -0 -0 -0 -0 -0 -0 -0 -0 -0 -0 -0 -0 -0 -0 -0 -0 -0 -0 -0 -0 -0 -0 -0 -0 -0 -0 -0 0.04 -0.05 0 0 0 0 0 0 0 0 -0 -0 0 0 0 0 0 0 0 0 0 0 0 0 0 0 0 0 0 0 0 0 -0 -0 0 0 0 0 -0 -0 -0 -0 0 0 0 0 -0 -0 0 0 0 0 0 0 0 0 -0 -0 0 0 0 0 0 0 0 0 -0 0zm0 0.06l-0 0 0 0 0 0zm0.03 0l-0.03 0 0 -0.06 0.03 0 0.01 0 -0.01 0.06zm0 -0.06l0 0 0 0 -0.01 -0zm0.94 0.09l0 0.06 0 0 -0.03 -0 -0.03 -0 -0.03 -0 -0.03 -0 -0.03 -0 -0.03 -0 -0.03 -0 -0.03 -0 -0.03 -0 -0.03 -0 -0.03 -0 -0.03 -0 -0.03 -0 -0.03 -0 -0.03 -0 -0.03 -0 -0.03 -0 -0.03 -0 -0.03 -0 -0.03 -0 -0.03 -0 -0.03 -0 -0.03 -0 -0.03 -0 -0.03 -0 -0.03 -0 -0.03 -0 -0.03 -0 -0.03 -0.01 -0.03 -0.01 -0.03 -0.01 -0.03 -0.01 0.01 -0.06 0.03 0.01 0.03 0.01 0.03 0.01 0.03 0.01 0.03 0 0.03 0 0.03 0 0.03 0 0.03 0 0.03 0 0.03 0 0.03 0 0.03 0 0.03 0 0.03 0 0.03 0 0.03 0 0.03 0 0.03 0 0.03 0 0.03 0 0.03 0 0.03 0 0.03 0 0.03 0 0.03 0 0.03 0 0.03 0 0.03 0 0.03 0 0.03 0 0.03 0 0 0zm0.93 -0.09l0 0.06 0.01 -0 -0.03 0.01 -0.03 0.01 -0.03 0.01 -0.03 0.01 -0.03 0 -0.03 0 -0.03 0 -0.03 0 -0.03 0 -0.03 0 -0.03 0 -0.03 0 -0.03 0 -0.03 0 -0.03 0 -0.03 0 -0.03 0 -0.03 0 -0.03 0 -0.03 0 -0.03 0 -0.03 0 -0.03 0 -0.03 0 -0.03 0 -0.03 0 -0.03 0 -0.03 0 -0.03 0 -0.03 0 -0.03 0 -0.03 0 0 -0.06 0.03 -0 0.03 -0 0.03 -0 0.03 -0 0.03 -0 0.03 -0 0.03 -0 0.03 -0 0.03 -0 0.03 -0 0.03 -0 0.03 -0 0.03 -0 0.03 -0 0.03 -0 0.03 -0 0.03 -0 0.03 -0 0.03 -0 0.03 -0 0.03 -0 0.03 -0 0.03 -0 0.03 -0 0.03 -0 0.03 -0 0.03 -0 0.03 -0 0.03 -0.01 0.03 -0.01 0.03 -0.01 0.03 -0.01 0.01 -0zm-0.01 0l0 -0 0 0 -0.01 0zm0.15 0.06l-0.15 0 0 -0.06 0.15 0 0.03 0.02 -0.03 0.04zm0.03 -0.04l0.01 0.04 -0.04 0 0.03 -0.04zm-0.01 -0.03l0.01 0.03 -0.06 0.01 -0.01 -0.03 0.02 -0.04 0.04 0.02zm-0.06 0.01l-0.01 -0.03 0.03 -0.01 -0.02 0.04zm3.52 -3.34l0.02 -0.06 0.02 0.04 -0.05 0.16 -0.05 0.16 -0.06 0.15 -0.06 0.15 -0.07 0.15 -0.07 0.15 -0.08 0.14 -0.08 0.14 -0.08 0.14 -0.09 0.13 -0.09 0.13 -0.1 0.13 -0.1 0.12 -0.11 0.12 -0.11 0.12 -0.11 0.11 -0.12 0.11 -0.12 0.1 -0.12 0.1 -0.13 0.1 -0.13 0.09 -0.13 0.09 -0.14 0.08 -0.14 0.08 -0.14 0.07 -0.14 0.07 -0.15 0.06 -0.15 0.06 -0.15 0.05 -0.15 0.05 -0.15 0.04 -0.16 0.04 -0.01 -0.06 0.15 -0.04 0.15 -0.04 0.15 -0.05 0.15 -0.05 0.15 -0.06 0.14 -0.06 0.14 -0.07 0.14 -0.07 0.14 -0.08 0.13 -0.08 0.13 -0.09 0.13 -0.09 0.12 -0.09 0.12 -0.1 0.12 -0.1 0.11 -0.11 0.11 -0.11 0.11 -0.11 0.1 -0.12 0.1 -0.12 0.1 -0.12 0.09 -0.13 0.09 -0.13 0.08 -0.13 0.08 -0.14 0.08 -0.14 0.07 -0.14 0.07 -0.15 0.06 -0.15 0.06 -0.15 0.05 -0.15 0.05 -0.16 0.02 0.04zm0.02 -0.06l0.03 0.01 -0.01 0.03 -0.02 -0.04zm-0.57 -0.16l0.57 0.16 -0.02 0.06 -0.57 -0.16 -0.02 -0.04 0.04 -0.02zm-0.04 0.02l0.01 -0.03 0.03 0.01 -0.04 0.02zm-3.04 2.95l0.06 -0.01 -0.04 -0.02 0.13 -0.03 0.13 -0.04 0.13 -0.04 0.13 -0.05 0.13 -0.05 0.12 -0.06 0.12 -0.06 0.12 -0.06 0.12 -0.07 0.12 -0.07 0.11 -0.07 0.11 -0.08 0.11 -0.08 0.11 -0.09 0.1 -0.09 0.1 -0.09 0.1 -0.1 0.09 -0.1 0.09 -0.1 0.09 -0.11 0.08 -0.11 0.08 -0.11 0.08 -0.11 0.07 -0.12 0.07 -0.12 0.07 -0.12 0.06 -0.13 0.06 -0.13 0.05 -0.13 0.05 -0.13 0.04 -0.13 0.04 -0.14 0.06 0.02 -0.04 0.14 -0.04 0.14 -0.05 0.13 -0.05 0.13 -0.06 0.13 -0.06 0.13 -0.07 0.12 -0.07 0.12 -0.07 0.12 -0.08 0.12 -0.08 0.11 -0.08 0.11 -0.09 0.11 -0.09 0.1 -0.1 0.1 -0.1 0.1 -0.1 0.09 -0.1 0.09 -0.11 0.09 -0.11 0.08 -0.11 0.08 -0.12 0.08 -0.12 0.07 -0.12 0.07 -0.12 0.06 -0.12 0.06 -0.13 0.06 -0.13 0.05 -0.13 0.05 -0.13 0.04 -0.13 0.04 -0.14 0.03 -0.04 -0.02zm0.04 0.02l-0.03 0.01 -0.01 -0.03 0.04 0.02zm-4.92 -5.07l-0.57 -0.16 0.02 -0.06 0.57 0.16 0.02 0.04 -0.04 0.02zm0.04 -0.02l-0.01 0.03 -0.03 -0.01 0.04 -0.02zm3.97 -3.09l0 0.06 0 0 -0.17 0 -0.17 0.01 -0.17 0.02 -0.17 0.02 -0.17 0.03 -0.16 0.04 -0.16 0.04 -0.16 0.05 -0.16 0.06 -0.15 0.06 -0.15 0.07 -0.15 0.08 -0.14 0.08 -0.14 0.09 -0.14 0.09 -0.13 0.1 -0.13 0.1 -0.12 0.11 -0.12 0.11 -0.12 0.12 -0.11 0.12 -0.11 0.13 -0.1 0.13 -0.1 0.14 -0.09 0.14 -0.09 0.14 -0.08 0.15 -0.07 0.15 -0.07 0.16 -0.06 0.16 -0.06 0.16 -0.05 0.17 -0.06 -0.02 0.05 -0.17 0.06 -0.16 0.06 -0.16 0.07 -0.16 0.08 -0.15 0.08 -0.15 0.09 -0.15 0.09 -0.14 0.1 -0.14 0.1 -0.13 0.11 -0.13 0.11 -0.12 0.12 -0.12 0.12 -0.11 0.13 -0.11 0.13 -0.1 0.14 -0.1 0.14 -0.09 0.14 -0.09 0.15 -0.08 0.15 -0.08 0.15 -0.07 0.16 -0.06 0.16 -0.06 0.16 -0.05 0.16 -0.05 0.17 -0.04 0.17 -0.03 0.17 -0.03 0.17 -0.02 0.17 -0.01 0.18 -0 0 0zm3.95 2.97l0 -0.06 -0.03 0.04 -0.05 -0.16 -0.06 -0.15 -0.06 -0.15 -0.07 -0.15 -0.08 -0.14 -0.08 -0.14 -0.09 -0.14 -0.09 -0.13 -0.1 -0.13 -0.1 -0.13 -0.11 -0.12 -0.11 -0.12 -0.11 -0.11 -0.12 -0.11 -0.12 -0.1 -0.13 -0.1 -0.13 -0.09 -0.13 -0.09 -0.14 -0.08 -0.14 -0.08 -0.14 -0.07 -0.15 -0.07 -0.15 -0.06 -0.15 -0.05 -0.16 -0.05 -0.16 -0.04 -0.16 -0.04 -0.16 -0.03 -0.16 -0.02 -0.17 -0.02 -0.17 -0.01 -0.17 -0 0 -0.06 0.17 0 0.17 0.01 0.17 0.02 0.17 0.02 0.17 0.03 0.16 0.04 0.16 0.04 0.16 0.05 0.16 0.06 0.15 0.06 0.15 0.07 0.15 0.07 0.14 0.08 0.14 0.08 0.14 0.09 0.13 0.09 0.13 0.1 0.12 0.1 0.12 0.11 0.12 0.11 0.11 0.12 0.11 0.12 0.1 0.13 0.1 0.13 0.09 0.14 0.09 0.14 0.08 0.14 0.08 0.15 0.07 0.15 0.07 0.15 0.06 0.16 0.05 0.16 -0.03 0.04zm0.03 -0.04l0.01 0.04 -0.04 0 0.03 -0.04zm-1.04 -0.02l1.01 0 0 0.06 -1.01 0 -0.02 -0.01 0.02 -0.05zm-0.02 0.05l-0.04 -0.05 0.06 0 -0.02 0.05zm1.26 1.73l-1.26 -1.73 0.05 -0.04 1.26 1.73 0 0.04 -0.05 0zm0.05 0l-0.02 0.03 -0.02 -0.03 0.05 0zm1.26 -1.73l-1.26 1.73 -0.05 -0.04 1.26 -1.73 0.02 -0.01 0.02 0.05zm-0.02 -0.05l0.06 0 -0.04 0.05 -0.02 -0.05zm-0.9 0l0.9 0 0 0.06 -0.9 0 -0.03 -0.02 0.03 -0.04zm0 0.06l-0.02 0 -0.01 -0.02 0.03 0.02zm-4.57 -3.51l0 -0.06 0 0 0.2 0 0.2 0.01 0.2 0.02 0.2 0.03 0.19 0.04 0.19 0.04 0.19 0.05 0.19 0.06 0.18 0.07 0.18 0.07 0.18 0.08 0.17 0.09 0.17 0.09 0.16 0.1 0.16 0.11 0.15 0.11 0.15 0.12 0.14 0.13 0.14 0.13 0.13 0.14 0.13 0.14 0.12 0.15 0.12 0.15 0.11 0.16 0.1 0.16 0.1 0.17 0.09 0.17 0.08 0.18 0.08 0.18 0.07 0.18 0.06 0.19 0.06 0.19 -0.06 0.02 -0.05 -0.19 -0.06 -0.19 -0.07 -0.18 -0.08 -0.18 -0.08 -0.17 -0.09 -0.17 -0.1 -0.17 -0.1 -0.16 -0.11 -0.16 -0.12 -0.15 -0.12 -0.15 -0.13 -0.14 -0.13 -0.14 -0.14 -0.13 -0.14 -0.12 -0.15 -0.12 -0.15 -0.11 -0.16 -0.11 -0.16 -0.1 -0.17 -0.09 -0.17 -0.09 -0.17 -0.08 -0.18 -0.07 -0.18 -0.07 -0.18 -0.06 -0.19 -0.05 -0.19 -0.04 -0.19 -0.04 -0.19 -0.03 -0.2 -0.02 -0.2 -0.01 -0.2 -0 0 0zm-4.56 3.43l-0.02 0.06 -0.02 -0.04 0.06 -0.19 0.06 -0.19 0.07 -0.18 0.08 -0.18 0.09 -0.18 0.09 -0.17 0.1 -0.17 0.11 -0.16 0.11 -0.16 0.12 -0.15 0.12 -0.15 0.13 -0.14 0.13 -0.14 0.14 -0.13 0.14 -0.13 0.15 -0.12 0.15 -0.11 0.16 -0.11 0.16 -0.1 0.17 -0.09 0.17 -0.09 0.17 -0.08 0.18 -0.07 0.18 -0.07 0.18 -0.06 0.19 -0.05 0.19 -0.04 0.19 -0.04 0.19 -0.03 0.2 -0.02 0.2 -0.01 0.2 -0 0 0.06 -0.2 0 -0.2 0.01 -0.19 0.02 -0.19 0.03 -0.19 0.04 -0.19 0.04 -0.18 0.05 -0.18 0.06 -0.18 0.07 -0.18 0.07 -0.17 0.08 -0.17 0.09 -0.17 0.09 -0.16 0.1 -0.16 0.11 -0.15 0.11 -0.15 0.12 -0.14 0.12 -0.14 0.13 -0.13 0.13 -0.13 0.14 -0.12 0.15 -0.12 0.15 -0.11 0.16 -0.1 0.16 -0.1 0.16 -0.09 0.17 -0.08 0.17 -0.08 0.18 -0.07 0.18 -0.06 0.19 -0.06 0.19 -0.02 -0.04zm-0.02 0.06l-0.03 -0.01 0.01 -0.03 0.02 0.04zm6.41 2.32l-0.03 0.02 -0.03 -0.05 0.03 -0.02 0.04 0.01 -0.01 0.04zm0.01 -0.04l0.02 0.03 -0.03 0.02 0.01 -0.04zm-1.6 -2.64l1.6 2.64 -0.05 0.03 -1.6 -2.64 -0 -0 0.05 -0.03zm-0.05 0.03l-0 -0 0 0.01 -0 -0.01zm-0.05 -0.03l0 -0.06 -0 0 0 0 0 0 0 0 0 0 0 0 0 0 0 0 0 0 0 0 0 0 0 0 0 0 0 0 0 0 0 0 0 0 0 0 0 0 0 0 0 0 0 0 0 0 0 0 0 0 0 0 0 0 0 0 0 0 0 0 0 0 0 0 0 0 -0.05 0.03 -0 -0 -0 -0 -0 -0 -0 -0 -0 -0 -0 -0 -0 -0 -0 -0 -0 -0 -0 -0 -0 -0 -0 -0 -0 -0 -0 -0 -0 -0 -0 -0 -0 -0 -0 -0 -0 -0 -0 -0 -0 -0 -0 -0 -0 -0 -0 -0 -0 -0 -0 -0 -0 -0 -0 -0 -0 -0 -0 -0 -0 0 -0 0 -0 0zm0 0l0 0 -0 0 0 0zm-0.04 0.01l-0.04 -0.05 0 0 0 -0 0 -0 0 -0 0 -0 0 -0 0 -0 0 -0 0 -0 0 -0 0 -0 0 -0 0 -0 0 -0 0 -0 0 -0 0 -0 0 -0 0 -0 0 -0 0 -0 0 -0 0 -0 0 -0 0 -0 0 -0 0 -0 0 -0 0 -0 0 -0 0 -0 0 -0 0 0 0 0.06 -0 0 -0 0 -0 0 -0 0 -0 0 -0 0 -0 0 -0 0 -0 0 -0 0 -0 0 -0 0 -0 0 -0 0 -0 0 -0 0 -0 0 -0 0 -0 0 -0 0 -0 0 -0 0 -0 0 -0 0 -0 0 -0 0 -0 0 -0 0 -0 0 -0 0 -0 0 -0 0 0 0zm0 -0l0 0 -0.02 0.01 0.02 -0.02zm-0.02 0.04l-0.06 0 0 0 0 -0 0 -0 0 -0 0 -0 0 -0 0 -0 0 -0 0 -0 0 -0 0 -0 0 -0 0 -0 0 -0 0 -0 0 -0 0 -0 0 -0 0 -0 0 -0 0 -0 0 -0 0 -0 0 -0 0 -0 0 -0 0 -0 0 -0 0 -0 0 -0 0 -0 0 -0 0 -0 0.04 0.05 -0 0 -0 0 -0 0 -0 0 -0 0 -0 0 -0 0 -0 0 -0 0 -0 0 -0 0 -0 0 -0 0 -0 0 -0 0 -0 0 -0 0 -0 0 -0 0 -0 0 -0 0 -0 0 -0 0 -0 0 -0 0 -0 0 -0 0 -0 0 -0 0 -0 0 0 0 0 0 0 0zm0 -0l0 0 0 0 0 -0zm-0.06 2.38l0 -2.38 0.06 0 0 2.38 -0.04 0.03 -0.02 -0.03zm0.02 0.03l-0.02 -0.01 0 -0.02 0.02 0.03zm0.03 0.01l-0.03 -0.01 0.02 -0.06 0.03 0.01 -0.02 0.06 -0 0zm0 0l-0 0 -0.02 -0.01 0.02 0.01zm0.18 0.16l-0.06 0 0 0 -0 -0.01 -0 -0.01 -0 -0.01 -0 -0.01 -0 -0.01 -0 -0.01 -0 -0.01 -0 -0.01 -0 -0.01 -0 -0.01 -0 -0.01 -0 -0.01 -0 -0.01 -0 -0.01 -0 -0.01 -0 -0.01 -0 -0.01 -0 -0 -0 -0 -0 -0 -0 -0 -0.01 -0 -0 -0 -0.01 -0 -0.01 -0 -0.01 -0 -0.01 -0 -0.01 -0 -0.01 -0 -0.01 -0 -0.01 -0 -0.01 -0 0.02 -0.06 0.01 0 0.01 0 0.01 0 0.01 0 0.01 0 0.01 0 0.01 0 0.01 0 0.01 0.01 0.01 0.01 0.01 0.01 0.01 0.01 0.01 0.01 0.01 0.01 0.01 0.01 0.01 0.01 0.01 0.01 0.01 0.01 0 0.01 0 0.01 0 0.01 0 0.01 0 0.01 0 0.01 0 0.01 0 0.01 0 0.01 0 0.01 0 0.01 0 0.01 0 0.01 0 0.01 0 0zm-0.07 0.16l-0.04 -0.04 0 0 0 -0 0 -0 0 -0 0 -0 0 -0 0 -0 0 -0 0 -0 0 -0 0 -0 0 -0 0 -0 0 -0 0 -0 0 -0 0 -0 0 -0 0 -0 0 -0 0 -0 0 -0 0 -0 0 -0 0 -0 0 -0 0 -0 0 -0 0 -0 0 -0 0 -0 0 -0 0 -0 0.06 0 -0 0.01 -0 0.01 -0 0.01 -0 0.01 -0 0.01 -0 0.01 -0 0.01 -0 0.01 -0 0.01 -0 0.01 -0 0.01 -0 0.01 -0 0 -0 0 -0 0.01 -0 0.01 -0 0 -0 0 -0 0.01 -0 0.01 -0 0 -0 0 -0 0 -0 0 -0 0 -0 0 -0 0 -0 0 -0 0 -0 0 -0 0 -0 0 0 0zm-0.16 0.07l0 -0.06 0 0 0 -0 0 0 0 -0 0 -0 0 -0 0 -0 0 -0 0 -0 0 -0 0 -0 0 -0 0 -0 0 -0 0 -0 0 -0 0 -0 0 -0 0 -0 0 -0 0 -0 0 -0 0 -0 0 -0 0 -0 0 -0 0 -0 0 -0 0 -0 0 -0 0 -0 0 -0 0 -0 0.04 0.04 -0 0 -0 0 -0 0 -0 0 -0 0 -0 0 -0 0 -0 0 -0 0 -0 0 -0 0 -0 0 -0.01 0 -0.01 0 -0 0 -0.01 0 -0.01 0 -0 0 -0.01 0 -0.01 0 -0.01 0 -0.01 0 -0.01 0 -0.01 0 -0.01 0 -0.01 0 -0.01 0 -0.01 0 -0.01 0 -0.01 0 -0.01 0 -0.01 0 0 0zm-0.16 -0.07l0.04 -0.04 0 0 0 0 0 0 0 0 0 0 0 0 0 0 0 0 0 0 0 0 0 0 0 0 0 0 0 0 0 0 0 0 0 0 0 0 0 0 0 0 0 0 0 0 0 0 0 0 0 0 0 0 0 0 0 0 0 0 0 0 0 0 0 0 0 0 0 0.06 -0.01 -0 -0.01 -0 -0.01 -0 -0.01 -0 -0.01 -0 -0.01 -0 -0.01 -0 -0.01 -0 -0.01 -0 -0.01 -0 -0.01 -0 -0.01 -0 -0.01 -0 -0.01 -0 -0 -0 -0.01 -0 -0.01 -0 -0 -0 -0.01 -0 -0.01 -0 -0 -0 -0 -0 -0 -0 -0 -0 -0 -0 -0 -0 -0 -0 -0 -0 -0 -0 -0 -0 -0 -0 -0 -0 0 0zm-0.07 -0.16l0.06 0 0 0 0 0 0 0 0 0 0 0 0 0 0 0 0 0 0 0 0 0 0 0 0 0 0 0 0 0 0 0 0 0 0 0 0 0 0 0 0 0 0 0 0 0 0 0 0 0 0 0 0 0 0 0 0 0 0 0 0 0 0 0 0 0 0 0 -0.04 0.04 -0 -0 -0 -0 -0 -0 -0 -0 -0 -0 -0 -0 -0 -0 -0 -0 -0 -0 -0 -0 -0 -0 -0 -0 -0 -0.01 -0 -0.01 -0 -0 -0 -0.01 -0 -0.01 -0 -0 -0 -0.01 -0 -0.01 -0 -0.01 -0 -0.01 -0 -0.01 -0 -0.01 -0 -0.01 -0 -0.01 -0 -0.01 -0 -0.01 -0 -0.01 -0 -0.01 -0 -0.01 -0 -0.01 0 0zm0.06 0l0 0 0 0 0 0zm0.11 -0.22l0.02 0.06 0 0 -0.01 0 -0.01 0 -0.01 0 -0.01 0 -0.01 0 -0.01 0 -0.01 0 -0.01 0 -0.01 0 -0.01 0 -0.01 0 -0.01 0 -0 0 -0 0 -0 0.01 -0 0.01 -0 0.01 -0 0.01 -0 0.01 -0 0.01 -0 0.01 -0 0.01 -0 0.01 -0 0.01 -0 0.01 -0 0.01 -0 0.01 -0 0.01 -0 0.01 -0 0.01 -0 0.01 -0 0.01 -0.06 0 0 -0.01 0 -0.01 0 -0.01 0 -0.01 0 -0.01 0 -0.01 0 -0.01 0 -0.01 0 -0.01 0 -0.01 0 -0.01 0 -0.01 0 -0.01 0 -0.01 0.01 -0.01 0.01 -0.01 0.01 -0.01 0.01 -0.01 0.01 -0.01 0.01 -0.01 0.01 -0.01 0.01 -0.01 0.01 -0.01 0.01 -0.01 0.01 -0 0.01 -0 0.01 -0 0.01 -0 0.01 -0 0.01 -0 0.01 -0 0.01 -0 0 0zm-0 0l0 0 -0.01 0 0.01 -0zm0.04 0.05l-0.03 0.01 -0.02 -0.06 0.03 -0.01 0.04 0.03 -0.02 0.03zm0.02 -0.03l0 0.02 -0.02 0.01 0.02 -0.03zm0 -2.39l0 2.39 -0.06 0 0 -2.39 0 -0 0.06 0zm-0.06 0l0 -0 0 0 0 0zm-0.02 -0.04l0.04 -0.05 -0 -0 0 0 0 0 0 0 0 0 0 0 0 0 0 0 0 0 0 0 0 0 0 0 0 0 0 0 0 0 0 0 0 0 0 0 0 0 0 0 0 0 0 0 0 0 0 0 0 0 0 0 0 0 0 0 0 0 0 0 0 0 0 0 0 0 -0.06 -0 0 -0 0 -0 -0 -0 -0 -0 -0 -0 -0 -0 -0 -0 -0 -0 -0 -0 -0 -0 -0 -0 -0 -0 -0 -0 -0 -0 -0 -0 -0 -0 -0 -0 0 0 -0 -0 -0 -0 -0 -0 -0 -0 -0 -0 -0 -0 -0 -0 -0 -0 -0 -0 -0 -0 -0 -0 -0 -0 -0 -0 -0 -0 -0 -0zm0 0l-0 -0 0 0 -0 -0zm-0.04 -0.02l0 -0.06 -0 0 0 0 0 0 0 0 0 0 0 0 0 0 0 0 0 0 0 0 0 0 0 0 0 0 0 0 0 0 0 0 0 0 0 0 0 0 0 0 0 0 0 0 0 0 0 0 0 0 0 0 0 0 0 0 0 0 0 0 0 0 0 0 0 0 -0.04 0.05 -0 -0 -0 -0 -0 -0 -0 -0 -0 -0 -0 -0 -0 -0 -0 -0 -0 -0 -0 -0 -0 -0 -0 -0 -0 -0 -0 -0 -0 -0 -0 -0 -0 -0 -0 -0 -0 -0 -0 -0 -0 -0 -0 -0 -0 -0 0 0 -0 -0 -0 -0 -0 -0 -0 -0 -0 -0 -0 -0 -0 0 -0 0 -0 0zm0 0l-0 0 0 0 0 0zm-0.05 0.03l-0.05 -0.03 -0 0 0 -0 0 -0 0 -0 0 -0 0 -0 0 -0 0 -0 0 -0 0 -0 0 -0 0 -0 0 -0 0 -0 0 -0 0 -0 0 -0 0 -0 0 -0 0 -0 0 -0 0 -0 0 -0 0 -0 0 -0 0 -0 0 -0 0 -0 0 -0 0 -0 0 -0 0 -0 0 0 -0 0.06 -0 0 -0 0 -0 0 -0 0 -0 0 -0 0 -0 0 -0 0 -0 0 -0 0 -0 0 -0 0 -0 0 -0 0 -0 0 -0 0 -0 0 -0 0 -0 0 -0 0 -0 0 -0 0 -0 0 -0 0 -0 0 -0 0 -0 0 -0 0 -0 0 -0 0 -0 0 -0 0 -0 0zm0 -0l-0 0 -0 0 0 -0zm-1.77 2.64l1.72 -2.67 0.05 0.03 -1.72 2.67 -0.05 -0.03 0 -0zm0 0l0 -0 0.01 -0.02 -0.01 0.02zm0.04 0.06l-0.06 0 0 0 0 -0 0 -0 0 -0 0 -0 0 -0 0 -0 0 -0 0 -0 0 -0 0 -0 0 -0 0 -0 0 -0 0 -0 0 -0 0 -0 0 -0 0 -0 0 -0 0 -0 0 -0 0 -0 0 -0 0 -0 0 -0 0 -0 0 -0 0 -0 0 -0 0 -0 0 -0 0 -0 0.05 0.03 -0 0 -0 0 -0 0 0 0 -0 0 -0 0 -0 0 0 -0 -0 0 -0 0 0 0 -0 0 -0 0 -0 0 -0 0 -0 0 -0 0 -0 0 -0 0 -0 0 0 0 -0 0 -0 0 -0 0 -0 0 0 0 -0 0 -0 0 -0 0 0 0 0 0 0 0 0 0zm0 0.02l-0.06 0.02 -0 -0 -0 -0 -0 -0 -0 -0 -0 -0 -0 -0 -0 -0 -0 -0 -0 -0 -0 -0 -0 -0 -0 -0 -0 -0 -0 -0 -0 -0 -0 -0 -0 -0 0 -0 -0 -0 -0 -0 -0 -0 -0 -0 -0 -0 -0 -0 -0 -0 0 -0 0 0 -0 -0 0 -0 -0 -0 -0 -0 0 -0 0 -0 0.06 0 0 0 0 0 -0 -0 0 0 0 0 0 -0 0 0 0 0 0 -0 0 0 0 0 -0 -0 0 0 0 0 0 0 0 0 -0 -0 0 0 0 0 0 0 0 0 0 0 -0 -0 0 0 0 0 0 0 0 0 -0 -0 0 0 0 0 0 0 0 0 -0 -0zm-0.06 0.02l-0 -0 -0.01 -0.01 0.01 0.01zm0.94 2.29l-0.94 -2.29 0.06 -0.02 0.94 2.29 0 0 -0.06 0.02zm0.11 0.01l0 0.06 0 0 -0 0 -0 -0 -0 -0 -0 -0 -0 -0 -0 -0 -0 -0 -0 -0 -0 -0 -0 -0 -0 -0 -0 -0 -0 -0 -0 -0 -0 -0 -0 -0 -0 -0 -0 -0 -0 -0 -0 -0 -0 -0 -0 -0 -0 -0 -0 -0 -0 -0 -0 -0 -0 -0 -0 -0 -0 -0 -0 -0 -0 -0 -0 -0 0.06 -0.02 0 0 0 0 0 0 0 0 0 0 0 0 0 0 0 0 0 0 0 0 0 0 0 0 0 0 0 0 0 0 0 0 0 0 0 0 0 0 0 0 0 0 0 0 0 0 0 0 0 0 0 0 0 0 0 0 0 0 0 0 0 0 0 0 0 0zm1.68 0.06l-1.68 0 0 -0.06 1.68 0 0 0 0 0.06zm0.05 -0.1l0.06 0.02 0 -0 -0 0 -0 0 -0 0 -0 0 -0 0 -0 0 -0 0 -0 0 -0 0 -0 0 -0 0 -0 0 -0 0 -0 0 -0 0 -0 0 -0 0 -0 0 -0 0 -0 0 -0 0 -0 0 -0 0 -0 0 -0 0 -0 0 -0 0 -0 0 -0 0 -0.01 0 -0 0 -0 0 0 -0.06 0 -0 0 0 0 -0 0 -0 0 -0 0 -0 0 -0 0 -0 0 -0 0 -0 0 -0 0 -0 0 -0 0 -0 0 -0 0 -0 0 -0 0 -0 0 -0 0 -0 0 -0 0 -0 0 -0 0 -0 0 -0 0 -0 0 -0 0 -0 0 -0 0 -0 0 -0 0 -0 0 -0zm0 0l0 -0 0.01 -0.02 -0.01 0.02zm0.98 -2.29l-0.92 2.32 -0.06 -0.02 0.92 -2.32 0.06 0.01 -0 0.01zm0 -0.01l0 0.01 -0 0.01 0 -0.01zm0 -0l0 0 -0.06 0 0 -0 0 -0.01 0.06 0.01zm-0.06 0l0 -0.01 0 -0.01 -0 0.01zm0.01 -0.03l0.06 0 0 0 0 0 0 0 -0 0 -0 0 0 0 -0 0 0 0 -0 0 -0 0 -0 0 -0 0 -0 0 -0 0 -0 0 -0 0 -0 0 -0 0 -0 0 -0 0 -0 0 -0 0 -0 0 -0 0 -0 0 -0 0 -0 0 -0 0 -0 0 -0 0 -0 0 -0 0 -0 0 -0.06 -0.02 0 -0 0 -0 0 -0 -0 0 0 -0 0 -0 0 -0 0 -0 -0 0 0 -0 0 -0 0 -0 0 -0 -0 0 0 -0 0 -0 0 -0 0 -0 -0 0 0 -0 0 -0 0 -0 0 -0 0 -0 0 0 0 -0 0 -0 0 -0 0 -0 -0 0 0 -0 0 -0 0 0zm0.03 -0.02l-0.03 -0.05 0.04 0.01 0 0 0 0 0 0 0 0 0 0 0 0 0 0 0 0 0 0 0 0 0 0 0 0 0 0 0 0 0 0 0 0 0 0 0 0 0 0 0 0 0 0 0 0 0 0 0 0 0 0 0 0 0 0 0 0 0 0 0 0 0 0 0 0 -0.06 0 0 -0 0 0 0 -0 -0 -0 0 0 -0 -0 -0 -0 0 -0 0 0 -0 -0 -0 -0 0 -0 -0 -0 -0 -0 -0 -0 -0 -0 0 0 -0 -0 -0 -0 -0 -0 0 0 -0 -0 -0 -0 -0 -0 -0 -0 -0 -0 -0 -0 -0 -0 -0 -0 -0 -0 -0 -0 -0 -0 0.04 0.01zm-0.03 -0.05l0.03 -0.02 0.02 0.03 -0.04 -0.01zm-0.03 0.02l0.03 -0.02 0.03 0.05 -0.03 0.02 0 0 -0.03 -0.05zm0.03 0.05l0 0 -0.03 0.02 0.03 -0.02zm-0.07 -0.03l0.03 -0.02 0.03 0.05 -0.03 0.02 -0.03 -0.05zm0.07 0.03l-0.03 0.02 -0.03 -0.05 0.03 -0.02 0.03 0.05 0 0zm0 -0l0 0 -0.03 0.02 0.03 -0.02z"/>
  </g>
 </g>
</svg>
