<?xml version="1.0" encoding="UTF-8"?>
<!DOCTYPE svg PUBLIC "-//W3C//DTD SVG 1.1//EN" "http://www.w3.org/Graphics/SVG/1.1/DTD/svg11.dtd">
<!-- Creator: CorelDRAW -->
<svg xmlns="http://www.w3.org/2000/svg" xml:space="preserve" width="0.153965in" height="0.270138in" version="1.1" style="shape-rendering:geometricPrecision; text-rendering:geometricPrecision; image-rendering:optimizeQuality; fill-rule:evenodd; clip-rule:evenodd"
viewBox="0 0 20.8 36.5"
 xmlns:xlink="http://www.w3.org/1999/xlink">
 <defs>
  <style type="text/css">
   <![CDATA[
    .str0 {stroke:black;stroke-width:0.94;stroke-miterlimit:2.61313}
    .fil1 {fill:none;fill-rule:nonzero}
    .fil0 {fill:#FAB53C;fill-rule:nonzero}
   ]]>
  </style>
 </defs>
 <g id="Layer_x0020_1">
  <metadata id="CorelCorpID_0Corel-Layer"/>
  <path class="fil0" d="M0.22 1.49l17.45 0 1.94 10.5 -1.94 0 1.94 10.5 -1.94 0 1.94 7 -1.94 0 1.94 7 -9.69 -10.5 1.94 0 -5.82 -7 1.94 0 -5.82 -10.5 1.94 0 -3.88 -7zm8.73 0m9.69 5.25m0 5.25m0 5.25m0 5.25m0 3.5m0 3.5m0 3.5m-3.88 -1.75m-3.88 -5.25m-1.94 -3.5m-1.94 -3.5m-1.94 -5.25m-1.94 -5.25m-0.97 -3.5"/>
  <path class="fil1 str0" d="M0.8 0.47l17.45 0 1.94 10.5 -1.94 0 1.94 10.5 -1.94 0 1.94 7 -1.94 0 1.94 7 -9.69 -10.5 1.94 0 -5.82 -7 1.94 0 -5.82 -10.5 1.94 0 -3.88 -7zm8.73 0m9.69 5.25m0 5.25m0 5.25m0 5.25m0 3.5m0 3.5m0 3.5m-3.88 -1.75m-3.88 -5.25m-1.94 -3.5m-1.94 -3.5m-1.94 -5.25m-1.94 -5.25m-0.97 -3.5"/>
 </g>
</svg>
-6.03m-2.23 -6.03m-1.11 -4.02"/>
 </g>
</svg>
