<?xml version="1.0" encoding="UTF-8"?>
<!DOCTYPE svg PUBLIC "-//W3C//DTD SVG 1.1//EN" "http://www.w3.org/Graphics/SVG/1.1/DTD/svg11.dtd">
<!-- Creator: CorelDRAW X8 -->
<svg xmlns="http://www.w3.org/2000/svg" xml:space="preserve" width="1in" height="1in" version="1.1" style="shape-rendering:geometricPrecision; text-rendering:geometricPrecision; image-rendering:optimizeQuality; fill-rule:evenodd; clip-rule:evenodd"
viewBox="0 0 60 60"
 xmlns:xlink="http://www.w3.org/1999/xlink">
 <defs>
  <style type="text/css">
   <![CDATA[
    .fil0 {fill:none}
    .fil2 {fill:white}
    .fil3 {fill:#4949BF;fill-rule:nonzero}
    .fil1 {fill:#4949BF;fill-rule:nonzero}
   ]]>
  </style>
 </defs>
 <g id="Layer_x0020_1">
  <metadata id="CorelCorpID_0Corel-Layer"/>
  <rect class="fil0" width="60.3165" height="60.3165"/>
  <path class="fil1" d="M21 3c-1,0 -2,0 -2,1 0,1 1,2 2,2 0,0 1,-1 1,-2 0,-1 -1,-1 -1,-1zm0 3c-2,0 -3,-1 -3,-2 0,-1 1,-2 3,-2 1,0 2,1 2,2 0,1 -1,2 -2,2z"/>
  <path class="fil1" d="M40 3c-1,0 -2,0 -2,1 0,1 1,2 2,2 1,0 1,-1 1,-2 0,-1 0,-1 -1,-1zm0 3c-2,0 -3,-1 -3,-2 0,-1 1,-2 3,-2 1,0 2,1 2,2 0,1 -1,2 -2,2z"/>
  <path class="fil1" d="M42 12c-1,0 -2,1 -2,2 0,1 1,1 2,1 1,0 1,0 1,-1 0,-1 0,-2 -1,-2zm0 4c-2,0 -3,-1 -3,-2 0,-2 1,-3 3,-3 1,0 2,1 2,3 0,1 -1,2 -2,2z"/>
  <path class="fil1" d="M19 12c-1,0 -2,1 -2,2 0,1 1,1 2,1 1,0 1,0 1,-1 0,-1 0,-2 -1,-2zm0 4c-2,0 -3,-1 -3,-2 0,-2 1,-3 3,-3 1,0 2,1 2,3 0,1 -1,2 -2,2z"/>
  <path class="fil1" d="M28 14c-4,-1 -6,-4 -7,-8l1 0c0,3 3,6 6,7l0 1z"/>
  <path class="fil1" d="M32 14l0 -1c4,-1 6,-4 6,-7l1 0c0,4 -3,7 -7,8z"/>
  <polygon class="fil1" points="20,14 28,14 28,13 20,13 "/>
  <polygon class="fil1" points="32,14 40,14 40,13 32,13 "/>
  <path class="fil1" d="M30 12c-1,0 -1,1 -1,2 0,1 0,1 1,1 1,0 2,0 2,-1 0,-1 -1,-2 -2,-2zm0 4c-1,0 -2,-1 -2,-2 0,-2 1,-3 2,-3 1,0 2,1 2,3 0,1 -1,2 -2,2z"/>
  <path class="fil1" d="M42 34c0,0 -9,-15 -10,-16 -1,-2 -1,0 -1,0l0 14c1,0 1,1 1,2 0,1 -1,2 -2,2 -1,0 -2,-1 -2,-2 0,-1 1,-2 2,-2l0 -14c0,0 -1,-2 -2,0 -1,1 -10,16 -10,16 0,0 -1,1 0,3 1,3 6,14 6,14l6 0 7 0c0,0 4,-11 5,-14 1,-2 0,-3 0,-3z"/>
  <g>
   <path class="fil2" d="M23 49l15 0 0 5c0,2 -2,4 -5,4l-6 0c-2,0 -4,-2 -4,-4l0 -5z"/>
   <path id="1" class="fil3" d="M38 50l-15 0 0 -1 15 0 0 0 0 1zm0 -1l0 0 0 0 0 0zm-1 5l0 -5 1 0 0 5 0 0 -1 0zm-4 5l0 -1 0 0 0 0 1 0 0 0 0 0 0 0 0 0 1 0 0 0 0 0 0 0 0 -1 1 0 0 0 0 0 0 0 0 0 0 0 0 0 1 -1 0 0 0 0 0 0 0 0 0 0 0 -1 0 0 0 0 0 0 0 0 0 -1 0 0 0 0 1 0 0 0 0 0 0 1 0 0 0 0 0 0 0 1 0 0 0 0 0 0 -1 1 0 0 0 0 0 0 0 0 0 0 0 1 -1 0 0 0 0 0 0 0 0 0 -1 0 0 1 0 0 0 0 0 0 -1 0 0 0 0 0 0 0 -1 0 0 0zm-6 -1l6 0 0 1 -6 0 0 0 0 -1zm-5 -4l1 0 0 0 0 0 0 0 0 1 0 0 0 0 0 0 0 0 0 1 0 0 0 0 1 0 0 0 0 0 0 1 0 0 0 0 0 0 0 0 1 0 0 0 0 0 0 1 0 0 0 0 1 0 0 0 0 0 0 0 0 0 1 0 0 0 0 0 0 1 0 0 0 0 -1 0 0 0 0 0 0 0 -1 0 0 0 0 -1 0 0 -1 0 0 0 0 0 0 0 0 0 0 -1 -1 0 0 0 0 0 0 0 0 0 0 -1 0 0 0 0 -1 0 0 -1 0 0 0 0 0 0 0 -1 0 0 0 0 0 0zm1 -5l0 5 -1 0 0 -5 1 0 0 0zm-1 0l0 0 1 0 -1 0z"/>
  </g>
 </g>
</svg>
