<?xml version="1.0" encoding="UTF-8"?>
<!DOCTYPE svg PUBLIC "-//W3C//DTD SVG 1.1//EN" "http://www.w3.org/Graphics/SVG/1.1/DTD/svg11.dtd">
<!-- Creator: CorelDRAW -->
<svg xmlns="http://www.w3.org/2000/svg" xml:space="preserve" width="0.262209in" height="0.272291in" version="1.1" style="shape-rendering:geometricPrecision; text-rendering:geometricPrecision; image-rendering:optimizeQuality; fill-rule:evenodd; clip-rule:evenodd"
viewBox="0 0 38.66 40.15"
 xmlns:xlink="http://www.w3.org/1999/xlink">
 <defs>
  <style type="text/css">
   <![CDATA[
    .str0 {stroke:black;stroke-width:0.98;stroke-miterlimit:2.61313}
    .fil3 {fill:none}
    .fil1 {fill:none;fill-rule:nonzero}
    .fil2 {fill:#5497D2}
    .fil0 {fill:#FAB53C;fill-rule:nonzero}
   ]]>
  </style>
 </defs>
 <g id="Layer_x0020_1">
  <metadata id="CorelCorpID_0Corel-Layer"/>
  <path class="fil0" d="M18.62 8.99c2.33,-4.79 4.65,-7.19 9.31,-7.19 5.14,0 9.31,4.3 9.31,9.59 0,9.59 -9.31,19.18 -18.62,28.76 -9.31,-9.59 -18.62,-19.18 -18.62,-28.76 0,-5.29 4.17,-9.59 9.31,-9.59 4.65,0 6.98,2.4 9.31,7.19z"/>
  <path class="fil1 str0" d="M19.55 7.68c2.33,-4.79 4.65,-7.19 9.31,-7.19 5.14,0 9.31,4.3 9.31,9.59 0,9.59 -9.31,19.18 -18.62,28.76 -9.31,-9.59 -18.62,-19.18 -18.62,-28.76 0,-5.29 4.17,-9.59 9.31,-9.59 4.65,0 6.98,2.4 9.31,7.19z"/>
  <path class="fil2" d="M8.62 29.5c-0.03,0.32 -0.44,1.38 -0.67,1.65l-1.96 -1.28c0,0.7 0.83,1.38 1.42,2.22l1.67 2.19 1.56 -0.34 0.2 -1.23c0.08,-0.52 0.17,-0.91 0.19,-1.35 0.15,-1.16 0.4,-1.88 0.07,-2.61 -0.56,0.81 -0.71,1.27 -1.14,2.08 -0.61,-0.39 -0.78,-0.88 -1.32,-1.21l-0.01 -0.13zm-1.74 -23.16l-0.07 -0.06 -6.47 1.5c-0.19,0.65 1.48,6.92 1.68,7.66l3.42 15.38c0.31,0.61 4.54,5.74 5.15,6.82 0.25,-0.72 0.8,-5.03 1.06,-6.33 0.07,-0.64 0.25,-1.42 0.26,-1.99 -0.04,-0.38 -4.71,-21.67 -5.08,-22.91l0.06 -0.07zm-0.62 3.55l-0.44 -1.99 -3.98 0.88 0.44 1.99 3.98 -0.88z"/>
  <path class="fil3 str0" d="M9.56 28.19c-0.03,0.32 -0.44,1.38 -0.67,1.65l-1.96 -1.28c0,0.7 0.83,1.38 1.42,2.22l1.67 2.19 1.56 -0.34 0.2 -1.23c0.08,-0.52 0.17,-0.91 0.19,-1.35 0.15,-1.16 0.4,-1.88 0.07,-2.61 -0.56,0.81 -0.71,1.27 -1.14,2.08 -0.61,-0.39 -0.78,-0.88 -1.32,-1.21l-0.01 -0.13zm-1.74 -23.16l-0.07 -0.06 -6.47 1.5c-0.19,0.65 1.48,6.92 1.68,7.66l3.42 15.38c0.31,0.61 4.54,5.74 5.15,6.82 0.25,-0.72 0.8,-5.03 1.06,-6.33 0.07,-0.64 0.25,-1.42 0.26,-1.99 -0.04,-0.38 -4.71,-21.67 -5.08,-22.91l0.06 -0.07zm-0.62 3.55l-0.44 -1.99 -3.98 0.88 0.44 1.99 3.98 -0.88z"/>
 </g>
</svg>
