<?xml version="1.0" encoding="UTF-8"?>
<!DOCTYPE svg PUBLIC "-//W3C//DTD SVG 1.1//EN" "http://www.w3.org/Graphics/SVG/1.1/DTD/svg11.dtd">
<!-- Creator: CorelDRAW -->
<svg xmlns="http://www.w3.org/2000/svg" xml:space="preserve" width="0.306827in" height="0.300992in" version="1.1" style="shape-rendering:geometricPrecision; text-rendering:geometricPrecision; image-rendering:optimizeQuality; fill-rule:evenodd; clip-rule:evenodd"
viewBox="0 0 8.24 8.08"
 xmlns:xlink="http://www.w3.org/1999/xlink">
 <defs>
  <style type="text/css">
   <![CDATA[
    .fil2 {fill:none;fill-rule:nonzero}
    .fil0 {fill:#FAB53C}
    .fil3 {fill:#5497D2}
    .fil1 {fill:white;fill-rule:nonzero}
    .fil4 {fill:#1A1A1A;fill-rule:nonzero}
   ]]>
  </style>
 </defs>
 <g id="Layer_x0020_1">
  <metadata id="CorelCorpID_0Corel-Layer"/>
  <g id="_105554790614304">
   <path class="fil0" d="M3.24 1.52l4.53 0c0.21,0 0.39,0.17 0.39,0.39l0 5.79c0,0.21 -0.17,0.39 -0.39,0.39l-5.96 0c-0.21,0 -0.39,-0.17 -0.39,-0.39l0 -4.27c0.02,0 0.05,0 0.07,0 0.97,0 1.75,-0.78 1.75,-1.75 0,-0.05 -0,-0.11 -0.01,-0.16z"/>
   <path class="fil1" d="M7.71 7.15c-0.54,-0.57 -1.09,-1.14 -1.63,-1.7 -0.06,-0.06 -0.16,-0.07 -0.23,-0.02 -0.19,0.15 -0.37,0.29 -0.56,0.44 -0,0 -0.01,0 -0.01,-0 -0.39,-0.42 -0.79,-0.84 -1.18,-1.26 -0.06,-0.07 -0.17,-0.06 -0.22,0.01 -0.67,0.82 -1.34,1.64 -2.01,2.46 -0,0 -0,0 -0,0 -0,0.13 -0.01,0.3 -0.01,0.43 1.89,0 3.96,0 5.85,0 0,0 0.01,-0 0.01,-0.01l0 -0.35c0,-0 -0,-0 -0,-0.01z"/>
   <path class="fil2" d="M7.71 7.15c-0.54,-0.57 -1.09,-1.14 -1.63,-1.7 -0.06,-0.06 -0.16,-0.07 -0.23,-0.02 -0.19,0.15 -0.37,0.29 -0.56,0.44 -0,0 -0.01,0 -0.01,-0 -0.39,-0.42 -0.79,-0.84 -1.18,-1.26 -0.06,-0.07 -0.17,-0.06 -0.22,0.01 -0.67,0.82 -1.34,1.64 -2.01,2.46 -0,0 -0,0 -0,0 -0,0.13 -0.01,0.3 -0.01,0.43 1.89,0 3.96,0 5.85,0 0,0 0.01,-0 0.01,-0.01l0 -0.35c0,-0 -0,-0 -0,-0.01z"/>
   <path class="fil1" d="M6.3 4.37c0.42,0 0.76,-0.34 0.76,-0.76 0,-0.42 -0.34,-0.76 -0.76,-0.76 -0.42,0 -0.76,0.34 -0.76,0.76 0,0.42 0.34,0.76 0.76,0.76z"/>
   <path class="fil2" d="M6.3 4.37c0.42,0 0.76,-0.34 0.76,-0.76 0,-0.42 -0.34,-0.76 -0.76,-0.76 -0.42,0 -0.76,0.34 -0.76,0.76 0,0.42 0.34,0.76 0.76,0.76z"/>
   <path class="fil3" d="M1.49 0.19c0.82,0 1.49,0.67 1.49,1.49 0,0.82 -0.67,1.49 -1.49,1.49 -0.82,0 -1.49,-0.67 -1.49,-1.49 0,-0.82 0.67,-1.49 1.49,-1.49zm-0.25 2.17l1.18 -1.18 -0.19 -0.19 -0.99 0.99 -0.5 -0.5 -0.19 0.19 0.69 0.69 0 0z"/>
  </g>
  <g id="_105554790292512">
   <g>
    <path class="fil4" d="M7.82 1.39l-4.53 0 0 -0.05 4.53 0 0 0 0 0.05zm0.41 0.36l-0.05 0 0 0 -0 -0.02 -0 -0.02 -0 -0.02 -0 -0.02 -0 -0.02 -0 -0.02 -0.01 -0.02 -0.01 -0.02 -0.01 -0.02 -0.01 -0.02 -0.01 -0.02 -0.01 -0.01 -0.01 -0.01 -0.01 -0.01 -0.01 -0.01 -0.01 -0.01 -0.01 -0.01 -0.01 -0.01 -0.01 -0.01 -0.01 -0.01 -0.01 -0.01 -0.01 -0.01 -0.02 -0.01 -0.02 -0.01 -0.02 -0.01 -0.02 -0.01 -0.02 -0 -0.02 -0 -0.02 -0 -0.02 -0 -0.02 -0 -0.02 -0 0 -0.05 0.02 0 0.02 0 0.02 0 0.02 0 0.02 0 0.02 0.01 0.02 0.01 0.02 0.01 0.02 0.01 0.02 0.01 0.02 0.01 0.02 0.01 0.02 0.01 0.02 0.01 0.01 0.01 0.01 0.01 0.01 0.01 0.01 0.01 0.01 0.02 0.01 0.02 0.01 0.02 0.01 0.02 0.01 0.02 0.01 0.02 0.01 0.02 0.01 0.02 0.01 0.02 0 0.02 0 0.02 0 0.02 0 0.02 0 0.02 0 0zm-0.05 5.79l0 -5.79 0.05 0 0 5.79 0 0 -0.05 0zm-0.36 0.41l0 -0.05 0 0 0.02 -0 0.02 -0 0.02 -0 0.02 -0 0.02 -0 0.02 -0 0.02 -0.01 0.02 -0.01 0.02 -0.01 0.02 -0.01 0.01 -0.01 0.01 -0.01 0.01 -0.01 0.01 -0.01 0.01 -0.01 0.01 -0.01 0.01 -0.01 0.01 -0.01 0.01 -0.01 0.01 -0.01 0.01 -0.01 0.01 -0.01 0.01 -0.02 0.01 -0.02 0.01 -0.02 0.01 -0.02 0 -0.02 0 -0.02 0 -0.02 0 -0.02 0 -0.02 0 -0.02 0.05 0 -0 0.02 -0 0.02 -0 0.02 -0 0.02 -0 0.02 -0.01 0.02 -0.01 0.02 -0.01 0.02 -0.01 0.02 -0.01 0.02 -0.01 0.02 -0.01 0.02 -0.01 0.02 -0.01 0.02 -0.01 0.01 -0.01 0.01 -0.01 0.01 -0.01 0.01 -0.02 0.01 -0.02 0.01 -0.02 0.01 -0.02 0.01 -0.02 0.01 -0.02 0.01 -0.02 0.01 -0.02 0.01 -0.02 0.01 -0.02 0 -0.02 0 -0.02 0 -0.02 0 -0.02 0 0 0zm-5.96 -0.05l5.96 0 0 0.05 -5.96 0 0 0 0 -0.05zm-0.41 -0.36l0.05 0 0 0 0 0.02 0 0.02 0 0.02 0 0.02 0 0.02 0 0.02 0.01 0.02 0.01 0.02 0.01 0.02 0.01 0.02 0.01 0.01 0.01 0.01 0.01 0.01 0.01 0.01 0.01 0.01 0.01 0.01 0.01 0.01 0.01 0.01 0.01 0.01 0.01 0.01 0.01 0.01 0.01 0.01 0.02 0.01 0.02 0.01 0.02 0.01 0.02 0.01 0.02 0 0.02 0 0.02 0 0.02 0 0.02 0 0.02 0 0 0.05 -0.02 -0 -0.02 -0 -0.02 -0 -0.02 -0 -0.02 -0 -0.02 -0.01 -0.02 -0.01 -0.02 -0.01 -0.02 -0.01 -0.02 -0.01 -0.02 -0.01 -0.02 -0.01 -0.02 -0.01 -0.02 -0.01 -0.01 -0.01 -0.01 -0.01 -0.01 -0.01 -0.01 -0.01 -0.01 -0.02 -0.01 -0.02 -0.01 -0.02 -0.01 -0.02 -0.01 -0.02 -0.01 -0.02 -0.01 -0.02 -0.01 -0.02 -0.01 -0.02 -0 -0.02 -0 -0.02 -0 -0.02 -0 -0.02 -0 -0.02 0 0zm0.05 -4.27l0 4.27 -0.05 0 0 -4.27 0.03 -0.03 0.03 0.03zm-0.05 0l0 -0.03 0.03 0 -0.03 0.03zm0.1 -0.02l0 0.05 0 0 -0 0 -0 0 -0 0 -0 0 -0 0 -0 -0 -0 0 -0 0 -0 0 -0 -0 -0 0 -0 0 -0 -0 -0 0 -0 -0 -0 0 -0 -0 -0 0 -0 -0 -0 -0 -0 0 -0 -0 -0 -0 -0 0 -0 -0 -0 -0 -0 -0 -0 0 -0 -0 -0 -0 -0 -0 -0 -0 0 -0.05 0 0 0 0 0 0 0 0 0 0 0 0 0 0 0 0 0 0 0 0 0 0 0 0 0 0 0 0 0 0 0 0 0 0 0 0 0 0 0 0 0 0 0 0 0 0 0 0 0 0 0 0 0 0 0 0 0 0 0 0 0 0 0 0 0 0zm1.72 -1.72l0.05 0 0 0 -0 0.09 -0.01 0.09 -0.01 0.09 -0.02 0.09 -0.02 0.09 -0.02 0.08 -0.03 0.08 -0.03 0.08 -0.04 0.08 -0.04 0.08 -0.04 0.07 -0.05 0.07 -0.05 0.07 -0.05 0.07 -0.06 0.06 -0.06 0.06 -0.06 0.06 -0.06 0.06 -0.07 0.05 -0.07 0.05 -0.07 0.05 -0.07 0.04 -0.08 0.04 -0.08 0.04 -0.08 0.03 -0.08 0.03 -0.08 0.02 -0.09 0.02 -0.09 0.02 -0.09 0.01 -0.09 0.01 -0.09 0 0 -0.05 0.09 -0 0.09 -0.01 0.09 -0.01 0.08 -0.02 0.08 -0.02 0.08 -0.02 0.08 -0.03 0.08 -0.03 0.08 -0.03 0.07 -0.04 0.07 -0.04 0.07 -0.04 0.07 -0.05 0.07 -0.05 0.06 -0.05 0.06 -0.06 0.06 -0.06 0.05 -0.06 0.05 -0.07 0.05 -0.07 0.04 -0.07 0.04 -0.07 0.04 -0.07 0.03 -0.08 0.03 -0.08 0.03 -0.08 0.02 -0.08 0.02 -0.08 0.02 -0.08 0.01 -0.09 0.01 -0.09 0 -0.09 0 0zm0.02 -0.18l0 0.05 0.03 -0.03 0 0 0 0 0 0 0 0.01 0 0 0 0 0 0.01 0 0 0 0 0 0 0 0 0 0.01 0 0 0 0 0 0.01 0 0 0 0 0 0 0 0.01 0 0 0 0 0 0 0 0 0 0.01 0 0 0 0.01 0 0 0 0 0 0 0 0 0 0.01 0 0 -0.05 0 0 -0 0 -0 -0 -0 0 -0 -0 -0 0 -0 -0 -0 -0 -0 -0 -0 -0 -0 -0 -0 -0 -0 -0 -0 -0 -0 -0 -0 -0 -0 -0 -0 -0 -0 -0 -0 -0 -0 -0 -0 -0 -0 -0 -0 -0 -0 -0 -0 -0 -0 -0 -0 -0 -0 -0 -0 -0 -0 -0 -0 -0 -0 0.03 -0.03zm-0.03 0.03l-0 -0.03 0.03 0 -0.03 0.03z"/>
   </g>
   <g>
    <path class="fil4" d="M6.12 5.31l0.04 -0.04 0 0 0.05 0.05 0.05 0.05 0.05 0.05 0.05 0.05 0.05 0.05 0.05 0.05 0.05 0.05 0.05 0.05 0.05 0.05 0.05 0.05 0.05 0.05 0.05 0.05 0.05 0.05 0.05 0.05 0.05 0.05 0.05 0.05 0.05 0.05 0.05 0.05 0.05 0.05 0.05 0.05 0.05 0.05 0.05 0.05 0.05 0.05 0.05 0.05 0.05 0.05 0.05 0.05 0.05 0.05 0.05 0.05 0.05 0.05 0.05 0.05 0.05 0.05 0.05 0.05 -0.04 0.04 -0.05 -0.05 -0.05 -0.05 -0.05 -0.05 -0.05 -0.05 -0.05 -0.05 -0.05 -0.05 -0.05 -0.05 -0.05 -0.05 -0.05 -0.05 -0.05 -0.05 -0.05 -0.05 -0.05 -0.05 -0.05 -0.05 -0.05 -0.05 -0.05 -0.05 -0.05 -0.05 -0.05 -0.05 -0.05 -0.05 -0.05 -0.05 -0.05 -0.05 -0.05 -0.05 -0.05 -0.05 -0.05 -0.05 -0.05 -0.05 -0.05 -0.05 -0.05 -0.05 -0.05 -0.05 -0.05 -0.05 -0.05 -0.05 -0.05 -0.05 -0.05 -0.05 -0.05 -0.05 0 0zm-0.19 -0.01l-0.03 -0.04 0 0 0.01 -0.01 0.01 -0.01 0.01 -0 0.01 -0 0.01 -0 0.01 -0 0.01 -0 0.01 -0 0.01 -0 0.01 -0 0.01 -0 0.01 -0 0.01 -0 0.01 -0 0.01 0 0.01 0 0.01 0 0.01 0 0.01 0 0.01 0 0.01 0 0.01 0 0.01 0 0.01 0 0.01 0 0.01 0 0.01 0 0.01 0.01 0.01 0.01 0.01 0.01 0.01 0.01 0.01 0.01 -0.04 0.04 -0 -0 -0 -0 -0.01 -0 -0.01 -0 -0.01 -0 -0.01 -0 -0.01 -0 -0.01 -0 -0.01 -0 -0.01 -0 -0.01 -0 -0.01 -0 -0.01 -0 -0.01 -0 -0.01 -0 -0.01 -0 -0.01 -0 -0.01 0 -0.01 0 -0.01 0 -0.01 0 -0.01 0 -0.01 0 -0.01 0 -0.01 0 -0.01 0 -0.01 0 -0.01 0 -0.01 0 -0.01 0 -0.01 0 -0.01 0 0 0zm-0.56 0.44l-0.03 -0.04 0 -0 0.02 -0.01 0.02 -0.01 0.02 -0.01 0.02 -0.01 0.02 -0.01 0.02 -0.01 0.02 -0.01 0.02 -0.01 0.02 -0.01 0.02 -0.01 0.02 -0.01 0.02 -0.01 0.02 -0.01 0.02 -0.01 0.02 -0.01 0.02 -0.01 0.02 -0.01 0.02 -0.01 0.02 -0.01 0.02 -0.01 0.02 -0.01 0.02 -0.01 0.02 -0.01 0.02 -0.01 0.02 -0.01 0.02 -0.01 0.02 -0.01 0.02 -0.01 0.02 -0.01 0.02 -0.01 0.02 -0.01 0.02 -0.01 0.03 0.04 -0.02 0.01 -0.02 0.01 -0.02 0.01 -0.02 0.01 -0.02 0.01 -0.02 0.01 -0.02 0.01 -0.02 0.01 -0.02 0.01 -0.02 0.01 -0.02 0.01 -0.02 0.01 -0.02 0.01 -0.02 0.01 -0.02 0.01 -0.02 0.01 -0.02 0.01 -0.02 0.01 -0.02 0.01 -0.02 0.01 -0.02 0.01 -0.02 0.01 -0.02 0.01 -0.02 0.01 -0.02 0.01 -0.02 0.01 -0.02 0.01 -0.02 0.01 -0.02 0.01 -0.02 0.01 -0.02 0.01 -0.02 0.01 0 -0zm-0.03 -0.04l0 -0 0 -0 -0 0zm-0.01 0.04l0.04 -0.04 0 0 -0 -0 -0 -0 0 0 0 0 -0 -0 0 0 -0 -0 0 0 0 0 -0 -0 0 0 0 0 -0 -0 -0 -0 0 0 -0 -0 0 0 0 0 0 0 0 0 -0 0 -0 0 -0 0 0 -0 0 -0 0 -0 -0 0 0 -0 -0 0 -0 0 0 -0 -0 0 0.03 0.04 -0 0 0 -0 -0 0 -0 0 -0 0 -0 0 -0 0 -0 0 -0 0 -0 0 -0 0 -0 0 -0 0 -0 0 -0 0 -0 0 -0 -0 -0 -0 -0 -0 -0 -0 0 0 -0 -0 -0 -0 -0 -0 -0 -0 -0 -0 -0 -0 -0 -0 -0 -0 0 0 -0 -0 -0 -0 0 0zm0.04 -0.04l0 0 -0 -0 -0 -0zm-1.22 -1.22l0.04 -0.04 0 0 0.04 0.04 0.04 0.04 0.04 0.04 0.04 0.04 0.04 0.04 0.04 0.04 0.04 0.04 0.04 0.04 0.04 0.04 0.04 0.04 0.04 0.04 0.04 0.04 0.04 0.04 0.04 0.04 0.04 0.04 0.04 0.04 0.04 0.04 0.04 0.04 0.04 0.04 0.04 0.04 0.04 0.04 0.04 0.04 0.04 0.04 0.04 0.04 0.04 0.04 0.04 0.04 0.04 0.04 0.04 0.04 0.04 0.04 0.04 0.04 0.04 0.04 0.04 0.04 -0.04 0.04 -0.04 -0.04 -0.04 -0.04 -0.04 -0.04 -0.04 -0.04 -0.04 -0.04 -0.04 -0.04 -0.04 -0.04 -0.04 -0.04 -0.04 -0.04 -0.04 -0.04 -0.04 -0.04 -0.04 -0.04 -0.04 -0.04 -0.04 -0.04 -0.04 -0.04 -0.04 -0.04 -0.04 -0.04 -0.04 -0.04 -0.04 -0.04 -0.04 -0.04 -0.04 -0.04 -0.04 -0.04 -0.04 -0.04 -0.04 -0.04 -0.04 -0.04 -0.04 -0.04 -0.04 -0.04 -0.04 -0.04 -0.04 -0.04 -0.04 -0.04 -0.04 -0.04 -0.04 -0.04 0 0zm-0.18 0.01l-0.04 -0.03 0 0 0.01 -0.01 0.01 -0.01 0.01 -0.01 0.01 -0.01 0.01 -0.01 0.01 -0.01 0.01 -0 0.01 -0 0.01 -0 0.01 -0 0.01 -0 0.01 -0 0.01 -0 0.01 -0 0.01 -0 0.01 -0 0.01 -0 0.01 0 0.01 0 0.01 0 0.01 0 0.01 0 0.01 0 0.01 0 0.01 0 0.01 0 0.01 0 0.01 0.01 0.01 0.01 0.01 0.01 0.01 0.01 0.01 0.01 -0.04 0.04 -0 -0 -0.01 -0 -0.01 -0 -0.01 -0 -0.01 -0 -0.01 -0 -0.01 -0 -0.01 -0 -0.01 -0 -0.01 -0 -0.01 -0 -0.01 -0 -0.01 -0 -0.01 -0 -0.01 -0 -0.01 0 -0.01 0 -0.01 0 -0.01 0 -0.01 0 -0.01 0 -0.01 0 -0.01 0 -0.01 0 -0.01 0 -0.01 0 -0.01 0 -0.01 0 -0.01 0 -0 0 -0 0 -0 0.01 0 0zm-2.01 2.46l-0.04 -0.03 0 -0 0.06 -0.08 0.06 -0.08 0.06 -0.08 0.06 -0.08 0.06 -0.08 0.06 -0.08 0.06 -0.08 0.06 -0.08 0.06 -0.08 0.06 -0.08 0.06 -0.08 0.06 -0.08 0.06 -0.08 0.06 -0.08 0.06 -0.08 0.06 -0.08 0.06 -0.08 0.06 -0.08 0.06 -0.08 0.06 -0.08 0.06 -0.08 0.06 -0.08 0.06 -0.08 0.06 -0.08 0.06 -0.08 0.06 -0.08 0.06 -0.08 0.06 -0.08 0.06 -0.08 0.06 -0.08 0.06 -0.08 0.06 -0.08 0.04 0.03 -0.06 0.08 -0.06 0.08 -0.06 0.08 -0.06 0.08 -0.06 0.08 -0.06 0.08 -0.06 0.08 -0.06 0.08 -0.06 0.08 -0.06 0.08 -0.06 0.08 -0.06 0.08 -0.06 0.08 -0.06 0.08 -0.06 0.08 -0.06 0.08 -0.06 0.08 -0.06 0.08 -0.06 0.08 -0.06 0.08 -0.06 0.08 -0.06 0.08 -0.06 0.08 -0.06 0.08 -0.06 0.08 -0.06 0.08 -0.06 0.08 -0.06 0.08 -0.06 0.08 -0.06 0.08 -0.06 0.08 -0.06 0.08 0 -0zm-0.04 -0.03l0 -0 -0 0 0 -0zm0.05 0.02l-0.05 -0 0 -0 0 0 0 -0 0 -0.01 0 -0 -0 0.01 0 -0 0 -0.01 0 -0 -0 0.01 0 -0 0 -0.01 0 -0 -0 0 0 -0 0 -0 -0 0 0 -0 0 -0 0 -0 0 -0 0 -0 0 -0 -0 0.01 0 -0 0 -0 0 -0 -0 0 0 -0 0 -0 0 -0 0 -0 -0 0 0.04 0.03 -0 0 0 -0 -0 0 0 -0 0 0 -0 0 -0 0 0 -0 0 -0 -0 0.01 0 -0 0 0 0 -0 0 0 -0 0 0 0 -0 0 0 -0 -0 0 -0 0 0 -0 0 -0.01 0 0 -0 0.01 -0 0 0 -0.01 0 0 -0 0.01 -0 0 0 -0.01 0 0 0 0 0 -0zm-0.05 -0l0 -0 0 -0 -0 0zm0.01 0.4l0 0.05 -0.03 -0.03 0 -0.01 0 -0.01 0 -0.01 0 -0.01 0 -0.01 0 -0.01 0 -0.01 0 -0.01 0 -0.01 0 -0.01 0 -0.01 0 -0.01 0 -0.01 0 -0.01 0 -0.01 0 -0.01 0 -0.01 0 -0.01 0 -0.01 0 -0.01 0 -0.01 0 -0.01 0 -0.01 0 -0.01 0 -0.01 0 -0.01 0 -0.01 0 -0.01 0 -0.01 0 -0.01 0 -0.01 0 -0.01 0.05 0 -0 0.01 -0 0.01 -0 0.01 -0 0.01 -0 0.01 -0 0.01 -0 0.01 -0 0.01 -0 0.01 -0 0.01 -0 0.01 -0 0.01 -0 0.01 -0 0.01 -0 0.01 -0 0.01 -0 0.01 -0 0.01 -0 0.01 -0 0.01 -0 0.01 -0 0.01 -0 0.01 -0 0.01 -0 0.01 -0 0.01 -0 0.01 -0 0.01 -0 0.01 -0 0.01 -0 0.01 -0 0.01 -0.03 -0.03zm0 0.05l-0.03 0 0 -0.03 0.03 0.03zm5.85 -0.05l0 0.05 0 0 -0.18 0 -0.18 0 -0.18 0 -0.18 0 -0.18 0 -0.18 0 -0.18 0 -0.18 0 -0.18 0 -0.18 0 -0.18 -0 -0.19 0 -0.19 0 -0.19 0 -0.19 0 -0.19 0 -0.19 0 -0.19 0 -0.19 0 -0.19 0 -0.19 0 -0.18 -0 -0.18 0 -0.18 0 -0.18 0 -0.18 0 -0.18 0 -0.18 0 -0.18 0 -0.18 0 -0.18 0 -0.18 0 0 -0.05 0.18 0 0.18 0 0.18 0 0.18 0 0.18 0 0.18 0 0.18 0 0.18 0 0.18 0 0.18 0 0.18 0 0.19 0 0.19 0 0.19 0 0.19 0 0.19 0 0.19 0 0.19 0 0.19 0 0.19 0 0.19 0 0.18 0 0.18 0 0.18 0 0.18 0 0.18 0 0.18 0 0.18 0 0.18 0 0.18 0 0.18 0 0.18 0 0 0zm-0.02 0.02l0.05 0 0 0 0 0 -0 0 -0 -0 0 0 -0 0 0 -0 -0 0 -0 0 -0 0 -0 0 -0 0 -0 0 -0 0 -0 0 -0 0 -0 0 0 -0 -0 0 -0 0 -0 0 -0 0 -0 0 -0 0 -0 0 -0 0 -0 0 -0 0 -0 0 -0 0 -0 0 -0 0 -0 0 0 -0.05 0 0 -0 0 0 -0 0 0 -0 0 0 -0 -0 0 0 -0 -0 0 0 -0 0 -0 -0 0 0 -0 -0 0 0 -0 0 -0 -0 0 -0 0 -0 0 0 -0 -0 0 0 -0 0 -0 0 -0 -0 0 -0 0 0 -0 -0 0 0 0 0 -0 -0 0 0 -0 0 0zm0.05 -0.35l0 0.35 -0.05 0 0 -0.35 0 0 0.05 0zm-0.05 0.01l0.04 -0.04 0 0 0 0 0 0 -0.01 -0.01 0 0 0 0 0 0 0 0 0 0 0 0.01 0 0 -0 -0.01 0 0 0 0 0 0.01 0 0 -0 -0 0 0 -0 -0 0 0 0 0 0 0 0 0.01 -0 -0.01 0 0 0 0.01 0 0 -0 -0.01 0 0 0 0.01 0 0 0 0 0 0 -0.05 0 0 -0 0 -0 0 -0 0 0.01 -0 -0 -0 -0.01 0 -0 0 0.01 0 0 -0 -0.01 0 0.01 0 0 0 -0 0 0 -0 -0 0 -0 -0 -0 0 0 0 0.01 -0 -0 -0 -0 -0 -0.01 0 -0 0 0.01 -0 -0 -0 -0 -0 -0 0 0 0 0 -0.01 -0.01 -0 -0 0 0 0 0zm0.04 -0.04l0 0 0 0 -0 -0z"/>
   </g>
   <g>
    <path class="fil4" d="M6.12 5.31l0.04 -0.04 0 0 0.05 0.05 0.05 0.05 0.05 0.05 0.05 0.05 0.05 0.05 0.05 0.05 0.05 0.05 0.05 0.05 0.05 0.05 0.05 0.05 0.05 0.05 0.05 0.05 0.05 0.05 0.05 0.05 0.05 0.05 0.05 0.05 0.05 0.05 0.05 0.05 0.05 0.05 0.05 0.05 0.05 0.05 0.05 0.05 0.05 0.05 0.05 0.05 0.05 0.05 0.05 0.05 0.05 0.05 0.05 0.05 0.05 0.05 0.05 0.05 0.05 0.05 0.05 0.05 -0.04 0.04 -0.05 -0.05 -0.05 -0.05 -0.05 -0.05 -0.05 -0.05 -0.05 -0.05 -0.05 -0.05 -0.05 -0.05 -0.05 -0.05 -0.05 -0.05 -0.05 -0.05 -0.05 -0.05 -0.05 -0.05 -0.05 -0.05 -0.05 -0.05 -0.05 -0.05 -0.05 -0.05 -0.05 -0.05 -0.05 -0.05 -0.05 -0.05 -0.05 -0.05 -0.05 -0.05 -0.05 -0.05 -0.05 -0.05 -0.05 -0.05 -0.05 -0.05 -0.05 -0.05 -0.05 -0.05 -0.05 -0.05 -0.05 -0.05 -0.05 -0.05 -0.05 -0.05 -0.05 -0.05 0 0zm-0.19 -0.01l-0.03 -0.04 0 0 0.01 -0.01 0.01 -0.01 0.01 -0 0.01 -0 0.01 -0 0.01 -0 0.01 -0 0.01 -0 0.01 -0 0.01 -0 0.01 -0 0.01 -0 0.01 -0 0.01 -0 0.01 0 0.01 0 0.01 0 0.01 0 0.01 0 0.01 0 0.01 0 0.01 0 0.01 0 0.01 0 0.01 0 0.01 0 0.01 0 0.01 0.01 0.01 0.01 0.01 0.01 0.01 0.01 0.01 0.01 -0.04 0.04 -0 -0 -0 -0 -0.01 -0 -0.01 -0 -0.01 -0 -0.01 -0 -0.01 -0 -0.01 -0 -0.01 -0 -0.01 -0 -0.01 -0 -0.01 -0 -0.01 -0 -0.01 -0 -0.01 -0 -0.01 -0 -0.01 -0 -0.01 0 -0.01 0 -0.01 0 -0.01 0 -0.01 0 -0.01 0 -0.01 0 -0.01 0 -0.01 0 -0.01 0 -0.01 0 -0.01 0 -0.01 0 -0.01 0 -0.01 0 0 0zm-0.56 0.44l-0.03 -0.04 0 -0 0.02 -0.01 0.02 -0.01 0.02 -0.01 0.02 -0.01 0.02 -0.01 0.02 -0.01 0.02 -0.01 0.02 -0.01 0.02 -0.01 0.02 -0.01 0.02 -0.01 0.02 -0.01 0.02 -0.01 0.02 -0.01 0.02 -0.01 0.02 -0.01 0.02 -0.01 0.02 -0.01 0.02 -0.01 0.02 -0.01 0.02 -0.01 0.02 -0.01 0.02 -0.01 0.02 -0.01 0.02 -0.01 0.02 -0.01 0.02 -0.01 0.02 -0.01 0.02 -0.01 0.02 -0.01 0.02 -0.01 0.02 -0.01 0.03 0.04 -0.02 0.01 -0.02 0.01 -0.02 0.01 -0.02 0.01 -0.02 0.01 -0.02 0.01 -0.02 0.01 -0.02 0.01 -0.02 0.01 -0.02 0.01 -0.02 0.01 -0.02 0.01 -0.02 0.01 -0.02 0.01 -0.02 0.01 -0.02 0.01 -0.02 0.01 -0.02 0.01 -0.02 0.01 -0.02 0.01 -0.02 0.01 -0.02 0.01 -0.02 0.01 -0.02 0.01 -0.02 0.01 -0.02 0.01 -0.02 0.01 -0.02 0.01 -0.02 0.01 -0.02 0.01 -0.02 0.01 -0.02 0.01 0 -0zm-0.03 -0.04l0 -0 0 -0 -0 0zm-0.01 0.04l0.04 -0.04 0 0 -0 -0 -0 -0 0 0 0 0 -0 -0 0 0 -0 -0 0 0 0 0 -0 -0 0 0 0 0 -0 -0 -0 -0 0 0 -0 -0 0 0 0 0 0 0 0 0 -0 0 -0 0 -0 0 0 -0 0 -0 0 -0 -0 0 0 -0 -0 0 -0 0 0 -0 -0 0 0.03 0.04 -0 0 0 -0 -0 0 -0 0 -0 0 -0 0 -0 0 -0 0 -0 0 -0 0 -0 0 -0 0 -0 0 -0 0 -0 0 -0 0 -0 -0 -0 -0 -0 -0 -0 -0 0 0 -0 -0 -0 -0 -0 -0 -0 -0 -0 -0 -0 -0 -0 -0 -0 -0 0 0 -0 -0 -0 -0 0 0zm0.04 -0.04l0 0 -0 -0 -0 -0zm-1.22 -1.22l0.04 -0.04 0 0 0.04 0.04 0.04 0.04 0.04 0.04 0.04 0.04 0.04 0.04 0.04 0.04 0.04 0.04 0.04 0.04 0.04 0.04 0.04 0.04 0.04 0.04 0.04 0.04 0.04 0.04 0.04 0.04 0.04 0.04 0.04 0.04 0.04 0.04 0.04 0.04 0.04 0.04 0.04 0.04 0.04 0.04 0.04 0.04 0.04 0.04 0.04 0.04 0.04 0.04 0.04 0.04 0.04 0.04 0.04 0.04 0.04 0.04 0.04 0.04 0.04 0.04 0.04 0.04 -0.04 0.04 -0.04 -0.04 -0.04 -0.04 -0.04 -0.04 -0.04 -0.04 -0.04 -0.04 -0.04 -0.04 -0.04 -0.04 -0.04 -0.04 -0.04 -0.04 -0.04 -0.04 -0.04 -0.04 -0.04 -0.04 -0.04 -0.04 -0.04 -0.04 -0.04 -0.04 -0.04 -0.04 -0.04 -0.04 -0.04 -0.04 -0.04 -0.04 -0.04 -0.04 -0.04 -0.04 -0.04 -0.04 -0.04 -0.04 -0.04 -0.04 -0.04 -0.04 -0.04 -0.04 -0.04 -0.04 -0.04 -0.04 -0.04 -0.04 -0.04 -0.04 -0.04 -0.04 -0.04 -0.04 0 0zm-0.18 0.01l-0.04 -0.03 0 0 0.01 -0.01 0.01 -0.01 0.01 -0.01 0.01 -0.01 0.01 -0.01 0.01 -0.01 0.01 -0 0.01 -0 0.01 -0 0.01 -0 0.01 -0 0.01 -0 0.01 -0 0.01 -0 0.01 -0 0.01 -0 0.01 -0 0.01 0 0.01 0 0.01 0 0.01 0 0.01 0 0.01 0 0.01 0 0.01 0 0.01 0 0.01 0 0.01 0.01 0.01 0.01 0.01 0.01 0.01 0.01 0.01 0.01 -0.04 0.04 -0 -0 -0.01 -0 -0.01 -0 -0.01 -0 -0.01 -0 -0.01 -0 -0.01 -0 -0.01 -0 -0.01 -0 -0.01 -0 -0.01 -0 -0.01 -0 -0.01 -0 -0.01 -0 -0.01 -0 -0.01 0 -0.01 0 -0.01 0 -0.01 0 -0.01 0 -0.01 0 -0.01 0 -0.01 0 -0.01 0 -0.01 0 -0.01 0 -0.01 0 -0.01 0 -0.01 0 -0 0 -0 0 -0 0.01 0 0zm-2.01 2.46l-0.04 -0.03 0 -0 0.06 -0.08 0.06 -0.08 0.06 -0.08 0.06 -0.08 0.06 -0.08 0.06 -0.08 0.06 -0.08 0.06 -0.08 0.06 -0.08 0.06 -0.08 0.06 -0.08 0.06 -0.08 0.06 -0.08 0.06 -0.08 0.06 -0.08 0.06 -0.08 0.06 -0.08 0.06 -0.08 0.06 -0.08 0.06 -0.08 0.06 -0.08 0.06 -0.08 0.06 -0.08 0.06 -0.08 0.06 -0.08 0.06 -0.08 0.06 -0.08 0.06 -0.08 0.06 -0.08 0.06 -0.08 0.06 -0.08 0.06 -0.08 0.04 0.03 -0.06 0.08 -0.06 0.08 -0.06 0.08 -0.06 0.08 -0.06 0.08 -0.06 0.08 -0.06 0.08 -0.06 0.08 -0.06 0.08 -0.06 0.08 -0.06 0.08 -0.06 0.08 -0.06 0.08 -0.06 0.08 -0.06 0.08 -0.06 0.08 -0.06 0.08 -0.06 0.08 -0.06 0.08 -0.06 0.08 -0.06 0.08 -0.06 0.08 -0.06 0.08 -0.06 0.08 -0.06 0.08 -0.06 0.08 -0.06 0.08 -0.06 0.08 -0.06 0.08 -0.06 0.08 -0.06 0.08 -0.06 0.08 0 -0zm-0.04 -0.03l0 -0 -0 0 0 -0zm0.05 0.02l-0.05 -0 0 -0 0 0 0 -0 0 -0.01 0 -0 -0 0.01 0 -0 0 -0.01 0 -0 -0 0.01 0 -0 0 -0.01 0 -0 -0 0 0 -0 0 -0 -0 0 0 -0 0 -0 0 -0 0 -0 0 -0 0 -0 -0 0.01 0 -0 0 -0 0 -0 -0 0 0 -0 0 -0 0 -0 0 -0 -0 0 0.04 0.03 -0 0 0 -0 -0 0 0 -0 0 0 -0 0 -0 0 0 -0 0 -0 -0 0.01 0 -0 0 0 0 -0 0 0 -0 0 0 0 -0 0 0 -0 -0 0 -0 0 0 -0 0 -0.01 0 0 -0 0.01 -0 0 0 -0.01 0 0 -0 0.01 -0 0 0 -0.01 0 0 0 0 0 -0zm-0.05 -0l0 -0 0 -0 -0 0zm0.01 0.4l0 0.05 -0.03 -0.03 0 -0.01 0 -0.01 0 -0.01 0 -0.01 0 -0.01 0 -0.01 0 -0.01 0 -0.01 0 -0.01 0 -0.01 0 -0.01 0 -0.01 0 -0.01 0 -0.01 0 -0.01 0 -0.01 0 -0.01 0 -0.01 0 -0.01 0 -0.01 0 -0.01 0 -0.01 0 -0.01 0 -0.01 0 -0.01 0 -0.01 0 -0.01 0 -0.01 0 -0.01 0 -0.01 0 -0.01 0 -0.01 0.05 0 -0 0.01 -0 0.01 -0 0.01 -0 0.01 -0 0.01 -0 0.01 -0 0.01 -0 0.01 -0 0.01 -0 0.01 -0 0.01 -0 0.01 -0 0.01 -0 0.01 -0 0.01 -0 0.01 -0 0.01 -0 0.01 -0 0.01 -0 0.01 -0 0.01 -0 0.01 -0 0.01 -0 0.01 -0 0.01 -0 0.01 -0 0.01 -0 0.01 -0 0.01 -0 0.01 -0 0.01 -0 0.01 -0.03 -0.03zm0 0.05l-0.03 0 0 -0.03 0.03 0.03zm5.85 -0.05l0 0.05 0 0 -0.18 0 -0.18 0 -0.18 0 -0.18 0 -0.18 0 -0.18 0 -0.18 0 -0.18 0 -0.18 0 -0.18 0 -0.18 -0 -0.19 0 -0.19 0 -0.19 0 -0.19 0 -0.19 0 -0.19 0 -0.19 0 -0.19 0 -0.19 0 -0.19 0 -0.18 -0 -0.18 0 -0.18 0 -0.18 0 -0.18 0 -0.18 0 -0.18 0 -0.18 0 -0.18 0 -0.18 0 -0.18 0 0 -0.05 0.18 0 0.18 0 0.18 0 0.18 0 0.18 0 0.18 0 0.18 0 0.18 0 0.18 0 0.18 0 0.18 0 0.19 0 0.19 0 0.19 0 0.19 0 0.19 0 0.19 0 0.19 0 0.19 0 0.19 0 0.19 0 0.18 0 0.18 0 0.18 0 0.18 0 0.18 0 0.18 0 0.18 0 0.18 0 0.18 0 0.18 0 0.18 0 0 0zm-0.02 0.02l0.05 0 0 0 0 0 -0 0 -0 -0 0 0 -0 0 0 -0 -0 0 -0 0 -0 0 -0 0 -0 0 -0 0 -0 0 -0 0 -0 0 -0 0 0 -0 -0 0 -0 0 -0 0 -0 0 -0 0 -0 0 -0 0 -0 0 -0 0 -0 0 -0 0 -0 0 -0 0 -0 0 -0 0 0 -0.05 0 0 -0 0 0 -0 0 0 -0 0 0 -0 -0 0 0 -0 -0 0 0 -0 0 -0 -0 0 0 -0 -0 0 0 -0 0 -0 -0 0 -0 0 -0 0 0 -0 -0 0 0 -0 0 -0 0 -0 -0 0 -0 0 0 -0 -0 0 0 0 0 -0 -0 0 0 -0 0 0zm0.05 -0.35l0 0.35 -0.05 0 0 -0.35 0 0 0.05 0zm-0.05 0.01l0.04 -0.04 0 0 0 0 0 0 -0.01 -0.01 0 0 0 0 0 0 0 0 0 0 0 0.01 0 0 -0 -0.01 0 0 0 0 0 0.01 0 0 -0 -0 0 0 -0 -0 0 0 0 0 0 0 0 0.01 -0 -0.01 0 0 0 0.01 0 0 -0 -0.01 0 0 0 0.01 0 0 0 0 0 0 -0.05 0 0 -0 0 -0 0 -0 0 0.01 -0 -0 -0 -0.01 0 -0 0 0.01 0 0 -0 -0.01 0 0.01 0 0 0 -0 0 0 -0 -0 0 -0 -0 -0 0 0 0 0.01 -0 -0 -0 -0 -0 -0.01 0 -0 0 0.01 -0 -0 -0 -0 -0 -0 0 0 0 0 -0.01 -0.01 -0 -0 0 0 0 0zm0.04 -0.04l0 0 0 0 -0 -0z"/>
   </g>
   <g>
    <path class="fil4" d="M7.09 3.46l0.05 0 0 0 -0 0.04 -0 0.04 -0 0.04 -0.01 0.04 -0.01 0.04 -0.01 0.04 -0.01 0.04 -0.01 0.04 -0.02 0.03 -0.02 0.03 -0.02 0.03 -0.02 0.03 -0.02 0.03 -0.02 0.03 -0.02 0.03 -0.03 0.03 -0.03 0.03 -0.03 0.02 -0.03 0.02 -0.03 0.02 -0.03 0.02 -0.03 0.02 -0.03 0.02 -0.03 0.02 -0.04 0.01 -0.04 0.01 -0.04 0.01 -0.04 0.01 -0.04 0.01 -0.04 0 -0.04 0 -0.04 0 0 -0.05 0.04 -0 0.04 -0 0.04 -0 0.04 -0.01 0.04 -0.01 0.03 -0.01 0.03 -0.01 0.03 -0.01 0.03 -0.01 0.03 -0.02 0.03 -0.02 0.03 -0.02 0.03 -0.02 0.03 -0.02 0.03 -0.02 0.03 -0.02 0.02 -0.03 0.02 -0.03 0.02 -0.03 0.02 -0.03 0.02 -0.03 0.02 -0.03 0.02 -0.03 0.01 -0.03 0.01 -0.03 0.01 -0.03 0.01 -0.03 0.01 -0.04 0.01 -0.04 0 -0.04 0 -0.04 0 -0.04 0 0zm-0.73 -0.73l0 -0.05 0 0 0.04 0 0.04 0 0.04 0 0.04 0.01 0.04 0.01 0.04 0.01 0.04 0.01 0.04 0.01 0.03 0.02 0.03 0.02 0.03 0.02 0.03 0.02 0.03 0.02 0.03 0.02 0.03 0.02 0.03 0.03 0.03 0.03 0.02 0.03 0.02 0.03 0.02 0.03 0.02 0.03 0.02 0.03 0.02 0.03 0.02 0.03 0.01 0.04 0.01 0.04 0.01 0.04 0.01 0.04 0.01 0.04 0 0.04 0 0.04 0 0.04 -0.05 0 -0 -0.04 -0 -0.04 -0 -0.04 -0.01 -0.04 -0.01 -0.04 -0.01 -0.03 -0.01 -0.03 -0.01 -0.03 -0.01 -0.03 -0.02 -0.03 -0.02 -0.03 -0.02 -0.03 -0.02 -0.03 -0.02 -0.03 -0.02 -0.03 -0.02 -0.03 -0.03 -0.02 -0.03 -0.02 -0.03 -0.02 -0.03 -0.02 -0.03 -0.02 -0.03 -0.02 -0.03 -0.02 -0.03 -0.01 -0.03 -0.01 -0.03 -0.01 -0.03 -0.01 -0.04 -0.01 -0.04 -0.01 -0.04 -0 -0.04 -0 -0.04 -0 0 0zm-0.73 0.73l-0.05 0 0 0 0 -0.04 0 -0.04 0 -0.04 0.01 -0.04 0.01 -0.04 0.01 -0.04 0.01 -0.04 0.01 -0.04 0.02 -0.03 0.02 -0.03 0.02 -0.03 0.02 -0.03 0.02 -0.03 0.02 -0.03 0.02 -0.03 0.03 -0.03 0.03 -0.03 0.03 -0.02 0.03 -0.02 0.03 -0.02 0.03 -0.02 0.03 -0.02 0.03 -0.02 0.03 -0.02 0.04 -0.01 0.04 -0.01 0.04 -0.01 0.04 -0.01 0.04 -0.01 0.04 -0 0.04 -0 0.04 -0 0 0.05 -0.04 0 -0.04 0 -0.04 0 -0.04 0.01 -0.04 0.01 -0.03 0.01 -0.03 0.01 -0.03 0.01 -0.03 0.01 -0.03 0.02 -0.03 0.02 -0.03 0.02 -0.03 0.02 -0.03 0.02 -0.03 0.02 -0.03 0.02 -0.02 0.03 -0.02 0.03 -0.02 0.03 -0.02 0.03 -0.02 0.03 -0.02 0.03 -0.02 0.03 -0.01 0.03 -0.01 0.03 -0.01 0.03 -0.01 0.03 -0.01 0.04 -0.01 0.04 -0 0.04 -0 0.04 -0 0.04 0 0zm0.73 0.73l0 0.05 0 0 -0.04 -0 -0.04 -0 -0.04 -0 -0.04 -0.01 -0.04 -0.01 -0.04 -0.01 -0.04 -0.01 -0.04 -0.01 -0.03 -0.02 -0.03 -0.02 -0.03 -0.02 -0.03 -0.02 -0.03 -0.02 -0.03 -0.02 -0.03 -0.02 -0.03 -0.03 -0.03 -0.03 -0.02 -0.03 -0.02 -0.03 -0.02 -0.03 -0.02 -0.03 -0.02 -0.03 -0.02 -0.03 -0.02 -0.03 -0.01 -0.04 -0.01 -0.04 -0.01 -0.04 -0.01 -0.04 -0.01 -0.04 -0 -0.04 -0 -0.04 -0 -0.04 0.05 0 0 0.04 0 0.04 0 0.04 0.01 0.04 0.01 0.04 0.01 0.03 0.01 0.03 0.01 0.03 0.01 0.03 0.02 0.03 0.02 0.03 0.02 0.03 0.02 0.03 0.02 0.03 0.02 0.03 0.02 0.03 0.03 0.02 0.03 0.02 0.03 0.02 0.03 0.02 0.03 0.02 0.03 0.02 0.03 0.02 0.03 0.01 0.03 0.01 0.03 0.01 0.03 0.01 0.04 0.01 0.04 0.01 0.04 0 0.04 0 0.04 0 0 0z"/>
   </g>
   <g>
    <path class="fil4" d="M7.09 3.46l0.05 0 0 0 -0 0.04 -0 0.04 -0 0.04 -0.01 0.04 -0.01 0.04 -0.01 0.04 -0.01 0.04 -0.01 0.04 -0.02 0.03 -0.02 0.03 -0.02 0.03 -0.02 0.03 -0.02 0.03 -0.02 0.03 -0.02 0.03 -0.03 0.03 -0.03 0.03 -0.03 0.02 -0.03 0.02 -0.03 0.02 -0.03 0.02 -0.03 0.02 -0.03 0.02 -0.03 0.02 -0.04 0.01 -0.04 0.01 -0.04 0.01 -0.04 0.01 -0.04 0.01 -0.04 0 -0.04 0 -0.04 0 0 -0.05 0.04 -0 0.04 -0 0.04 -0 0.04 -0.01 0.04 -0.01 0.03 -0.01 0.03 -0.01 0.03 -0.01 0.03 -0.01 0.03 -0.02 0.03 -0.02 0.03 -0.02 0.03 -0.02 0.03 -0.02 0.03 -0.02 0.03 -0.02 0.02 -0.03 0.02 -0.03 0.02 -0.03 0.02 -0.03 0.02 -0.03 0.02 -0.03 0.02 -0.03 0.01 -0.03 0.01 -0.03 0.01 -0.03 0.01 -0.03 0.01 -0.04 0.01 -0.04 0 -0.04 0 -0.04 0 -0.04 0 0zm-0.73 -0.73l0 -0.05 0 0 0.04 0 0.04 0 0.04 0 0.04 0.01 0.04 0.01 0.04 0.01 0.04 0.01 0.04 0.01 0.03 0.02 0.03 0.02 0.03 0.02 0.03 0.02 0.03 0.02 0.03 0.02 0.03 0.02 0.03 0.03 0.03 0.03 0.02 0.03 0.02 0.03 0.02 0.03 0.02 0.03 0.02 0.03 0.02 0.03 0.02 0.03 0.01 0.04 0.01 0.04 0.01 0.04 0.01 0.04 0.01 0.04 0 0.04 0 0.04 0 0.04 -0.05 0 -0 -0.04 -0 -0.04 -0 -0.04 -0.01 -0.04 -0.01 -0.04 -0.01 -0.03 -0.01 -0.03 -0.01 -0.03 -0.01 -0.03 -0.02 -0.03 -0.02 -0.03 -0.02 -0.03 -0.02 -0.03 -0.02 -0.03 -0.02 -0.03 -0.02 -0.03 -0.03 -0.02 -0.03 -0.02 -0.03 -0.02 -0.03 -0.02 -0.03 -0.02 -0.03 -0.02 -0.03 -0.02 -0.03 -0.01 -0.03 -0.01 -0.03 -0.01 -0.03 -0.01 -0.04 -0.01 -0.04 -0.01 -0.04 -0 -0.04 -0 -0.04 -0 0 0zm-0.73 0.73l-0.05 0 0 0 0 -0.04 0 -0.04 0 -0.04 0.01 -0.04 0.01 -0.04 0.01 -0.04 0.01 -0.04 0.01 -0.04 0.02 -0.03 0.02 -0.03 0.02 -0.03 0.02 -0.03 0.02 -0.03 0.02 -0.03 0.02 -0.03 0.03 -0.03 0.03 -0.03 0.03 -0.02 0.03 -0.02 0.03 -0.02 0.03 -0.02 0.03 -0.02 0.03 -0.02 0.03 -0.02 0.04 -0.01 0.04 -0.01 0.04 -0.01 0.04 -0.01 0.04 -0.01 0.04 -0 0.04 -0 0.04 -0 0 0.05 -0.04 0 -0.04 0 -0.04 0 -0.04 0.01 -0.04 0.01 -0.03 0.01 -0.03 0.01 -0.03 0.01 -0.03 0.01 -0.03 0.02 -0.03 0.02 -0.03 0.02 -0.03 0.02 -0.03 0.02 -0.03 0.02 -0.03 0.02 -0.02 0.03 -0.02 0.03 -0.02 0.03 -0.02 0.03 -0.02 0.03 -0.02 0.03 -0.02 0.03 -0.01 0.03 -0.01 0.03 -0.01 0.03 -0.01 0.03 -0.01 0.04 -0.01 0.04 -0 0.04 -0 0.04 -0 0.04 0 0zm0.73 0.73l0 0.05 0 0 -0.04 -0 -0.04 -0 -0.04 -0 -0.04 -0.01 -0.04 -0.01 -0.04 -0.01 -0.04 -0.01 -0.04 -0.01 -0.03 -0.02 -0.03 -0.02 -0.03 -0.02 -0.03 -0.02 -0.03 -0.02 -0.03 -0.02 -0.03 -0.02 -0.03 -0.03 -0.03 -0.03 -0.02 -0.03 -0.02 -0.03 -0.02 -0.03 -0.02 -0.03 -0.02 -0.03 -0.02 -0.03 -0.02 -0.03 -0.01 -0.04 -0.01 -0.04 -0.01 -0.04 -0.01 -0.04 -0.01 -0.04 -0 -0.04 -0 -0.04 -0 -0.04 0.05 0 0 0.04 0 0.04 0 0.04 0.01 0.04 0.01 0.04 0.01 0.03 0.01 0.03 0.01 0.03 0.01 0.03 0.02 0.03 0.02 0.03 0.02 0.03 0.02 0.03 0.02 0.03 0.02 0.03 0.02 0.03 0.03 0.02 0.03 0.02 0.03 0.02 0.03 0.02 0.03 0.02 0.03 0.02 0.03 0.02 0.03 0.01 0.03 0.01 0.03 0.01 0.03 0.01 0.04 0.01 0.04 0.01 0.04 0 0.04 0 0.04 0 0 0z"/>
   </g>
   <g>
    <path class="fil4" d="M3.07 1.52l-0.05 0 0 0 -0 -0.08 -0.01 -0.07 -0.01 -0.07 -0.01 -0.07 -0.02 -0.07 -0.02 -0.07 -0.02 -0.07 -0.03 -0.07 -0.03 -0.06 -0.03 -0.06 -0.04 -0.06 -0.04 -0.06 -0.04 -0.06 -0.04 -0.06 -0.05 -0.05 -0.05 -0.05 -0.05 -0.05 -0.05 -0.05 -0.06 -0.04 -0.06 -0.04 -0.06 -0.04 -0.06 -0.04 -0.06 -0.03 -0.06 -0.03 -0.07 -0.03 -0.07 -0.02 -0.07 -0.02 -0.07 -0.02 -0.07 -0.01 -0.07 -0.01 -0.07 -0.01 -0.08 -0 0 -0.05 0.08 0 0.08 0.01 0.08 0.01 0.07 0.01 0.07 0.02 0.07 0.02 0.07 0.02 0.07 0.03 0.07 0.03 0.07 0.03 0.06 0.04 0.06 0.04 0.06 0.04 0.06 0.05 0.06 0.05 0.05 0.05 0.05 0.05 0.05 0.06 0.05 0.06 0.04 0.06 0.04 0.06 0.04 0.06 0.03 0.07 0.03 0.07 0.03 0.07 0.02 0.07 0.02 0.07 0.02 0.07 0.01 0.07 0.01 0.08 0.01 0.08 0 0.08 0 0zm-1.52 1.52l0 -0.05 0 0 0.08 -0 0.07 -0.01 0.07 -0.01 0.07 -0.01 0.07 -0.02 0.07 -0.02 0.07 -0.02 0.07 -0.03 0.06 -0.03 0.06 -0.03 0.06 -0.04 0.06 -0.04 0.06 -0.04 0.06 -0.04 0.05 -0.05 0.05 -0.05 0.05 -0.05 0.05 -0.05 0.04 -0.06 0.04 -0.06 0.04 -0.06 0.04 -0.06 0.03 -0.06 0.03 -0.06 0.03 -0.07 0.02 -0.07 0.02 -0.07 0.02 -0.07 0.01 -0.07 0.01 -0.07 0.01 -0.07 0 -0.08 0.05 0 -0 0.08 -0.01 0.08 -0.01 0.08 -0.01 0.07 -0.02 0.07 -0.02 0.07 -0.02 0.07 -0.03 0.07 -0.03 0.07 -0.03 0.07 -0.04 0.06 -0.04 0.06 -0.04 0.06 -0.05 0.06 -0.05 0.06 -0.05 0.05 -0.05 0.05 -0.06 0.05 -0.06 0.05 -0.06 0.04 -0.06 0.04 -0.06 0.04 -0.07 0.03 -0.07 0.03 -0.07 0.03 -0.07 0.02 -0.07 0.02 -0.07 0.02 -0.07 0.01 -0.08 0.01 -0.08 0.01 -0.08 0 0 0zm-1.52 -1.52l0.05 0 0 0 0 0.08 0.01 0.07 0.01 0.07 0.01 0.07 0.02 0.07 0.02 0.07 0.02 0.07 0.03 0.07 0.03 0.06 0.03 0.06 0.04 0.06 0.04 0.06 0.04 0.06 0.04 0.06 0.05 0.05 0.05 0.05 0.05 0.05 0.05 0.05 0.06 0.04 0.06 0.04 0.06 0.04 0.06 0.04 0.06 0.03 0.06 0.03 0.07 0.03 0.07 0.02 0.07 0.02 0.07 0.02 0.07 0.01 0.07 0.01 0.07 0.01 0.08 0 0 0.05 -0.08 -0 -0.08 -0.01 -0.08 -0.01 -0.07 -0.01 -0.07 -0.02 -0.07 -0.02 -0.07 -0.02 -0.07 -0.03 -0.07 -0.03 -0.07 -0.03 -0.06 -0.04 -0.06 -0.04 -0.06 -0.04 -0.06 -0.05 -0.06 -0.05 -0.05 -0.05 -0.05 -0.05 -0.05 -0.06 -0.05 -0.06 -0.04 -0.06 -0.04 -0.06 -0.04 -0.06 -0.03 -0.07 -0.03 -0.07 -0.03 -0.07 -0.02 -0.07 -0.02 -0.07 -0.02 -0.07 -0.01 -0.07 -0.01 -0.08 -0.01 -0.08 -0 -0.08 0 0zm1.52 -1.52l0 0.05 0 0 -0.08 0 -0.07 0.01 -0.07 0.01 -0.07 0.01 -0.07 0.02 -0.07 0.02 -0.07 0.02 -0.07 0.03 -0.06 0.03 -0.06 0.03 -0.06 0.04 -0.06 0.04 -0.06 0.04 -0.06 0.04 -0.05 0.05 -0.05 0.05 -0.05 0.05 -0.05 0.05 -0.04 0.06 -0.04 0.06 -0.04 0.06 -0.04 0.06 -0.03 0.06 -0.03 0.06 -0.03 0.07 -0.02 0.07 -0.02 0.07 -0.02 0.07 -0.01 0.07 -0.01 0.07 -0.01 0.07 -0 0.08 -0.05 0 0 -0.08 0.01 -0.08 0.01 -0.08 0.01 -0.07 0.02 -0.07 0.02 -0.07 0.02 -0.07 0.03 -0.07 0.03 -0.07 0.03 -0.07 0.04 -0.06 0.04 -0.06 0.04 -0.06 0.05 -0.06 0.05 -0.06 0.05 -0.05 0.05 -0.05 0.06 -0.05 0.06 -0.05 0.06 -0.04 0.06 -0.04 0.06 -0.04 0.07 -0.03 0.07 -0.03 0.07 -0.03 0.07 -0.02 0.07 -0.02 0.07 -0.02 0.07 -0.01 0.08 -0.01 0.08 -0.01 0.08 -0 0 0zm0.95 1.04l-1.18 1.18 -0.04 -0.04 1.18 -1.18 0.04 -0 0 0.04zm-0 -0.04l0.02 0.02 -0.02 0.02 -0 -0.04zm-0.19 -0.19l0.19 0.19 -0.04 0.04 -0.19 -0.19 -0 -0.04 0.04 -0zm-0.04 0l0.02 -0.02 0.02 0.02 -0.04 0zm-0.99 0.99l0.99 -0.99 0.04 0.04 -0.99 0.99 -0.04 0 0 -0.04zm0.04 0.04l-0.02 0.02 -0.02 -0.02 0.04 0zm-0.5 -0.54l0.5 0.5 -0.04 0.04 -0.5 -0.5 0 -0.04 0.04 0zm-0.04 0l0.02 -0.02 0.02 0.02 -0.04 0zm-0.19 0.19l0.19 -0.19 0.04 0.04 -0.19 0.19 -0.04 0 0 -0.04zm-0 0.04l-0.02 -0.02 0.02 -0.02 -0 0.04zm0.69 0.69l-0.69 -0.69 0.04 -0.04 0.69 0.69 -0.02 0.05 -0.02 -0.01zm0.04 -0.04l0.05 0.05 -0.06 0 0.02 -0.05zm-0.02 -0.01l0 0 0 0.05 -0 0 -0.02 -0.05 0.02 -0.01zm0 0.05l-0.06 0 0.05 -0.05 0.02 0.05z"/>
   </g>
  </g>
 </g>
</svg>
