<?xml version="1.0" encoding="UTF-8"?>
<!DOCTYPE svg PUBLIC "-//W3C//DTD SVG 1.1//EN" "http://www.w3.org/Graphics/SVG/1.1/DTD/svg11.dtd">
<!-- Creator: CorelDRAW X8 -->
<svg xmlns="http://www.w3.org/2000/svg" xml:space="preserve" width="1in" height="1in" version="1.1" style="shape-rendering:geometricPrecision; text-rendering:geometricPrecision; image-rendering:optimizeQuality; fill-rule:evenodd; clip-rule:evenodd"
viewBox="0 0 61 61"
 xmlns:xlink="http://www.w3.org/1999/xlink">
 <defs>
  <style type="text/css">
   <![CDATA[
    .fil0 {fill:none}
    .fil2 {fill:#373435;fill-rule:nonzero}
    .fil1 {fill:#44D594;fill-rule:nonzero}
   ]]>
  </style>
 </defs>
 <g id="Layer_x0020_1">
  <metadata id="CorelCorpID_0Corel-Layer"/>
  <rect class="fil0" width="61.324" height="61.324"/>
  <g id="_2238519149888">
   <path class="fil1" d="M13 10l35 0c2,0 3,2 3,3l0 10c0,2 -1,3 -3,3l-35 0c-1,0 -3,-1 -3,-3l0 -10c0,-1 2,-3 3,-3z"/>
   <path class="fil1" d="M13 31l15 0c1,0 3,1 3,3l0 14c0,2 -2,3 -3,3l-15 0c-1,0 -3,-1 -3,-3l0 -14c0,-2 2,-3 3,-3z"/>
   <path class="fil2" d="M49 32l-13 0c0,0 -1,1 -1,2 0,0 1,1 1,1l13 0c1,0 2,-1 2,-1 0,-1 -1,-2 -2,-2zm0 7l-13 0c0,0 -1,1 -1,2 0,1 1,1 1,1l13 0c1,0 2,0 2,-1 0,-1 -1,-2 -2,-2zm0 8l-13 0c0,0 -1,0 -1,1 0,1 1,1 1,1l13 0c1,0 2,0 2,-1 0,-1 -1,-1 -2,-1z"/>
  </g>
 </g>
</svg>
