<?xml version="1.0" encoding="UTF-8"?>
<!DOCTYPE svg PUBLIC "-//W3C//DTD SVG 1.1//EN" "http://www.w3.org/Graphics/SVG/1.1/DTD/svg11.dtd">
<!-- Creator: CorelDRAW X8 -->
<svg xmlns="http://www.w3.org/2000/svg" xml:space="preserve" width="1in" height="1in" version="1.1" style="shape-rendering:geometricPrecision; text-rendering:geometricPrecision; image-rendering:optimizeQuality; fill-rule:evenodd; clip-rule:evenodd"
viewBox="0 0 83 83"
 xmlns:xlink="http://www.w3.org/1999/xlink">
 <defs>
  <style type="text/css">
   <![CDATA[
    .fil0 {fill:none}
    .fil5 {fill:#1A1A1A}
    .fil3 {fill:#44D594}
    .fil1 {fill:white}
    .fil2 {fill:#44D594;fill-rule:nonzero}
    .fil4 {fill:white;fill-rule:nonzero}
   ]]>
  </style>
   <clipPath id="id0">
    <path d="M31 14l33 0c2,0 3,1 3,3l0 46c0,2 -1,3 -3,3l-47 0c-2,0 -3,-1 -3,-3l0 -31c2,2 5,4 9,4 7,0 13,-6 13,-12 0,-4 -2,-8 -5,-10z"/>
   </clipPath>
 </defs>
 <g id="Layer_x0020_1">
  <metadata id="CorelCorpID_0Corel-Layer"/>
  <rect class="fil0" width="83.3054" height="83.3054"/>
  <g>
   <path class="fil1" d="M45 38l22 -21c1,0 3,1 3,3l0 46c0,2 -2,3 -3,3l-48 0c-2,0 -3,-1 -3,-3l26 -25c0,-2 1,-3 3,-3z"/>
   <path id="1" class="fil2" d="M67 17l-22 21 -1 -1 22 -21 1 0 0 1zm-1 -1l1 0 0 0 -1 0zm4 4l-1 0 0 0 0 0 0 0 0 0 0 -1 0 0 0 0 0 0 0 0 0 0 0 0 0 0 0 0 0 -1 0 0 0 0 0 0 -1 0 0 0 0 0 0 0 0 0 0 0 0 0 0 0 0 0 -1 0 0 -1 0 0 0 0 0 0 0 0 0 0 0 -1 0 0 0 0 0 0 0 0 1 0 0 0 0 1 0 0 0 0 0 0 1 0 0 0 0 0 0 0 0 0 0 0 0 1 0 0 1 0 0 0 0 0 0 0 0 0 0 1 0 0 0 0 0 0 0 0 0 0 0 1 0 0 0 0 0 0zm-1 46l0 -46 1 0 0 46 0 0 -1 0zm-2 4l0 -1 0 0 0 0 0 0 0 0 0 0 0 0 0 0 1 0 0 0 0 0 0 0 0 0 0 -1 0 0 0 0 0 0 0 0 1 0 0 0 0 0 0 0 0 0 0 0 0 -1 0 0 0 0 0 0 0 0 0 0 0 0 0 0 0 -1 0 0 1 0 0 1 0 0 0 0 0 0 0 0 0 0 0 1 0 0 0 0 0 0 0 0 0 0 0 1 -1 0 0 0 0 0 0 0 0 0 0 0 0 0 0 0 -1 1 0 0 0 0 0 0 0 0 0 0 -1 0 0 0 0 0 0 0 0 0 0 0zm-48 -1l48 0 0 1 -48 0 0 0 0 -1zm-4 -3l1 1 0 -1 0 0 0 1 0 0 0 0 0 0 1 0 0 0 0 0 0 0 0 1 0 0 0 0 0 0 0 0 0 0 0 0 0 0 0 0 0 0 1 0 0 1 0 0 0 0 0 0 0 0 0 0 0 0 0 0 1 0 0 0 0 0 0 0 0 1 0 0 0 0 -1 0 0 0 0 0 0 0 0 0 0 0 -1 0 0 0 0 -1 0 0 0 0 0 0 0 0 -1 0 0 0 0 0 0 0 0 -1 0 0 0 0 0 0 0 0 0 0 -1 -1 0 0 0 0 0 0 0 0 0 0 0 -1 0 0zm0 0l0 0 0 0 0 0zm27 -25l-26 26 -1 -1 26 -26 1 1 0 0zm0 0l0 0 0 0 0 0zm2 -4l1 1 0 0 0 0 -1 0 0 0 0 0 0 0 0 0 0 0 0 0 0 0 -1 1 0 0 0 0 0 0 0 0 0 0 0 0 0 0 0 0 0 0 0 0 -1 0 0 1 0 0 0 0 0 0 0 0 0 0 0 0 0 0 0 1 0 0 0 0 -1 0 0 0 0 -1 0 0 0 0 0 0 0 0 0 0 0 -1 0 0 0 0 1 0 0 0 0 0 0 -1 0 0 0 0 0 0 0 0 0 0 1 0 0 0 0 0 0 0 0 -1 0 0 1 0 0 0 0 0 0 0 0 0 0 0 1 0 -1 0zm1 1l0 0 0 0 0 0z"/>
  </g>
  <path class="fil3" d="M31 14l33 0c2,0 3,1 3,3l0 46c0,2 -1,3 -3,3l-47 0c-2,0 -3,-1 -3,-3l0 -31c2,2 5,4 9,4 7,0 13,-6 13,-12 0,-4 -2,-8 -5,-10z"/>
  <g style="clip-path:url(#id0)">
   <g>
    <path id="1" class="fil4" d="M68 64c-5,-5 -10,-10 -15,-15 -1,-1 -2,-1 -2,0 -2,1 -4,2 -5,4 0,0 0,0 0,0 -4,-4 -8,-8 -11,-12 -1,0 -2,0 -2,0 -6,8 -12,15 -18,23 0,0 0,0 0,0 -1,1 -1,3 -1,4 18,0 36,0 53,0 0,0 1,0 1,0l0 -4c0,0 0,0 0,0z"/>
    <path class="fil4" d="M55 39c3,0 7,-3 7,-7 0,-3 -4,-6 -7,-6 -4,0 -7,3 -7,6 0,4 3,7 7,7z"/>
   </g>
  </g>
  <path class="fil0" d="M31 14l33 0c2,0 3,1 3,3l0 46c0,2 -1,3 -3,3l-47 0c-2,0 -3,-1 -3,-3l0 -31c2,2 5,4 9,4 7,0 13,-6 13,-12 0,-4 -2,-8 -5,-10z"/>
  <path class="fil5" d="M23 14c5,0 10,4 10,10 0,5 -5,9 -10,9 -5,0 -9,-4 -9,-9 0,-6 4,-10 9,-10zm-1 14l7 -7c0,0 0,-1 0,-1 0,0 0,0 0,0l-1 -1c0,0 0,0 0,0l-6 6c0,0 -1,0 -1,0l-2 -2c-1,-1 -1,-1 -1,0l-1 0c0,0 0,1 0,1l5 4 0 0z"/>
 </g>
</svg>
