<?xml version="1.0" encoding="UTF-8"?>
<!DOCTYPE svg PUBLIC "-//W3C//DTD SVG 1.1//EN" "http://www.w3.org/Graphics/SVG/1.1/DTD/svg11.dtd">
<!-- Creator: CorelDRAW X8 -->
<svg xmlns="http://www.w3.org/2000/svg" xml:space="preserve" width="1in" height="1in" version="1.1" style="shape-rendering:geometricPrecision; text-rendering:geometricPrecision; image-rendering:optimizeQuality; fill-rule:evenodd; clip-rule:evenodd"
viewBox="0 0 109 109"
 xmlns:xlink="http://www.w3.org/1999/xlink">
 <defs>
  <style type="text/css">
   <![CDATA[
    .fil0 {fill:none}
    .fil2 {fill:#44D594}
    .fil1 {fill:white}
    .fil4 {fill:#373435;fill-rule:nonzero}
    .fil5 {fill:#44D594;fill-rule:nonzero}
    .fil3 {fill:white;fill-rule:nonzero}
   ]]>
  </style>
 </defs>
 <g id="Layer_x0020_1">
  <metadata id="CorelCorpID_0Corel-Layer"/>
  <rect class="fil0" width="109" height="109"/>
  <path class="fil1" d="M64 69l12 -12c4,-5 4,-12 0,-16 -4,-4 -10,-4 -15,-1 -4,-3 -10,-3 -14,1 -4,4 -4,11 0,16l12 12 0 17 5 0 0 -17z"/>
  <path class="fil2" d="M32 46c0,9 4,17 11,23 4,4 8,8 9,14 1,2 2,3 2,6l5 0 0 -20 -12 -12c-4,-5 -4,-12 0,-16 4,-4 10,-4 14,-1 5,-3 11,-3 15,1 4,4 4,11 0,16l-12 12 0 20 5 0c0,-3 1,-3 1,-6 2,-5 5,-10 10,-14 7,-6 11,-14 11,-23 0,-16 -13,-29 -29,-29 -17,-1 -30,13 -30,29z"/>
  <g>
   <polygon class="fil3" points="27,63 21,60 19,54 39,18 52,26 32,61 "/>
   <path id="1" class="fil4" d="M21 59l6 3 -1 1 -5 -3 0 0 0 -1zm0 1l0 0 0 0 0 0zm-1 -6l2 6 -1 0 -2 -6 0 -1 1 1zm-1 0l0 0 0 -1 0 1zm21 -35l-20 35 -1 -1 20 -35 1 0 0 1zm-1 -1l0 -1 1 1 -1 0zm13 8l-13 -7 1 -1 13 7 0 1 -1 0zm1 -1l0 0 0 1 0 -1zm-21 36l20 -36 1 1 -20 35 0 1 -1 -1zm1 0l0 1 0 0 0 -1zm-6 1l5 -2 1 2 -6 2 -1 -1 1 -1zm0 2l0 0 -1 -1 1 1z"/>
  </g>
  <g>
   <path class="fil3" d="M54 15l-6 -4c-2,-1 -4,0 -5,2l-4 6 13 7 4 -6c1,-2 0,-4 -2,-5z"/>
   <path id="1" class="fil4" d="M48 10l7 4 -1 1 -7 -3 1 -2zm-5 3l-1 -1 0 0 0 0 0 0 0 0 1 -1 0 0 0 0 0 0 0 0 0 0 1 0 0 0 0 -1 0 0 0 0 0 0 1 0 0 0 0 0 0 0 0 0 1 0 0 0 0 0 0 0 0 0 1 0 0 0 0 0 0 0 0 0 1 0 0 0 -1 2 0 -1 0 0 0 0 0 0 0 0 -1 0 0 0 0 0 0 0 0 0 0 0 0 0 -1 0 0 0 0 0 0 0 0 0 0 0 0 0 0 1 -1 0 0 0 0 0 0 0 0 0 0 0 0 0 0 0 -1 0 0 1 0 0 0 0 0 0zm-5 6l4 -7 1 1 -3 6 -1 1 -1 -1zm1 1l-1 -1 0 0 1 1zm13 7l-13 -7 0 -2 13 8 1 1 -1 0zm1 0l-1 0 0 0 1 0zm3 -7l-3 7 -2 -1 4 -6 0 0 1 0zm-2 -5l1 -1 0 0 0 0 0 0 0 1 0 0 1 0 0 0 0 0 0 0 0 1 0 0 0 0 0 0 1 0 0 0 0 1 0 0 0 0 0 0 0 0 0 1 0 0 0 0 0 0 0 1 0 0 0 0 0 0 0 0 0 1 -1 0 0 0 0 0 -1 0 0 -1 0 0 0 0 0 0 0 0 0 0 0 -1 0 0 1 0 0 0 0 0 0 0 0 0 -1 -1 0 0 0 0 0 0 0 0 0 0 0 0 0 0 0 -1 0 0 0 0 0 0 0 0 0 0 0 0 -1 0 0 0 0 -1 0 0 0 0z"/>
  </g>
  <g>
   <path class="fil3" d="M19 55l-1 15c0,0 0,0 1,1 0,0 0,0 0,-1l13 -8c0,0 0,0 0,-1 0,0 0,0 0,0l-12 -7c0,0 0,0 -1,0 0,0 0,1 0,1z"/>
   <path id="1" class="fil4" d="M18 70l0 -15 1 0 0 15 0 0 -1 0zm1 0l-1 1 0 0 0 0 0 0 0 0 0 0 0 0 0 0 0 0 0 0 0 0 0 0 0 0 0 0 0 0 0 0 0 0 0 0 0 -1 0 0 0 0 0 0 0 0 0 0 0 0 0 0 0 0 0 0 0 0 0 0 0 0 0 0 0 0 0 0 1 0 0 0 0 0 0 0 0 0 0 0 0 0 0 0 0 0 0 0 0 0 0 0 0 0 0 0 0 0 0 0 0 0 0 0 0 0 0 0 0 0 0 0 0 0 0 0 0 0 0 0 0 0 0 0 0 0 0 0 0 0 0 0 0 0 0 0zm0 0l1 1 0 0 0 0 0 0 0 0 0 0 0 0 0 0 0 0 -1 0 0 0 0 0 0 0 0 0 0 0 0 0 0 0 0 0 0 0 0 0 0 0 0 0 0 0 0 0 0 0 0 0 0 0 0 0 0 0 -1 0 0 0 0 0 0 0 0 0 1 -1 0 0 0 0 0 0 0 0 0 0 0 0 0 0 0 0 0 0 0 0 0 0 0 0 0 0 0 0 0 0 0 0 0 0 0 0 0 0 0 0 0 0 0 0 0 0 0 0 0 0 0 0 0 0 0 0 0 0 0 0 0 0 0 0 0 0zm13 -7l-12 8 -1 -1 12 -8 0 0 1 1zm0 -2l1 1 0 0 0 0 0 0 0 0 0 0 0 0 0 0 0 0 0 0 0 0 0 0 0 0 0 0 0 0 0 0 0 0 0 0 0 0 0 0 0 0 0 1 -1 0 0 0 0 0 0 0 0 0 0 0 0 0 0 0 0 0 0 0 0 0 0 0 -1 -1 0 0 0 0 0 0 0 0 0 0 0 0 0 0 0 0 0 0 0 0 0 0 0 0 0 0 0 0 0 0 1 0 0 0 0 0 0 0 0 0 0 0 0 0 0 0 0 0 0 0 0 0 0 0 0 -1 0 0 0 0 0 0 0 0 0 0zm0 0l0 -1 0 0 0 0 0 0 0 0 0 0 0 0 0 0 0 0 1 0 0 0 0 0 0 0 0 1 0 0 0 0 0 0 0 0 0 0 0 0 0 0 0 0 0 0 0 0 0 0 0 0 0 0 0 0 0 0 0 0 0 0 0 0 0 0 0 1 -1 -1 0 0 0 0 0 0 0 0 0 0 0 0 0 0 0 0 0 0 0 0 0 0 0 0 0 0 0 0 0 0 0 0 0 0 0 0 0 0 0 0 0 0 0 0 0 0 0 0 0 0 0 0 0 0 0 0 0 0 0 0 0 0 0 0 0 0zm-11 -7l11 6 0 1 -12 -6 0 0 1 -1zm-1 1l-1 -1 0 0 0 0 0 0 0 0 0 0 0 0 0 0 0 -1 0 0 0 0 0 0 0 0 0 0 1 0 0 0 0 0 0 0 0 0 0 0 0 0 0 0 0 0 0 0 0 0 0 0 0 0 0 0 0 0 0 0 0 0 0 0 0 0 1 1 -1 1 0 0 0 0 0 0 0 0 0 0 0 0 0 0 0 0 0 0 0 0 0 0 0 0 0 0 0 0 0 0 0 0 0 0 0 0 0 0 0 0 0 0 0 0 0 0 0 0 0 0 0 0 0 0 0 0 0 0 0 0 0 0 0 0 0 0zm-1 0l-1 0 0 0 0 0 0 0 0 0 0 0 0 0 0 0 0 0 0 0 0 0 0 0 0 0 0 0 0 -1 0 0 0 0 0 0 0 0 0 0 0 0 0 0 0 0 1 0 0 0 0 0 0 0 0 0 0 0 0 0 0 0 0 0 0 0 0 0 1 1 0 0 0 0 0 0 0 0 0 0 0 0 0 0 0 0 0 0 0 0 0 0 0 0 0 0 0 0 0 0 0 0 -1 0 0 0 0 0 0 0 0 0 0 0 0 0 0 0 0 0 0 0 0 0 0 0 0 0 0 0 0 0 0 0 0 0z"/>
  </g>
  <path class="fil5" d="M38 71c-2,0 -4,0 -5,0 -2,0 -3,2 -1,2 1,0 3,0 5,0 1,0 3,-2 1,-2z"/>
  <path class="fil5" d="M33 78c-4,0 -7,0 -10,0 -1,0 -2,1 -2,1 0,0 -1,1 0,1 3,0 6,0 9,0 1,0 2,-1 2,-1 1,0 1,-1 1,-1z"/>
  <path class="fil5" d="M44 83c-2,0 -4,0 -5,0 -1,0 -2,0 -2,0 1,1 2,1 2,1 2,0 4,0 5,0 1,0 2,0 2,-1 -1,0 -2,0 -2,0z"/>
  <path class="fil5" d="M53 74c-4,0 -7,0 -11,0 -1,0 -3,3 -1,3 3,0 7,0 11,0 1,0 3,-3 1,-3z"/>
  <rect class="fil2" x="50" y="86" width="22.7295" height="4.20651" rx="1" ry="1"/>
  <path class="fil2" d="M52 91l19 0 0 4c0,2 -2,4 -4,4l-11 0c-2,0 -4,-2 -4,-4l0 -4z"/>
 </g>
</svg>
