<?xml version="1.0" encoding="UTF-8"?>
<!DOCTYPE svg PUBLIC "-//W3C//DTD SVG 1.1//EN" "http://www.w3.org/Graphics/SVG/1.1/DTD/svg11.dtd">
<!-- Creator: CorelDRAW -->
<svg xmlns="http://www.w3.org/2000/svg" xml:space="preserve" width="0.354811in" height="0.301449in" version="1.1" style="shape-rendering:geometricPrecision; text-rendering:geometricPrecision; image-rendering:optimizeQuality; fill-rule:evenodd; clip-rule:evenodd"
viewBox="0 0 11.55 9.81"
 xmlns:xlink="http://www.w3.org/1999/xlink">
 <defs>
  <style type="text/css">
   <![CDATA[
    .fil0 {fill:#FAB53C}
    .fil1 {fill:#5497D2}
    .fil3 {fill:white}
    .fil4 {fill:black;fill-rule:nonzero}
    .fil2 {fill:white;fill-rule:nonzero}
   ]]>
  </style>
 </defs>
 <g id="Layer_x0020_1">
  <metadata id="CorelCorpID_0Corel-Layer"/>
  <path class="fil0" d="M-0 9.81l0 -8.78c0,-0.19 0.07,-0.36 0.21,-0.5 0.14,-0.14 0.21,-0.31 0.5,-0.21l6.51 0 1.56 0c0.19,0 0.36,0.07 0.5,0.21 0.14,0.14 0.31,0.21 0.21,0.5l0 2.16 0 2.49c-0.03,-0 -0.06,-0 -0.09,-0 -1.18,0 -2.14,0.96 -2.14,2.14 0,0.03 0,0.06 0,0.09l-5.37 0 -1.9 1.9zm7.2 -9.41l-0 0.01 -0 0 0 -0.01zm-0.01 0.05l-0 0.01 -0 0 0 -0.01zm-0.01 0.06l-0 0.01 -0 0 0 -0.01zm-0.01 0.06l-0 0.01 -0 0 0 -0.01zm-0.01 0.06l-0 0.01 -0 0 0 -0.01zm-0.01 0.06l-0 0.01 0 0 0 -0.01zm-0.01 0.06l-0 0.01 0 0 0 -0.01z"/>
  <path class="fil1" d="M9.41 5.92c1.05,0 1.9,0.85 1.9,1.9 0,1.05 -0.85,1.9 -1.9,1.9 -1.05,0 -1.9,-0.85 -1.9,-1.9 0,-1.05 0.85,-1.9 1.9,-1.9zm0.01 2.54l-0.18 -0.18 0.32 -0.32 -0.79 0 0 -0.26 0.79 0 -0.32 -0.32 0.18 -0.18 0.64 0.64 -0.64 0.64 0 0z"/>
  <g>
   <polygon class="fil2" points="8.1,5.39 8.1,5.48 1.43,5.48 1.43,5.39 "/>
  </g>
  <g>
   <polygon class="fil2" points="8.1,4.52 8.1,4.62 1.43,4.62 1.43,4.52 "/>
  </g>
  <path class="fil3" d="M2.55 3.28c0.03,0.02 0.15,0.06 0.19,0.06l0.03 -0.26c0.06,0.05 0.06,0.17 0.09,0.28l0.07 0.3 -0.14 0.11 -0.12 -0.07c-0.05,-0.03 -0.09,-0.05 -0.13,-0.08 -0.11,-0.07 -0.19,-0.1 -0.23,-0.18 0.11,0.01 0.16,0.03 0.26,0.05 0.01,-0.08 -0.02,-0.13 -0.01,-0.2zm-1.87 -1.8l0 -0.01 0.59 -0.45c0.07,0.03 0.49,0.62 0.54,0.69l1.08 1.39c0.03,0.07 0.17,0.8 0.22,0.93 -0.08,-0.03 -0.49,-0.29 -0.62,-0.36 -0.06,-0.04 -0.14,-0.08 -0.19,-0.12 -0.03,-0.03 -1.53,-1.95 -1.61,-2.07zm0.35 0.2l-0.14 -0.18 0.36 -0.28 0.14 0.18 -0.36 0.28z"/>
  <g>
   <path class="fil2" d="M8.1 3.66l0.05 0.05 -0.05 0.05 -4.36 0 0 -0.09 4.36 0zm0.05 0.05l0 0.05 -0.05 0 0.05 -0.05zm-0.09 -1.63l0.05 -0.05 0.05 0.05 0 1.63 -0.09 0 0 -1.63zm0.05 -0.05l0.05 0 0 0.05 -0.05 -0.05zm-4.36 0.09l-0.05 -0.05 0.05 -0.05 4.36 0 0 0.09 -4.36 0zm-0.05 -0.05l0 -0.05 0.05 0 -0.05 0.05zm0.09 1.63l-0.05 0.05 -0.05 -0.05 0 -1.63 0.09 0 0 1.63zm-0.05 0.05l-0.05 0 0 -0.05 0.05 0.05z"/>
  </g>
  <g>
   <g>
    <path class="fil4" d="M0.24 0.79l0 8.78 -0.09 0 0 -8.78 0 0 0.09 0zm0.13 -0.53l0.07 0.07 0 0 -0.01 0.01 -0.01 0.01 -0.01 0.01 -0.01 0.01 -0.01 0.01 -0.01 0.01 -0.01 0.01 -0.01 0.01 -0.01 0.01 -0.01 0.01 -0.01 0.01 -0.01 0.01 -0.01 0.01 -0.01 0.01 -0.01 0.01 -0.01 0.01 -0.01 0.01 -0.01 0.01 -0.01 0.01 -0 0.01 -0 0.02 -0 0.02 -0 0.02 -0 0.02 -0 0.02 -0 0.02 -0 0.02 -0 0.02 -0 0.02 -0 0.02 -0 0.02 -0 0.02 -0.09 0 0 -0.02 0 -0.02 0 -0.02 0 -0.02 0 -0.02 0 -0.02 0 -0.02 0 -0.02 0 -0.02 0 -0.02 0 -0.02 0.01 -0.02 0.01 -0.02 0.01 -0.02 0.01 -0.02 0.01 -0.02 0.01 -0.02 0.01 -0.02 0.01 -0.02 0.01 -0.02 0.01 -0.02 0.01 -0.02 0.01 -0.02 0.01 -0.02 0.01 -0.02 0.01 -0.01 0.01 -0.02 0.01 -0.01 0.01 -0.01 0.01 -0.01 0.01 -0.01 0.01 -0.01 0 0zm0.53 -0.23l0 0.09 -0.01 -0 -0.02 -0.01 -0.02 -0.01 -0.02 -0 -0.02 -0 -0.02 -0 -0.02 -0 -0.02 -0 -0.02 0 -0.01 0 -0.01 0 -0.01 0 -0.01 0 -0.01 0 -0.01 0.01 -0.01 0.01 -0.01 0.01 -0.01 0.01 -0.01 0.01 -0.01 0.01 -0.01 0.01 -0.01 0.01 -0.01 0.01 -0.01 0.01 -0.01 0.01 -0.01 0.01 -0.01 0.01 -0.01 0.01 -0.01 0.01 -0.01 0.01 -0.01 0.01 -0.01 0.01 -0.01 0.01 -0.07 -0.07 0.01 -0.01 0.01 -0.01 0.01 -0.01 0.01 -0.01 0.01 -0.01 0.01 -0.01 0.01 -0.01 0.01 -0.01 0.01 -0.01 0.01 -0.01 0.01 -0.01 0.01 -0.01 0.01 -0.01 0.01 -0.01 0.01 -0.01 0.02 -0.01 0.02 -0.01 0.02 -0.01 0.02 -0.01 0.02 -0.01 0.02 -0.01 0.02 -0 0.02 -0 0.02 -0 0.02 -0 0.02 0 0.02 0 0.02 0 0.02 0 0.03 0.01 0.03 0.01 0.03 0.01 -0.01 -0zm0 0.09l-0.01 0 -0.01 -0 0.01 0zm6.51 0l-6.51 0 0 -0.09 6.51 0 0 0 0 0.09zm1.56 0l-1.56 0 0 -0.09 1.56 0 0 0 0 0.09zm0.53 0.13l-0.07 0.07 0 0 -0.01 -0.01 -0.01 -0.01 -0.01 -0.01 -0.01 -0.01 -0.01 -0.01 -0.01 -0.01 -0.01 -0.01 -0.01 -0.01 -0.01 -0.01 -0.01 -0.01 -0.01 -0.01 -0.01 -0.01 -0.01 -0.01 -0.01 -0.01 -0.01 -0.01 -0.01 -0.01 -0.01 -0.01 -0.01 -0.01 -0.01 -0.01 -0.01 -0 -0.02 -0 -0.01 -0 -0.02 -0 -0.02 -0 -0.02 -0 -0.02 -0 -0.02 -0 -0.02 -0 -0.02 -0 -0.02 -0 -0.02 -0 -0.02 -0 0 -0.09 0.02 0 0.02 0 0.02 0 0.02 0 0.02 0 0.02 0 0.02 0 0.02 0 0.02 0 0.02 0 0.02 0 0.02 0.01 0.02 0.01 0.02 0.01 0.02 0.01 0.02 0.01 0.02 0.01 0.02 0.01 0.02 0.01 0.02 0.01 0.02 0.01 0.02 0.01 0.02 0.01 0.02 0.01 0.02 0.01 0.02 0.01 0.01 0.01 0.01 0.01 0.01 0.01 0.01 0.01 0.01 0.01 0.01 0.01 0 0zm0.23 0.53l-0.09 0 0 -0.01 0.01 -0.02 0.01 -0.02 0 -0.02 0 -0.02 0 -0.02 0 -0.02 0 -0.02 -0 -0.02 -0 -0.01 -0 -0.01 -0 -0.01 -0 -0.01 -0.01 -0.01 -0.01 -0.01 -0.01 -0.01 -0.01 -0.01 -0.01 -0.01 -0.01 -0.01 -0.01 -0.01 -0.01 -0.01 -0.01 -0.01 -0.01 -0.01 -0.01 -0.01 -0.01 -0.01 -0.01 -0.01 -0.01 -0.01 -0.01 -0.01 -0.01 -0.01 -0.01 -0.01 -0.01 -0.01 -0.01 -0.01 -0.01 -0.01 0.07 -0.07 0.01 0.01 0.01 0.01 0.01 0.01 0.01 0.01 0.01 0.01 0.01 0.01 0.01 0.01 0.01 0.01 0.01 0.01 0.01 0.01 0.01 0.01 0.01 0.01 0.01 0.01 0.01 0.01 0.01 0.01 0.01 0.01 0.01 0.02 0.01 0.02 0.01 0.02 0.01 0.02 0.01 0.02 0 0.02 0 0.02 0 0.02 0 0.02 0 0.02 -0 0.02 -0 0.02 -0 0.02 -0.01 0.03 -0.01 0.03 -0.01 0.03 0 -0.01zm-0.09 0l0 -0.01 0 -0.01 -0 0.01zm0 2.16l0 -2.16 0.09 0 0 2.16 0 0 -0.09 0zm0 2.49l0 -2.49 0.09 0 0 2.49 -0.05 0.05 -0.05 -0.05zm0.09 0l0 0.05 -0.05 -0 0.05 -0.05zm-0.14 0.05l0 -0.09 0 0 0 0 0 0 0 0 0 0 0 0 0 0 0 0 0 0 0 0 0 0 0 0 0 0 0 0 0 0 0 0 0 0 0 0 0 0 0 0 0 0 0 0 0 0 0 0 0 0 0 0 0 0 0 0 0 0 0 0 0 0 0 0 0 0 -0 0.09 -0 -0 -0 -0 -0 -0 -0 -0 -0 0 -0 -0 -0 -0 -0 -0 -0 0 -0 -0 -0 -0 -0 0 -0 -0 -0 -0 -0 0 -0 -0 -0 0 -0 -0 -0 0 -0 -0 -0 0 -0 0 -0 -0 -0 0 -0 0 -0 0 -0 -0 -0 0 -0 0 -0 0 -0 0 -0 0 0 0zm-2.09 2.09l-0.09 0 0 0 0 -0.11 0.01 -0.11 0.01 -0.11 0.02 -0.11 0.02 -0.11 0.03 -0.1 0.03 -0.1 0.04 -0.1 0.04 -0.1 0.05 -0.09 0.05 -0.09 0.06 -0.09 0.06 -0.09 0.06 -0.08 0.07 -0.08 0.07 -0.08 0.08 -0.07 0.08 -0.07 0.08 -0.06 0.09 -0.06 0.09 -0.06 0.09 -0.05 0.09 -0.05 0.1 -0.04 0.1 -0.04 0.1 -0.03 0.1 -0.03 0.11 -0.02 0.11 -0.02 0.11 -0.01 0.11 -0.01 0.11 -0 0 0.09 -0.11 0 -0.11 0.01 -0.1 0.01 -0.1 0.02 -0.1 0.02 -0.1 0.03 -0.1 0.03 -0.09 0.04 -0.09 0.04 -0.09 0.05 -0.09 0.05 -0.08 0.05 -0.08 0.06 -0.08 0.06 -0.08 0.07 -0.07 0.07 -0.07 0.07 -0.07 0.08 -0.06 0.08 -0.06 0.08 -0.05 0.08 -0.05 0.09 -0.05 0.09 -0.04 0.09 -0.04 0.09 -0.03 0.1 -0.03 0.1 -0.02 0.1 -0.02 0.1 -0.01 0.1 -0.01 0.11 -0 0.11 0 0zm-0.05 0.14l0 -0.09 -0.05 0.05 -0 -0 -0 -0 -0 -0 -0 -0 -0 -0 -0 -0 0 -0 -0 -0 -0 -0 -0 -0 -0 -0 0 -0 -0 -0 0 -0 -0 -0 -0 -0 0 -0 -0 -0 0 -0 -0 -0 0 -0 0 -0 -0 -0 0 -0 0 -0 0 -0 -0 -0 0 -0 0 -0 0 -0 0 -0 0 -0 0.09 0 0 0 0 0 0 0 0 0 0 0 0 0 0 0 0 0 0 0 0 0 0 0 0 0 0 0 0 0 0 0 0 0 0 0 0 0 0 0 0 0 0 0 0 0 0 0 0 0 0 0 0 0 0 0 0 0 0 0 0 0 0 0 0 0 -0.05 0.05zm0.05 -0.05l0 0.05 -0.05 0 0.05 -0.05zm-5.42 -0.05l5.37 0 0 0.09 -5.37 0 -0.03 -0.08 0.03 -0.01zm-0.03 0.01l0.01 -0.01 0.02 0 -0.03 0.01zm-1.9 1.9l1.9 -1.9 0.07 0.07 -1.9 1.9 -0.08 -0.03 0.01 -0.03zm0.07 0.07l-0.08 0.08 0 -0.11 0.08 0.03zm7.12 -9.45l0 -0.01 0.09 0.02 -0 0.01 -0.09 -0.02 0 -0zm-0 0l0 -0 -0 0 0 -0zm-0 0l0 -0 0.09 0.02 -0 0 -0 0 -0.09 -0.02zm0.09 0.01l-0 0.01 -0.09 -0.02 0 -0.01 0 -0 0.09 0.02zm-0.11 0.04l0 -0.01 0.09 0.02 -0 0.01 -0.09 -0.02 0 -0zm-0 0l0 -0 0 -0 -0 0zm-0 0l0 -0 0.09 0.01 -0 0 -0 0 -0.09 -0.02zm0.1 0.01l-0 0.01 -0.09 -0.02 0 -0.01 0 -0 0.09 0.02zm-0.11 0.05l0 -0.01 0.09 0.02 -0 0.01 -0.09 -0.02 0 -0zm-0 0l0 -0 0 -0 -0 0zm-0 0l0 -0 0.09 0.01 -0 0 -0 0 -0.09 -0.02zm0.1 0.01l-0 0.01 -0.09 -0.02 0 -0.01 0 -0 0.09 0.02zm-0.1 0.05l0 -0.01 0.09 0.02 -0 0.01 -0 0 -0.09 -0.02zm0.09 0.02l-0 0 0 -0.01 -0 0zm-0.09 -0.01l0 -0 0.09 0.02 -0 0 -0.09 -0.02 0 -0zm0.09 0.01l-0 0.01 -0.09 -0.02 0 -0.01 0.09 0.02 -0 0zm-0.1 0.05l0 -0.01 0.09 0.01 -0 0.01 -0.09 -0.01 0 -0zm-0 0l0 -0 0 -0 -0 0zm-0 0l0 -0 0.09 0.01 -0 0 -0 0 -0.09 -0.01zm0.1 0l-0 0.01 -0.09 -0.01 0 -0.01 0 -0 0.09 0.01zm-0.1 0.05l0 -0.01 0.09 0.01 -0 0.01 -0.09 -0 0 -0zm-0 0l0 -0 0 -0 -0 0zm0 0l0 -0 0.09 0 0 0 -0 0 -0.09 -0zm0.1 -0l-0 0.01 -0.09 -0.01 0 -0.01 0 -0 0.09 0.01zm-0.1 0.06l0 -0.01 0.09 0.01 -0 0.01 -0.09 -0 0 -0zm-0 0l0 -0 0 -0 -0 0zm0 0l0 -0 0.09 0 0 0 -0 0 -0.09 -0zm0.1 -0.01l-0 0.01 -0.09 -0.01 0 -0.01 0 -0 0.09 0.01z"/>
   </g>
   <g>
    <path class="fil4" d="M11.55 7.58l-0.09 0 0 0 -0 -0.1 -0.01 -0.09 -0.01 -0.09 -0.02 -0.09 -0.02 -0.09 -0.02 -0.09 -0.03 -0.09 -0.03 -0.08 -0.04 -0.08 -0.04 -0.08 -0.04 -0.08 -0.05 -0.08 -0.05 -0.07 -0.06 -0.07 -0.06 -0.07 -0.06 -0.06 -0.06 -0.06 -0.07 -0.06 -0.07 -0.06 -0.07 -0.05 -0.08 -0.05 -0.08 -0.04 -0.08 -0.04 -0.08 -0.04 -0.08 -0.03 -0.09 -0.03 -0.09 -0.02 -0.09 -0.02 -0.09 -0.02 -0.09 -0.01 -0.09 -0.01 -0.1 -0 0 -0.09 0.1 0 0.1 0.01 0.1 0.01 0.1 0.02 0.09 0.02 0.09 0.03 0.09 0.03 0.09 0.03 0.09 0.04 0.08 0.04 0.08 0.05 0.08 0.05 0.08 0.05 0.07 0.06 0.07 0.06 0.07 0.06 0.06 0.07 0.06 0.07 0.06 0.07 0.05 0.08 0.05 0.08 0.05 0.08 0.04 0.08 0.04 0.09 0.03 0.09 0.03 0.09 0.03 0.09 0.02 0.09 0.02 0.1 0.01 0.1 0.01 0.1 0 0.1 0 0zm-1.95 1.95l0 -0.09 0 0 0.1 -0 0.09 -0.01 0.09 -0.01 0.09 -0.02 0.09 -0.02 0.09 -0.02 0.09 -0.03 0.08 -0.03 0.08 -0.04 0.08 -0.04 0.08 -0.04 0.08 -0.05 0.07 -0.05 0.07 -0.05 0.07 -0.06 0.06 -0.06 0.06 -0.06 0.06 -0.07 0.06 -0.07 0.05 -0.07 0.05 -0.08 0.04 -0.08 0.04 -0.08 0.04 -0.08 0.03 -0.08 0.03 -0.09 0.02 -0.09 0.02 -0.09 0.02 -0.09 0.01 -0.09 0.01 -0.09 0 -0.1 0.09 0 -0 0.1 -0.01 0.1 -0.01 0.1 -0.02 0.1 -0.02 0.09 -0.03 0.09 -0.03 0.09 -0.03 0.09 -0.04 0.09 -0.04 0.08 -0.05 0.08 -0.05 0.08 -0.05 0.08 -0.06 0.07 -0.06 0.07 -0.06 0.07 -0.07 0.06 -0.07 0.06 -0.07 0.06 -0.08 0.05 -0.08 0.05 -0.08 0.05 -0.08 0.04 -0.09 0.04 -0.09 0.03 -0.09 0.03 -0.09 0.03 -0.09 0.02 -0.1 0.02 -0.1 0.01 -0.1 0.01 -0.1 0 0 0zm-1.95 -1.95l0.09 0 0 0 0 0.1 0.01 0.09 0.01 0.09 0.02 0.09 0.02 0.09 0.02 0.09 0.03 0.09 0.03 0.08 0.04 0.08 0.04 0.08 0.04 0.08 0.05 0.08 0.05 0.07 0.05 0.07 0.06 0.07 0.06 0.06 0.06 0.06 0.07 0.06 0.07 0.05 0.07 0.05 0.08 0.05 0.08 0.04 0.08 0.04 0.08 0.04 0.08 0.03 0.09 0.03 0.09 0.02 0.09 0.02 0.09 0.02 0.09 0.01 0.09 0.01 0.1 0 0 0.09 -0.1 -0 -0.1 -0.01 -0.1 -0.01 -0.1 -0.02 -0.09 -0.02 -0.09 -0.03 -0.09 -0.03 -0.09 -0.03 -0.09 -0.04 -0.08 -0.04 -0.08 -0.05 -0.08 -0.05 -0.08 -0.05 -0.07 -0.06 -0.07 -0.06 -0.07 -0.06 -0.06 -0.07 -0.06 -0.07 -0.06 -0.07 -0.05 -0.08 -0.05 -0.08 -0.05 -0.08 -0.04 -0.08 -0.04 -0.09 -0.03 -0.09 -0.03 -0.09 -0.03 -0.09 -0.02 -0.09 -0.02 -0.1 -0.01 -0.1 -0.01 -0.1 -0 -0.1 0 0zm1.95 -1.95l0 0.09 0 0 -0.1 0 -0.09 0.01 -0.09 0.01 -0.09 0.02 -0.09 0.02 -0.09 0.02 -0.09 0.03 -0.08 0.03 -0.08 0.04 -0.08 0.04 -0.08 0.04 -0.08 0.05 -0.07 0.05 -0.07 0.06 -0.07 0.06 -0.06 0.06 -0.06 0.06 -0.06 0.07 -0.05 0.07 -0.05 0.07 -0.05 0.08 -0.04 0.08 -0.04 0.08 -0.04 0.08 -0.03 0.08 -0.03 0.09 -0.02 0.09 -0.02 0.09 -0.02 0.09 -0.01 0.09 -0.01 0.09 -0 0.1 -0.09 0 0 -0.1 0.01 -0.1 0.01 -0.1 0.02 -0.1 0.02 -0.09 0.03 -0.09 0.03 -0.09 0.03 -0.09 0.04 -0.09 0.04 -0.08 0.05 -0.08 0.05 -0.08 0.05 -0.08 0.06 -0.07 0.06 -0.07 0.06 -0.07 0.07 -0.06 0.07 -0.06 0.07 -0.06 0.08 -0.05 0.08 -0.05 0.08 -0.05 0.08 -0.04 0.09 -0.04 0.09 -0.03 0.09 -0.03 0.09 -0.03 0.09 -0.02 0.1 -0.02 0.1 -0.01 0.1 -0.01 0.1 -0 0 0zm-0.14 2.37l0.18 0.18 -0.07 0.07 -0.18 -0.18 -0 -0.07 0.07 -0zm-0.07 0.07l-0.03 -0.03 0.03 -0.03 0 0.07zm0.39 -0.32l-0.32 0.32 -0.07 -0.07 0.32 -0.32 0.03 -0.01 0.03 0.08zm-0.03 -0.08l0.11 0 -0.08 0.08 -0.03 -0.08zm-0.79 0l0.79 0 0 0.09 -0.79 0 -0.05 -0.05 0.05 -0.05zm0 0.09l-0.05 0 0 -0.05 0.05 0.05zm0.05 -0.31l0 0.26 -0.09 0 0 -0.26 0.05 -0.05 0.05 0.05zm-0.09 0l0 -0.05 0.05 0 -0.05 0.05zm0.84 0.05l-0.79 0 0 -0.09 0.79 0 0.03 0.01 -0.03 0.08zm0.03 -0.08l0.08 0.08 -0.11 0 0.03 -0.08zm-0.32 -0.32l0.32 0.32 -0.07 0.07 -0.32 -0.32 0 -0.07 0.07 0zm-0.07 0.07l-0.03 -0.03 0.03 -0.03 -0 0.07zm0.25 -0.18l-0.18 0.18 -0.07 -0.07 0.18 -0.18 0.07 0 0 0.07zm-0.07 -0.07l0.03 -0.03 0.03 0.03 -0.07 0zm0.64 0.71l-0.64 -0.64 0.07 -0.07 0.64 0.64 0 0.07 -0.07 0zm0.07 -0.07l0.03 0.03 -0.03 0.03 0 -0.07zm-0.71 0.64l0.64 -0.64 0.07 0.07 -0.64 0.64 -0.07 0 0 -0.07zm0.07 0.07l-0.03 0.03 -0.03 -0.03 0.07 0zm-0.03 -0.03l0 0 0 0 0 0 -0.03 0.03 0.03 -0.03zm0.03 0.03l-0.03 0.03 -0.03 -0.03 0.07 0z"/>
   </g>
   <g>
    <polygon class="fil4" points="8.29,5.15 8.29,5.24 1.62,5.24 1.62,5.15 "/>
   </g>
   <g>
    <polygon class="fil4" points="8.29,4.28 8.29,4.38 1.62,4.38 1.62,4.28 "/>
   </g>
   <g>
    <path class="fil4" d="M2.89 3.1l0.09 0.01 -0.05 0.04 -0.01 -0 -0.01 -0 -0.01 -0 -0.01 -0 -0.01 -0 -0.01 -0 -0.01 -0 -0.01 -0 -0.01 -0 -0.01 -0 -0.01 -0 -0.01 -0 -0.01 -0 -0.01 -0 -0.01 -0 -0.01 -0 -0.01 -0 -0.01 -0 -0.01 -0 -0.01 -0 -0.01 -0 -0.01 -0 -0.01 -0 -0.01 -0 -0.01 -0 -0.01 -0 -0.01 -0 -0.01 -0 -0 -0 -0.01 -0 -0 -0 -0.01 -0 0.05 -0.08 0 0 0 0 0 0 0 0 0 0 0 0 0.01 0 0 0 0.01 0 0.01 0 0.01 0 0.01 0 0.01 0 0.01 0 0.01 0 0.01 0 0.01 0 0.01 0 0.01 0 0.01 0 0.01 0 0.01 0 0.01 0 0.01 0 0.01 0 0.01 0 0.01 0 0.01 0 0 0 0 0 0 0 0 0 -0.05 0.04zm0.09 0.01l-0.01 0.05 -0.05 -0.01 0.05 -0.04zm0.03 -0.26l-0.03 0.26 -0.09 -0.01 0.03 -0.26 0.08 -0.03 0.02 0.04zm-0.09 -0.01l0.01 -0.09 0.07 0.06 -0.08 0.03zm0.18 0.27l-0.09 0.02 0 0 -0 -0.01 -0 -0.01 -0 -0.01 -0 -0.01 -0 -0.01 -0 -0.01 -0 -0.01 -0 -0.01 -0 -0.01 -0 -0.01 -0 -0.01 -0 -0.01 -0 -0.01 -0 -0.01 -0 -0.01 -0 -0.01 -0 -0.01 -0 -0.01 -0 -0.01 -0 -0.01 -0 -0.01 -0 -0.01 -0 -0.01 -0 -0.01 -0 -0.01 -0 -0 -0 -0 -0 -0 -0 -0 -0 -0 -0 -0 -0 -0 0.06 -0.07 0.01 0.01 0.01 0.01 0.01 0.01 0.01 0.01 0.01 0.01 0.01 0.01 0 0.01 0 0.01 0 0.01 0 0.01 0 0.01 0 0.01 0 0.01 0 0.01 0 0.01 0 0.01 0 0.01 0 0.01 0 0.01 0 0.01 0 0.01 0 0.01 0 0.01 0 0.01 0 0.01 0 0.01 0 0.01 0 0.01 0 0.01 0 0.01 0 0.01 0 0.01 0 0zm-0 -0l0 0 0 0.01 -0 -0.01zm-0.03 0.32l-0.07 -0.3 0.09 -0.02 0.07 0.3 -0.02 0.05 -0.07 -0.03zm0.09 -0.02l0.01 0.03 -0.02 0.02 0.02 -0.05zm-0.22 0.08l0.14 -0.11 0.06 0.08 -0.14 0.11 -0.05 0 -0 -0.08zm0.06 0.08l-0.02 0.02 -0.03 -0.02 0.05 -0zm-0.12 -0.15l0.12 0.07 -0.05 0.08 -0.12 -0.07 0.05 -0.08 0 0zm-0 -0l0 0 -0 -0 0 0zm-0.18 0l0.05 -0.08 -0 -0 0 0 0 0 0 0 0 0 0 0 0 0 0 0 0 0 0 0 0 0 0 0 0 0 0 0 0 0 0 0 0 0 0 0 0 0 0 0 0 0 0 0 0 0 0 0 0 0 0 0 0 0 0 0 0 0 0 0 0 0 0 0 0 0 -0.05 0.08 -0 -0 -0 -0 -0 -0 -0 -0 -0 -0 -0 -0 -0 -0 -0 -0 -0 -0 -0 -0 -0 -0 -0 -0 -0 -0 -0 -0 -0 -0 -0 -0 -0 -0 -0 -0 -0 -0 -0 -0 -0 -0 -0 -0 -0 -0 -0 -0 -0 -0 -0 -0 -0 -0 -0 -0 -0 -0 -0 -0 -0 -0 -0 -0 -0 -0zm-0.2 -0.26l-0.01 0.09 0.05 -0.07 0 0.01 0 0.01 0 0.01 0 0 0 0 0 0 0 0 0 0 0 0 0 0 0.01 0 0.01 0 0.01 0 0.01 0 0.01 0 0.01 0 0.01 0 0.01 0 0.01 0 0.01 0 0.01 0 0.01 0 0.01 0 0.01 0 0.01 0.01 0.01 0.01 0.01 0.01 0.01 0.01 0.01 0.01 0.01 0.01 0.01 0.01 0.01 0.01 -0.05 0.08 -0.01 -0.01 -0.01 -0.01 -0.01 -0.01 -0.01 -0.01 -0.01 -0.01 -0.01 -0.01 -0.01 -0.01 -0.01 -0.01 -0.01 -0 -0.01 -0 -0.01 -0 -0.01 -0 -0.01 -0 -0.01 -0 -0.01 -0 -0.01 -0.01 -0.01 -0 -0.01 -0.01 -0.01 -0.01 -0.01 -0.01 -0.01 -0.01 -0.01 -0.01 -0.01 -0.01 -0.01 -0.01 -0.01 -0.01 -0.01 -0.01 -0.01 -0.01 -0.01 -0.01 -0.01 -0.01 -0.01 -0.01 -0.01 -0.01 -0 -0.01 0.05 -0.07zm-0.05 0.07l-0.04 -0.08 0.09 0.01 -0.05 0.07zm0.26 0.02l0.09 0.01 -0.05 0.04 -0.01 -0 -0.01 -0 -0.01 -0 -0.01 -0 -0.01 -0 -0.01 -0 -0.01 -0 -0.01 -0 -0.01 -0 -0.01 -0 -0.01 -0 -0.01 -0 -0.01 -0 -0.01 -0 -0.01 -0 -0.01 -0 -0.01 -0 -0.01 -0 -0.01 -0 -0.01 -0 -0.01 -0 -0.01 -0 -0.01 -0 -0.01 -0 -0.01 -0 -0.01 -0 -0.01 -0 -0.01 -0 -0.01 -0 -0.01 -0 -0.01 -0 -0.01 -0 0.01 -0.09 0.01 0 0.01 0 0.01 0 0.01 0 0.01 0 0.01 0 0.01 0 0.01 0 0.01 0 0.01 0 0.01 0 0.01 0 0.01 0 0.01 0 0.01 0 0.01 0 0.01 0 0.01 0 0.01 0 0.01 0 0.01 0 0.01 0 0.01 0 0.01 0 0.01 0 0.01 0 0.01 0 0.01 0 0.01 0 0.01 0 0.01 0 0.01 0 -0.05 0.04zm0.09 0.01l-0 0.05 -0.05 -0.01 0.05 -0.04zm-0.03 -0.25l-0.05 0.08 0.07 -0.04 -0 0.01 -0 0.01 -0 0.01 -0 0.01 0 0.01 0 0.01 0 0.01 0 0.01 0 0.01 0 0.01 0 0.01 0 0.01 0 0.01 0 0.01 0 0.01 0 0.01 0 0.01 0 0.01 0 0.01 0 0.01 0 0.01 0 0.01 0 0.01 0 0.01 0 0.01 0 0.01 0 0.01 0 0.01 0 0.01 -0 0.01 -0 0.01 -0 0.01 -0.09 -0.01 0 -0.01 0 -0.01 0 -0.01 0 -0.01 0 -0.01 -0 -0 -0 -0.01 -0 -0.01 -0 -0.01 -0 -0.01 -0 -0.01 -0 -0.01 -0 -0.01 -0 -0.01 -0 -0.01 -0 -0.01 -0 -0.01 -0 -0.01 -0 -0.01 -0 -0.01 -0 -0.01 -0 -0.01 -0 -0.01 -0 -0.01 -0 -0.01 -0 -0.01 -0 -0.01 -0 -0.01 0 -0.01 0 -0.01 0 -0.01 0 -0.01 0.07 -0.04zm-0.07 0.04l0.01 -0.08 0.07 0.04 -0.07 0.04zm-1.78 -1.8l-0 0.01 -0.09 -0.01 0 -0.01 0.02 -0.03 0.08 0.04zm-0.09 -0.01l0 -0.02 0.02 -0.01 -0.02 0.03zm0.66 -0.41l-0.59 0.45 -0.06 -0.08 0.59 -0.45 0.05 -0.01 0.01 0.08zm-0.06 -0.08l0.02 -0.02 0.03 0.01 -0.05 0.01zm0.61 0.7l-0.07 0.06 0 0 -0.01 -0.01 -0.01 -0.01 -0.01 -0.01 -0.01 -0.02 -0.01 -0.02 -0.01 -0.02 -0.02 -0.02 -0.02 -0.02 -0.02 -0.03 -0.02 -0.03 -0.02 -0.03 -0.02 -0.03 -0.02 -0.03 -0.02 -0.03 -0.02 -0.03 -0.02 -0.03 -0.02 -0.03 -0.02 -0.03 -0.02 -0.03 -0.02 -0.03 -0.02 -0.03 -0.02 -0.03 -0.02 -0.02 -0.02 -0.02 -0.02 -0.02 -0.02 -0.02 -0.02 -0.02 -0.01 -0.01 -0.01 -0.01 -0.01 -0.01 -0.01 -0 0 0 0.04 -0.09 0.02 0.01 0.01 0.01 0.01 0.01 0.01 0.01 0.02 0.02 0.02 0.02 0.02 0.02 0.02 0.02 0.02 0.02 0.02 0.03 0.02 0.03 0.02 0.03 0.02 0.03 0.02 0.03 0.02 0.03 0.02 0.03 0.02 0.03 0.02 0.03 0.02 0.03 0.02 0.03 0.02 0.03 0.02 0.03 0.02 0.03 0.02 0.03 0.02 0.02 0.02 0.02 0.01 0.02 0.01 0.02 0.01 0.02 0.01 0.01 0.01 0.01 0.01 0.01 0 0zm0 0l0 0 0 0 0 0zm1 1.45l-1.08 -1.39 0.07 -0.06 1.08 1.39 0 0.01 -0.08 0.05zm0.07 -0.06l0 0 0 0 -0 -0.01zm0.16 1.01l0.03 -0.09 -0.06 0.06 -0 -0.02 -0.01 -0.02 -0.01 -0.02 -0.01 -0.02 -0.01 -0.03 -0.01 -0.03 -0.01 -0.03 -0.01 -0.03 -0.01 -0.03 -0.01 -0.04 -0.01 -0.04 -0.01 -0.04 -0.01 -0.04 -0.01 -0.04 -0.01 -0.04 -0.01 -0.04 -0.01 -0.04 -0.01 -0.04 -0.01 -0.04 -0.01 -0.04 -0.01 -0.04 -0.01 -0.03 -0.01 -0.03 -0.01 -0.03 -0.01 -0.03 -0.01 -0.03 -0.01 -0.02 -0.01 -0.02 -0 -0.02 -0 -0.01 -0 -0.01 -0 -0 0.08 -0.04 0.01 0.01 0 0.01 0.01 0.02 0.01 0.02 0.01 0.02 0.01 0.02 0.01 0.03 0.01 0.03 0.01 0.03 0.01 0.03 0.01 0.03 0.01 0.04 0.01 0.04 0.01 0.04 0.01 0.04 0.01 0.04 0.01 0.04 0.01 0.04 0.01 0.04 0.01 0.04 0.01 0.04 0.01 0.04 0.01 0.04 0.01 0.03 0.01 0.03 0.01 0.03 0.01 0.03 0.01 0.03 0.01 0.02 0.01 0.02 0 0.02 0 0.01 -0.06 0.06zm0.06 -0.06l0.03 0.09 -0.09 -0.03 0.06 -0.06zm-0.69 -0.31l0.05 -0.08 0 0 0.01 0.01 0.01 0.01 0.02 0.01 0.02 0.01 0.02 0.01 0.02 0.01 0.02 0.01 0.02 0.01 0.02 0.01 0.02 0.01 0.02 0.01 0.02 0.01 0.02 0.01 0.02 0.01 0.02 0.01 0.02 0.01 0.02 0.01 0.02 0.01 0.02 0.01 0.02 0.01 0.02 0.01 0.02 0.01 0.02 0.01 0.02 0.01 0.02 0.01 0.02 0.01 0.02 0.01 0.01 0.01 0.01 0.01 0.01 0.01 0.01 0 0.01 0 -0.03 0.09 -0.01 -0 -0.01 -0.01 -0.01 -0.01 -0.01 -0.01 -0.02 -0.01 -0.02 -0.01 -0.02 -0.01 -0.02 -0.01 -0.02 -0.01 -0.02 -0.01 -0.02 -0.01 -0.02 -0.01 -0.02 -0.01 -0.02 -0.01 -0.02 -0.01 -0.02 -0.01 -0.02 -0.01 -0.02 -0.01 -0.02 -0.01 -0.02 -0.01 -0.02 -0.01 -0.02 -0.01 -0.02 -0.01 -0.02 -0.01 -0.02 -0.01 -0.02 -0.01 -0.02 -0.01 -0.02 -0.01 -0.02 -0.01 -0.02 -0.01 -0.01 -0.01 -0.01 -0.01 0 0zm-0.2 -0.12l0.06 -0.07 -0 -0 0 0 0 0 0 0 0 0 0 0 0.01 0 0 0 0.01 0 0.01 0 0.01 0 0.01 0 0.01 0 0.01 0 0.01 0 0.01 0 0.01 0 0.01 0 0.01 0 0.01 0 0.01 0 0.01 0 0.01 0 0.01 0 0.01 0 0.01 0 0.01 0 0.01 0 0.01 0 0.01 0 0.01 0 0.01 0 0.01 0 -0.05 0.08 -0.01 -0 -0.01 -0 -0.01 -0 -0.01 -0 -0.01 -0 -0.01 -0 -0.01 -0 -0.01 -0 -0.01 -0 -0.01 -0 -0.01 -0 -0.01 -0 -0.01 -0 -0.01 -0 -0.01 -0 -0.01 -0 -0.01 -0 -0.01 -0 -0.01 -0 -0.01 -0 -0.01 -0 -0.01 -0 -0.01 -0 -0.01 -0 -0.01 -0 -0.01 -0 -0.01 -0 -0.01 -0 -0.01 -0 -0.01 -0 -0.01 -0 -0.01 -0 -0 -0zm0 0l-0 -0 0.01 0.01 -0.01 -0.01zm-1.63 -2.11l0.09 0.01 -0.01 -0.03 0.01 0.01 0.02 0.03 0.03 0.04 0.03 0.04 0.04 0.05 0.04 0.06 0.05 0.07 0.05 0.07 0.06 0.08 0.06 0.08 0.07 0.08 0.07 0.09 0.07 0.09 0.07 0.09 0.07 0.09 0.07 0.09 0.07 0.09 0.07 0.09 0.07 0.09 0.07 0.09 0.07 0.09 0.06 0.08 0.06 0.08 0.06 0.07 0.05 0.07 0.05 0.06 0.04 0.05 0.04 0.05 0.03 0.04 0.02 0.03 0.01 0.02 0 0 -0.06 0.07 -0.01 -0.01 -0.02 -0.02 -0.02 -0.03 -0.03 -0.04 -0.04 -0.05 -0.04 -0.05 -0.05 -0.06 -0.05 -0.07 -0.06 -0.07 -0.06 -0.08 -0.06 -0.08 -0.07 -0.09 -0.07 -0.09 -0.07 -0.09 -0.07 -0.09 -0.07 -0.09 -0.07 -0.09 -0.07 -0.09 -0.07 -0.09 -0.07 -0.09 -0.07 -0.09 -0.07 -0.09 -0.06 -0.08 -0.06 -0.08 -0.05 -0.07 -0.05 -0.07 -0.04 -0.06 -0.04 -0.05 -0.03 -0.04 -0.03 -0.04 -0.02 -0.03 -0.01 -0.02 -0.01 -0.03zm0.01 0.03l-0.01 -0.01 0 -0.02 0.01 0.03zm0.28 -0.03l0.14 0.18 -0.07 0.06 -0.14 -0.18 0.01 -0.07 0.07 0.01zm-0.07 0.06l-0.03 -0.04 0.04 -0.03 -0.01 0.07zm0.42 -0.28l-0.36 0.28 -0.06 -0.07 0.36 -0.28 0.07 0.01 -0.01 0.07zm-0.06 -0.07l0.04 -0.03 0.03 0.04 -0.07 -0.01zm0.13 0.24l-0.14 -0.18 0.07 -0.06 0.14 0.18 -0.01 0.07 -0.07 -0.01zm0.07 -0.06l0.03 0.04 -0.04 0.03 0.01 -0.07zm-0.42 0.28l0.36 -0.28 0.06 0.07 -0.36 0.28 -0.07 -0.01 0.01 -0.07zm0.06 0.07l-0.04 0.03 -0.03 -0.04 0.07 0.01z"/>
   </g>
   <g>
    <path class="fil4" d="M8.29 3.42l0.05 0.05 -0.05 0.05 -4.36 0 0 -0.09 4.36 0zm0.05 0.05l0 0.05 -0.05 0 0.05 -0.05zm-0.09 -1.63l0.05 -0.05 0.05 0.05 0 1.63 -0.09 0 0 -1.63zm0.05 -0.05l0.05 0 0 0.05 -0.05 -0.05zm-4.36 0.09l-0.05 -0.05 0.05 -0.05 4.36 0 0 0.09 -4.36 0zm-0.05 -0.05l0 -0.05 0.05 0 -0.05 0.05zm0.09 1.63l-0.05 0.05 -0.05 -0.05 0 -1.63 0.09 0 0 1.63zm-0.05 0.05l-0.05 0 0 -0.05 0.05 0.05z"/>
   </g>
  </g>
 </g>
</svg>
