<?xml version="1.0" encoding="UTF-8"?>
<!DOCTYPE svg PUBLIC "-//W3C//DTD SVG 1.1//EN" "http://www.w3.org/Graphics/SVG/1.1/DTD/svg11.dtd">
<!-- Creator: CorelDRAW -->
<svg xmlns="http://www.w3.org/2000/svg" xml:space="preserve" width="0.283094in" height="0.302748in" version="1.1" style="shape-rendering:geometricPrecision; text-rendering:geometricPrecision; image-rendering:optimizeQuality; fill-rule:evenodd; clip-rule:evenodd"
viewBox="0 0 6.94 7.42"
 xmlns:xlink="http://www.w3.org/1999/xlink">
 <defs>
  <style type="text/css">
   <![CDATA[
    .str0 {stroke:black;stroke-width:0.07;stroke-miterlimit:2.61313}
    .fil3 {fill:none;fill-rule:nonzero}
    .fil1 {fill:#FAB53C}
    .fil0 {fill:#FAB53C;fill-rule:nonzero}
    .fil2 {fill:black;fill-rule:nonzero}
   ]]>
  </style>
 </defs>
 <g id="Layer_x0020_1">
  <metadata id="CorelCorpID_0Corel-Layer"/>
  <g id="_105554789492576">
   <path class="fil0" d="M6.41 2.74l-0.38 0.17c0.16,0.37 0.24,0.76 0.24,1.17 0,1.61 -1.31,2.92 -2.92,2.92 -1.61,0 -2.92,-1.31 -2.92,-2.92 0,-1.4 1.01,-2.61 2.37,-2.87l0 0.71 1.22 -0.89 -1.22 -0.89 0 0.65c-0.76,0.13 -1.45,0.51 -1.96,1.1 -0.53,0.61 -0.82,1.39 -0.82,2.2 0,1.84 1.5,3.34 3.34,3.34 1.84,0 3.34,-1.5 3.34,-3.34 0,-0.46 -0.09,-0.91 -0.28,-1.34z"/>
   <path class="fil1" d="M2.91 4.7c-0.01,0.04 -0.01,0.21 -0.01,0.26l0.33 -0.06c-0.04,0.09 -0.18,0.14 -0.31,0.21l-0.34 0.19 -0.18 -0.14 0.04 -0.17c0.02,-0.07 0.03,-0.12 0.05,-0.19 0.05,-0.17 0.05,-0.27 0.13,-0.35 0.02,0.13 0.02,0.2 0.04,0.34 0.1,-0.02 0.15,-0.07 0.25,-0.09zm1.54 -2.96l0.01 -0 0.77 0.56c-0.01,0.1 -0.58,0.82 -0.65,0.92l-1.32 1.83c-0.07,0.07 -0.92,0.5 -1.07,0.61 0.01,-0.11 0.18,-0.71 0.22,-0.89 0.02,-0.09 0.04,-0.21 0.07,-0.28 0.02,-0.05 1.84,-2.6 1.96,-2.74zm-0.12 0.51l0.17 -0.24 0.48 0.34 -0.17 0.24 -0.48 -0.34z"/>
   <g>
    <g>
     <path class="fil2" d="M6.23 2.81l0.38 -0.17 0.03 0.06 -0.38 0.17 -0.04 -0.02 0.02 -0.04zm-0.02 0.04l-0.01 -0.03 0.03 -0.01 -0.02 0.04zm0.31 1.16l-0.07 0 0 0 -0 -0.04 -0 -0.04 -0 -0.04 -0 -0.04 -0 -0.04 -0 -0.04 -0 -0.04 -0 -0.04 -0 -0.04 -0 -0.04 -0 -0.04 -0.01 -0.04 -0.01 -0.04 -0.01 -0.04 -0.01 -0.04 -0.01 -0.04 -0.01 -0.04 -0.01 -0.04 -0.01 -0.04 -0.01 -0.04 -0.01 -0.04 -0.01 -0.04 -0.01 -0.04 -0.01 -0.04 -0.01 -0.04 -0.01 -0.04 -0.01 -0.03 -0.01 -0.03 -0.01 -0.03 -0.01 -0.03 -0.01 -0.03 -0.01 -0.03 0.06 -0.03 0.02 0.04 0.01 0.04 0.01 0.04 0.01 0.04 0.01 0.04 0.01 0.04 0.01 0.04 0.01 0.04 0.01 0.04 0.01 0.04 0.01 0.04 0.01 0.04 0.01 0.04 0.01 0.04 0.01 0.04 0.01 0.04 0.01 0.04 0.01 0.04 0.01 0.04 0.01 0.04 0.01 0.04 0.01 0.04 0 0.04 0 0.04 0 0.04 0 0.04 0 0.04 0 0.04 0 0.04 0 0.04 0 0.04 0 0.04 0 0zm-2.96 2.96l0 -0.07 0 0 0.15 -0 0.15 -0.01 0.14 -0.02 0.14 -0.03 0.14 -0.03 0.14 -0.04 0.13 -0.05 0.13 -0.05 0.13 -0.06 0.12 -0.06 0.12 -0.07 0.12 -0.08 0.11 -0.08 0.11 -0.09 0.1 -0.09 0.1 -0.1 0.1 -0.1 0.09 -0.1 0.09 -0.11 0.08 -0.11 0.08 -0.12 0.07 -0.12 0.06 -0.12 0.06 -0.13 0.05 -0.13 0.05 -0.13 0.04 -0.14 0.03 -0.14 0.03 -0.14 0.02 -0.14 0.01 -0.15 0 -0.15 0.07 0 -0 0.15 -0.01 0.15 -0.02 0.15 -0.03 0.15 -0.03 0.14 -0.04 0.14 -0.05 0.14 -0.05 0.13 -0.06 0.13 -0.07 0.13 -0.07 0.12 -0.08 0.12 -0.08 0.12 -0.09 0.11 -0.09 0.11 -0.1 0.1 -0.1 0.1 -0.11 0.09 -0.11 0.09 -0.12 0.08 -0.12 0.08 -0.12 0.07 -0.13 0.07 -0.13 0.06 -0.13 0.05 -0.14 0.05 -0.14 0.04 -0.14 0.03 -0.15 0.03 -0.15 0.02 -0.15 0.01 -0.15 0 0 0zm-2.96 -2.96l0.07 0 0 0 0 0.15 0.01 0.15 0.02 0.14 0.03 0.14 0.03 0.14 0.04 0.14 0.05 0.13 0.05 0.13 0.06 0.13 0.06 0.12 0.07 0.12 0.08 0.12 0.08 0.11 0.09 0.11 0.09 0.1 0.1 0.1 0.1 0.1 0.1 0.09 0.11 0.09 0.11 0.08 0.12 0.08 0.12 0.07 0.12 0.06 0.13 0.06 0.13 0.05 0.13 0.05 0.14 0.04 0.14 0.03 0.14 0.03 0.14 0.02 0.15 0.01 0.15 0 0 0.07 -0.15 -0 -0.15 -0.01 -0.15 -0.02 -0.15 -0.03 -0.14 -0.03 -0.14 -0.04 -0.14 -0.05 -0.13 -0.05 -0.13 -0.06 -0.13 -0.07 -0.12 -0.07 -0.12 -0.08 -0.12 -0.08 -0.11 -0.09 -0.11 -0.09 -0.1 -0.1 -0.1 -0.1 -0.09 -0.11 -0.09 -0.11 -0.08 -0.12 -0.08 -0.12 -0.07 -0.12 -0.07 -0.13 -0.06 -0.13 -0.05 -0.13 -0.05 -0.14 -0.04 -0.14 -0.03 -0.14 -0.03 -0.15 -0.02 -0.15 -0.01 -0.15 -0 -0.15 0 0zm2.44 -2.87l-0.07 0 0.04 0.03 -0.12 0.03 -0.12 0.03 -0.12 0.04 -0.12 0.04 -0.12 0.05 -0.11 0.05 -0.11 0.06 -0.11 0.06 -0.1 0.07 -0.1 0.07 -0.1 0.07 -0.09 0.08 -0.09 0.08 -0.09 0.09 -0.08 0.09 -0.08 0.09 -0.08 0.1 -0.07 0.1 -0.07 0.1 -0.06 0.11 -0.06 0.11 -0.05 0.11 -0.05 0.11 -0.05 0.12 -0.04 0.12 -0.04 0.12 -0.03 0.12 -0.03 0.12 -0.02 0.12 -0.01 0.13 -0.01 0.13 -0 0.13 -0.07 0 0 -0.13 0.01 -0.13 0.01 -0.13 0.02 -0.13 0.03 -0.13 0.03 -0.12 0.04 -0.12 0.04 -0.12 0.05 -0.12 0.05 -0.12 0.06 -0.11 0.06 -0.11 0.07 -0.11 0.07 -0.1 0.07 -0.1 0.08 -0.1 0.08 -0.1 0.09 -0.09 0.09 -0.09 0.09 -0.08 0.1 -0.08 0.1 -0.08 0.1 -0.07 0.11 -0.07 0.11 -0.06 0.11 -0.06 0.12 -0.05 0.12 -0.05 0.12 -0.04 0.12 -0.04 0.13 -0.03 0.13 -0.03 0.04 0.03zm-0.04 -0.03l0.04 -0.01 0 0.04 -0.04 -0.03zm-0.03 0.75l0 -0.71 0.07 0 0 0.71 -0.01 0.03 -0.05 -0.03zm0.05 0.03l-0.05 0.04 0 -0.07 0.05 0.03zm1.22 -0.89l-1.22 0.89 -0.04 -0.06 1.22 -0.89 0.04 0 0 0.06zm0 -0.06l0.04 0.03 -0.04 0.03 0 -0.06zm-1.22 -0.89l1.22 0.89 -0.04 0.06 -1.22 -0.89 -0.01 -0.03 0.05 -0.03zm-0.05 0.03l0 -0.07 0.05 0.04 -0.05 0.03zm0 0.65l0 -0.65 0.07 0 0 0.65 -0.03 0.03 -0.04 -0.03zm0.07 0l0 0.03 -0.03 0 0.03 -0.03zm-1.97 1.12l-0.05 -0.04 -0 0 0.05 -0.05 0.05 -0.05 0.05 -0.05 0.05 -0.05 0.05 -0.05 0.05 -0.05 0.05 -0.05 0.06 -0.05 0.06 -0.04 0.06 -0.04 0.06 -0.04 0.06 -0.04 0.06 -0.04 0.06 -0.04 0.06 -0.04 0.06 -0.04 0.06 -0.03 0.06 -0.03 0.06 -0.03 0.07 -0.03 0.07 -0.03 0.07 -0.03 0.07 -0.03 0.07 -0.02 0.07 -0.02 0.07 -0.02 0.07 -0.02 0.07 -0.02 0.07 -0.02 0.07 -0.02 0.07 -0.01 0.07 -0.01 0.01 0.07 -0.07 0.01 -0.07 0.01 -0.07 0.02 -0.07 0.02 -0.07 0.02 -0.07 0.02 -0.07 0.02 -0.07 0.02 -0.07 0.02 -0.07 0.03 -0.07 0.03 -0.06 0.03 -0.06 0.03 -0.06 0.03 -0.06 0.03 -0.06 0.03 -0.06 0.04 -0.06 0.04 -0.06 0.04 -0.06 0.04 -0.06 0.04 -0.06 0.04 -0.06 0.04 -0.06 0.04 -0.05 0.05 -0.05 0.05 -0.05 0.05 -0.05 0.05 -0.05 0.05 -0.05 0.05 -0.05 0.05 -0.05 0.05 -0 0zm-0.82 2.18l-0.07 0 0 0 0 -0.08 0 -0.08 0 -0.08 0.01 -0.08 0.01 -0.08 0.01 -0.08 0.01 -0.08 0.01 -0.07 0.01 -0.07 0.02 -0.07 0.02 -0.07 0.02 -0.07 0.02 -0.07 0.02 -0.07 0.02 -0.07 0.03 -0.07 0.03 -0.07 0.03 -0.07 0.03 -0.07 0.03 -0.07 0.03 -0.07 0.03 -0.07 0.04 -0.07 0.04 -0.07 0.04 -0.06 0.04 -0.06 0.04 -0.06 0.04 -0.06 0.05 -0.06 0.05 -0.06 0.05 -0.06 0.05 -0.06 0.05 0.04 -0.05 0.06 -0.05 0.06 -0.05 0.06 -0.04 0.06 -0.04 0.06 -0.04 0.06 -0.04 0.06 -0.04 0.06 -0.04 0.06 -0.04 0.06 -0.03 0.07 -0.03 0.07 -0.03 0.07 -0.03 0.07 -0.03 0.07 -0.03 0.07 -0.03 0.07 -0.02 0.07 -0.02 0.07 -0.02 0.07 -0.02 0.07 -0.02 0.07 -0.02 0.07 -0.01 0.07 -0.01 0.07 -0.01 0.07 -0.01 0.07 -0.01 0.07 -0.01 0.07 -0 0.07 -0 0.07 -0 0.07 0 0zm3.31 3.31l0 0.07 0 0 -0.17 -0 -0.17 -0.01 -0.17 -0.02 -0.17 -0.03 -0.16 -0.04 -0.16 -0.05 -0.16 -0.05 -0.15 -0.06 -0.15 -0.07 -0.15 -0.07 -0.14 -0.08 -0.14 -0.09 -0.13 -0.09 -0.13 -0.1 -0.12 -0.11 -0.12 -0.11 -0.11 -0.12 -0.11 -0.12 -0.1 -0.13 -0.09 -0.13 -0.09 -0.14 -0.08 -0.14 -0.07 -0.15 -0.07 -0.15 -0.06 -0.15 -0.05 -0.16 -0.05 -0.16 -0.04 -0.16 -0.03 -0.17 -0.02 -0.17 -0.01 -0.17 -0 -0.17 0.07 0 0 0.17 0.01 0.17 0.02 0.17 0.03 0.16 0.04 0.16 0.04 0.16 0.05 0.15 0.06 0.15 0.07 0.15 0.07 0.14 0.08 0.14 0.09 0.13 0.09 0.13 0.1 0.13 0.1 0.12 0.11 0.12 0.12 0.11 0.12 0.1 0.13 0.1 0.13 0.09 0.13 0.09 0.14 0.08 0.14 0.07 0.15 0.07 0.15 0.06 0.15 0.05 0.16 0.04 0.16 0.04 0.16 0.03 0.17 0.02 0.17 0.01 0.17 0 0 0zm3.31 -3.31l0.07 0 0 0 -0 0.17 -0.01 0.17 -0.02 0.17 -0.03 0.17 -0.04 0.16 -0.05 0.16 -0.05 0.16 -0.06 0.15 -0.07 0.15 -0.07 0.15 -0.08 0.14 -0.09 0.14 -0.09 0.13 -0.1 0.13 -0.11 0.12 -0.11 0.12 -0.12 0.11 -0.12 0.11 -0.13 0.1 -0.13 0.09 -0.14 0.09 -0.14 0.08 -0.15 0.07 -0.15 0.07 -0.15 0.06 -0.16 0.05 -0.16 0.05 -0.16 0.04 -0.17 0.03 -0.17 0.02 -0.17 0.01 -0.17 0 0 -0.07 0.17 -0 0.17 -0.01 0.17 -0.02 0.16 -0.03 0.16 -0.04 0.16 -0.04 0.15 -0.05 0.15 -0.06 0.15 -0.07 0.14 -0.07 0.14 -0.08 0.13 -0.09 0.13 -0.09 0.13 -0.1 0.12 -0.1 0.12 -0.11 0.11 -0.12 0.1 -0.12 0.1 -0.13 0.09 -0.13 0.09 -0.13 0.08 -0.14 0.07 -0.14 0.07 -0.15 0.06 -0.15 0.05 -0.15 0.04 -0.16 0.04 -0.16 0.03 -0.16 0.02 -0.17 0.01 -0.17 0 -0.17 0 0zm-0.23 -1.31l-0.03 -0.06 0.04 0.02 0.02 0.04 0.02 0.04 0.02 0.04 0.02 0.04 0.02 0.04 0.01 0.04 0.01 0.04 0.01 0.04 0.01 0.04 0.01 0.04 0.01 0.04 0.01 0.04 0.01 0.04 0.01 0.04 0.01 0.04 0.01 0.04 0.01 0.04 0.01 0.04 0.01 0.04 0.01 0.04 0.01 0.04 0.01 0.04 0.01 0.04 0 0.04 0 0.04 0 0.04 0 0.04 0 0.04 0 0.04 0 0.04 0 0.04 0 0.04 -0.07 0 -0 -0.04 -0 -0.04 -0 -0.04 -0 -0.04 -0 -0.04 -0 -0.04 -0 -0.04 -0 -0.04 -0 -0.04 -0.01 -0.04 -0.01 -0.04 -0.01 -0.04 -0.01 -0.04 -0.01 -0.04 -0.01 -0.04 -0.01 -0.04 -0.01 -0.04 -0.01 -0.04 -0.01 -0.04 -0.01 -0.04 -0.01 -0.04 -0.01 -0.04 -0.01 -0.04 -0.01 -0.04 -0.01 -0.04 -0.01 -0.04 -0.01 -0.04 -0.01 -0.04 -0.02 -0.04 -0.02 -0.04 -0.02 -0.04 -0.02 -0.04 0.04 0.02zm-0.03 -0.06l0.03 -0.01 0.01 0.03 -0.04 -0.02z"/>
    </g>
    <g>
     <path class="fil3 str0" d="M3.12 4.64c-0.01,0.04 -0.01,0.21 -0.01,0.26l0.33 -0.06c-0.04,0.09 -0.18,0.14 -0.31,0.21l-0.34 0.19 -0.18 -0.14 0.04 -0.17c0.02,-0.07 0.03,-0.12 0.05,-0.19 0.05,-0.17 0.05,-0.27 0.13,-0.35 0.02,0.13 0.02,0.2 0.04,0.34 0.1,-0.02 0.15,-0.07 0.25,-0.09zm1.54 -2.96l0.01 -0 0.77 0.56c-0.01,0.1 -0.58,0.82 -0.65,0.92l-1.32 1.83c-0.07,0.07 -0.92,0.5 -1.07,0.61 0.01,-0.11 0.18,-0.71 0.22,-0.89 0.02,-0.09 0.04,-0.21 0.07,-0.28 0.02,-0.05 1.84,-2.6 1.96,-2.74zm-0.12 0.51l0.17 -0.24 0.48 0.34 -0.17 0.24 -0.48 -0.34z"/>
    </g>
   </g>
  </g>
 </g>
</svg>
