<?xml version="1.0" encoding="UTF-8"?>
<!DOCTYPE svg PUBLIC "-//W3C//DTD SVG 1.1//EN" "http://www.w3.org/Graphics/SVG/1.1/DTD/svg11.dtd">
<!-- Creator: CorelDRAW X8 -->
<svg xmlns="http://www.w3.org/2000/svg" xml:space="preserve" width="1in" height="1in" version="1.1" style="shape-rendering:geometricPrecision; text-rendering:geometricPrecision; image-rendering:optimizeQuality; fill-rule:evenodd; clip-rule:evenodd"
viewBox="0 0 5583 5583"
 xmlns:xlink="http://www.w3.org/1999/xlink">
 <defs>
  <style type="text/css">
   <![CDATA[
    .fil0 {fill:none}
    .fil3 {fill:#4949BF}
    .fil6 {fill:#F9B73C}
    .fil5 {fill:white}
    .fil1 {fill:white}
    .fil2 {fill:#4D4D4D;fill-rule:nonzero}
    .fil4 {fill:white;fill-rule:nonzero}
   ]]>
  </style>
   <clipPath id="id0">
    <path d="M2094 930l2219 0c114,0 207,93 207,207l0 3109c0,114 -93,207 -207,207l-3200 0c-114,0 -207,-93 -207,-207l0 -2128c155,184 387,301 646,301 465,0 843,-377 843,-843 0,-259 -117,-491 -301,-646z"/>
   </clipPath>
 </defs>
 <g id="Layer_x0020_1">
  <metadata id="CorelCorpID_0Corel-Layer"/>
  <rect class="fil0" width="5583" height="5583"/>
  <g>
   <path class="fil1" d="M2993 2525l1478 -1395c113,0 206,93 206,207l0 3109c0,114 -93,206 -206,206l-3201 0c-114,0 -207,-92 -207,-206l1724 -1714c0,-114 92,-207 206,-207z"/>
   <path id="1" class="fil2" d="M4496 1157l-1478 1395 -49 -53 1477 -1395 25 -10 25 63zm-50 -53l11 -10 14 0 -25 10zm267 233l-72 0 0 0 -1 -9 0 -8 -1 -9 -2 -8 -2 -9 -2 -8 -3 -8 -3 -7 -3 -8 -4 -7 -4 -7 -4 -7 -5 -7 -5 -6 -6 -7 -5 -6 -6 -5 -6 -6 -7 -5 -6 -4 -7 -5 -7 -4 -8 -4 -7 -3 -8 -3 -8 -3 -8 -2 -8 -2 -8 -2 -9 -1 -8 0 -9 -1 0 -72 13 0 12 1 12 2 12 2 11 3 12 3 11 4 11 4 11 5 10 6 10 5 10 7 10 7 9 7 9 7 8 8 8 9 8 9 7 9 6 9 7 10 6 10 5 11 5 11 4 11 4 11 3 11 3 12 2 12 2 12 1 13 0 12 0 0zm-72 3109l0 -3109 72 0 0 3109 0 0 -72 0zm-170 243l0 -73 0 0 9 0 8 -1 9 -1 8 -1 8 -2 8 -2 8 -3 8 -3 7 -4 8 -3 7 -4 7 -5 6 -5 7 -5 6 -5 6 -6 5 -6 6 -6 5 -6 5 -7 4 -7 4 -7 4 -7 3 -8 3 -8 3 -8 2 -8 2 -8 2 -8 1 -9 0 -9 1 -8 72 0 0 12 -1 12 -2 13 -2 12 -3 11 -3 12 -4 11 -4 11 -5 11 -5 10 -6 11 -7 9 -6 10 -7 9 -8 9 -8 8 -8 8 -9 8 -9 7 -10 7 -10 6 -10 6 -10 6 -11 4 -11 5 -11 4 -12 3 -11 3 -12 2 -12 1 -12 1 -13 1 0 0zm-3201 -73l3201 0 0 73 -3201 0 0 0 0 -73zm-232 -196l51 51 10 -25 1 8 0 9 1 9 2 8 2 8 2 8 3 8 3 8 3 8 4 7 4 7 4 7 5 7 5 6 6 6 5 6 6 6 6 5 7 5 7 5 7 5 7 4 7 3 8 4 7 3 8 3 8 2 9 2 8 1 8 1 9 1 9 0 0 73 -13 -1 -12 -1 -12 -1 -12 -2 -12 -3 -11 -3 -12 -4 -11 -5 -10 -4 -11 -6 -10 -6 -10 -6 -9 -7 -10 -7 -8 -8 -9 -8 -8 -8 -7 -9 -8 -9 -6 -10 -7 -9 -6 -11 -5 -10 -5 -11 -4 -11 -4 -11 -3 -12 -3 -11 -2 -12 -2 -13 -1 -12 0 -12 11 -26zm-11 26l0 -15 11 -11 -11 26zm1785 -1688l-1723 1713 -51 -51 1723 -1713 62 25 -11 26zm11 -26l0 15 -11 11 11 -26zm146 -233l49 53 -25 10 -8 0 -9 1 -9 1 -8 1 -8 2 -8 2 -8 3 -8 3 -8 3 -7 4 -7 4 -7 5 -7 5 -6 5 -6 5 -6 6 -6 6 -5 6 -5 6 -5 7 -5 7 -4 7 -3 7 -4 8 -3 8 -3 8 -2 8 -2 8 -1 8 -1 9 -1 8 0 9 -73 0 1 -12 1 -13 1 -12 2 -12 3 -11 3 -12 4 -11 5 -11 4 -11 6 -11 6 -10 6 -10 7 -9 7 -9 8 -9 8 -8 8 -9 9 -7 9 -7 10 -7 9 -6 11 -6 10 -6 11 -5 11 -4 11 -4 12 -3 12 -3 11 -2 13 -1 12 -1 12 -1 -24 10zm49 53l-10 10 -15 0 25 -10z"/>
  </g>
  <path class="fil3" d="M2094 930l2219 0c114,0 207,93 207,207l0 3109c0,114 -93,207 -207,207l-3200 0c-114,0 -207,-93 -207,-207l0 -2128c155,184 387,301 646,301 465,0 843,-377 843,-843 0,-259 -117,-491 -301,-646z"/>
  <g style="clip-path:url(#id0)">
   <g>
    <path id="1" class="fil4" d="M4524 4318c-330,-345 -661,-690 -991,-1035 -36,-38 -95,-42 -137,-10 -112,89 -225,177 -337,265 -2,1 -5,1 -7,-1 -239,-254 -479,-509 -719,-763 -37,-40 -101,-38 -136,4 -407,499 -815,998 -1223,1496 0,1 -1,2 -1,3 -3,79 -6,183 -8,261 1147,0 2408,0 3556,0 2,0 4,-2 4,-5l0 -212c0,-1 0,-2 -1,-3z"/>
    <path class="fil4" d="M3666 2629c253,0 459,-206 459,-459 0,-254 -206,-460 -459,-460 -254,0 -460,206 -460,460 0,253 206,459 460,459z"/>
   </g>
  </g>
  <path class="fil0" d="M2094 930l2219 0c114,0 207,93 207,207l0 3109c0,114 -93,207 -207,207l-3200 0c-114,0 -207,-93 -207,-207l0 -2128c155,184 387,301 646,301 465,0 843,-377 843,-843 0,-259 -117,-491 -301,-646z"/>
  <circle class="fil5" cx="1552" cy="1576" r="596"/>
  <path class="fil6" d="M1552 846c403,0 729,327 729,730 0,403 -326,730 -729,730 -403,0 -730,-327 -730,-730 0,-403 327,-730 730,-730zm-120 1064l557 -557c5,-5 8,-12 8,-19 0,-8 -3,-14 -8,-20l-55 -53c-11,-11 -28,-11 -39,0l-444 445c-11,10 -28,10 -39,0l-206 -206c-10,-11 -28,-11 -38,0l-54 53c-10,11 -10,28 0,38l318 319 0 0z"/>
 </g>
</svg>
