<?xml version="1.0" encoding="UTF-8"?>
<!DOCTYPE svg PUBLIC "-//W3C//DTD SVG 1.1//EN" "http://www.w3.org/Graphics/SVG/1.1/DTD/svg11.dtd">
<!-- Creator: CorelDRAW X8 -->
<svg xmlns="http://www.w3.org/2000/svg" xml:space="preserve" width="1in" height="1in" version="1.1" style="shape-rendering:geometricPrecision; text-rendering:geometricPrecision; image-rendering:optimizeQuality; fill-rule:evenodd; clip-rule:evenodd"
viewBox="0 0 386 386"
 xmlns:xlink="http://www.w3.org/1999/xlink">
 <defs>
  <style type="text/css">
   <![CDATA[
    .fil0 {fill:none}
    .fil3 {fill:#4949BF}
    .fil1 {fill:white}
    .fil2 {fill:black;fill-rule:nonzero}
    .fil5 {fill:#4949BF;fill-rule:nonzero}
    .fil6 {fill:#F9B73C;fill-rule:nonzero}
    .fil4 {fill:white;fill-rule:nonzero}
   ]]>
  </style>
 </defs>
 <g id="Layer_x0020_1">
  <metadata id="CorelCorpID_0Corel-Layer"/>
  <rect class="fil0" width="386" height="386"/>
  <g>
   <path class="fil1" d="M90 77l217 0c8,0 14,6 14,14l0 217c0,7 -6,14 -14,14l-217 0c-8,0 -14,-7 -14,-14l0 -217c0,-8 6,-14 14,-14z"/>
   <path id="1" class="fil2" d="M307 78l-217 0 0 -3 217 0 0 0 0 3zm16 13l-4 0 0 0 0 -1 0 -1 0 0 0 -1 0 0 0 -1 -1 -1 0 0 0 -1 0 0 -1 -1 0 0 0 -1 -1 0 0 -1 0 0 -1 0 0 -1 -1 0 0 0 -1 -1 0 0 -1 0 0 -1 -1 0 0 0 -1 0 0 0 -1 0 -1 0 0 0 -1 -1 0 -3 1 0 1 0 1 0 0 0 1 0 1 1 0 0 1 0 1 1 1 0 0 0 1 1 0 0 1 1 1 0 0 1 1 0 0 1 1 0 0 1 0 0 1 1 0 1 0 0 1 1 0 1 0 1 0 0 1 1 0 1 0 1 0 1 0 0zm-4 217l0 -217 4 0 0 217 0 0 -4 0zm-12 15l0 -3 0 0 1 0 0 0 1 0 1 0 0 0 1 -1 0 0 1 0 0 0 1 -1 0 0 1 0 0 0 1 -1 0 0 1 -1 0 0 0 0 1 -1 0 0 0 -1 1 0 0 -1 0 0 0 -1 1 -1 0 0 0 -1 0 0 0 -1 0 0 0 -1 4 0 0 1 0 0 0 1 -1 1 0 1 0 1 0 0 -1 1 0 1 0 0 -1 1 0 1 0 0 -1 1 0 0 -1 1 0 0 -1 1 -1 0 0 1 -1 0 0 1 -1 0 -1 0 -1 1 0 0 -1 0 -1 0 0 0 -1 0 -1 0 -1 0 0 0zm-217 -3l217 0 0 3 -217 0 0 0 0 -3zm-16 -12l4 0 0 0 0 1 0 0 0 1 0 0 0 1 0 0 0 1 1 1 0 0 0 1 0 0 1 1 0 0 0 1 1 0 0 0 1 1 0 0 1 1 0 0 1 0 0 0 1 1 0 0 1 0 0 0 1 1 0 0 1 0 1 0 0 0 1 0 0 3 -1 0 -1 0 -1 0 0 0 -1 0 -1 0 -1 0 0 -1 -1 0 -1 0 0 -1 -1 0 -1 -1 0 0 -1 -1 0 0 -1 -1 0 0 -1 -1 0 0 -1 -1 0 -1 0 0 -1 -1 0 -1 0 0 0 -1 0 -1 -1 -1 0 -1 0 0 0 -1 0 0zm4 -217l0 217 -4 0 0 -217 0 0 4 0zm12 -16l0 3 0 0 -1 1 0 0 -1 0 -1 0 0 0 -1 0 0 0 -1 0 0 1 -1 0 0 0 -1 1 0 0 -1 0 0 1 -1 0 0 0 -1 1 0 0 0 1 -1 0 0 1 0 0 0 1 -1 0 0 1 0 1 0 0 0 1 0 0 0 1 0 1 -4 0 0 -1 0 -1 0 -1 1 -1 0 0 0 -1 0 -1 0 -1 1 0 0 -1 0 -1 1 0 0 -1 1 0 0 -1 1 0 0 -1 1 0 0 -1 1 0 1 -1 0 0 1 0 1 -1 0 0 1 0 1 -1 1 0 0 0 1 0 1 0 1 0 0 0z"/>
  </g>
  <rect class="fil3" x="65" y="64" width="245" height="245" rx="14" ry="14"/>
  <circle class="fil1" cx="188" cy="187" r="95"/>
  <g>
   <polygon class="fil4" points="168,214 161,207 161,197 206,151 223,168 178,213 "/>
   <path id="1" class="fil5" d="M162 206l7 7 -2 2 -7 -7 0 -1 2 -1zm-2 2l0 -1 0 0 0 1zm2 -11l0 10 -2 0 0 -10 0 -1 2 1zm-2 0l0 -1 0 0 0 1zm47 -45l-45 46 -2 -2 45 -45 2 0 0 1zm-2 -1l1 -1 1 1 -2 0zm17 18l-17 -17 2 -1 17 16 0 2 -2 0zm2 -2l1 1 -1 1 0 -2zm-47 45l45 -45 2 2 -46 45 0 1 -1 -3zm1 2l0 1 0 0 0 -1zm-10 -2l10 0 0 3 -10 0 -1 0 1 -3zm0 3l0 0 -1 0 1 0z"/>
  </g>
  <g>
   <path class="fil4" d="M230 153l-8 -9c-3,-2 -6,-2 -9,0l-8 8 17 17 8 -8c2,-3 3,-6 0,-8z"/>
   <path id="1" class="fil5" d="M222 143l9 9 -1 1 -9 -8 1 -2 0 0zm-8 2l-1 -2 0 0 0 0 0 0 0 -1 1 0 0 0 0 0 1 0 0 0 0 -1 1 0 0 0 0 0 0 0 1 0 0 0 0 0 1 0 0 0 1 0 0 0 0 0 0 0 1 0 0 0 0 0 1 1 0 0 0 0 1 0 0 0 0 1 0 0 -1 2 -1 -1 0 0 0 0 0 0 0 0 0 0 -1 0 0 0 0 0 0 0 0 0 -1 0 0 0 0 -1 0 0 0 0 -1 1 0 0 0 0 0 0 0 0 -1 0 0 0 0 0 0 0 -1 0 0 0 0 0 0 1 0 0 0 0 -1 0 0 0zm-10 7l9 -9 1 2 -8 8 -2 0 0 -1zm0 1l-1 -1 1 0 0 1zm17 17l-17 -17 2 -1 17 16 0 2 -2 0zm2 0l-1 1 -1 -1 2 0zm8 -8l-8 8 -2 -2 8 -8 0 0 2 2zm-1 -9l1 -1 0 0 1 0 0 0 0 0 0 1 0 0 1 0 0 1 0 0 0 0 0 1 0 0 0 0 0 1 0 0 0 0 0 1 0 0 0 0 0 1 0 0 0 0 0 1 0 0 0 0 -1 1 0 0 0 0 0 0 0 1 -1 0 0 0 0 1 -2 -2 0 0 1 -1 0 0 0 0 0 0 0 0 0 -1 0 0 0 0 0 0 0 0 1 -1 0 0 0 0 0 0 0 -1 0 0 0 0 0 0 0 0 0 -1 0 0 -1 0 0 0 0 0 0 -1 0 0 0 0 0 0 0 0 0 0 0 -1 0 0z"/>
  </g>
  <g>
   <path class="fil4" d="M159 199l-7 22c0,0 0,1 1,1 0,0 1,0 1,0l22 -7c1,0 1,-1 1,-1 0,-1 0,-1 0,-2l-15 -14c0,-1 -1,-1 -1,-1 -1,1 -1,1 -2,2z"/>
   <path id="1" class="fil5" d="M151 220l7 -22 3 1 -7 22 -3 -1zm3 1l-2 2 0 0 0 0 0 0 0 0 0 -1 0 0 -1 0 0 0 0 0 0 0 0 0 0 0 0 0 0 0 0 0 0 0 0 0 0 -1 0 0 0 0 0 0 0 0 0 0 0 0 0 0 0 0 0 0 0 0 0 -1 0 0 0 0 0 0 0 0 3 1 0 0 0 0 0 0 0 0 0 0 0 0 0 0 0 0 0 0 0 0 0 0 0 0 0 0 0 0 0 0 0 0 0 0 0 0 0 0 0 0 0 0 0 0 0 0 0 0 0 0 0 0 0 0 0 0 0 0 0 0 0 0 0 0 0 0zm0 0l0 2 0 0 0 0 0 0 0 0 0 0 0 0 0 0 0 0 0 0 0 0 0 0 0 0 -1 0 0 0 0 0 0 0 0 0 0 0 0 0 0 0 0 0 0 0 0 0 -1 0 0 0 0 0 0 0 0 0 0 0 0 0 0 0 0 0 0 0 2 -2 0 0 0 0 0 0 0 0 0 0 0 0 0 0 0 0 0 0 0 0 0 0 0 0 0 0 0 0 0 0 0 0 0 0 0 0 0 0 0 0 0 0 0 0 0 0 0 0 0 0 0 0 0 0 0 0 0 0 0 0 0 0 0 0 0 0zm22 -5l-22 7 0 -2 22 -7 0 0 0 2zm0 -3l2 1 0 0 0 0 0 0 0 1 0 0 0 0 0 0 0 0 0 0 0 0 0 0 0 0 0 0 0 0 0 0 0 0 0 0 -1 1 0 0 0 0 0 0 0 0 0 0 0 0 0 0 0 0 0 0 0 0 0 0 0 0 -1 0 0 0 0 0 0 -2 0 0 0 0 0 0 0 0 0 0 0 0 0 0 0 0 0 0 0 0 0 0 0 0 0 0 0 0 0 0 0 0 0 0 0 0 0 0 0 0 0 0 0 0 0 0 0 0 0 -1 0 0 0 0 0 0 0 0 0 0 0 0 0 0 0 0zm0 0l2 -2 0 0 0 1 0 0 0 0 0 0 0 0 0 0 0 0 0 0 0 0 0 0 0 0 0 0 0 1 0 0 0 0 1 0 0 0 0 0 0 0 0 0 0 0 0 0 0 0 0 1 0 0 -1 0 0 0 0 0 0 0 0 0 0 0 0 0 -2 -1 0 0 0 0 0 0 0 0 0 0 0 0 0 0 0 0 0 0 0 0 0 0 0 0 0 0 0 0 0 0 0 0 0 0 0 0 0 0 0 0 0 0 0 0 0 0 0 0 0 0 0 0 0 0 0 0 0 0 0 0 0 0 0 0 0 0zm-13 -16l15 14 -2 2 -15 -15 0 0 2 -1zm-2 2l-1 -3 0 0 0 0 0 0 0 0 0 0 1 0 0 0 0 0 0 0 0 0 0 0 0 0 0 0 0 0 0 0 0 0 1 0 0 0 0 0 0 0 0 0 0 0 0 0 0 0 0 0 0 0 0 0 1 0 0 0 0 1 0 0 0 0 0 0 -2 1 0 0 0 0 0 0 0 0 0 1 0 0 0 0 0 0 0 0 0 0 0 0 0 0 0 0 0 0 0 0 0 0 0 0 0 0 0 0 0 0 0 0 0 0 0 0 0 0 0 0 0 0 0 0 0 0 0 0 0 0 0 0 0 0 0 0zm0 0l-3 -1 0 0 0 0 0 0 0 0 0 0 0 0 0 0 0 0 1 0 0 -1 0 0 0 0 0 0 0 0 0 0 0 0 0 0 0 0 0 0 0 0 0 0 0 0 0 0 0 0 0 0 1 -1 0 0 0 0 0 0 0 0 0 0 0 0 0 0 1 3 0 0 0 0 0 0 0 0 0 0 0 0 0 0 0 0 0 0 0 0 0 0 0 0 0 0 0 0 0 0 0 0 0 0 0 0 0 0 0 0 0 0 0 0 0 0 0 0 0 0 0 0 0 0 0 0 0 0 0 0 0 0 0 0 0 0z"/>
  </g>
  <path class="fil6" d="M253 159l-8 4c4,8 5,17 5,26 0,35 -28,64 -64,64 -35,0 -64,-29 -64,-64 0,-31 22,-58 52,-63l0 15 27 -19 -27 -20 0 14c-16,3 -32,12 -43,24 -11,14 -18,31 -18,49 0,40 33,73 73,73 41,0 73,-33 73,-73 0,-11 -2,-20 -6,-30z"/>
 </g>
</svg>
