<?xml version="1.0" encoding="UTF-8"?>
<!DOCTYPE svg PUBLIC "-//W3C//DTD SVG 1.1//EN" "http://www.w3.org/Graphics/SVG/1.1/DTD/svg11.dtd">
<!-- Creator: CorelDRAW X8 -->
<svg xmlns="http://www.w3.org/2000/svg" xml:space="preserve" width="1in" height="1in" version="1.1" style="shape-rendering:geometricPrecision; text-rendering:geometricPrecision; image-rendering:optimizeQuality; fill-rule:evenodd; clip-rule:evenodd"
viewBox="0 0 993 993"
 xmlns:xlink="http://www.w3.org/1999/xlink">
 <defs>
  <style type="text/css">
   <![CDATA[
    .fil0 {fill:none}
    .fil4 {fill:#286EAB}
    .fil2 {fill:white}
    .fil3 {fill:#373435;fill-rule:nonzero}
    .fil5 {fill:#FBB34B;fill-rule:nonzero}
    .fil7 {fill:#1A1A1A;fill-rule:nonzero}
    .fil1 {fill:#286EAB;fill-rule:nonzero}
    .fil6 {fill:white;fill-rule:nonzero}
   ]]>
  </style>
 </defs>
 <g id="Layer_x0020_1">
  <metadata id="CorelCorpID_0Corel-Layer"/>
  <rect class="fil0" width="993" height="993"/>
  <path class="fil1" d="M464 285c36,-74 72,-111 144,-111 80,0 144,66 144,148 0,148 -144,296 -288,444 -144,-148 -287,-296 -287,-444 0,-82 64,-148 143,-148 72,0 108,37 144,111z"/>
  <g>
   <path class="fil2" d="M372 433c-53,-35 -86,-79 -106,-130 -6,25 -14,48 -28,63 -30,32 -66,49 -101,70 37,5 63,17 93,63 27,41 25,94 37,138 12,-39 24,-109 35,-124 26,-38 57,-56 93,-73 -6,-2 -11,-3 -16,-4 -1,-1 -1,-1 -2,-1 -1,0 -3,-1 -5,-2z"/>
   <path id="1" class="fil3" d="M271 304l-10 -2 10 -1 1 5 2 5 2 4 2 5 3 4 2 5 2 4 3 4 2 5 3 4 2 4 3 5 3 4 3 4 3 4 3 4 4 4 3 4 3 4 4 3 4 4 3 4 4 3 4 4 4 4 4 3 5 4 4 3 5 3 4 4 5 3 5 3 -6 9 -5 -3 -5 -4 -5 -3 -4 -4 -5 -3 -4 -4 -5 -3 -4 -4 -4 -4 -4 -4 -4 -4 -4 -3 -3 -4 -4 -4 -3 -5 -4 -4 -3 -4 -3 -4 -3 -4 -3 -5 -3 -4 -3 -4 -3 -5 -2 -4 -3 -5 -2 -5 -3 -4 -2 -5 -2 -5 -2 -4 -2 -5 -2 -5 10 -1zm-29 65l-8 -7 0 0 1 -1 2 -2 1 -1 1 -2 1 -1 1 -2 1 -1 1 -2 1 -1 1 -2 1 -2 1 -2 1 -1 1 -2 0 -2 1 -2 1 -2 1 -2 1 -2 0 -2 1 -2 1 -2 0 -2 1 -2 1 -2 0 -3 1 -2 0 -2 1 -2 0 -2 1 -3 1 -2 10 2 -1 3 0 2 -1 2 0 3 -1 2 -1 2 0 2 -1 3 -1 2 0 2 -1 2 -1 3 -1 2 0 2 -1 2 -1 2 -1 2 -1 2 -1 2 -1 2 -1 2 -1 2 -1 2 -1 2 -1 2 -1 1 -2 2 -1 2 -1 1 -1 2 -2 2 -1 1 0 0zm0 0l0 0 0 0 0 0zm-104 62l-2 10 -2 -10 4 -2 3 -2 3 -1 4 -2 3 -2 3 -2 4 -2 3 -2 3 -2 3 -2 4 -2 3 -1 3 -2 3 -2 3 -2 4 -2 3 -2 3 -3 3 -2 3 -2 3 -2 3 -2 3 -3 3 -2 3 -2 3 -3 3 -2 3 -3 3 -3 3 -2 2 -3 3 -3 8 7 -3 3 -3 3 -3 3 -3 3 -3 3 -3 2 -3 3 -3 2 -3 3 -4 2 -3 2 -3 3 -3 2 -3 2 -4 2 -3 2 -3 2 -3 2 -4 2 -3 2 -3 2 -3 2 -4 2 -3 2 -3 2 -4 2 -3 2 -3 2 -3 2 -4 2 -3 1 -3 2 -2 -9zm96 66l-8 5 0 0 -3 -4 -3 -4 -2 -4 -3 -3 -3 -4 -2 -3 -3 -3 -3 -3 -2 -2 -3 -3 -2 -2 -3 -3 -3 -2 -2 -2 -3 -2 -2 -1 -3 -2 -3 -1 -2 -2 -3 -1 -3 -1 -3 -1 -3 -2 -2 0 -3 -1 -3 -1 -3 -1 -4 -1 -3 0 -3 -1 -3 0 -4 -1 2 -10 3 0 4 1 3 0 4 1 3 1 3 1 3 1 4 1 3 1 3 1 3 1 3 1 3 2 3 1 3 2 3 2 3 2 3 2 3 2 3 2 3 3 2 2 3 3 3 3 3 3 3 3 2 4 3 3 3 4 3 4 3 4 2 5 0 0zm-8 5l0 0 -1 0 1 0zm36 134l10 3 -10 0 -1 -5 -1 -4 -1 -4 -1 -5 -1 -4 -1 -5 0 -4 -1 -4 -1 -5 -1 -4 0 -5 -1 -4 -1 -5 0 -4 -1 -5 -1 -4 -1 -4 -1 -5 -1 -4 -1 -4 -1 -5 -1 -4 -1 -4 -2 -4 -1 -4 -2 -5 -1 -4 -2 -3 -2 -4 -2 -4 -2 -4 -2 -4 8 -5 3 4 2 4 3 4 2 4 1 4 2 5 2 4 1 4 2 5 1 4 1 5 1 4 1 5 1 4 1 5 1 4 1 5 1 4 1 5 0 4 1 4 1 5 0 4 1 5 1 4 1 5 1 4 0 4 1 5 1 4 1 4 1 4 -10 0zm36 -126l9 6 0 0 -1 1 -1 2 -1 2 -1 2 -1 3 -1 2 -1 4 -1 3 -2 3 -1 4 -1 4 -1 4 -1 4 -1 4 -1 5 -1 4 -1 5 -1 4 -1 5 -1 5 -2 5 -1 4 -1 5 -1 5 -1 4 -1 5 -1 4 -1 5 -1 4 -1 4 -2 4 -1 4 -10 -3 1 -4 1 -4 2 -4 1 -4 1 -4 1 -5 1 -4 1 -5 1 -4 1 -5 1 -5 1 -5 1 -4 2 -5 1 -5 1 -4 1 -5 1 -4 1 -4 1 -5 1 -4 1 -4 1 -4 2 -3 1 -4 1 -3 1 -3 1 -3 1 -3 2 -2 1 -2 1 -2 0 0zm9 6l0 0 0 0 0 0zm87 -71l3 -10 1 10 -4 1 -3 2 -3 1 -4 2 -3 2 -3 1 -3 2 -3 2 -3 2 -3 1 -3 2 -3 2 -3 2 -3 2 -3 2 -3 2 -3 2 -3 2 -2 2 -3 3 -3 2 -2 3 -3 2 -3 3 -2 2 -3 3 -2 3 -3 3 -2 3 -3 3 -2 3 -2 4 -9 -6 3 -4 2 -3 3 -3 2 -4 3 -3 2 -3 3 -3 3 -3 3 -2 2 -3 3 -3 3 -2 3 -3 3 -2 3 -2 3 -3 3 -2 3 -2 3 -2 3 -2 3 -2 3 -2 4 -2 3 -1 3 -2 3 -2 3 -2 4 -1 3 -2 3 -2 4 -1 3 -2 1 10zm-16 -4l2 -11 0 1 1 0 0 0 1 0 0 0 1 0 0 0 1 0 0 1 1 0 0 0 1 0 0 0 1 0 0 0 1 1 0 0 1 0 0 0 1 0 0 0 1 0 0 0 1 1 0 0 1 0 0 0 1 0 1 0 0 0 1 1 0 0 1 0 -3 10 0 0 -1 0 -1 0 0 -1 -1 0 0 0 -1 0 0 0 -1 0 0 0 -1 -1 -1 0 0 0 -1 0 0 0 -1 0 0 0 -1 -1 0 0 -1 0 0 0 -1 0 0 0 -1 0 0 0 -1 -1 0 0 -1 0 0 0 -1 0 0 0 0 0 0 0zm2 -11l0 1 0 0 0 -1zm-4 10l3 -10 0 0 0 0 0 0 0 0 0 0 0 0 0 0 0 0 0 0 0 0 1 0 0 0 0 0 0 0 0 0 -1 0 1 0 0 0 0 0 0 0 0 0 0 0 0 0 0 0 0 0 0 0 0 0 0 0 0 0 0 0 0 0 0 0 0 0 -2 11 0 0 0 0 0 0 0 0 0 0 -1 0 0 0 0 0 0 0 0 0 0 0 0 -1 0 0 0 0 0 0 0 0 0 0 0 0 -1 0 0 0 0 0 0 0 0 0 0 0 0 0 0 0 0 0 0 0 0 0 0 0 0 0 -1 0 1 0zm3 -10l0 0 0 0 0 0zm-10 7l6 -9 0 0 0 0 0 0 0 0 0 0 0 1 1 0 0 0 0 0 0 0 0 0 0 0 0 0 0 0 1 0 0 0 0 0 0 0 0 0 0 1 0 0 1 0 0 0 0 0 0 0 0 0 0 0 0 0 0 0 1 0 0 0 0 0 0 0 -3 10 0 0 -1 0 0 0 0 0 0 0 0 0 -1 0 0 -1 0 0 0 0 -1 0 0 0 0 0 0 0 0 0 -1 0 0 0 0 0 0 -1 0 0 -1 0 0 0 0 0 0 0 0 0 -1 0 0 0 0 -1 0 0 0 0 -1 0 0 0 0 0zm0 0l0 0 0 0 0 0z"/>
  </g>
  <path class="fil4" d="M361 719c-28,-18 -45,-41 -56,-68 -2,13 -7,25 -14,33 -16,17 -35,26 -53,37 19,3 33,9 49,34 14,21 13,49 19,73 6,-21 13,-58 19,-66 13,-20 30,-30 49,-39 -3,0 -6,-1 -9,-2 0,0 0,0 -1,0 -1,-1 -1,-1 -3,-2z"/>
  <path class="fil5" d="M837 342c-15,0 -29,0 -44,0 -5,0 -5,3 -2,7 5,3 12,5 17,5 15,0 29,0 44,0 5,0 5,-4 2,-7 -5,-4 -12,-5 -17,-5z"/>
  <path class="fil5" d="M793 394c-12,0 -24,0 -35,0 -2,0 -12,2 -9,5 4,3 12,3 15,3 12,0 24,0 36,0 1,0 12,-1 8,-5 -2,-3 -10,-3 -15,-3z"/>
  <path class="fil5" d="M608 554c-12,0 -26,0 -37,0 -12,0 -24,17 -7,17 12,0 25,0 37,0 12,0 23,-17 7,-17z"/>
  <path class="fil5" d="M569 608c-24,0 -49,0 -73,0 -5,0 -11,3 -15,7 -1,1 -6,5 -1,5 23,0 48,0 72,0 5,0 12,-4 15,-7 2,-2 7,-5 2,-5z"/>
  <path class="fil5" d="M653 643c-13,0 -25,0 -39,0 -1,0 -11,2 -8,5 3,4 12,4 15,4 14,0 25,0 39,0 2,0 12,-2 8,-5 -3,-4 -12,-4 -15,-4z"/>
  <path class="fil5" d="M722 579c-27,0 -54,0 -81,0 -11,0 -25,17 -8,17 27,0 54,0 81,0 12,0 25,-17 8,-17z"/>
  <path class="fil5" d="M219 286c-14,0 -27,0 -41,0 -5,0 -6,-3 -1,-5 5,-3 11,-7 16,-7 14,0 27,0 41,0 5,0 7,4 2,5 -5,4 -12,7 -17,7z"/>
  <path class="fil5" d="M185 513c-12,0 -24,0 -37,0 -15,0 -3,-20 7,-20 11,0 23,0 37,0 17,0 5,20 -7,20z"/>
  <path class="fil5" d="M313 524c-17,0 -34,0 -50,0 -2,0 6,-5 6,-5 4,-2 10,-6 15,-6 17,0 34,0 51,0 2,0 -7,6 -7,6 -5,1 -10,5 -15,5z"/>
  <path class="fil5" d="M281 567c-25,0 -50,0 -76,0 -12,0 -3,-23 7,-23 25,0 51,0 76,0 12,0 3,23 -7,23z"/>
  <path class="fil5" d="M353 604c-11,0 -23,0 -37,0 -5,0 -11,0 -16,-1 -5,-2 3,-2 5,-2 11,0 23,0 37,0 5,0 11,0 17,2 5,0 -4,1 -6,1z"/>
  <path class="fil5" d="M313 232c-27,0 -52,0 -79,0 0,0 5,-22 12,-22 27,0 52,0 79,0 0,-2 -5,22 -12,22z"/>
  <g>
   <polygon class="fil6" points="564,470 533,446 528,407 686,207 759,265 602,464 "/>
   <path id="1" class="fil7" d="M536 442l31 24 -6 8 -31 -24 -2 -4 8 -4zm-6 8l-1 -1 -1 -3 2 4zm3 -44l4 39 -9 1 -4 -39 1 -4 8 3zm-9 1l-1 -2 2 -2 -1 4zm165 -196l-157 199 -7 -7 157 -199 6 -1 1 8zm-7 -7l3 -3 3 2 -6 1zm74 65l-73 -58 5 -8 74 58 0 7 -6 1zm6 -8l4 3 -4 4 0 -7zm-164 200l157 -199 7 6 -157 200 -3 1 -4 -8zm7 7l-1 1 -2 0 3 -1zm-41 -3l37 -6 1 10 -37 6 -4 -1 3 -9zm1 10l-2 0 -2 -1 4 1z"/>
  </g>
  <g>
   <path class="fil6" d="M782 201l-39 -31c-9,-8 -24,-5 -32,5l-29 37 74 57 28 -36c8,-11 7,-25 -2,-32z"/>
   <path id="1" class="fil7" d="M746 166l39 31 -6 8 -39 -31 6 -8zm-31 12l-8 -6 0 0 1 -1 1 -1 1 -1 1 -1 1 -1 1 -1 2 -1 1 -1 1 0 1 -1 1 0 2 -1 1 0 1 -1 1 0 2 0 1 0 1 0 2 -1 1 1 1 0 2 0 1 0 1 0 2 1 1 0 1 0 1 1 2 1 1 0 1 1 1 1 -6 8 -1 -1 0 0 -1 -1 -1 0 -1 0 0 -1 -1 0 -1 0 -1 0 -1 0 0 0 -1 0 -1 0 -1 0 -1 0 -1 0 0 0 -1 0 -1 0 -1 1 -1 0 -1 0 0 1 -1 0 -1 1 -1 0 0 1 -1 0 -1 1 -1 1 0 0 -1 1 0 0zm-37 30l29 -36 8 6 -29 37 -7 0 -1 -7zm1 7l-4 -3 3 -4 1 7zm73 58l-73 -58 6 -7 74 57 0 7 -7 1zm7 -1l-3 4 -4 -3 7 -1zm29 -36l-29 36 -7 -6 28 -36 8 6zm-9 -31l6 -8 0 0 1 1 1 0 1 1 1 2 1 1 1 1 0 1 1 1 0 1 1 1 0 2 1 1 0 1 0 2 1 1 0 1 0 2 0 1 0 1 0 2 -1 1 0 1 0 2 0 1 -1 1 0 2 -1 1 -1 1 0 1 -1 2 -1 1 -1 1 -8 -6 1 -1 1 -1 0 -1 1 -1 0 0 0 -1 1 -1 0 -1 0 -1 0 -1 1 -1 0 -1 0 0 0 -1 0 -1 0 -1 0 -1 0 -1 -1 -1 0 0 0 -1 0 -1 -1 -1 0 0 0 -1 -1 -1 0 0 -1 -1 0 -1 -1 0 -1 -1 0 0 0 0z"/>
  </g>
  <g>
   <path class="fil6" d="M523 414l-18 90c0,2 0,4 2,5 1,1 3,1 5,0l83 -38c3,0 4,-2 5,-5 0,-2 0,-4 -2,-5l-65 -52c-2,-1 -4,-1 -6,0 -2,1 -4,3 -4,5z"/>
   <path id="1" class="fil7" d="M500 503l18 -90 10 2 -18 90 0 0 -10 -2zm10 2l-6 8 0 0 0 0 -1 0 0 -1 0 0 0 0 -1 -1 0 0 0 0 0 0 0 -1 -1 0 0 0 0 -1 0 0 0 0 0 -1 0 0 -1 0 0 -1 0 0 0 0 0 -1 0 0 0 0 0 -1 0 0 0 0 0 -1 0 0 0 0 0 -1 0 0 10 2 0 0 0 0 0 0 0 0 0 0 0 0 0 0 0 0 0 0 0 0 0 0 0 0 0 0 0 0 0 0 0 0 0 0 0 0 0 0 0 0 0 0 0 0 0 0 0 0 0 0 0 0 0 0 0 0 0 0 0 0 0 0 0 0 0 0zm0 0l4 9 0 0 0 0 0 0 0 0 -1 1 0 0 0 0 -1 0 0 0 0 0 -1 0 0 0 -1 0 0 0 0 0 -1 0 0 0 0 0 -1 0 0 0 0 0 -1 0 0 0 0 0 -1 -1 0 0 0 0 -1 0 0 0 0 0 -1 -1 0 0 0 0 6 -8 0 0 0 0 0 0 0 0 0 0 0 0 0 0 0 0 0 0 0 0 0 0 0 0 0 0 0 0 0 0 0 0 0 0 0 0 0 0 0 0 0 0 0 0 0 0 0 0 0 0 0 0 0 0 0 0 0 0 0 0 0 0 0 0 0 0zm87 -29l-83 38 -4 -9 83 -38 0 0 4 9zm-2 -11l10 3 0 0 -1 0 0 0 0 1 0 0 0 0 0 1 0 0 0 0 -1 1 0 0 0 0 0 1 0 0 -1 0 0 0 0 1 0 0 0 0 -1 0 0 1 0 0 -1 0 0 0 0 1 0 0 -1 0 0 0 0 0 -1 1 0 0 0 0 -1 0 -4 -9 0 0 0 0 1 0 0 0 0 0 0 0 0 0 0 0 0 0 0 0 0 -1 0 0 0 0 0 0 0 0 0 0 0 0 0 0 0 0 0 0 0 0 1 0 0 0 0 0 0 0 0 0 0 0 0 -1 0 0 0 0 0 0 0 0 0 0zm0 0l6 -8 0 0 1 0 0 0 0 1 0 0 1 0 0 1 0 0 0 0 0 0 1 1 0 0 0 0 0 1 0 0 0 0 1 1 0 0 0 1 0 0 0 0 0 1 0 0 0 0 0 1 0 0 0 1 0 0 0 0 0 1 0 0 0 0 0 1 -10 -3 0 0 0 0 0 0 0 0 0 0 0 0 0 0 0 0 0 0 0 0 0 0 0 0 0 0 0 0 0 0 0 0 0 0 0 0 0 0 0 0 0 0 0 0 0 0 0 0 0 0 0 0 0 0 0 0 0 0 0 0 0 0 0 0 0 0zm-59 -60l65 52 -6 8 -65 -52 6 -8zm-7 8l-4 -8 0 0 0 -1 0 0 1 0 0 0 0 0 1 0 0 0 0 0 1 -1 0 0 0 0 1 0 0 0 0 0 1 0 0 0 1 0 0 0 0 0 1 0 0 0 0 1 1 0 0 0 0 0 1 0 0 0 1 0 0 1 0 0 0 0 1 0 -6 8 0 0 0 0 0 0 0 0 0 0 0 0 0 0 0 0 0 0 0 0 0 0 0 0 0 0 0 0 0 0 0 0 0 0 0 0 0 0 0 0 0 0 0 0 0 0 0 0 0 0 0 0 0 0 0 0 -1 0 0 0 0 0 0 0 0 0zm-1 2l-10 -2 0 0 0 0 0 0 0 -1 0 0 0 0 1 -1 0 0 0 0 0 -1 0 0 0 0 1 -1 0 0 0 0 0 -1 0 0 1 0 0 0 0 -1 0 0 0 0 1 0 0 -1 0 0 1 0 0 0 0 -1 0 0 1 0 0 0 0 0 1 0 4 8 0 0 0 0 0 1 0 0 0 0 0 0 0 0 0 0 0 0 0 0 0 0 0 0 -1 0 0 0 0 0 0 0 0 0 0 0 0 0 0 0 0 0 0 1 0 0 0 0 0 0 0 0 0 0 0 0 0 0 0 0 0 0 0 0 0 0z"/>
  </g>
 </g>
</svg>
