<?xml version="1.0" encoding="UTF-8"?>
<!DOCTYPE svg PUBLIC "-//W3C//DTD SVG 1.1//EN" "http://www.w3.org/Graphics/SVG/1.1/DTD/svg11.dtd">
<!-- Creator: CorelDRAW X8 -->
<svg xmlns="http://www.w3.org/2000/svg" xml:space="preserve" width="1in" height="1in" version="1.1" style="shape-rendering:geometricPrecision; text-rendering:geometricPrecision; image-rendering:optimizeQuality; fill-rule:evenodd; clip-rule:evenodd"
viewBox="0 0 301 301"
 xmlns:xlink="http://www.w3.org/1999/xlink">
 <defs>
  <style type="text/css">
   <![CDATA[
    .fil0 {fill:none}
    .fil3 {fill:#286EAB}
    .fil1 {fill:white}
    .fil2 {fill:#373435;fill-rule:nonzero}
    .fil4 {fill:#286EAB;fill-rule:nonzero}
    .fil5 {fill:white;fill-rule:nonzero}
   ]]>
  </style>
 </defs>
 <g id="Layer_x0020_1">
  <metadata id="CorelCorpID_0Corel-Layer"/>
  <rect class="fil0" width="301" height="301"/>
  <g>
   <path class="fil1" d="M59 120l196 0c6,0 11,5 11,11l0 108c0,7 -5,12 -11,12l-196 0c-6,0 -12,-5 -12,-12l0 -108c0,-6 6,-11 12,-11z"/>
   <path id="1" class="fil2" d="M255 121l-196 0 0 -3 196 0 0 0 0 3zm12 10l-3 0 0 0 0 0 0 -1 0 0 0 -1 0 0 0 -1 0 0 0 -1 -1 0 0 0 0 -1 0 0 -1 -1 0 0 0 0 0 -1 -1 0 0 0 -1 -1 0 0 0 0 -1 0 0 -1 -1 0 0 0 -1 0 0 0 0 0 -1 -1 0 0 -1 0 0 0 0 -3 0 0 1 0 0 0 1 1 1 0 0 0 1 0 1 0 0 1 1 0 0 0 1 1 0 0 1 0 0 1 1 0 0 1 1 0 0 1 0 0 1 1 0 0 0 1 0 0 1 1 0 0 0 1 0 1 0 0 0 1 0 1 0 0 0 0zm-3 108l0 -108 3 0 0 108 0 0 -3 0zm-9 13l0 -3 0 0 0 0 1 0 0 0 1 0 0 0 0 0 1 0 0 0 1 -1 0 0 1 0 0 0 0 -1 1 0 0 0 1 0 0 -1 0 0 0 -1 1 0 0 0 0 -1 0 0 1 -1 0 0 0 -1 0 0 0 -1 0 0 0 -1 0 0 0 -1 3 0 0 1 0 1 0 0 0 1 0 1 0 0 0 1 -1 1 0 0 0 1 0 0 -1 1 0 0 0 1 -1 0 0 1 -1 0 0 0 -1 1 0 0 -1 1 0 0 -1 0 0 0 -1 1 -1 0 0 0 -1 0 -1 0 0 0 -1 0 0 0 0 0zm-196 -3l196 0 0 3 -196 0 0 0 0 -3zm-13 -10l3 0 0 0 0 1 0 0 0 1 0 0 0 1 0 0 0 1 1 0 0 1 0 0 0 1 1 0 0 0 0 1 0 0 1 1 0 0 0 0 1 0 0 1 1 0 0 0 1 0 0 1 0 0 1 0 0 0 1 0 0 0 1 0 0 0 1 0 0 3 -1 0 -1 0 0 0 -1 0 0 0 -1 0 -1 0 0 -1 -1 0 0 0 -1 0 0 -1 -1 0 0 -1 -1 0 0 0 -1 -1 0 0 -1 -1 0 0 0 -1 -1 0 0 -1 0 0 0 -1 -1 -1 0 0 0 -1 0 -1 0 0 0 -1 0 -1 0 0zm3 -108l0 108 -3 0 0 -108 0 0 3 0zm10 -13l0 3 0 0 -1 0 0 0 -1 0 0 1 -1 0 0 0 -1 0 0 0 0 0 -1 1 0 0 -1 0 0 0 -1 1 0 0 0 0 -1 1 0 0 0 0 0 1 -1 0 0 1 0 0 0 0 -1 1 0 0 0 1 0 0 0 1 0 0 0 1 0 0 -3 0 0 0 0 -1 0 -1 0 0 0 -1 0 -1 1 0 0 -1 0 0 0 -1 1 0 0 -1 0 0 1 -1 0 0 1 -1 0 0 1 -1 0 0 1 0 0 -1 1 0 0 0 1 -1 0 0 1 0 1 0 0 0 1 -1 0 0 1 0 1 0 0 0z"/>
  </g>
  <circle class="fil3" cx="144" cy="65" r="15"/>
  <g>
   <path class="fil3" d="M47 108l195 0c7,0 12,5 12,11l0 108c0,7 -5,12 -12,12l-195 0c-7,0 -12,-5 -12,-12l0 -108c0,-6 5,-11 12,-11z"/>
   <path id="1" class="fil4" d="M242 110l-195 0 0 -5 195 0 0 0 0 5zm14 9l-4 0 0 0 0 0 -1 -1 0 0 0 -1 0 0 0 -1 0 0 0 0 0 -1 -1 0 0 -1 0 0 0 0 -1 -1 0 0 0 0 0 -1 -1 0 0 0 -1 -1 0 0 0 0 -1 0 0 0 -1 -1 0 0 0 0 -1 0 0 0 -1 0 0 0 -1 0 0 -5 1 0 1 0 0 1 1 0 1 0 0 0 1 0 1 0 0 1 1 0 0 0 1 1 1 0 0 1 1 0 0 0 0 1 1 0 0 1 1 0 0 1 0 1 1 0 0 1 0 0 0 1 1 1 0 0 0 1 0 1 0 0 0 1 0 0zm-4 108l0 -108 4 0 0 108 0 0 -4 0zm-10 14l0 -5 0 0 1 0 0 0 1 0 0 0 1 0 0 0 0 0 1 0 0 0 1 -1 0 0 0 0 1 0 0 -1 1 0 0 0 0 -1 0 0 1 0 0 -1 0 0 0 0 1 -1 0 0 0 -1 0 0 0 0 0 -1 0 0 0 -1 1 0 0 -1 4 0 0 1 0 1 0 0 0 1 0 1 -1 0 0 1 0 1 0 0 -1 1 0 0 0 1 -1 0 0 1 -1 0 0 1 0 0 -1 1 0 0 -1 1 -1 0 0 0 -1 1 0 0 -1 0 -1 0 0 1 -1 0 -1 0 0 0 -1 0 -1 0 0 0zm-195 -5l195 0 0 5 -195 0 0 0 0 -5zm-14 -9l4 0 0 0 0 1 0 0 0 1 1 0 0 1 0 0 0 0 0 1 0 0 0 1 1 0 0 0 0 1 0 0 1 0 0 1 0 0 1 0 0 1 0 0 1 0 0 0 1 1 0 0 0 0 1 0 0 0 1 0 0 0 1 0 0 0 1 0 0 5 -1 0 -1 0 0 0 -1 0 -1 0 0 -1 -1 0 -1 0 0 0 -1 -1 0 0 -1 0 -1 -1 0 0 -1 -1 0 0 -1 -1 0 0 0 -1 -1 0 0 -1 0 0 -1 -1 0 0 0 -1 0 -1 -1 0 0 -1 0 -1 0 0 0 -1 0 -1 0 0zm4 -108l0 108 -4 0 0 -108 0 0 4 0zm10 -14l0 5 0 0 -1 0 0 0 -1 0 0 0 -1 0 0 0 -1 0 0 1 0 0 -1 0 0 0 -1 0 0 1 0 0 -1 0 0 1 0 0 -1 0 0 1 0 0 0 0 -1 1 0 0 0 1 0 0 0 0 0 1 0 0 -1 1 0 0 0 1 0 0 -4 0 0 -1 0 0 0 -1 0 -1 0 0 1 -1 0 -1 0 0 0 -1 1 0 0 -1 0 -1 1 0 0 -1 0 0 1 -1 0 0 1 0 0 -1 1 0 1 -1 0 0 1 0 0 -1 1 0 1 0 0 0 1 0 1 0 0 -1 1 0 1 0 0 0z"/>
  </g>
  <polygon class="fil3" points="108,104 144,63 181,104 202,104 144,63 87,104 "/>
  <path class="fil5" d="M204 221c-11,-12 -22,-24 -33,-35 -1,-1 -3,-2 -5,0 -3,2 -7,5 -11,8 0,0 0,0 0,0 -8,-8 -16,-17 -24,-25 -2,-2 -4,-2 -5,0 -14,17 -27,33 -41,50 0,0 0,0 0,0 0,3 0,6 0,9 38,0 81,0 119,0 0,0 0,0 0,0l0 -7c0,0 0,0 0,0zm-29 -57c9,0 16,-7 16,-16 0,-8 -7,-15 -16,-15 -8,0 -15,7 -15,15 0,9 7,16 15,16z"/>
 </g>
</svg>
