<?xml version="1.0" encoding="UTF-8"?>
<!DOCTYPE svg PUBLIC "-//W3C//DTD SVG 1.1//EN" "http://www.w3.org/Graphics/SVG/1.1/DTD/svg11.dtd">
<!-- Creator: CorelDRAW X8 -->
<svg xmlns="http://www.w3.org/2000/svg" xml:space="preserve" width="1in" height="1in" version="1.1" style="shape-rendering:geometricPrecision; text-rendering:geometricPrecision; image-rendering:optimizeQuality; fill-rule:evenodd; clip-rule:evenodd"
viewBox="0 0 224 224"
 xmlns:xlink="http://www.w3.org/1999/xlink">
 <defs>
  <style type="text/css">
   <![CDATA[
    .str0 {stroke:#373435;stroke-width:1.49359}
    .fil0 {fill:none}
    .fil1 {fill:#4949BF}
    .fil3 {fill:#6666CC}
    .fil2 {fill:white}
    .fil6 {fill:black;fill-rule:nonzero}
    .fil5 {fill:white;fill-rule:nonzero}
    .fil4 {fill:white;fill-rule:nonzero}
   ]]>
  </style>
 </defs>
 <g id="Layer_x0020_1">
  <metadata id="CorelCorpID_0Corel-Layer"/>
  <rect class="fil0" width="224" height="224"/>
  <g id="_2380412970400">
   <path class="fil1" d="M174 55l-125 0c-4,0 -8,3 -8,8l0 58 0 32 0 34 23 -26 110 0c4,0 8,-4 8,-8l0 -90c0,-5 -4,-8 -8,-8z"/>
   <circle class="fil2 str0" cx="177" cy="157" r="29"/>
   <polygon class="fil3" points="192,157 178,143 173,147 181,154 163,154 163,160 181,160 173,168 178,172 "/>
   <g>
    <polygon class="fil4" points="166,123 166,126 53,126 53,123 "/>
   </g>
   <g>
    <polygon class="fil4" points="166,111 166,114 53,114 53,111 "/>
   </g>
   <g>
    <path class="fil4" d="M164 99l0 3 -76 0 0 -3 76 0zm4 -1l0 0 0 0 0 0 0 0 0 1 0 0 0 0 -1 0 0 0 0 0 0 1 0 0 0 0 0 0 0 0 0 0 0 0 0 1 -1 0 0 0 0 0 0 0 0 0 0 0 -1 0 0 0 0 0 0 1 0 0 -1 0 0 0 0 0 0 0 0 -3 0 0 0 0 0 0 0 0 0 0 0 0 0 0 0 0 0 0 0 0 0 0 0 0 0 0 0 0 0 0 0 0 0 0 0 0 0 0 0 0 0 0 0 0 1 0 0 0 0 0 0 -1 0 0 0 0 0 0 0 0 0 0 0 0 0 0 3 0zm-3 -18l3 0 0 18 -3 0 0 -18zm-1 -3l0 0 0 0 0 0 0 0 1 0 0 0 0 0 0 0 0 0 1 0 0 0 0 0 0 0 0 1 0 0 1 0 0 0 0 0 0 0 0 0 0 1 0 0 0 0 0 0 0 0 0 0 1 0 0 1 0 0 0 0 0 0 0 0 0 0 -3 0 0 0 0 0 0 0 0 0 0 0 0 0 0 0 0 0 0 0 -1 0 0 0 0 0 0 -1 0 0 0 0 0 0 0 0 0 0 0 0 0 0 0 0 0 0 0 0 0 0 0 0 0 0 0 0 0 0 0 0 0 0 0 0 0 0 0 0 0 -2zm-76 2l0 -2 76 0 0 2 -76 0zm-4 1l0 0 0 0 0 0 0 0 0 0 0 0 0 -1 0 0 0 0 0 0 0 0 0 0 0 0 0 -1 1 0 0 0 0 0 0 0 0 0 0 0 0 -1 1 0 0 0 0 0 0 0 0 0 1 0 0 0 0 0 0 0 0 0 1 0 0 0 0 2 0 0 0 0 0 0 0 0 0 0 0 0 0 0 0 0 0 0 0 0 -1 0 0 0 0 0 0 0 0 0 0 0 0 0 0 0 0 0 0 1 0 0 0 0 0 0 0 0 0 0 0 0 0 0 0 0 0 0 0 0 0 0 0 0 0 0 -3 0zm3 18l-3 0 0 -18 3 0 0 18zm1 4l0 0 0 0 -1 0 0 0 0 0 0 0 0 -1 -1 0 0 0 0 0 0 0 0 0 -1 0 0 0 0 0 0 0 0 -1 0 0 0 0 -1 0 0 0 0 0 0 0 0 -1 0 0 0 0 0 0 0 0 0 0 0 -1 0 0 0 0 0 0 3 0 0 0 0 0 0 0 0 0 0 0 0 0 0 1 0 0 0 0 0 0 0 0 0 0 0 0 0 0 0 0 0 0 0 0 0 0 0 0 0 0 0 0 1 0 0 0 0 0 0 0 0 0 0 0 0 0 0 0 0 0 0 0 0 0 0 0 0 3z"/>
   </g>
   <g>
    <g>
     <polygon class="fil5" points="33,107 26,101 26,91 70,46 87,63 42,107 "/>
     <path id="1" class="fil6" d="M27 100l7 7 -2 1 -7 -6 0 -1 2 -1zm-2 2l0 -1 0 0 0 1zm2 -11l0 10 -2 0 0 -10 0 -1 2 1zm-2 0l0 0 0 -1 0 1zm46 -44l-44 45 -2 -2 44 -44 2 0 0 1zm-2 -1l1 -1 1 1 -2 0zm17 18l-17 -17 2 -1 16 16 0 1 -1 1zm1 -2l1 1 -1 0 0 -1zm-45 44l44 -44 1 1 -44 45 -1 0 0 -2zm1 2l0 0 -1 0 1 0zm-10 -2l9 0 0 2 -9 1 -1 -1 1 -2zm0 3l-1 0 0 -1 1 1z"/>
    </g>
    <g>
     <path class="fil5" d="M94 47l-9 -8c-2,-2 -5,-2 -8,0l-8 8 17 17 8 -9c2,-2 2,-5 0,-8z"/>
     <path id="1" class="fil6" d="M86 38l9 9 -2 1 -8 -8 1 -2 0 0zm-8 2l-1 -2 0 0 0 0 0 0 0 0 1 -1 0 0 0 0 0 0 1 0 0 0 0 0 1 -1 0 0 0 0 1 0 0 0 0 0 1 0 0 0 0 0 1 0 0 0 0 0 1 1 0 0 0 0 0 0 1 0 0 0 0 0 1 1 0 0 0 0 -1 2 -1 -1 0 0 0 0 0 0 0 0 -1 0 0 0 0 0 0 0 0 0 -1 0 0 0 0 -1 0 0 0 0 -1 0 0 0 0 1 0 0 0 0 -1 0 0 0 0 0 0 0 -1 0 0 0 0 0 0 0 0 0 -1 1 0 0 0 0 0 0zm-10 7l9 -9 1 2 -8 8 -2 0 0 -1zm0 1l0 -1 0 0 0 1zm17 16l-17 -16 2 -1 16 16 0 1 -1 0zm1 0l0 1 -1 -1 1 0zm8 -8l-8 8 -1 -1 8 -8 0 0 1 1zm-1 -8l2 -1 0 0 0 0 0 0 0 0 1 1 0 0 0 0 0 1 0 0 0 0 0 1 0 0 1 0 0 0 0 1 0 0 0 0 0 1 0 0 0 0 -1 1 0 0 0 0 0 1 0 0 0 0 0 1 0 0 -1 0 0 0 0 1 0 0 -1 0 -1 -1 0 -1 0 0 0 0 1 0 0 0 0 -1 0 0 0 0 0 0 0 0 0 -1 0 0 0 0 0 0 0 0 0 -1 0 0 0 0 0 0 0 -1 0 0 0 0 0 0 0 0 0 -1 0 0 0 0 0 0 0 0 -1 0 0 -1 0 0 0 0z"/>
    </g>
    <g>
     <path class="fil5" d="M24 93l-7 21c0,1 0,1 1,2 0,0 1,0 1,0l22 -7c0,0 1,-1 1,-1 0,-1 0,-1 -1,-2l-14 -14c-1,-1 -1,-1 -2,0 0,0 -1,0 -1,1z"/>
     <path id="1" class="fil6" d="M16 114l7 -22 2 1 -6 22 0 0 -3 -1zm3 1l-2 1 0 0 0 0 0 0 0 0 0 0 0 0 0 0 0 0 0 0 -1 0 0 0 0 0 0 0 0 -1 0 0 0 0 0 0 0 0 0 0 0 0 0 0 0 0 0 0 0 0 0 0 0 -1 0 0 0 0 0 0 0 0 0 0 0 0 0 0 3 1 0 0 0 0 0 0 0 0 0 0 0 0 0 0 0 0 0 0 0 0 0 0 0 0 0 0 0 0 0 0 0 0 0 0 0 0 0 0 0 0 0 0 0 0 0 0 0 0 0 0 0 0 0 0 0 0 0 0 0 0 0 0 0 0 0 0zm0 0l0 2 0 0 0 0 0 0 0 0 0 0 0 0 0 0 0 0 0 0 0 0 0 0 0 0 -1 0 0 0 0 0 0 0 0 0 0 0 0 0 0 0 0 0 0 0 0 0 0 0 -1 0 0 0 0 0 0 0 0 0 0 0 0 -1 0 0 0 0 2 -1 0 0 0 0 0 0 0 0 0 0 0 0 0 0 0 0 0 0 -1 0 1 0 0 0 0 0 0 0 0 0 0 0 0 0 0 0 0 0 0 0 0 0 0 0 0 0 0 0 0 0 0 0 0 0 0 0 0 0 0 0 0 0 0 0 0 0zm22 -5l-22 7 0 -2 21 -7 0 0 1 2zm0 -3l2 1 0 0 0 0 0 0 0 0 0 0 0 0 0 1 -1 0 0 0 0 0 0 0 0 0 0 0 0 0 0 0 0 0 0 0 0 0 0 0 0 0 0 0 0 0 0 1 0 0 -1 0 0 0 0 0 0 0 0 0 0 0 0 0 0 0 0 0 -1 -2 0 0 0 0 0 0 0 0 0 0 0 0 0 0 0 0 0 0 0 0 0 0 0 0 0 0 0 0 0 0 0 0 0 0 0 0 1 0 0 0 0 -1 0 0 0 0 0 0 0 0 0 0 0 0 0 0 0 0 0 0 0 0 0 0 0 0zm0 0l1 -2 0 0 0 1 0 0 0 0 1 0 0 0 0 0 0 0 0 0 0 0 0 0 0 0 0 0 0 0 0 1 0 0 0 0 0 0 0 0 0 0 0 0 0 0 0 0 0 0 0 0 0 0 0 1 0 0 0 0 0 0 0 0 0 0 0 0 -2 -1 0 0 0 0 0 0 0 0 0 0 0 0 0 0 0 0 0 0 0 0 0 0 0 0 0 0 0 0 0 0 0 0 0 0 0 0 0 0 0 0 0 0 0 0 0 0 0 0 0 0 0 0 0 0 0 0 0 0 0 0 0 0 0 0 0 0zm-13 -16l14 14 -1 2 -15 -14 2 -2 0 0zm-2 2l-1 -3 0 0 0 0 0 0 0 0 0 0 0 0 1 0 0 0 0 0 0 0 0 0 0 0 0 0 0 0 0 0 0 0 0 0 0 0 1 0 0 0 0 0 0 0 0 0 0 0 0 1 0 0 0 0 0 0 0 0 0 0 1 0 0 0 0 0 -2 2 0 0 0 0 0 0 0 0 0 0 0 0 0 0 0 0 0 0 0 0 0 0 0 0 0 0 0 0 0 0 0 0 0 0 0 0 0 0 0 0 0 0 0 0 0 0 0 0 0 0 0 0 0 0 0 0 0 0 0 0 0 0 0 0 0 0zm-1 0l-2 -1 0 0 0 0 0 0 0 0 0 0 0 0 0 0 0 0 1 0 0 0 0 0 0 0 0 -1 0 0 0 0 0 0 0 0 0 0 0 0 0 0 0 0 0 0 0 0 0 0 0 0 0 0 1 0 0 0 0 0 0 0 0 0 0 -1 0 0 1 3 0 0 0 0 0 0 0 0 0 0 0 0 0 0 0 0 0 0 0 0 0 0 0 0 0 0 0 0 0 0 0 0 0 0 0 0 0 0 -1 0 0 0 0 0 0 0 0 0 0 0 0 0 0 0 0 0 0 0 0 0 0 0 0 0 0 0z"/>
    </g>
   </g>
  </g>
 </g>
</svg>
