<?xml version="1.0" encoding="UTF-8"?>
<!DOCTYPE svg PUBLIC "-//W3C//DTD SVG 1.1//EN" "http://www.w3.org/Graphics/SVG/1.1/DTD/svg11.dtd">
<!-- Creator: CorelDRAW X8 -->
<svg xmlns="http://www.w3.org/2000/svg" xml:space="preserve" width="1in" height="1in" version="1.1" style="shape-rendering:geometricPrecision; text-rendering:geometricPrecision; image-rendering:optimizeQuality; fill-rule:evenodd; clip-rule:evenodd"
viewBox="0 0 299 299"
 xmlns:xlink="http://www.w3.org/1999/xlink">
 <defs>
  <style type="text/css">
   <![CDATA[
    .str1 {stroke:#F9B73C;stroke-width:3.98724}
    .str2 {stroke:black;stroke-width:1.99362}
    .str0 {stroke:#1A1A1A;stroke-width:0.897307}
    .fil0 {fill:none}
    .fil1 {fill:#4949BF}
    .fil2 {fill:#F9B73C}
    .fil3 {fill:white}
    .fil4 {fill:white}
   ]]>
  </style>
 </defs>
 <g id="Layer_x0020_1">
  <metadata id="CorelCorpID_0Corel-Layer"/>
  <rect class="fil0" width="299" height="299"/>
  <path class="fil1 str0" d="M50 150c0,55 44,99 100,99 20,0 39,-6 55,-16l-10 -34c0,-2 0,-3 1,-4 1,-1 3,-1 4,-1l34 9c9,-15 15,-34 15,-53 0,-56 -44,-100 -99,-100 -56,0 -100,44 -100,100zm62 41l7 -24 4 2c4,2 12,6 23,6 5,0 10,-2 10,-5 0,-3 -2,-6 -13,-10 -14,-4 -29,-12 -29,-30 0,-15 9,-26 25,-30l0 -15 22 0 0 14c9,0 15,3 19,5l3 1 -6 24 -5 -2c-3,-2 -10,-5 -19,-5 -4,0 -9,1 -9,5 0,3 8,7 15,9 19,7 27,16 27,31 0,8 -2,15 -7,20 -5,5 -11,9 -19,11l0 16 -22 0 0 -15c-9,0 -17,-3 -23,-6l-3 -2zm107 -73c0,-28 -26,-42 -40,-42 -2,0 -3,-2 -3,-4 0,-2 1,-4 3,-4 10,0 21,5 30,13 12,9 18,22 18,37 0,2 -2,3 -4,3 -2,0 -4,-1 -4,-3z"/>
  <circle class="fil1" cx="150" cy="150" r="100"/>
  <path class="fil1" d="M138 214l22 0 0 -16c8,-2 14,-6 19,-11 5,-5 7,-12 7,-20 0,-15 -8,-24 -27,-31 -7,-2 -15,-6 -15,-9 0,-4 5,-5 9,-5 9,0 16,3 19,5l5 2 6 -24 -3 -1c-4,-2 -10,-5 -19,-5l0 -14 -22 0 0 15c-16,4 -25,15 -25,30 0,18 15,26 29,30 11,4 13,7 13,10 0,3 -5,5 -10,5 -11,0 -19,-4 -23,-6l-4 -2 -7 24 3 2c6,3 14,6 23,6l0 15zm14 -8l-7 0 0 -14 -3 0c-9,0 -16,-2 -21,-5l2 -9c6,2 14,4 23,4 11,0 18,-5 18,-12 0,-9 -9,-14 -19,-17 -17,-6 -24,-13 -24,-23 0,-12 8,-20 22,-23l3 -1 0 -13 7 0 0 13 4 0c8,0 13,2 17,3l-2 10c-5,-2 -11,-4 -19,-4 -12,0 -17,6 -17,12 0,8 9,12 21,16 18,7 22,15 22,24 0,12 -9,21 -23,24l-4 0 0 15z"/>
  <path class="fil2 str1" d="M121 187c5,3 12,5 21,5l3 0 0 14 7 0 0 -15 4 0c14,-3 23,-12 23,-24 0,-9 -4,-17 -22,-24 -12,-4 -21,-8 -21,-16 0,-6 5,-12 17,-12 8,0 14,2 19,4l2 -10c-4,-1 -9,-3 -17,-3l-4 0 0 -13 -7 0 0 13 -3 1c-14,3 -22,11 -22,23 0,10 7,17 24,23 10,3 19,8 19,17 0,7 -7,12 -18,12 -9,0 -17,-2 -23,-4l-2 9z"/>
  <path class="fil3 str2" d="M226 196l-27 -7 7 27 3 10 4 -9c1,-1 2,-2 3,-2l1 0c1,0 2,0 3,1l20 21 7 -7 -20 -21c-1,-1 -2,-2 -2,-3 1,-2 1,-3 3,-3l8 -4 -10 -3z"/>
  <path class="fil4" d="M179 76c14,0 40,14 40,42 0,2 2,3 4,3 2,0 4,-1 4,-3 0,-15 -6,-28 -18,-37 -9,-8 -20,-13 -30,-13 -2,0 -3,2 -3,4 0,2 1,4 3,4z"/>
 </g>
</svg>
