<?xml version="1.0" encoding="UTF-8"?>
<!DOCTYPE svg PUBLIC "-//W3C//DTD SVG 1.1//EN" "http://www.w3.org/Graphics/SVG/1.1/DTD/svg11.dtd">
<!-- Creator: CorelDRAW X8 -->
<svg xmlns="http://www.w3.org/2000/svg" xml:space="preserve" width="1in" height="1in" version="1.1" style="shape-rendering:geometricPrecision; text-rendering:geometricPrecision; image-rendering:optimizeQuality; fill-rule:evenodd; clip-rule:evenodd"
viewBox="0 0 260 260"
 xmlns:xlink="http://www.w3.org/1999/xlink">
 <defs>
  <style type="text/css">
   <![CDATA[
    .fil0 {fill:none}
    .fil1 {fill:url(#id0)}
    .fil2 {fill:url(#id1)}
   ]]>
  </style>
  <linearGradient id="id0" gradientUnits="userSpaceOnUse" x1="92.0175" y1="199.879" x2="235.78" y2="32.3869">
   <stop offset="0" style="stop-opacity:1; stop-color:#4949BF"/>
   <stop offset="1" style="stop-opacity:1; stop-color:#FF0055"/>
  </linearGradient>
  <linearGradient id="id1" gradientUnits="userSpaceOnUse" xlink:href="#id0" x1="128.27" y1="67.0121" x2="166.908" y2="-4.2844">
  </linearGradient>
 </defs>
 <g id="Layer_x0020_1">
  <metadata id="CorelCorpID_0Corel-Layer"/>
  <rect class="fil0" width="260" height="260"/>
  <g id="_2380455999008">
   <path class="fil1" d="M81 81c-2,0 -4,1 -6,2 -2,1 -3,2 -4,4l-31 44c-1,2 -2,5 -2,7 0,2 1,5 3,6l79 91c1,0 2,1 2,1 2,2 5,3 8,3 3,0 6,-1 8,-3 0,0 1,-1 2,-1l79 -91c2,-1 3,-4 3,-6 0,-2 -1,-5 -2,-7l-31 -44c-1,-2 -3,-3 -4,-4 -2,-1 -4,-2 -6,-2l-98 0zm-7 0c2,-1 5,-1 7,-1l98 0c2,0 5,0 7,1 2,1 3,3 5,5l31 44c1,3 2,5 2,8 0,3 -1,5 -3,8l-80 90c-1,0 -1,1 -2,2 -3,2 -6,3 -9,3 -3,0 -6,-1 -9,-3 -1,-1 -1,-2 -2,-2l-80 -90c-2,-3 -3,-5 -3,-8 0,-3 1,-5 2,-8l31 -44c1,-2 3,-4 5,-5zm53 4l-30 50 -20 -51 51 0 -1 1zm2 144l-30 -90 62 0 -30 90 -2 0zm2 9l33 -99 56 0 -87 99 -2 0zm-35 -98l33 98 -2 0 -87 -99 56 0 0 1zm66 -7l-30 -49 51 0 -20 51 -1 -2zm-86 -46l19 50 -55 0 35 -51 1 1zm110 0l34 50 -55 0 20 -51 1 1zm-27 50l-59 0 30 -51 30 51 -1 0z"/>
   <path class="fil2" d="M93 53l-1 0c-6,0 -11,-5 -11,-11 0,-5 5,-10 11,-10 7,0 11,5 11,11 0,1 0,3 -1,4l0 1 13 9 9 -19 0 0c-4,-3 -6,-7 -5,-11 2,-5 6,-8 11,-8 5,0 9,3 11,8 1,4 -1,8 -5,11l0 0 9 19 13 -9 0 -1c-1,-1 -2,-3 -2,-4 0,-6 5,-11 12,-11 6,0 11,5 11,11 0,5 -5,10 -11,10l-1 0 -5 19 -3 0 5 -21c0,-1 1,-2 2,-2 2,1 5,0 6,-1 2,-1 3,-3 3,-5 0,-4 -3,-8 -7,-8 -5,0 -8,4 -8,8 0,1 1,3 2,4 0,1 0,2 -1,2l-16 12c0,0 -1,0 -1,0 -1,0 -1,0 -1,-1l-11 -22c0,-1 0,-2 1,-2 3,-1 5,-5 5,-8 -1,-3 -4,-5 -8,-5 -4,0 -7,2 -8,5 0,3 2,7 5,8 1,0 1,1 1,2l-11 22c0,1 0,1 -1,1 0,0 -1,0 -1,0l-16 -12c-1,0 -1,-1 -1,-2 1,-1 2,-3 2,-4 0,-4 -3,-8 -8,-8 -4,0 -7,4 -7,8 0,3 3,7 7,7 1,0 1,0 2,-1 1,0 2,1 2,2l5 21 -3 0 -5 -19z"/>
  </g>
 </g>
</svg>
