<?xml version="1.0" encoding="UTF-8"?>
<!DOCTYPE svg PUBLIC "-//W3C//DTD SVG 1.1//EN" "http://www.w3.org/Graphics/SVG/1.1/DTD/svg11.dtd">
<!-- Creator: CorelDRAW X8 -->
<svg xmlns="http://www.w3.org/2000/svg" xml:space="preserve" width="1in" height="1in" version="1.1" style="shape-rendering:geometricPrecision; text-rendering:geometricPrecision; image-rendering:optimizeQuality; fill-rule:evenodd; clip-rule:evenodd"
viewBox="0 0 971 971"
 xmlns:xlink="http://www.w3.org/1999/xlink">
 <defs>
  <style type="text/css">
   <![CDATA[
    .fil0 {fill:none}
    .fil3 {fill:white}
    .fil2 {fill:#FBB34B;fill-rule:nonzero}
    .fil1 {fill:#4949BF;fill-rule:nonzero}
   ]]>
  </style>
 </defs>
 <g id="Layer_x0020_1">
  <metadata id="CorelCorpID_0Corel-Layer"/>
  <rect class="fil0" width="971" height="971"/>
  <path class="fil1" d="M332 41c-15,0 -26,12 -26,26 0,14 11,26 26,26 14,0 26,-12 26,-26 0,-14 -12,-26 -26,-26zm0 64c-21,0 -38,-17 -38,-38 0,-21 17,-38 38,-38 20,0 37,17 37,38 0,21 -17,38 -37,38z"/>
  <path class="fil1" d="M640 41c-15,0 -26,12 -26,26 0,14 11,26 26,26 14,0 26,-12 26,-26 0,-14 -12,-26 -26,-26zm0 64c-21,0 -38,-17 -38,-38 0,-21 17,-38 38,-38 20,0 37,17 37,38 0,21 -17,38 -37,38z"/>
  <path class="fil2" d="M670 195c-14,0 -25,12 -25,26 0,14 11,26 25,26 15,0 26,-12 26,-26 0,-14 -11,-26 -26,-26zm0 64c-20,0 -37,-17 -37,-38 0,-21 17,-37 37,-37 21,0 38,16 38,37 0,21 -17,38 -38,38z"/>
  <path class="fil2" d="M301 195c-14,0 -26,12 -26,26 0,14 12,26 26,26 14,0 26,-12 26,-26 0,-14 -12,-26 -26,-26zm0 64c-21,0 -38,-17 -38,-38 0,-21 17,-37 38,-37 21,0 38,16 38,37 0,21 -17,38 -38,38z"/>
  <path class="fil1" d="M453 223c-61,-14 -106,-65 -111,-128l12 -1c4,57 45,105 102,118l-3 11z"/>
  <path class="fil1" d="M518 223l-3 -11c57,-13 98,-61 102,-118l12 1c-5,63 -49,114 -111,128z"/>
  <polygon class="fil2" points="330,227 457,227 457,215 330,215 "/>
  <polygon class="fil2" points="514,227 642,227 642,215 514,215 "/>
  <path class="fil2" d="M486 195c-15,0 -26,12 -26,26 0,14 11,26 26,26 14,0 26,-12 26,-26 0,-14 -12,-26 -26,-26zm0 64c-21,0 -38,-17 -38,-38 0,-21 17,-37 38,-37 20,0 37,16 37,37 0,21 -17,38 -37,38z"/>
  <path class="fil2" d="M682 552c0,0 -152,-249 -167,-268 -15,-20 -21,0 -21,0l0 234c13,3 23,16 23,30 0,18 -14,32 -31,32 -18,0 -32,-14 -32,-32 0,-14 10,-27 24,-30l0 -234c0,0 -7,-20 -22,0 -14,19 -167,268 -167,268 0,0 -8,12 8,51 16,40 85,219 85,219l104 0 103 0c0,0 70,-179 85,-219 16,-39 8,-51 8,-51z"/>
  <g>
   <path class="fil3" d="M363 797l245 0 0 73c0,39 -32,72 -72,72l-101 0c-39,0 -72,-33 -72,-72l0 -73z"/>
   <path id="1" class="fil1" d="M608 804l-245 0 0 -14 245 0 7 7 -7 7zm0 -14l7 0 0 7 -7 -7zm-6 80l0 -73 13 0 0 73 0 0 -13 0zm-66 79l0 -14 0 0 3 0 4 0 3 -1 3 0 3 -1 3 -1 3 -1 3 -1 3 -1 3 -2 3 -1 2 -2 3 -2 3 -2 2 -2 2 -2 2 -2 2 -3 2 -2 2 -3 2 -2 2 -3 1 -3 1 -3 2 -3 1 -3 0 -3 1 -3 1 -3 0 -4 0 -3 1 -3 13 0 0 4 0 4 -1 4 0 3 -1 4 -1 4 -2 4 -1 3 -2 4 -1 3 -2 4 -2 3 -3 3 -2 3 -2 3 -3 3 -3 2 -3 3 -3 2 -3 2 -3 2 -3 2 -4 2 -3 2 -4 1 -4 1 -3 1 -4 1 -4 1 -4 0 -4 1 -4 0 0 0zm-101 -14l101 0 0 14 -101 0 0 0 0 -14zm-79 -65l14 0 0 0 0 3 0 3 1 4 0 3 1 3 1 3 1 3 1 3 1 3 2 3 1 3 2 2 2 3 2 2 2 3 2 2 2 2 3 2 2 2 3 2 3 2 2 1 3 2 3 1 3 1 3 1 3 1 3 1 4 0 3 1 3 0 3 0 0 14 -4 0 -4 -1 -4 0 -3 -1 -4 -1 -4 -1 -4 -1 -3 -1 -4 -2 -3 -2 -4 -2 -3 -2 -3 -2 -3 -2 -3 -3 -3 -2 -2 -3 -3 -3 -2 -3 -2 -3 -2 -3 -2 -4 -2 -3 -2 -4 -1 -3 -1 -4 -1 -4 -1 -4 -1 -3 0 -4 -1 -4 0 -4 0 0zm14 -73l0 73 -14 0 0 -73 7 -7 7 7zm-14 0l0 -7 7 0 -7 7z"/>
  </g>
 </g>
</svg>
