<?xml version="1.0" encoding="UTF-8"?>
<!DOCTYPE svg PUBLIC "-//W3C//DTD SVG 1.1//EN" "http://www.w3.org/Graphics/SVG/1.1/DTD/svg11.dtd">
<!-- Creator: CorelDRAW X8 -->
<svg xmlns="http://www.w3.org/2000/svg" xml:space="preserve" width="1in" height="1in" version="1.1" style="shape-rendering:geometricPrecision; text-rendering:geometricPrecision; image-rendering:optimizeQuality; fill-rule:evenodd; clip-rule:evenodd"
viewBox="0 0 652 652"
 xmlns:xlink="http://www.w3.org/1999/xlink">
 <defs>
  <style type="text/css">
   <![CDATA[
    .fil0 {fill:none}
    .fil5 {fill:#4949BF}
    .fil1 {fill:white}
    .fil4 {fill:#4949BF;fill-rule:nonzero}
    .fil3 {fill:white;fill-rule:nonzero}
    .fil2 {fill:url(#id0)}
   ]]>
  </style>
  <linearGradient id="id0" gradientUnits="userSpaceOnUse" x1="241.86" y1="377.12" x2="639.123" y2="-9.61687">
   <stop offset="0" style="stop-opacity:1; stop-color:#4949BF"/>
   <stop offset="1" style="stop-opacity:1; stop-color:#FF0055"/>
  </linearGradient>
 </defs>
 <g id="Layer_x0020_1">
  <metadata id="CorelCorpID_0Corel-Layer"/>
  <rect class="fil0" width="652" height="652"/>
  <path class="fil1" d="M384 417l79 -78c28,-28 28,-74 0,-102 -26,-25 -65,-27 -92,-8 -28,-19 -67,-17 -92,8 -28,28 -28,74 0,102l78 78 0 109 27 0 0 -109z"/>
  <path class="fil2" d="M179 271c0,58 26,112 71,148 29,24 50,54 62,88 6,16 9,21 10,39l35 0 0 -129 -78 -78c-28,-28 -28,-74 0,-102 25,-25 64,-27 92,-8 27,-19 66,-17 92,8 28,28 28,74 0,102l-79 78 0 129 35 0c1,-16 4,-19 9,-34 11,-36 33,-68 64,-93 44,-36 70,-90 70,-148 0,-104 -85,-190 -189,-192 -106,-1 -194,85 -194,192z"/>
  <g>
   <polygon class="fil3" points="145,380 109,360 98,321 227,91 312,138 183,368 "/>
   <path id="1" class="fil4" d="M111 356l36 20 -4 8 -36 -20 -2 -3 6 -5zm-4 8l-1 -1 -1 -2 2 3zm-5 -44l11 39 -8 2 -11 -39 1 -3 7 1zm-8 2l0 -2 1 -1 -1 3zm137 -229l-129 230 -7 -4 129 -231 5 -1 2 6zm-7 -5l2 -3 3 2 -5 1zm86 54l-84 -47 3 -8 85 47 1 7 -5 1zm4 -8l4 2 -3 5 -1 -7zm-135 232l129 -230 7 5 -129 229 -2 2 -5 -6zm7 4l-1 2 -1 0 2 -2zm-42 5l38 -11 2 8 -38 12 -3 0 1 -9zm2 9l-1 0 -2 0 3 0z"/>
  </g>
  <g>
   <path class="fil3" d="M325 68l-45 -25c-11,-6 -25,-1 -32,10l-23 43 84 47 24 -42c6,-12 3,-27 -8,-33z"/>
   <path id="1" class="fil4" d="M282 39l45 26 -4 7 -45 -25 4 -8zm-30 17l-7 -5 0 0 0 -1 1 -1 1 -1 1 -1 1 -1 1 -1 1 -1 1 -1 1 -1 1 -1 1 -1 1 0 2 -1 1 -1 1 0 1 -1 2 0 1 0 1 -1 2 0 1 0 1 0 2 0 1 0 1 0 2 1 1 0 1 0 2 1 1 0 1 1 1 0 -4 8 -1 -1 -1 0 0 0 -1 -1 -1 0 -1 0 -1 0 -1 0 -1 0 -1 0 0 0 -1 0 -1 0 -1 0 -1 0 -1 1 -1 0 -1 0 -1 1 0 0 -1 1 -1 0 -1 1 -1 0 0 1 -1 1 -1 0 -1 1 0 1 -1 1 0 1 -1 1 0 0zm-31 38l24 -43 7 5 -24 42 -5 1 -2 -5zm2 5l-4 -2 2 -3 2 5zm84 48l-84 -48 4 -7 84 47 2 6 -6 2zm6 -2l-2 4 -4 -2 6 -2zm24 -42l-24 42 -8 -4 24 -42 0 0 8 4zm-14 -31l4 -7 0 0 1 0 2 1 1 1 1 1 1 1 1 1 0 1 1 1 1 1 1 1 0 1 1 1 1 2 0 1 0 1 1 1 0 2 0 1 0 1 0 2 0 1 0 1 0 2 0 1 0 2 0 1 -1 1 0 2 -1 1 0 1 -1 2 0 1 -8 -4 1 -1 0 -1 0 -1 1 -1 0 -1 0 -1 1 -1 0 -1 0 -1 0 -1 0 -1 0 -1 0 -1 0 -1 0 -1 -1 -1 0 -1 0 0 0 -1 -1 -1 0 -1 -1 -1 0 0 -1 -1 0 -1 -1 -1 0 0 -1 -1 -1 0 0 -1 -1 -1 -1 0 0 0z"/>
  </g>
  <g>
   <path class="fil3" d="M94 329l-4 95c0,3 1,4 3,5 2,1 4,1 6,0l79 -53c2,-1 3,-3 3,-6 0,-2 -1,-4 -2,-5l-76 -42c-2,-1 -4,-1 -6,0 -2,2 -3,4 -3,6z"/>
   <path id="1" class="fil4" d="M86 424l4 -95 8 1 -3 94 0 0 -9 0zm9 2l-4 7 0 0 0 0 -1 0 0 -1 0 0 -1 0 0 0 0 0 0 -1 -1 0 0 0 0 0 0 -1 0 0 -1 0 0 -1 0 0 0 0 0 0 0 -1 0 0 0 0 -1 -1 0 0 0 0 0 -1 0 0 0 0 0 -1 0 0 0 0 0 -1 0 0 9 0 0 1 0 0 0 0 0 0 0 0 0 0 0 0 0 0 0 0 0 0 0 0 0 0 0 0 0 0 0 0 0 0 0 0 0 0 0 0 0 0 0 0 0 0 0 0 0 0 0 0 0 0 0 0 0 0 0 1 0 0 0 0 0 0 0 0zm1 -1l5 7 0 0 0 1 -1 0 0 0 0 0 -1 0 0 0 0 0 0 1 -1 0 0 0 0 0 -1 0 0 0 0 0 -1 0 0 0 0 0 -1 0 0 0 0 0 -1 0 0 0 0 0 -1 0 0 0 0 0 -1 0 0 0 0 -1 -1 0 0 0 0 0 4 -7 0 0 0 0 0 0 0 0 0 0 0 0 0 0 0 0 0 0 0 0 0 0 0 0 0 0 0 0 0 0 0 0 0 0 0 0 0 0 0 0 0 0 0 0 1 0 0 0 0 -1 0 0 0 0 0 0 0 0 0 0 0 0 0 0 0 0zm84 -45l-79 52 -5 -7 79 -52 0 0 5 7zm-3 -10l8 1 0 0 0 0 0 1 0 0 0 0 0 1 0 0 0 0 0 1 0 0 0 0 -1 1 0 0 0 0 0 0 0 1 0 0 0 0 -1 1 0 0 0 0 0 0 -1 1 0 0 0 0 0 0 0 1 -1 0 0 0 0 0 -1 1 0 0 0 0 -5 -7 0 0 0 0 0 0 1 0 0 0 0 -1 0 0 0 0 0 0 0 0 0 0 0 0 0 0 0 0 0 0 0 0 0 0 0 -1 1 0 0 0 0 0 0 0 0 0 0 0 0 0 0 0 0 0 0 -1 0 0 0 0 0 0 0 0 0 0zm0 -1l4 -8 0 0 0 0 0 1 1 0 0 0 0 0 0 1 1 0 0 0 0 0 0 1 1 0 0 0 0 1 0 0 0 0 1 0 0 1 0 0 0 0 0 1 0 0 0 0 0 1 0 0 0 0 0 1 0 0 0 0 0 1 0 0 0 1 0 0 -8 -1 0 0 0 0 0 0 0 0 0 0 0 -1 0 0 0 0 0 0 0 0 0 0 0 0 0 0 0 0 0 0 0 0 0 0 0 0 0 0 0 0 0 0 0 0 0 0 0 0 0 0 0 0 0 0 0 0 0 0 0 0 0 0 0 0 0 0zm-72 -50l76 42 -4 8 -76 -43 0 0 4 -7zm-5 8l-5 -7 0 0 0 0 0 0 0 -1 1 0 0 0 0 0 1 0 0 0 0 -1 1 0 0 0 0 0 1 0 0 0 0 0 1 0 0 0 0 0 1 0 0 0 0 0 1 0 0 0 1 0 0 0 0 0 1 0 0 0 0 0 1 1 0 0 0 0 -4 7 0 0 0 0 0 0 0 0 0 0 0 0 0 0 0 0 0 0 0 0 0 0 0 0 0 0 0 0 0 0 0 0 0 0 0 0 0 0 0 0 0 0 -1 0 0 0 0 0 0 0 0 0 0 0 0 1 0 0 0 0 0 0 0 0 0 0zm-2 3l-8 -1 0 0 0 0 0 0 0 -1 0 0 0 0 0 -1 0 0 0 0 0 -1 0 0 0 0 1 -1 0 0 0 0 0 -1 0 0 0 0 0 -1 1 0 0 0 0 0 0 -1 0 0 1 0 0 0 0 -1 0 0 1 0 0 0 0 -1 0 0 1 0 5 7 0 0 0 0 -1 0 0 0 0 0 0 0 0 0 0 0 0 0 0 1 0 0 0 0 0 0 0 0 0 0 0 0 0 0 0 0 0 0 -1 0 0 0 0 1 0 0 0 0 0 0 0 0 0 0 0 0 0 0 0 0 0 1 0 0 0 0z"/>
  </g>
  <path class="fil4" d="M216 432c-10,0 -21,0 -31,0 -10,0 -21,14 -6,14 10,0 21,0 31,0 10,0 20,-14 6,-14z"/>
  <path class="fil4" d="M183 478c-20,0 -41,0 -62,0 -4,0 -10,3 -12,6 -2,1 -6,4 -2,4 20,0 42,0 62,0 4,0 10,-3 13,-6 1,-1 5,-4 1,-4z"/>
  <path class="fil4" d="M255 508c-12,0 -22,0 -33,0 -2,0 -10,2 -7,4 3,3 10,3 13,3 11,0 21,0 33,0 1,0 10,-1 7,-4 -3,-3 -10,-3 -13,-3z"/>
  <path class="fil4" d="M314 454c-23,0 -46,0 -69,0 -10,0 -22,14 -7,14 23,0 45,0 68,0 10,0 22,-14 8,-14z"/>
  <rect class="fil5" x="296" y="526" width="147.243" height="27.25" rx="8" ry="10"/>
  <path class="fil5" d="M308 560l123 0 0 27c0,15 -12,27 -27,27l-69 0c-15,0 -27,-12 -27,-27l0 -27z"/>
 </g>
</svg>
