<?xml version="1.0" encoding="UTF-8"?>
<!DOCTYPE svg PUBLIC "-//W3C//DTD SVG 1.1//EN" "http://www.w3.org/Graphics/SVG/1.1/DTD/svg11.dtd">
<!-- Creator: CorelDRAW X8 -->
<svg xmlns="http://www.w3.org/2000/svg" xml:space="preserve" width="1in" height="1in" version="1.1" style="shape-rendering:geometricPrecision; text-rendering:geometricPrecision; image-rendering:optimizeQuality; fill-rule:evenodd; clip-rule:evenodd"
viewBox="0 0 299 299"
 xmlns:xlink="http://www.w3.org/1999/xlink">
 <defs>
  <style type="text/css">
   <![CDATA[
    .str1 {stroke:#F9B73C;stroke-width:3.98724}
    .str2 {stroke:black;stroke-width:1.99362}
    .str0 {stroke:#1A1A1A;stroke-width:0.897307}
    .fil0 {fill:none}
    .fil1 {fill:#4949BF}
    .fil2 {fill:#F9B73C}
    .fil3 {fill:white}
    .fil4 {fill:white}
   ]]>
  </style>
 </defs>
 <g id="Layer_x0020_1">
  <metadata id="CorelCorpID_0Corel-Layer"/>
  <rect class="fil0" width="299" height="299"/>
  <path class="fil1 str0" d="M24 150c0,69 56,125 126,125 25,0 49,-8 69,-21l-12 -43c0,-1 0,-3 1,-4 2,-1 3,-2 5,-1l42 11c13,-20 20,-43 20,-67 0,-70 -56,-126 -125,-126 -70,0 -126,56 -126,126zm79 52l8 -31 5 3c5,3 16,7 29,7 6,0 13,-2 13,-6 0,-4 -2,-7 -17,-12 -17,-6 -37,-15 -37,-39 0,-18 12,-31 32,-36l0 -19 28 0 0 17c11,1 19,4 24,6l4 2 -9 30 -5 -3c-5,-2 -12,-6 -24,-6 -5,0 -12,1 -12,6 0,4 11,8 20,12 23,8 34,20 34,39 0,10 -4,18 -10,25 -6,6 -14,11 -23,13l0 20 -28 0 0 -18c-11,-1 -22,-4 -29,-8l-3 -2zm134 -93c0,-34 -33,-52 -50,-52 -3,0 -5,-2 -5,-5 0,-3 2,-5 5,-5 12,0 26,6 38,16 14,12 22,29 22,46 0,3 -2,5 -5,5 -3,0 -5,-2 -5,-5z"/>
  <circle class="fil1" cx="150" cy="150" r="125"/>
  <path class="fil1" d="M135 230l28 0 0 -20c9,-2 17,-7 23,-13 6,-7 10,-15 10,-25 0,-19 -11,-31 -34,-39 -9,-4 -20,-8 -20,-12 0,-5 7,-6 12,-6 12,0 19,4 24,6l5 3 9 -30 -4 -2c-5,-2 -13,-5 -24,-6l0 -17 -28 0 0 19c-20,5 -32,18 -32,36 0,24 20,33 37,39 15,5 17,8 17,12 0,4 -7,6 -13,6 -13,0 -24,-4 -29,-7l-5 -3 -8 31 3 2c7,4 18,7 29,8l0 18zm18 -9l-9 0 0 -18 -4 0c-11,-1 -20,-3 -26,-6l3 -12c6,3 16,6 28,6 13,0 22,-6 22,-16 0,-12 -11,-17 -23,-21 -21,-7 -30,-16 -30,-30 0,-14 10,-25 27,-28l4 -1 0 -17 9 0 0 17 5 0c10,0 16,2 21,4l-3 12c-5,-3 -13,-5 -23,-5 -16,0 -21,8 -21,15 0,10 11,15 25,21 23,8 28,18 28,30 0,15 -11,26 -29,30l-4 0 0 19z"/>
  <path class="fil2 str1" d="M114 197c6,3 15,5 26,6l4 0 0 18 9 0 0 -19 4 0c18,-4 29,-15 29,-30 0,-12 -5,-22 -28,-30 -14,-6 -25,-11 -25,-21 0,-7 5,-15 21,-15 10,0 18,2 23,5l3 -12c-5,-2 -11,-4 -21,-4l-5 0 0 -17 -9 0 0 17 -4 1c-17,3 -27,14 -27,28 0,14 9,23 30,30 12,4 23,9 23,21 0,10 -9,16 -22,16 -12,0 -22,-3 -28,-6l-3 12z"/>
  <path class="fil3 str2" d="M245 208l-33 -9 9 33 3 13 5 -10c1,-2 2,-3 4,-3l1 0c1,0 3,0 4,1l26 26 8 -8 -26 -26c-1,-2 -1,-3 -1,-5 0,-2 1,-3 3,-4l10 -5 -13 -3z"/>
  <path class="fil4" d="M187 57c17,0 50,18 50,52 0,3 2,5 5,5 3,0 5,-2 5,-5 0,-17 -8,-34 -22,-46 -12,-10 -26,-16 -38,-16 -3,0 -5,2 -5,5 0,3 2,5 5,5z"/>
 </g>
</svg>
