<?xml version="1.0" encoding="UTF-8"?>
<!DOCTYPE svg PUBLIC "-//W3C//DTD SVG 1.1//EN" "http://www.w3.org/Graphics/SVG/1.1/DTD/svg11.dtd">
<!-- Creator: CorelDRAW X8 -->
<svg xmlns="http://www.w3.org/2000/svg" xml:space="preserve" width="1in" height="1in" version="1.1" style="shape-rendering:geometricPrecision; text-rendering:geometricPrecision; image-rendering:optimizeQuality; fill-rule:evenodd; clip-rule:evenodd"
viewBox="0 0 757 757"
 xmlns:xlink="http://www.w3.org/1999/xlink">
 <defs>
  <style type="text/css">
   <![CDATA[
    .fil0 {fill:none}
    .fil5 {fill:#FBB34B}
    .fil3 {fill:#286EAB}
    .fil1 {fill:white}
    .fil4 {fill:white}
    .fil2 {fill:black;fill-rule:nonzero}
   ]]>
  </style>
 </defs>
 <g id="Layer_x0020_1">
  <metadata id="CorelCorpID_0Corel-Layer"/>
  <rect class="fil0" width="757" height="757"/>
  <g>
   <path class="fil1" d="M176 151l426 0c15,0 27,12 27,27l0 426c0,15 -12,27 -27,27l-426 0c-15,0 -27,-12 -27,-27l0 -426c0,-15 12,-27 27,-27z"/>
   <path id="1" class="fil2" d="M602 154l-426 0 0 -7 426 0 0 0 0 7zm31 24l-7 0 0 0 0 -2 0 -1 0 -1 -1 -1 0 -1 0 -1 0 -2 -1 -1 0 -1 -1 -1 0 -1 -1 -1 -1 -1 0 0 -1 -1 -1 -1 -1 -1 -1 -1 -1 0 0 -1 -1 -1 -1 0 -1 -1 -1 0 -2 -1 -1 0 -1 0 -1 -1 -1 0 -1 0 -1 0 -2 0 0 -7 2 0 1 0 2 0 1 1 2 0 1 0 2 1 1 0 2 1 1 1 1 0 1 1 2 1 1 1 1 1 1 1 1 1 1 1 1 1 1 2 0 1 1 1 1 1 0 2 1 1 0 1 1 2 0 1 0 2 1 1 0 2 0 2 0 0zm-7 426l0 -426 7 0 0 426 0 0 -7 0zm-24 30l0 -7 0 0 2 0 1 0 1 0 1 0 1 0 1 -1 1 0 2 0 1 -1 1 0 1 -1 1 -1 0 0 1 -1 1 -1 1 0 1 -1 1 -1 0 -1 1 -1 1 -1 0 -1 1 -1 0 -1 1 -1 0 -1 0 -1 0 -1 1 -2 0 -1 0 -1 0 -1 7 0 0 1 0 2 -1 1 0 2 0 1 -1 2 0 1 -1 2 0 1 -1 1 -1 2 0 1 -1 1 -1 1 -1 1 -1 1 -1 1 -1 1 -1 1 -2 1 -1 1 -1 1 -1 0 -2 1 -1 0 -2 1 -1 0 -2 1 -1 0 -2 0 -1 0 -2 0 0 0zm-426 -7l426 0 0 7 -426 0 0 0 0 -7zm-30 -23l6 0 0 0 0 1 1 1 0 1 0 2 0 1 1 1 0 1 0 1 1 1 0 1 1 1 0 1 1 1 1 1 1 1 0 1 1 0 1 1 1 1 1 0 1 1 1 1 1 0 1 1 1 0 1 0 1 1 1 0 1 0 2 0 1 0 1 0 0 7 -2 0 -1 0 -2 0 -1 0 -2 -1 -1 0 -1 -1 -2 0 -1 -1 -1 0 -2 -1 -1 -1 -1 -1 -1 -1 -1 -1 -2 -1 -1 -1 0 -1 -1 -1 -1 -1 -1 -1 -1 -2 0 -1 -1 -1 -1 -2 0 -1 0 -2 -1 -1 0 -2 0 -1 0 -2 0 -1 0 0zm6 -426l0 426 -6 0 0 -426 0 0 6 0zm24 -31l0 7 0 0 -1 0 -1 0 -2 0 -1 0 -1 1 -1 0 -1 0 -1 1 -1 0 -1 1 -1 0 -1 1 -1 1 -1 0 -1 1 -1 1 0 1 -1 1 -1 0 -1 1 0 1 -1 1 0 1 -1 1 0 1 0 2 -1 1 0 1 0 1 0 1 -1 1 0 2 -6 0 0 -2 0 -2 0 -1 0 -2 1 -1 0 -2 0 -1 1 -1 1 -2 0 -1 1 -1 1 -1 1 -2 1 -1 0 -1 1 -1 2 -1 1 -1 1 -1 1 -1 1 -1 2 0 1 -1 1 -1 2 0 1 -1 1 0 2 0 1 -1 2 0 1 0 2 0 0 0z"/>
  </g>
  <rect class="fil3" x="128" y="126" width="480" height="480" rx="27" ry="27"/>
  <circle class="fil4" cx="368" cy="366" r="186"/>
  <path class="fil3" d="M362 202l-43 37 42 40 0 -23 9 0c62,2 112,53 111,116 -1,62 -53,112 -115,111 -63,-2 -112,-53 -111,-116 0,-23 8,-46 22,-65l-26 -22c-19,25 -30,55 -30,87 -2,81 63,148 144,149 81,2 148,-63 150,-144 1,-81 -63,-148 -144,-150 -1,0 -1,0 -1,0l-8 0 0 -20z"/>
  <polygon class="fil5" points="349,420 441,328 426,313 349,390 309,351 295,366 "/>
 </g>
</svg>
