<?xml version="1.0" encoding="UTF-8"?>
<!DOCTYPE svg PUBLIC "-//W3C//DTD SVG 1.1//EN" "http://www.w3.org/Graphics/SVG/1.1/DTD/svg11.dtd">
<!-- Creator: CorelDRAW X8 -->
<svg xmlns="http://www.w3.org/2000/svg" xml:space="preserve" width="1in" height="1in" version="1.1" style="shape-rendering:geometricPrecision; text-rendering:geometricPrecision; image-rendering:optimizeQuality; fill-rule:evenodd; clip-rule:evenodd"
viewBox="0 0 1258 1258"
 xmlns:xlink="http://www.w3.org/1999/xlink">
 <defs>
  <style type="text/css">
   <![CDATA[
    .fil0 {fill:none}
    .fil7 {fill:white}
    .fil3 {fill:white}
    .fil6 {fill:white;fill-rule:nonzero}
    .fil4 {fill:white;fill-rule:nonzero}
    .fil2 {fill:url(#id0)}
    .fil5 {fill:url(#id1);fill-rule:nonzero}
    .fil1 {fill:url(#id2);fill-rule:nonzero}
   ]]>
  </style>
  <linearGradient id="id0" gradientUnits="userSpaceOnUse" x1="469.194" y1="829.904" x2="1138.61" y2="36.0294">
   <stop offset="0" style="stop-opacity:1; stop-color:#4949BF"/>
   <stop offset="1" style="stop-opacity:1; stop-color:#FF0055"/>
  </linearGradient>
  <linearGradient id="id1" gradientUnits="userSpaceOnUse" xlink:href="#id0" x1="240.984" y1="398.522" x2="518.986" y2="64.2069">
  </linearGradient>
  <linearGradient id="id2" gradientUnits="userSpaceOnUse" xlink:href="#id0" x1="514.398" y1="883.435" x2="1201.66" y2="68.39">
  </linearGradient>
 </defs>
 <g id="Layer_x0020_1">
  <metadata id="CorelCorpID_0Corel-Layer"/>
  <rect class="fil0" width="1258" height="1258"/>
  <path class="fil1" d="M377 293l664 0c21,0 40,9 54,23 14,13 23,33 23,54l0 664c0,21 -9,41 -23,54 -14,14 -33,23 -54,23l-664 0c-22,0 -41,-9 -55,-23 -14,-13 -22,-33 -22,-54l0 -664c0,-21 8,-41 22,-54 14,-14 33,-23 55,-23zm664 21l-664 0c-16,0 -30,6 -40,16 -10,11 -16,24 -16,40l0 664c0,16 6,29 16,39 10,11 24,17 40,17l664 0c15,0 29,-6 39,-17 10,-10 17,-23 17,-39l0 -664c0,-16 -7,-29 -17,-39 -10,-11 -24,-17 -39,-17z"/>
  <rect class="fil2" x="260" y="255" width="797" height="797" rx="66" ry="66"/>
  <g>
   <path class="fil3" d="M668 922l1 0c1,0 2,-1 3,-1l51 -13c10,-2 20,-8 27,-15l163 -162c19,-19 19,-50 0,-69 -19,-19 -50,-19 -69,0l-162 162c-8,8 -13,17 -16,28l-13 50c-2,10 5,19 15,20zm24 -88l163 -162 4 -4 1 0c13,-9 31,-7 42,4 13,13 13,35 0,48l-162 163 -4 3 -1 1c-5,3 -10,6 -16,7l-52 13 13 -52 2 -5 0 0c2,-6 6,-11 10,-16zm-107 44l4 -14 -58 0c-13,0 -25,-3 -36,-9l-17 -9 156 -172c14,-16 39,-16 53,0l20 23 11 -11 -20 -22c-20,-22 -55,-22 -75,0l-156 173 -9 -20c-4,-11 -7,-21 -7,-32l0 -260c0,-43 36,-79 80,-79l259 0c44,0 79,36 79,79l0 51c5,0 10,0 15,0l0 -51c0,-51 -42,-94 -94,-94l-259 0c-52,0 -94,42 -94,94l0 260c0,51 42,93 94,93l54 0zm162 -360c-28,0 -51,23 -51,51 0,28 23,50 51,50 28,0 50,-22 50,-50 0,-28 -22,-51 -50,-51zm0 15c19,0 36,16 36,36 0,19 -17,35 -36,35 -20,0 -36,-16 -36,-35 0,-20 16,-36 36,-36z"/>
   <path id="1" class="fil4" d="M669 925l-1 0 0 -7 1 0 1 7 -1 0zm1 0l-1 0 0 0 1 0zm1 -7l2 7 0 0 0 0 0 0 0 0 0 0 0 0 -1 0 0 0 0 0 0 0 0 0 0 0 0 0 0 0 0 0 -1 0 0 0 0 0 0 0 0 0 0 0 0 0 0 0 0 0 -1 0 0 0 0 0 0 0 0 0 0 0 0 0 0 0 0 0 -1 -7 0 0 0 0 0 0 0 0 1 0 0 0 0 0 0 0 0 0 0 0 0 0 0 0 0 0 0 0 0 0 0 0 0 0 0 0 1 0 0 0 0 0 0 0 0 0 0 0 0 0 0 0 0 0 0 0 0 0 0 0 0 0 0 0 0 0zm0 0l0 0 0 0 0 0zm52 -6l-50 13 -2 -7 51 -13 0 0 1 7zm25 -22l5 5 0 0 -1 1 -1 1 -1 1 0 0 -1 1 -1 1 -1 0 -1 1 -1 1 0 0 -1 1 -1 0 -1 1 -1 1 -1 0 -1 1 -1 0 -1 1 -1 0 -1 1 -1 0 0 0 -1 1 -1 0 -1 1 -1 0 -1 0 -1 1 -1 0 -1 0 -2 1 -1 0 -1 -7 1 0 1 0 0 -1 1 0 1 0 1 -1 1 0 1 0 1 -1 1 0 1 0 0 -1 1 0 1 -1 1 0 1 -1 1 0 0 -1 1 0 1 -1 1 0 1 -1 0 0 1 -1 1 0 1 -1 0 -1 1 0 1 -1 0 0 1 -1 1 -1 0 0zm167 -157l-162 162 -5 -5 162 -162 0 0 5 5zm-5 -69l5 -5 0 0 2 2 2 2 1 2 2 2 1 3 1 2 2 2 1 3 1 2 0 2 1 3 0 2 1 3 0 2 0 3 0 2 0 3 0 2 0 3 -1 2 0 3 -1 2 0 2 -1 3 -1 2 -2 2 -1 3 -1 2 -2 2 -1 2 -2 2 -2 2 -5 -5 2 -2 1 -1 2 -2 1 -2 1 -2 1 -2 1 -2 1 -2 1 -2 0 -2 1 -2 1 -2 0 -2 0 -3 0 -2 0 -2 0 -2 0 -2 0 -2 0 -2 -1 -3 0 -2 -1 -2 -1 -2 -1 -2 -1 -2 -1 -2 -1 -2 -1 -2 -2 -1 -1 -2 -2 -2 0 0zm-64 0l-5 -5 0 0 2 -2 2 -1 2 -2 3 -1 2 -2 2 -1 2 -1 3 -1 2 -1 2 -1 3 -1 2 0 3 0 2 -1 3 0 2 0 3 0 2 0 3 1 2 0 3 0 2 1 3 1 2 1 2 1 3 1 2 1 2 2 2 1 2 2 2 1 2 2 -5 5 -2 -1 -1 -2 -2 -1 -2 -1 -2 -2 -2 -1 -2 -1 -2 -1 -2 0 -2 -1 -2 -1 -2 0 -2 0 -2 -1 -3 0 -2 0 -2 0 -2 0 -2 1 -2 0 -2 0 -3 1 -2 1 -2 0 -2 1 -2 1 -2 1 -2 1 -1 2 -2 1 -2 2 -2 1 0 0zm-167 158l162 -163 5 5 -162 163 -5 -5zm-10 31l-7 -2 0 0 1 -1 0 -1 0 -1 1 -1 0 -1 0 -1 1 -1 0 -1 1 -1 0 -1 0 -1 1 -1 0 -1 1 -1 0 -1 1 -1 0 -1 1 -1 0 -1 1 0 1 -1 0 -1 1 -1 1 -1 0 -1 1 -1 1 0 0 -1 1 -1 1 -1 0 -1 1 0 5 5 -1 0 0 1 -1 1 0 0 -1 1 -1 1 0 1 -1 0 0 1 -1 1 -1 1 0 0 -1 1 0 1 -1 1 0 1 0 1 -1 0 0 1 -1 1 0 1 -1 1 0 1 0 0 -1 1 0 1 0 1 -1 1 0 1 0 1 0 1 -1 1 0 0zm-19 48l12 -50 7 2 -12 50 -7 -2zm18 17l0 7 -1 0 -1 0 -1 0 -1 0 -1 -1 -1 0 -1 0 -1 -1 -1 0 -1 -1 -1 0 0 -1 -1 -1 -1 0 -1 -1 0 -1 -1 -1 -1 -1 0 0 -1 -1 0 -1 0 -1 -1 -1 0 -1 0 -1 -1 -1 0 -1 0 -1 0 -1 0 -1 0 -2 1 -1 0 -1 7 2 0 1 -1 0 0 1 0 1 0 0 0 1 0 1 1 0 0 1 0 1 0 0 0 1 1 0 0 1 0 1 1 0 0 1 1 0 0 1 0 0 1 0 0 1 1 0 1 1 0 0 1 0 0 0 1 1 1 0 0 0 1 0 1 0 0 0zm0 7l-1 0 0 0 1 0zm189 -251l-162 163 -5 -5 162 -163 1 0 4 5zm-5 -5l0 0 1 0 -1 0zm9 2l-4 3 -4 -5 4 -4 0 0 4 6zm-4 -6l0 0 0 0 0 0zm5 6l-1 0 -4 -6 1 0 0 0 4 6zm43 -1l-5 5 0 0 -1 -1 -1 -1 -1 -1 -1 -1 -1 0 -1 -1 -2 -1 -1 0 -1 -1 -1 0 -1 -1 -2 0 -1 0 -1 -1 -1 0 -2 0 -1 0 -1 0 -1 0 -2 0 -1 0 -1 0 -2 0 -1 1 -1 0 -1 0 -1 1 -2 0 -1 1 -1 0 -1 1 -1 1 -4 -6 1 -1 2 -1 1 -1 1 0 2 -1 1 0 2 -1 2 0 1 -1 2 0 1 0 2 0 1 0 2 0 2 0 1 0 2 0 1 0 2 1 1 0 2 0 1 1 2 1 1 0 2 1 1 1 1 1 2 0 1 1 1 1 2 2 1 1 0 0zm0 53l-5 -5 0 0 1 -2 1 -1 1 -1 1 -1 0 -1 1 -2 1 -1 0 -1 1 -2 0 -1 1 -2 0 -1 0 -2 0 -1 1 -1 0 -2 0 -1 -1 -2 0 -1 0 -2 0 -1 -1 -2 0 -1 -1 -1 0 -2 -1 -1 -1 -1 0 -2 -1 -1 -1 -1 -1 -1 -1 -1 5 -5 1 1 1 2 2 1 1 2 1 1 0 2 1 1 1 2 1 2 0 1 1 2 0 2 0 2 1 2 0 1 0 2 0 2 0 2 -1 1 0 2 0 2 -1 2 0 1 -1 2 -1 2 -1 1 0 2 -1 2 -1 1 -2 2 -1 1 -1 2 0 0zm0 0l0 0 0 0 0 0zm-168 157l163 -162 5 5 -163 162 0 0 -5 -5zm5 5l0 0 0 0 0 0zm-9 -2l4 -3 5 5 -4 4 0 0 -5 -6zm5 6l0 0 0 0 0 0zm-5 -5l1 -1 4 6 -1 0 -4 -5zm-13 14l-2 -7 0 0 1 0 0 0 1 -1 0 0 1 0 0 0 1 0 0 0 1 -1 0 0 1 0 0 0 1 0 0 -1 0 0 1 0 0 0 1 0 0 -1 1 0 0 0 1 0 0 -1 1 0 0 0 0 -1 1 0 0 0 1 0 0 -1 1 0 0 0 4 5 0 1 -1 0 0 0 -1 1 0 0 -1 0 0 1 -1 0 0 0 -1 1 0 0 -1 0 0 1 -1 0 0 0 -1 0 0 1 -1 0 -1 0 0 0 -1 1 0 0 -1 0 0 0 -1 0 -1 1 0 0 -1 0 0 0 -1 0 0 1 -1 0 0 0zm-54 6l52 -13 2 7 -52 13 -4 -5 2 -2zm2 7l-6 1 2 -6 4 5zm16 -55l-14 52 -6 -2 13 -52 0 0 7 2zm-7 -2l0 0 0 0 0 0zm8 -3l-1 5 -7 -2 2 -5 0 0 6 2zm-6 -2l0 0 0 0 0 0zm6 2l0 0 -6 -2 0 -1 6 3 0 0zm0 0l0 0 0 0 0 0zm5 -19l5 5 0 0 -1 0 0 1 -1 0 0 0 0 1 -1 0 0 1 0 0 -1 0 0 1 0 0 -1 1 0 0 0 1 0 0 -1 0 0 1 0 0 -1 1 0 0 0 1 0 0 -1 1 0 0 0 1 0 0 -1 0 0 1 0 0 0 1 0 0 -1 1 -6 -3 0 0 0 -1 1 0 0 -1 0 -1 0 0 1 -1 0 0 0 -1 0 0 1 -1 0 0 0 -1 1 0 0 -1 0 0 1 -1 0 0 0 -1 1 -1 0 0 1 -1 0 0 0 0 1 -1 0 0 1 -1 0 0 0 -1 1 0 0 -1 1 0 0 0zm5 5l0 0 0 0 0 0zm-103 27l-3 15 -7 -2 4 -14 3 -3 3 4zm-3 -4l5 0 -2 4 -3 -4zm-58 0l58 0 0 7 -58 0 0 0 0 -7zm-38 -2l3 -6 0 0 1 0 1 1 1 0 1 1 1 0 1 1 1 0 1 0 1 1 1 0 2 0 1 1 1 0 1 0 1 1 1 0 1 0 1 0 1 1 1 0 1 0 1 0 2 0 1 1 1 0 1 0 1 0 1 0 1 0 1 0 1 0 2 0 0 7 -2 0 -1 0 -1 0 -1 0 -2 0 -1 0 -1 0 -1 0 -1 -1 -2 0 -1 0 -1 0 -1 0 -1 -1 -2 0 -1 0 -1 0 -1 -1 -1 0 -1 0 -2 -1 -1 0 -1 -1 -1 0 -1 0 -1 -1 -1 0 -2 -1 -1 0 -1 -1 -1 0 -1 -1 0 0zm-13 -15l16 9 -3 6 -16 -8 -1 -6 4 -1zm-3 7l-4 -3 3 -3 1 6zm159 -174l-155 173 -5 -5 155 -172 0 0 5 4zm53 -4l-5 4 0 0 -1 -1 -1 -1 -2 -1 -1 -1 -1 -1 -2 -1 -1 -1 -2 -1 -1 0 -2 -1 -2 0 -1 -1 -2 0 -2 0 -1 0 -2 0 -1 0 -2 0 -2 0 -1 0 -2 1 -2 0 -1 1 -2 0 -1 1 -2 1 -1 1 -2 1 -1 1 -1 1 -2 1 -1 1 -5 -4 1 -2 2 -2 2 -1 1 -1 2 -1 2 -1 2 -1 2 -1 1 -1 2 -1 2 0 2 -1 2 0 2 0 2 0 2 -1 2 1 2 0 2 0 2 0 2 1 2 0 2 1 2 1 2 1 2 1 1 1 2 1 2 1 1 1 2 2 1 2 0 0zm16 27l-21 -23 5 -4 21 22 0 5 -5 0zm5 0l-3 3 -2 -3 5 0zm10 -10l-10 10 -5 -5 10 -10 6 0 -1 5zm1 -5l2 2 -3 3 1 -5zm-21 -22l21 22 -6 5 -20 -23 5 -4zm-75 4l-5 -4 0 0 2 -2 2 -3 2 -1 3 -2 2 -2 2 -1 3 -2 3 -1 2 -1 3 -1 2 0 3 -1 3 -1 3 0 2 0 3 0 3 0 3 0 2 0 3 1 3 1 2 0 3 1 3 1 2 2 3 1 2 1 3 2 2 2 2 2 2 2 2 2 -5 4 -2 -1 -2 -2 -1 -2 -3 -1 -2 -2 -2 -1 -2 -1 -2 -1 -2 -1 -3 -1 -2 -1 -2 0 -3 -1 -2 0 -2 0 -3 0 -2 0 -3 0 -2 0 -2 1 -3 0 -2 1 -2 1 -3 1 -2 1 -2 1 -2 1 -2 2 -2 1 -2 2 -2 2 -2 1 0 0zm-161 168l156 -172 5 4 -155 173 -6 -1 0 -4zm6 5l-4 4 -2 -5 6 1zm-9 -24l9 20 -6 3 -9 -20 0 0 6 -3zm-13 -30l7 0 0 0 0 1 0 1 0 1 0 0 0 1 0 1 0 1 0 1 1 1 0 1 0 1 0 1 0 1 0 1 0 1 1 1 0 1 0 1 0 1 1 1 0 1 0 1 0 1 1 1 0 1 0 1 1 1 0 1 0 0 1 1 0 1 0 1 -6 3 0 -1 -1 -1 0 -1 -1 -1 0 -1 0 -1 -1 -1 0 -1 0 -1 -1 -1 0 -1 0 -1 -1 -1 0 -1 0 -1 0 -1 0 -1 -1 -1 0 -2 0 -1 0 -1 0 -1 0 -1 -1 -1 0 -1 0 -1 0 -1 0 -1 0 -1 0 -1 0 -1 0 -1 0 0zm7 -260l0 260 -7 0 0 -260 0 0 7 0zm76 -82l0 7 0 0 -4 0 -4 0 -4 1 -4 0 -3 1 -4 1 -3 1 -4 2 -3 1 -3 2 -4 2 -3 2 -3 2 -2 2 -3 2 -3 3 -2 2 -3 3 -2 3 -2 3 -2 3 -2 3 -2 3 -1 4 -1 3 -2 4 -1 3 0 4 -1 4 -1 4 0 3 0 4 -7 0 0 -4 0 -4 1 -4 1 -4 1 -4 1 -4 1 -4 1 -4 2 -4 2 -3 2 -4 2 -3 2 -3 3 -3 2 -3 3 -3 3 -3 3 -3 3 -2 3 -2 4 -2 3 -2 4 -2 3 -2 4 -1 4 -2 4 -1 4 -1 4 0 4 -1 4 0 5 0 0 0zm259 7l-259 0 0 -7 259 0 0 0 0 7zm82 75l-7 0 0 0 0 -4 0 -3 0 -4 -1 -4 -1 -4 -1 -3 -1 -4 -2 -3 -1 -4 -2 -3 -2 -3 -1 -3 -3 -3 -2 -3 -2 -3 -3 -2 -2 -3 -3 -2 -3 -2 -3 -2 -3 -2 -3 -2 -3 -2 -4 -1 -3 -2 -4 -1 -3 -1 -4 -1 -4 0 -3 -1 -4 0 -4 0 0 -7 4 0 4 0 4 1 5 0 4 1 3 1 4 2 4 1 4 2 3 2 4 2 3 2 3 2 3 2 3 3 3 3 3 3 3 3 2 3 2 3 3 3 2 4 1 3 2 4 1 4 2 4 1 4 1 4 1 4 0 4 0 4 0 4 0 0zm-7 51l0 -51 7 0 0 51 -3 4 -4 -4zm4 4l-4 0 0 -4 4 4zm11 -4l7 0 -3 3 -1 0 0 0 -1 0 0 0 -1 0 0 0 -1 0 0 0 -1 0 0 0 0 0 -1 0 0 0 -1 0 0 0 -1 0 0 0 -1 0 0 0 0 0 -1 0 0 0 -1 0 0 1 -1 0 0 0 -1 0 0 0 0 0 -1 0 0 0 -1 0 0 -7 0 0 1 0 0 0 1 0 0 0 1 -1 0 0 0 0 1 0 0 0 1 0 0 0 1 0 0 0 1 0 0 0 1 0 0 0 1 0 0 0 1 0 0 0 1 0 0 0 1 0 0 0 0 0 1 0 0 0 1 0 0 0 1 0 -4 4zm7 0l0 4 -3 -1 3 -3zm0 -51l0 51 -7 0 0 -51 0 0 7 0zm-97 -90l0 -7 0 0 5 0 5 0 5 1 4 1 5 1 5 1 4 2 5 2 4 2 4 2 4 2 4 3 4 2 4 3 3 3 4 3 3 4 3 3 3 4 3 4 2 4 2 4 3 4 2 4 1 5 2 4 1 5 1 5 1 4 1 5 0 5 0 5 -7 0 0 -4 0 -5 -1 -5 -1 -4 -1 -4 -1 -5 -1 -4 -2 -4 -2 -4 -2 -4 -2 -4 -2 -3 -3 -4 -2 -3 -3 -3 -3 -4 -3 -3 -4 -2 -3 -3 -4 -3 -3 -2 -4 -2 -4 -2 -4 -2 -4 -2 -4 -1 -5 -1 -4 -1 -4 -1 -5 -1 -4 0 -5 0 0 0zm-259 -7l259 0 0 7 -259 0 0 0 0 -7zm-91 97l-7 0 0 0 0 -5 1 -5 0 -5 1 -4 1 -5 2 -5 1 -4 2 -5 2 -4 2 -4 2 -4 3 -4 3 -4 2 -4 4 -3 3 -4 3 -3 4 -3 3 -3 4 -2 4 -3 4 -2 4 -2 5 -2 4 -2 5 -2 4 -1 5 -1 5 -1 5 -1 5 0 5 0 0 7 -5 0 -5 0 -4 1 -5 1 -4 1 -4 1 -4 1 -5 2 -4 2 -3 2 -4 2 -4 2 -3 3 -4 3 -3 2 -3 3 -3 4 -3 3 -3 3 -2 4 -3 3 -2 4 -2 4 -2 4 -1 4 -2 4 -1 5 -1 4 -1 4 0 5 -1 5 0 4 0 0zm-7 260l0 -260 7 0 0 260 0 0 -7 0zm98 90l0 7 0 0 -5 0 -5 -1 -5 0 -5 -1 -5 -1 -4 -2 -5 -1 -4 -2 -5 -2 -4 -2 -4 -2 -4 -3 -4 -2 -3 -3 -4 -3 -3 -4 -3 -3 -4 -4 -2 -3 -3 -4 -3 -4 -2 -4 -2 -4 -2 -5 -2 -4 -1 -5 -2 -4 -1 -5 -1 -5 0 -5 -1 -4 0 -5 7 0 0 4 1 5 0 4 1 5 1 4 1 4 2 5 1 4 2 4 2 4 2 3 3 4 2 4 3 3 3 3 3 3 3 3 3 3 4 3 3 2 4 3 4 2 3 2 4 2 5 1 4 2 4 1 4 1 5 1 4 0 5 1 5 0 0 0zm54 7l-54 0 0 -7 54 0 4 4 -4 3zm4 -3l-1 3 -3 0 4 -3zm111 -310l-7 0 0 0 0 -3 0 -3 0 -3 1 -2 0 -3 1 -2 1 -3 1 -2 1 -3 1 -2 1 -2 2 -3 1 -2 2 -2 2 -2 1 -2 2 -1 2 -2 2 -2 2 -1 3 -2 2 -1 2 -1 3 -1 2 -1 3 -1 2 -1 3 0 2 -1 3 0 3 0 3 0 0 7 -3 0 -2 0 -3 0 -2 1 -2 0 -2 1 -3 0 -2 1 -2 1 -2 1 -2 1 -2 2 -2 1 -1 1 -2 2 -2 1 -1 2 -2 2 -1 1 -1 2 -2 2 -1 2 -1 2 -1 2 -1 2 0 3 -1 2 0 2 -1 2 0 3 0 2 0 3 0 0zm47 47l0 7 0 0 -3 0 -3 -1 -3 0 -2 0 -3 -1 -2 -1 -3 -1 -2 -1 -3 -1 -2 -1 -2 -1 -3 -1 -2 -2 -2 -2 -2 -1 -2 -2 -1 -2 -2 -2 -2 -2 -1 -2 -2 -2 -1 -3 -1 -2 -1 -2 -1 -3 -1 -2 -1 -3 0 -2 -1 -3 0 -3 0 -3 0 -2 7 0 0 2 0 2 0 3 1 2 0 2 1 3 0 2 1 2 1 2 1 2 1 2 2 2 1 2 1 2 2 1 1 2 2 1 2 2 1 1 2 2 2 1 2 1 2 1 2 1 2 1 3 1 2 0 2 1 2 0 3 0 2 1 3 0 0 0zm47 -47l7 0 0 0 0 2 -1 3 0 3 0 3 -1 2 -1 3 -1 2 0 3 -2 2 -1 2 -1 3 -1 2 -2 2 -2 2 -1 2 -2 2 -2 2 -2 1 -2 2 -2 1 -2 2 -3 1 -2 1 -2 1 -3 1 -2 1 -3 1 -2 1 -3 0 -3 0 -3 1 -2 0 0 -7 2 0 2 -1 3 0 2 0 2 -1 3 0 2 -1 2 -1 2 -1 2 -1 2 -1 2 -1 2 -2 2 -1 1 -2 2 -1 1 -2 2 -1 1 -2 2 -2 1 -2 1 -2 1 -2 1 -2 1 -2 1 -2 0 -3 1 -2 0 -2 0 -3 1 -2 0 -2 0 0zm-47 -47l0 -7 0 0 2 0 3 0 3 0 3 1 2 0 3 1 2 1 3 1 2 1 2 1 3 1 2 2 2 1 2 2 2 2 2 1 2 2 1 2 2 2 2 2 1 3 1 2 1 2 2 3 0 2 1 3 1 2 1 3 0 2 0 3 1 3 0 3 -7 0 0 -3 -1 -2 0 -3 0 -2 -1 -2 0 -2 -1 -3 -1 -2 -1 -2 -1 -2 -1 -2 -1 -2 -2 -2 -1 -1 -2 -2 -1 -2 -2 -1 -1 -2 -2 -1 -2 -1 -2 -2 -2 -1 -2 -1 -2 -1 -2 -1 -2 0 -3 -1 -2 0 -2 -1 -3 0 -2 0 -2 0 0 0zm39 47l-7 0 0 0 0 -2 0 -2 0 -1 -1 -2 0 -1 0 -2 -1 -1 -1 -2 0 -1 -1 -2 -1 -1 -1 -1 0 -2 -1 -1 -1 -1 -2 -1 -1 -1 -1 -1 -1 -1 -1 -1 -2 -1 -1 -1 -1 -1 -2 0 -1 -1 -2 0 -1 -1 -2 0 -1 0 -2 -1 -2 0 -1 0 0 -7 2 0 2 0 2 1 2 0 1 0 2 1 2 1 2 0 2 1 1 1 2 1 2 1 1 1 2 1 1 1 1 2 2 1 1 2 1 1 1 2 1 1 1 2 1 2 1 1 1 2 0 2 1 2 0 2 1 2 0 2 0 2 0 2 0 0zm-39 39l0 -7 0 0 1 0 2 0 2 0 1 -1 2 0 1 -1 2 0 1 -1 2 0 1 -1 1 -1 2 -1 1 0 1 -1 1 -1 1 -2 2 -1 1 -1 1 -1 0 -1 1 -2 1 -1 1 -1 0 -2 1 -1 1 -2 0 -1 0 -2 1 -1 0 -2 0 -2 0 -1 7 0 0 2 0 2 0 2 -1 2 0 1 -1 2 0 2 -1 2 -1 2 -1 1 -1 2 -1 2 -1 1 -1 2 -1 1 -2 1 -1 2 -1 1 -2 1 -1 1 -2 1 -2 1 -1 1 -2 1 -2 1 -2 0 -2 1 -1 0 -2 1 -2 0 -2 0 -2 0 0 0zm-40 -39l7 0 0 0 0 1 1 2 0 2 0 1 0 2 1 1 0 2 1 1 1 2 0 1 1 1 1 2 1 1 1 1 1 1 1 1 1 2 1 1 1 1 2 0 1 1 1 1 2 1 1 0 2 1 1 0 2 1 1 0 2 1 1 0 2 0 2 0 0 7 -2 0 -2 0 -2 0 -2 -1 -2 0 -2 -1 -2 0 -2 -1 -1 -1 -2 -1 -2 -1 -1 -1 -2 -1 -1 -1 -2 -1 -1 -2 -2 -1 -1 -1 -1 -2 -1 -1 -1 -2 -1 -2 -1 -1 -1 -2 0 -2 -1 -2 0 -2 -1 -1 0 -2 -1 -2 0 -2 0 -2 0 0zm40 -40l0 7 0 0 -2 0 -2 0 -1 1 -2 0 -1 0 -2 1 -1 0 -2 1 -1 0 -2 1 -1 1 -1 1 -2 1 -1 1 -1 1 -1 1 -1 1 -1 1 -1 1 -1 2 -1 1 -1 1 0 2 -1 1 -1 1 0 2 -1 2 0 1 0 2 0 1 -1 2 0 2 -7 0 0 -2 0 -2 1 -2 0 -2 1 -2 0 -2 1 -2 0 -2 1 -1 1 -2 1 -2 1 -1 1 -2 1 -1 1 -2 2 -1 1 -2 2 -1 1 -1 2 -1 1 -1 2 -1 2 -1 1 -1 2 0 2 -1 2 -1 2 0 2 0 2 -1 2 0 2 0 0 0z"/>
  </g>
  <path class="fil5" d="M319 219c21,-41 42,-62 84,-62 46,0 84,37 84,83 0,83 -84,166 -168,249 -84,-83 -169,-166 -169,-249 0,-46 38,-83 85,-83 42,0 63,21 84,62z"/>
  <path class="fil6" d="M319 197c8,-13 17,-24 27,-33 15,-11 33,-17 57,-17 26,0 49,10 67,27 17,17 27,40 27,66 0,87 -85,172 -171,256l-7 8 -8 -8c-86,-84 -171,-169 -171,-256 0,-26 10,-49 28,-66 17,-17 40,-27 67,-27 23,0 41,6 56,17 10,9 19,20 28,33zm40 -16c-11,9 -21,24 -31,43l-9 19 -10 -19c-10,-19 -19,-34 -31,-43 -11,-9 -25,-13 -43,-13 -21,0 -39,8 -53,21 -13,13 -21,31 -21,51 0,76 78,155 158,234 80,-79 157,-158 157,-234 0,-20 -8,-38 -21,-51 -14,-13 -32,-21 -52,-21 -19,0 -32,4 -44,13z"/>
  <path class="fil7" d="M377 1090l664 0c15,0 29,-6 39,-17 10,-10 17,-23 17,-39l0 -664c0,-16 -7,-29 -17,-39 -6,-7 -14,-12 -23,-14 0,1 0,2 0,4l0 664c0,37 -30,67 -66,67l-665 0c-1,0 -1,0 -2,0 3,8 7,15 13,21 10,11 24,17 40,17z"/>
 </g>
</svg>
