<?xml version="1.0" encoding="UTF-8"?>
<!DOCTYPE svg PUBLIC "-//W3C//DTD SVG 1.1//EN" "http://www.w3.org/Graphics/SVG/1.1/DTD/svg11.dtd">
<!-- Creator: CorelDRAW X8 -->
<svg xmlns="http://www.w3.org/2000/svg" xml:space="preserve" width="1in" height="1in" version="1.1" style="shape-rendering:geometricPrecision; text-rendering:geometricPrecision; image-rendering:optimizeQuality; fill-rule:evenodd; clip-rule:evenodd"
viewBox="0 0 770 770"
 xmlns:xlink="http://www.w3.org/1999/xlink">
 <defs>
  <style type="text/css">
   <![CDATA[
    .str2 {stroke:#4949BF;stroke-width:8.90545}
    .str0 {stroke:#373435;stroke-width:5.93697}
    .str1 {stroke:#4949BF;stroke-width:5.94}
    .fil0 {fill:none}
    .fil2 {fill:#4949BF}
    .fil3 {fill:white}
    .fil1 {fill:#F9B73C;fill-rule:nonzero}
   ]]>
  </style>
 </defs>
 <g id="Layer_x0020_1">
  <metadata id="CorelCorpID_0Corel-Layer"/>
  <rect class="fil0" width="770" height="770"/>
  <path class="fil1" d="M639 225c0,-62 -54,-95 -83,-95 -7,0 -12,6 -12,13 0,6 5,12 12,12 18,0 60,24 60,70 0,6 5,12 11,12 7,0 12,-6 12,-12z"/>
  <path class="fil2" d="M209 484l180 197 181 -197 54 -59 22 -24 1 0c25,-34 40,-76 40,-123 0,-105 -78,-191 -174,-191l-7 0c-1,0 -1,0 -2,0 -36,2 -70,16 -98,39 -5,5 -9,9 -14,14 -18,24 -30,54 -32,87 0,6 -5,11 -11,11l-1 0c-6,0 -11,-6 -10,-13 2,-37 15,-71 35,-98l-1 -1c-29,-24 -66,-39 -106,-39 -96,0 -174,86 -174,191 0,47 15,89 40,123l1 0 22 24 54 59zm407 -259c0,-46 -42,-70 -60,-70 -7,0 -12,-6 -12,-12 0,-7 5,-13 12,-13 29,0 83,33 83,95 0,6 -5,12 -12,12 -6,0 -11,-6 -11,-12z"/>
  <path class="fil3 str0" d="M97 468l68 66c2,3 4,7 3,11l-16 93 84 -44c3,-2 7,-2 10,0l84 44 -16 -93c-1,-4 1,-8 3,-11l68 -66 -93 -13c-4,-1 -7,-3 -9,-6l-42 -85 -42 85c-2,3 -5,5 -9,6l-93 13z"/>
  <path class="fil3 str1" d="M164 660l14 14c0,1 1,1 0,2l-3 20 17 -10c1,0 2,0 3,0l17 10 -3 -20c0,-1 0,-1 0,-2l14 -14 -19 -2c-1,-1 -1,-1 -2,-2l-8 -17 -9 17c0,1 -1,1 -2,2l-19 2z"/>
  <path class="fil3 str2" d="M27 545l27 26c1,1 2,3 1,4l-6 38 33 -18c2,-1 3,-1 5,0l33 18 -6 -38c-1,-1 0,-3 1,-4l27 -26 -37 -6c-2,0 -3,-1 -4,-2l-16 -34 -17 34c-1,1 -2,2 -4,2l-37 6z"/>
 </g>
</svg>
