<?xml version="1.0" encoding="UTF-8"?>
<!DOCTYPE svg PUBLIC "-//W3C//DTD SVG 1.1//EN" "http://www.w3.org/Graphics/SVG/1.1/DTD/svg11.dtd">
<!-- Creator: CorelDRAW -->
<svg xmlns="http://www.w3.org/2000/svg" xml:space="preserve" width="5.31715in" height="4.33575in" version="1.1" style="shape-rendering:geometricPrecision; text-rendering:geometricPrecision; image-rendering:optimizeQuality; fill-rule:evenodd; clip-rule:evenodd"
viewBox="0 0 1710.45 1394.75"
 xmlns:xlink="http://www.w3.org/1999/xlink">
 <defs>
  <style type="text/css">
   <![CDATA[
    .fil0 {fill:white;fill-rule:nonzero}
    .fil2 {fill:#EEEEEC;fill-rule:nonzero}
    .fil3 {fill:#76BF84;fill-rule:nonzero}
    .fil4 {fill:#6FBC7C;fill-rule:nonzero}
    .fil1 {fill:#444343;fill-rule:nonzero}
   ]]>
  </style>
 </defs>
 <g id="Layer_x0020_1">
  <metadata id="CorelCorpID_0Corel-Layer"/>
  <polygon class="fil0" points="1059.46,509.94 743.54,1242.66 558.75,1242.66 534.98,839.13 367.75,1242.66 182.96,1242.66 127.2,509.94 327.49,509.94 345.05,941.31 520.55,520.26 661.96,520.26 688.81,942.33 860.2,509.94 "/>
  <path class="fil1" d="M1558.21 518.87c0.89,78.01 -11.93,138.68 -21.22,186.04 -13.05,66.53 -35.61,196.63 -109.15,202.26 -3.8,0.27 -7.6,0.22 -11.35,-0.09 -92.17,-8.62 -151.06,-250.74 -159.9,-300.06 -0.71,-4.07 -2.1,-11.12 -4.07,-20.69 -20.82,-102.67 -91.1,-423.2 -121.3,-492.85 -3.98,-9.11 -3.62,-18.23 1.07,-26.32 9.07,-15.68 33.6,-26.63 74.93,-33.46l196.14 -32.39c7.55,-1.25 13.94,-1.61 19.61,-1.07 15.77,1.47 27.39,9.83 35.52,25.51 0,0 95.43,119.6 99.72,493.12z"/>
  <path class="fil1" d="M163.21 970.53l-22.03 -289.61c-58.3,102 -45.04,212.27 22.03,289.65l0 -0.04z"/>
  <path class="fil1" d="M1145.38 929.29c-2.5,26.81 -17.51,46.06 -85.92,76.94 -0.98,-58.44 24.31,-87.12 51.83,-95.08 18.94,-5.45 33.46,-0.31 34.09,18.14z"/>
  <path class="fil1" d="M1149.04 1243.2c-130.77,37.62 -241.13,-28.46 -253.68,-169.29 -12.15,-129.75 65.1,-256.32 205.39,-296.67 104.1,-29.93 192.12,0.63 207.26,92.22 10.95,70.46 -55.09,151.91 -223.66,220 17.47,21.98 42.09,23.28 73.9,14.12 42.18,-12.11 96.59,-39.9 122.15,-61.25 -0.63,11.08 3.31,34.4 15.68,60 11.17,23.19 23.19,37.08 31.86,43.74 -27.3,27.7 -89.8,71.53 -178.89,97.13zm336.21 -384.82c-3.49,-131.09 124.7,-333.7 34.63,-355.02 -597.4,-141.27 -977.66,-98.25 -1191.89,11.39l17.38 427.53 174.87 -419.67 140.92 0 26.76 420.69 170.72 -430.97 198.55 0 -314.8 730.32 -184.08 0 -23.68 -402.2 -140.42 338.93c127.6,142.84 255.2,265.7 778.52,105.98 197.21,-60.23 222.01,-35.3 316.28,-19.12 83.59,14.34 2.06,-188.36 -3.75,-407.87z"/>
  <path class="fil1" d="M128.36 1275.95c219.42,184.17 451.57,152.44 395.36,-82.88 -33.06,-138.55 -306.18,-409.3 -458.67,-328.12 -124.65,66.39 -51.56,314.63 63.31,411z"/>
  <path class="fil2" d="M447.05 1051.84l-79.04 190.82 -184.12 0 -29.71 -390.76c99.72,14.16 217.14,105.84 292.87,199.94z"/>
  <path class="fil1" d="M1445.08 918.74c-52.41,-4.87 -95.61,-48.57 -131.98,-133.5 -25.96,-60.63 -40.52,-123.89 -44.59,-148.91 -0.58,-3.84 -1.74,-10.19 -3.35,-18.81 -20.11,-108.43 -80.6,-405.82 -104.64,-465.37 -8.27,-20.51 -7.1,-42.31 3.4,-61.34 15.01,-27.39 45.97,-44.45 97.31,-53.75l177.78 -32.21c10.5,-1.92 38.47,17.78 45.66,22.83 49.5,34.49 73.18,64.43 91.23,101.96 60,124.52 52.36,349.57 48.03,415.2 -5.14,76.62 -11.97,136.85 -21,184.12 -9.43,49.41 -34.4,180.64 -140.29,189.84 -5.81,0.49 -11.75,0.49 -17.56,-0.04z"/>
  <path class="fil1" d="M1476.04 1263.89c-86.68,-17.33 -152.31,-58.22 -184.83,-115.05 -31.54,-55.09 -31.5,-120.54 0.18,-194.49 5.9,-13.81 17.65,-23.86 31.63,-28.59 25.51,-39.9 59.91,-62.95 83.73,-72.02 10.14,-3.89 21.18,-4.74 31.72,-2.64 5.76,1.16 11.35,3.22 16.53,6.08 11.03,6.12 19.35,15.59 23.72,26.63 4.96,1.07 9.78,2.82 14.34,5.23 14.34,7.51 26.45,16.31 36.73,25.56 3.66,0.8 7.33,1.97 10.86,3.48 94.23,40.26 94.09,112.55 85.6,152.04 -10.68,49.77 5.76,69.74 10.19,74.08 5,2.46 9.29,5.45 12.96,8.94 3.89,0.58 8,1.07 12.47,1.61 1.65,0.18 3.26,0.45 4.87,0.76 21.62,4.33 38.69,20.55 42.8,41.28 4.38,22.25 -7.24,44.41 -28.64,54.46 -48.43,22.88 -128.85,27.83 -204.85,12.64z"/>
  <path class="fil0" d="M1390.53 479.91c1.25,3.93 2.32,7.51 3.57,10.99 1.61,4.47 3.35,8.85 5.14,13.27 1.88,4.56 3.4,5.09 8,2.99 8.35,-3.8 16.71,-7.6 25.11,-11.39l0.85 -0.4c2.28,-0.94 2.59,-0.8 2.99,1.65 1.88,11.03 3.71,22.12 5.54,33.15 0.27,1.61 0.45,3.26 0.72,4.83 0.58,3.04 1.92,4.16 5,3.84 2.19,-0.22 4.42,-0.54 6.52,-1.3 7.33,-2.55 14.57,-5.27 21.85,-7.95 0.49,-0.18 0.98,-0.4 1.74,-0.67 0.22,1.07 0.58,2.01 0.67,2.95 0.67,8.13 1.34,16.26 1.88,24.39 0.18,2.99 0.09,3.13 3.04,3.75l0.62 0.13c3.35,0.54 4.42,-0.49 4.78,-3.89 0.4,-4.42 1.12,-8.85 1.65,-13.27 0.72,-6.21 1.39,-12.46 2.01,-18.68 0.58,-5.9 1.12,-11.84 1.65,-17.74l0.05 -0.31c-0.31,-1.16 -0.31,-2.64 -1.03,-3.44 -1.07,-1.07 -2.59,-0.31 -3.66,0.4 -4.65,3.26 -9.29,6.52 -13.85,9.92 -4.91,3.71 -9.92,7.28 -15.68,9.65 -1.83,0.76 -2.37,0.67 -2.68,-1.39 -0.58,-3.98 -1.16,-8 -1.47,-12.06 -0.85,-10.95 -1.65,-21.89 -2.37,-32.84 -0.36,-5.85 -1.83,-6.97 -7.55,-5.27 -10.28,3.13 -20.06,7.42 -29.76,11.84 -2.32,1.07 -4.69,2.06 -7.06,2.99 -1.88,0.71 -2.81,0.45 -3.35,-1.48 -1.03,-3.75 -2.1,-7.6 -2.64,-11.48 -1.03,-7.46 -1.7,-14.92 -2.55,-22.43 -0.13,-1.12 -0.36,-2.28 -0.76,-3.35 -0.49,-1.47 -1.74,-1.83 -3.08,-0.98 -0.54,0.36 -1.07,0.85 -1.56,1.34 -8.4,8.35 -16.84,16.71 -25.2,25.11 -3.98,4.02 -7.86,8.18 -11.71,12.33 -2.1,2.23 -2.1,3.66 0.45,5.45 4.38,3.17 8.89,6.08 13.4,9.07 1.3,0.85 2.5,0.31 3.66,-0.58 4.11,-3.26 7.42,-7.19 10.19,-11.62 1.56,-2.46 3.13,-4.87 4.87,-7.55z"/>
  <path class="fil0" d="M1460.45 694.68c1.61,1.61 1.3,3.04 -0.4,4.07 -4.56,2.77 -9.11,5.5 -13.85,7.95 -2.14,1.12 -4.6,1.7 -6.97,2.15 -4.33,0.76 -7.91,-0.94 -10.77,-4.11 -3.98,-4.29 -6.84,-9.25 -9.07,-14.61l-0.31 -0.85c-1.97,-4.87 -1.83,-5.5 2.1,-9.11 5.18,-4.78 11.35,-8.18 17.69,-11.03 7.95,-3.53 15.91,-6.97 24.04,-10.01 4.83,-1.83 7.24,-0.76 9.6,3.75 2.55,4.91 4.69,10.01 6.79,15.1 2.81,6.7 5.5,13.4 6.48,20.64l0.04 0.22c1.43,4.83 -0.04,8.53 -4.11,11.53 -6.75,4.96 -13.4,10.01 -20.06,15.15 -3.4,2.64 -6.52,5.59 -9.87,8.27 -4.92,3.89 -4.07,8.53 -0.72,13.05 1.56,2.05 3.08,4.16 4.96,5.9 0.67,0.63 2.5,0.8 3.4,0.36 2.5,-1.25 5.14,-2.55 7.15,-4.42 5.81,-5.5 11.75,-10.9 16.93,-16.98 8.22,-9.74 15.91,-19.88 23.77,-29.94 3.08,-3.93 4.15,-8.49 2.64,-13.31 -1.39,-4.38 -2.77,-8.76 -4.69,-12.87 -6.39,-13.4 -14.48,-25.73 -24.26,-36.99 -1.47,-1.74 -3.13,-3.35 -4.87,-4.83 -7.42,-6.21 -13.63,-6.97 -22.21,-2.37 -11.84,6.39 -22.39,14.56 -32.35,23.5 -7.06,6.34 -13.63,13.18 -19.26,20.87 -5.05,6.88 -4.96,9.69 0.85,15.86 10.81,11.39 21.76,22.7 32.66,34 2.5,2.59 4.87,2.95 8.53,1.21 9.2,-4.29 17.38,-10.19 25.2,-16.62 3.22,-2.64 6.26,-5.45 9.34,-8.22 2.77,-2.5 3.53,-5.67 2.5,-9.07 -2.64,-8.62 -7.6,-15.82 -14.07,-21.98 -2.06,-1.92 -4.6,-2.19 -7.33,-1.52 -8.09,2.06 -15.1,6.21 -21.85,10.86 -2.32,1.56 -4.56,3.31 -6.79,5 -1.74,1.34 -2.32,3.04 -1.7,5.09 1.61,5.54 4.38,10.45 7.82,15.06 1.07,1.43 2.5,1.3 3.8,0.54 5.94,-3.35 11.84,-6.79 17.74,-10.23 0.49,-0.27 0.94,-0.67 1.47,-1.03z"/>
  <path class="fil0" d="M1488.29 362.5c-1.61,-4.65 -3.04,-8.8 -4.42,-12.96 -0.45,-1.48 0.58,-2.15 1.7,-2.73 6.21,-3.53 12.46,-6.97 18.63,-10.5 5.14,-2.95 10.19,-5.9 15.19,-8.94 4.42,-2.68 5.18,-5.18 3.08,-9.87 -0.67,-1.56 -1.43,-3.08 -2.32,-4.51 -2.73,-4.33 -6.17,-5.45 -10.9,-3.4 -3.75,1.65 -7.42,3.49 -11.04,5.36 -7.42,3.8 -14.92,7.46 -22.07,11.66 -4.33,2.5 -8.35,5.72 -12.2,8.89 -4.47,3.71 -5.67,8.53 -4.02,14.03 5,16.49 10.86,32.66 18.41,48.21 2.68,5.5 6.34,10.05 11.35,13.72 2.82,2.1 5.63,2.9 9.11,1.83 12.55,-3.76 24.79,-8.31 36.74,-13.55 -1.18,-9.5 -2.47,-19.37 -3.89,-29.54 -9.14,4.79 -18.4,9.4 -27.62,14.05 -0.76,0.36 -1.97,0.76 -2.64,0.45 -0.8,-0.36 -1.43,-1.43 -1.79,-2.32 -0.13,-0.27 0.98,-1.12 1.65,-1.52 8.53,-4.87 17.11,-9.6 25.56,-14.56 1.36,-0.79 2.66,-1.65 3.93,-2.56 -0.96,-6.73 -1.97,-13.59 -3.03,-20.52 -2.73,-2.03 -5.26,-1.95 -9.03,-0.1 -8.53,4.11 -16.49,9.16 -24.04,14.88 -1.88,1.43 -3.84,2.73 -6.34,4.51z"/>
  <path class="fil0" d="M1238.84 473.97c9.19,-3.24 18.53,-5.9 27.71,-9.21 7.95,-2.9 12.29,-6.39 11.66,-14.43 -1.65,-20.46 -7.33,-42.09 -31.23,-48.79 -8.24,-2.33 -16.88,-4.34 -25.52,-6.18 6.19,27.47 12.07,54.13 17.38,78.61z"/>
  <path class="fil0" d="M1246.98 338.77c3.89,-1.07 6.17,-3.04 7.37,-6.3 2.01,-5.27 2.41,-10.23 -1.21,-15.15 -1.7,-2.37 -3.75,-3.66 -6.52,-4.11 -10.14,-1.52 -20.33,-2.99 -30.47,-4.56 -2.06,-0.31 -4.11,-0.76 -6.12,-1.25 -1.34,-0.31 -1.65,-1.12 -1.34,-2.5 0.72,-3.17 1.3,-6.34 1.83,-9.56 0.76,-4.2 -0.45,-7.77 -3.49,-10.9 -4.65,-4.78 -9.02,-9.83 -13.72,-14.57 -0.82,-0.83 -1.42,-1.66 -1.81,-2.51 5.28,21.59 10.62,44.04 15.89,66.64 7.62,1.45 15.2,2.98 22.82,4.37 5.76,1.07 11.53,1.39 16.75,0.4zm-56.03 -73.72c-0.05,-1.01 0.12,-2.09 0.5,-3.3 5.5,-17.69 12.82,-34.63 21.22,-51.11 1.03,-1.97 1.97,-3.98 2.77,-6.03 1.03,-2.55 0.54,-4.87 -1.65,-6.57 -2.77,-2.15 -5.5,-4.33 -8.44,-6.17 -3.93,-2.5 -7.6,-1.79 -10.45,1.88 -1.07,1.39 -1.97,2.95 -2.73,4.56 -3.91,8.24 -7.84,16.47 -11.74,24.71 3.45,13.46 6.97,27.54 10.52,42.04z"/>
  <path class="fil0" d="M1278.97 208.09c-2.1,-4.24 -3.98,-8.58 -6.39,-12.6 -2.77,-4.65 -6.97,-7.82 -12.38,-9.2 -0.58,-0.18 -1.16,-0.31 -1.7,-0.58 -6.66,-3.04 -11.97,-1.03 -16.35,4.11 -2.55,2.99 -4.96,6.3 -6.7,9.87 -8.89,18.36 -15.46,37.53 -18.94,57.68 -1.39,8.04 -1.56,16.13 2.23,23.64 1.56,3.08 3.71,6.08 6.21,8.53 5.5,5.41 12.96,6.43 20.06,3.22 4.96,-2.23 9.11,-5.54 12.78,-9.47 7.77,-8.49 13.67,-18.1 16.76,-29.18 2.1,-7.55 3.89,-15.15 5.63,-22.79 1.74,-7.82 0.04,-15.41 -1.74,-22.97l0.54 -0.27z"/>
  <path class="fil0" d="M1383.07 289.22c-2.5,1.21 -6.61,2.86 -10.41,4.96 -25.56,14.21 -51.02,28.41 -76.49,42.71 -3.57,2.01 -6.93,4.29 -10.32,6.57 -1.47,1.03 -2.9,2.28 -4.16,3.62 -3.44,3.71 -2.55,7.91 2.23,9.74 4.29,1.61 8.67,3.31 13.18,4.16 14.39,2.73 28.77,5.27 43.2,7.55 4.47,0.71 9.16,0.49 13.76,0.31 3.62,-0.13 6.43,-2.01 8.31,-5.14 10.45,-17.38 20.95,-34.72 29.8,-52.9 2.41,-4.96 3.53,-10.05 2.86,-15.5 -0.76,-6.12 -4.16,-8.31 -11.97,-6.08z"/>
  <path class="fil0" d="M1301.84 259.11c-5.05,1.3 -9.2,4.02 -11.93,8.4 -2.95,4.83 -5.72,9.83 -8.13,14.97 -5.59,12.02 -10.01,24.48 -13.63,37.22 -0.89,3.17 -1.52,6.48 -1.7,9.78 -0.31,5.81 3.66,8.76 9.16,6.61 4.47,-1.74 8.8,-3.98 13.05,-6.26 28.77,-15.5 57.55,-31.1 86.32,-46.6 2.41,-1.34 4.92,-2.46 7.33,-3.75 2.01,-1.07 3.44,-4.38 3.04,-6.93 -0.36,-2.14 -1.97,-3.62 -4.69,-4.11 -16.04,-2.86 -32.08,-5.85 -48.16,-8.58 -8.58,-1.43 -17.25,-2.68 -26,-1.56 -1.56,0.22 -3.08,0.54 -4.65,0.8z"/>
  <path class="fil0" d="M1170.92 186.9c0.32,-0.16 0.82,-0.31 1.54,-0.52 2.68,-0.76 5.41,-1.56 7.95,-2.64 2.86,-1.21 3.98,-3.22 3.53,-6.26 -0.67,-4.6 -1.38,-9.2 -2.41,-13.76 -1.03,-4.47 -3.44,-5.81 -8.04,-5 -3.3,0.58 -6.64,1.1 -9.98,1.63 2.39,8.27 4.87,17.15 7.42,26.55zm-11.17 -39.25c4.11,-0.95 8.19,-1.98 12.3,-2.96 4.56,-1.16 5.85,-3.44 4.25,-7.82 -1.47,-3.84 -2.95,-7.68 -4.69,-11.39 -1.88,-3.89 -3.84,-4.83 -8.18,-4.16 -2.9,0.45 -5.76,1.12 -8.58,1.88 -1.38,0.36 -1.92,0 -2.32,-1.3 -0.98,-3.26 -2.01,-6.52 -3.17,-9.74 -0.8,-2.16 -1.81,-3.48 -3.24,-4.11 3.9,9.06 8.52,22.66 13.64,39.6z"/>
  <path class="fil0" d="M1348.4 230.52c8.76,-3.31 17.51,-6.43 26.09,-9.96 9.65,-3.98 15.19,-11.53 18.05,-21.27 3.13,-10.54 2.82,-21.31 1.83,-32.08 -0.18,-1.97 -0.4,-3.98 -0.98,-5.85 -0.85,-2.95 -2.95,-3.49 -5.9,-2.68 -4.78,1.34 -6.43,4.69 -7.37,9.02 -1.39,6.35 -3.17,12.6 -4.78,18.9 -1.83,7.1 -6.39,11.88 -13,14.79 -11.08,4.78 -22.65,7.86 -34.45,10.1 -0.8,0.18 -1.61,0.27 -2.41,0.45 -6.3,1.07 -8.09,0.27 -11.39,-5.18 -5.05,-8.4 -6.79,-17.74 -7.91,-27.21 -0.31,-2.41 -0.4,-4.92 -0.94,-7.24 -1.12,-4.65 -4.87,-5.9 -8.62,-2.99 -2.1,1.65 -4.11,3.4 -6.08,5.23 -3.44,3.26 -5.09,7.33 -4.24,12.02 2.1,11.88 4.96,23.59 10.45,34.45 6.52,12.87 15.01,17.11 29.89,14.48 7.33,-1.25 14.52,-3.26 21.76,-4.96z"/>
  <path class="fil0" d="M1432.62 50.77c-0.67,1.3 -1.12,2.32 -1.74,3.22 -4.83,7.1 -9.74,14.12 -14.57,21.22 -3.08,4.51 -6.12,9.07 -8.94,13.76 -0.71,1.25 -0.98,3.22 -0.54,4.6 1.16,3.49 2.59,6.93 4.29,10.19 2.46,4.6 6.21,5.27 10.01,1.7 4.65,-4.33 9.29,-8.76 13.45,-13.54 7.68,-8.85 15.06,-17.92 22.34,-27.07 0.7,-0.86 1.35,-1.79 1.95,-2.75 -2.69,-6.21 -5.43,-12.04 -8.21,-17.45 -3.94,-7.68 -8.78,-13.48 -14.58,-17.46 -8.01,-3.26 -16.4,-5.34 -25.03,-6.61 -3.57,0.09 -7.42,0.48 -11.68,1.19l-7.24 1.2c-0.12,0.45 -0.21,0.94 -0.27,1.48 -0.58,4.51 -0.85,9.11 -0.94,13.67 -0.04,3.93 1.83,5.72 5.72,6.39 10.9,1.79 21.85,3.66 32.79,5.5 0.94,0.13 1.83,0.45 3.17,0.76z"/>
  <path class="fil0" d="M1524.57 573.02c4.55,-0.46 9.08,-1.02 13.57,-1.74 1.64,-17.5 3.14,-36.15 4.49,-56.03 -1.44,-1.88 -2.91,-3.74 -4.39,-5.59 -2.23,-2.73 -2.99,-2.77 -5.36,-0.13 -1.65,1.83 -3.35,3.66 -4.69,5.72 -11.26,16.98 -21.71,34.4 -30.47,52.81 -0.27,0.49 -0.49,0.98 -0.71,1.52 -1.3,3.35 -0.36,4.65 3.22,4.56 8.13,-0.18 16.26,-0.36 24.39,-0.54l-0.04 -0.58z"/>
  <path class="fil0" d="M1308.23 627.48c3.26,-1.61 6.17,-2.95 8.98,-4.38 2.5,-1.3 5.05,-2.55 7.42,-4.07 3.84,-2.41 5.14,-6.03 2.9,-9.92 -2.41,-4.2 -5.59,-8 -8.44,-11.93 -0.58,-0.8 -1.25,-1.61 -1.97,-2.55 0.94,-0.63 1.65,-1.12 2.37,-1.61 4.92,-3.44 9.96,-6.75 14.79,-10.37 3.84,-2.86 4.11,-5.85 0.98,-9.43 -4.74,-5.36 -9.47,-10.81 -14.48,-15.95 -4.11,-4.24 -7.95,-2.86 -9.69,2.86 -7.55,24.22 -12.51,49.01 -17.69,73.76 -1.79,8.53 -4.29,16.89 -6.26,25.38 -0.8,3.34 -1.53,6.69 -2.24,10.04 2.29,6.65 4.75,13.44 7.36,20.28 3.87,-1.38 7.52,-3.35 11.23,-5.17 2.68,-1.3 3.71,-4.33 2.59,-7.28 -0.85,-2.32 -2.15,-4.51 -3.57,-6.57 -2.1,-3.08 -4.51,-5.99 -7.02,-9.2 0.89,-0.58 1.52,-1.12 2.28,-1.48 5.76,-2.46 11.53,-4.87 17.29,-7.33 0.94,-0.4 1.92,-0.76 2.81,-1.25 2.95,-1.47 4.2,-4.07 3.22,-7.19 -0.54,-1.7 -1.47,-3.4 -2.59,-4.83 -2.68,-3.26 -5.54,-6.34 -8.35,-9.52 -0.58,-0.63 -1.12,-1.34 -1.92,-2.32z"/>
  <path class="fil0" d="M1424.13 737.53c-5.59,-19.35 -21.94,-32.12 -41.64,-33.06 -4.69,-0.22 -9.52,0.27 -14.21,0.89 -4.6,0.54 -6.43,2.81 -6.34,7.33 0.04,3.22 0.22,6.52 0.85,9.65 0.8,3.93 3.44,5.85 7.46,6.12 1.79,0.13 3.57,-0.05 5.36,0.04 7.68,0.4 13.89,3.62 18.32,9.92 2.86,4.07 3.31,8.44 1.25,13 -1.79,4.02 -4.38,7.37 -7.95,9.96 -0.89,0.67 -1.74,1.43 -2.77,1.83 -6.3,2.73 -7.28,7.6 -5.9,13.54 0.63,2.9 1.16,5.81 1.83,8.67 0.8,3.44 5.41,5.94 9.07,4.74 2.1,-0.71 4.16,-1.7 6.03,-2.86 7.01,-4.38 13.45,-9.56 19.17,-15.5 9.74,-10.1 12.24,-22.07 9.47,-34.27z"/>
  <path class="fil0" d="M1351.08 764.11c-4.33,-11.88 -8.67,-23.72 -13.05,-35.56 -2.05,-5.54 -4.07,-11.08 -6.3,-16.58 -3.08,-7.68 -8.94,-12.29 -17.16,-13.49 -5.5,-0.8 -11.13,-1.12 -16.67,-0.94 -0.91,0.02 -1.74,0.1 -2.47,0.23 3.05,7.65 6.3,15.32 9.73,22.92l0.43 -0.01c3.26,-0.13 5.67,1.16 7.1,4.02 1.43,2.82 3.08,5.63 3.89,8.62 1.74,6.66 3.38,13.33 4.99,20.01 7.25,12.9 15.13,24.97 23.6,35.57 1.28,-1.24 2.53,-2.5 3.75,-3.79 4.07,-4.29 4.38,-10.01 3.57,-15.68 -0.27,-1.83 -0.8,-3.57 -1.25,-5.41l-0.18 0.09z"/>
  <path class="fil0" d="M1217.13 120.78c0.71,2.46 1.3,4.38 1.74,6.39l-0.85 1.34c-3.13,0.49 -6.3,0.98 -9.47,1.03 -0.8,0.04 -1.74,-1.47 -2.32,-2.46 -0.18,-0.31 0.31,-1.48 0.76,-1.7 3.17,-1.52 6.43,-2.9 10.14,-4.6zm8.8 2.32l-0.09 0.04c-0.27,-1.07 -0.49,-2.14 -0.89,-3.22 -0.54,-1.38 -0.13,-2.06 1.3,-2.64 6.03,-2.41 6.08,-2.41 8.49,3.48l0.18 0.4c1.65,4.2 1.52,4.47 -2.73,6.03 -4.33,1.56 -4.6,1.43 -5.9,-2.81 -0.09,-0.45 -0.22,-0.85 -0.36,-1.3zm-0.98 24.71c0.4,1.34 0.63,2.1 0.8,2.86 1.25,4.74 2.55,9.43 3.75,14.16 0.85,3.17 2.64,4.69 5.05,4.11 2.32,-0.54 3.31,-2.73 2.59,-5.94 -0.31,-1.34 -0.67,-2.73 -1.03,-4.07 -1.03,-3.84 -2.01,-7.73 -3.17,-11.53 -0.54,-1.7 -0.22,-2.64 1.56,-3.08 3.84,-0.85 7.68,-1.79 11.53,-2.64 2.19,-0.49 3.93,0.31 4.83,2.28 2.1,4.65 4.2,9.25 6.03,13.98 1.21,3.13 1.88,6.39 2.86,9.56 0.22,0.85 0.45,1.74 0.89,2.5 0.94,1.61 2.37,2.5 4.29,2.01 2.06,-0.54 2.77,-2.06 2.81,-4.02l-0.13 -1.07c-2.15,-8.31 -4.47,-16.58 -8.44,-24.26 -0.89,-1.7 -1.97,-3.31 -3.13,-4.83 -2.28,-2.95 -5.41,-4.38 -9.16,-3.98 -2.68,0.27 -5.32,0.67 -7.95,1.21 -2.32,0.49 -4.6,1.34 -6.88,1.88 -0.62,0.13 -1.38,-0.18 -2.05,-0.31 0.49,-0.4 0.94,-0.94 1.52,-1.16 2.1,-0.8 4.29,-1.39 6.3,-2.32 6.08,-2.86 7.46,-5.94 5.23,-12.29 -1.16,-3.22 -2.55,-6.34 -4.29,-9.25 -2.19,-3.66 -5.27,-4.6 -9.38,-3.44 -1.88,0.49 -3.71,1.12 -5.54,1.79 -1.25,0.45 -2.01,0.27 -2.32,-1.07 -0.13,-0.67 -0.36,-1.3 -0.63,-1.92 -0.54,-1.25 -0.04,-1.83 1.21,-2.28 2.55,-0.85 5.05,-1.83 7.55,-2.77 0.4,-0.13 0.85,-0.27 1.25,-0.45 10.19,-4.2 12.91,-10.1 9.34,-20.42 -1.16,-3.31 -2.46,-6.61 -3.71,-9.96 -0.18,-0.45 -0.45,-0.94 -0.71,-1.34 -1.21,-1.79 -3.13,-2.41 -4.83,-1.7 -1.79,0.71 -2.73,2.55 -2.1,4.6 1.03,3.31 2.28,6.52 3.53,9.78 2.86,7.33 1.97,9.38 -5.45,12.24 -2.06,0.8 -4.2,1.47 -6.26,2.32 -1.7,0.76 -2.55,0.4 -3.04,-1.43 -1.74,-6.21 -3.57,-12.38 -5.36,-18.54 -0.31,-0.98 -0.58,-2.01 -1.07,-2.86 -0.94,-1.65 -2.41,-2.46 -4.33,-1.97 -1.92,0.54 -2.77,2.01 -2.73,3.84 0,1.03 0.31,2.06 0.58,3.04 1.79,6.17 3.48,12.38 5.41,18.5 0.54,1.88 0.22,2.77 -1.79,3.08 -3.17,0.49 -6.3,1.12 -9.43,1.74 -2.01,0.4 -2.77,-0.94 -3.26,-2.32 -1.7,-4.65 -3.22,-9.34 -4.78,-14.03 -0.4,-1.16 -0.63,-2.46 -1.21,-3.58 -0.94,-1.92 -2.77,-2.77 -4.56,-2.14 -2.01,0.67 -2.9,2.23 -2.55,4.16 1.47,7.42 3.44,14.7 7.33,21.27 2.72,4.56 7.01,5.72 12.2,4.16 3.08,-0.89 6.26,-1.43 9.38,-2.01 0.49,-0.09 1.43,0.45 1.65,0.89 2.1,4.11 1.92,4.42 -2.28,6.26 -2.77,1.25 -5.63,2.41 -8.31,3.84 -4.69,2.46 -5.9,6.08 -3.8,10.95 0.49,1.07 1.03,2.14 1.61,3.17 1.7,3.17 4.38,4.74 8.04,4.42 3.22,-0.27 6.39,-0.67 9.56,-0.98 2.64,-0.31 3.8,0.36 4.42,2.28 0.36,1.21 0.05,1.83 -1.07,2.46 -2.95,1.56 -5.9,3.17 -8.71,4.96 -6.17,4.02 -8.94,9.65 -7.33,16.93 1.07,4.78 2.41,9.56 3.8,14.3 0.85,2.77 3.08,3.93 5.27,3.22 2.1,-0.71 2.86,-2.77 2.15,-5.54 -1.21,-4.65 -2.46,-9.29 -3.57,-13.94 -0.76,-3.31 0.45,-5.99 3.26,-7.86 2.73,-1.83 5.59,-3.48 8.76,-5.45z"/>
  <path class="fil0" d="M1400.85 270.99c-0.85,-4.42 -2.64,-12.2 -3.8,-20.06 -1.52,-10.32 0.09,-13.09 9.43,-18.1 7.64,-4.11 15.77,-7.01 24.08,-9.47 11.97,-3.53 24.3,-5.32 36.77,-5.94 2.68,-0.13 5.54,0.76 8.18,1.56 0.98,0.31 1.79,1.65 2.41,2.68 0.72,1.25 1.07,2.73 1.74,4.02 2.77,5.23 5.99,10.28 8.22,15.73 5.59,13.58 10.72,27.34 16.04,41.01 0.13,0.4 0.22,0.85 0.36,1.3 0.71,2.41 0.13,4.38 -2.14,5.67 -3.49,2.01 -6.79,4.38 -10.45,5.9 -13.98,5.85 -28.06,11.62 -42.22,17.07 -5.72,2.23 -11.71,3.93 -17.69,5.41 -4.51,1.16 -8.67,-0.4 -11.66,-3.93 -2.5,-2.99 -4.87,-6.21 -6.75,-9.61 -5.18,-9.43 -8.49,-19.66 -12.51,-33.24zm-7.82 1.16c4.47,14.97 7.95,25.56 13.27,35.43 1.65,3.13 3.62,6.12 5.76,8.94 6.26,8.22 14.52,11.13 24.48,8.27 6.88,-1.97 13.63,-4.33 20.28,-6.93 12.82,-5 25.56,-10.19 38.2,-15.59 4.2,-1.79 8.13,-4.38 11.97,-6.88 4.29,-2.73 6.17,-6.75 5.18,-11.79 -0.71,-3.66 -1.25,-7.46 -2.64,-10.9 -5.94,-15.06 -12.15,-29.98 -18.41,-44.9 -1.07,-2.64 -2.59,-5.14 -4.02,-7.64 -4.33,-7.42 -10.95,-11.12 -19.48,-10.45 -8.67,0.67 -17.38,1.61 -25.96,3.17 -13.63,2.41 -26.67,6.79 -38.96,13.18 -0.67,0.36 -1.3,0.76 -1.97,1.07 -9.11,4.91 -13.54,12.2 -11.75,22.61 1.52,8.94 3.22,17.87 4.02,22.43z"/>
  <path class="fil0" d="M1317.79 106.53c2.37,1.52 4.29,2.81 6.25,3.98 3.66,2.23 7.28,4.6 11.13,6.52 4.83,2.37 8.09,1.07 10.36,-3.75 1.7,-3.62 3.31,-7.28 5,-10.9 0.36,-0.76 0.8,-1.52 1.34,-2.55 0.98,0.58 1.74,1.12 2.55,1.56 3.49,1.97 6.84,4.24 10.5,5.85 6.12,2.59 10.68,1.21 13.89,-4.51 2.59,-4.6 4.47,-9.6 6.61,-14.48 0.31,-0.63 0.36,-1.43 0.4,-2.14 0.13,-4.11 -2.77,-6.21 -6.75,-5.14 -9.29,2.41 -18.5,5.23 -27.92,6.97 -20.95,3.98 -42,7.37 -63,10.95 -3.04,0.54 -6.21,0.58 -9.25,1.21 -3.53,0.71 -7.02,1.83 -10.5,2.9 -3.17,1.03 -4.6,3.13 -3.84,6.3 1.25,5.54 2.55,11.08 4.38,16.44 1.83,5.45 6.43,6.17 10.23,1.79 3.48,-4.07 6.66,-8.31 10.01,-12.46 0.76,-0.98 1.52,-1.97 2.46,-3.13 0.89,0.8 1.61,1.39 2.28,2.01 3.17,2.95 6.3,5.85 9.47,8.8 0.72,0.63 1.47,1.25 2.32,1.74 3.57,2.28 7.01,1.07 8.18,-2.95 0.89,-3.22 1.52,-6.48 2.32,-9.69 0.45,-1.65 0.98,-3.22 1.56,-5.32z"/>
  <path class="fil0" d="M1474.44 480.18c1.16,2.73 2.1,5.59 3.58,8.13 1.92,3.31 4.87,3.75 9.43,1.92 3.13,-1.25 6.26,-2.59 9.34,-4.02 9.47,-4.42 18.99,-8.8 28.37,-13.36 2.19,-1.07 4.07,-2.68 5.81,-4.2 1.7,-1.56 1.52,-3.26 -0.27,-4.38 -1.43,-0.89 -3.08,-1.7 -4.83,-2.28 -12.33,-4.16 -24.71,-8.22 -37.04,-12.29 -0.94,-0.31 -1.97,-0.49 -2.9,-0.8 -6.43,-2.01 -13.63,1.07 -13.45,7.91 0.13,7.86 0.36,15.68 1.97,23.37z"/>
  <path class="fil0" d="M1219.31 385.87c7.58,1.87 15.25,3.33 23.11,3.97 2.95,0.22 5.99,-0.09 8.89,-0.58 4.65,-0.76 6.93,-3.49 7.42,-8.09 0.45,-3.98 0.89,-7.95 1.43,-11.88 0.54,-4.56 -0.36,-5.45 -4.56,-7.46 -9.02,-4.24 -18.63,-6.61 -28.15,-9.25 -5.51,-1.57 -11.1,-2.91 -16.7,-4.13 2.89,12.52 5.75,25.03 8.56,37.42z"/>
  <path class="fil0" d="M1307.04 37.15l0.12 1.56c0.09,1.16 -0.27,2.5 -0.85,3.49 -1.61,2.68 -3.49,5.18 -5.18,7.77 -0.72,1.12 -1.43,2.23 -1.92,3.49 -1.52,3.57 -0.04,6.52 3.8,7.42 4.51,0.98 9.02,1.83 13.58,2.59 1.7,0.22 2.1,0.85 2.23,2.46 0.4,4.29 0.98,8.53 1.83,12.69 0.8,3.93 5.41,5.59 8.62,3.22 4.29,-3.17 8.53,-6.43 12.64,-9.83 3.4,-2.81 3.13,-7.01 -0.94,-8.8 -3.98,-1.7 -8.31,-2.64 -12.55,-3.66 -1.7,-0.4 -2.59,-0.94 -3.31,-2.64 -1.74,-4.2 -3.84,-8.31 -5.99,-12.33 -0.85,-1.56 -0.85,-2.46 0.49,-3.8 2.19,-2.19 4.31,-4.45 6.37,-6.77l-18.95 3.15z"/>
  <path class="fil0" d="M1311.98 430.54c-1.65,2.5 -3.04,4.83 -4.69,7.02 -2.23,2.95 -4.6,5.76 -6.93,8.67 -0.67,0.85 -1.34,1.79 -1.88,2.73 -2.64,4.56 -1.56,8.35 3.4,10.14 5.67,2.06 11.53,3.57 17.25,5.32 1.74,0.54 3.44,1.12 5.09,1.7 1.38,0.49 1.65,1.34 0.8,2.55 -2.5,3.66 -4.96,7.37 -7.51,10.99 -2.01,2.9 -4.33,5.63 -6.17,8.67 -3.08,5.05 -1.43,8.67 4.38,9.96 4.07,0.89 8.22,1.39 12.29,2.28 2.5,0.58 4.87,1.52 7.33,2.28l0.27 0.85c-0.4,0.4 -0.8,0.85 -1.21,1.3 -4.47,5.18 -8.94,10.45 -13.4,15.64 -1.25,1.43 -1.74,2.95 -0.8,4.65 0.89,1.61 3.04,2.46 4.87,1.61 1.3,-0.63 2.59,-1.52 3.53,-2.59 4.51,-5.41 9.02,-10.81 13.31,-16.4 2.77,-3.62 2.28,-7.64 -1.43,-10.32 -2.32,-1.7 -5.14,-2.95 -7.95,-3.84 -3.08,-0.98 -6.39,-1.25 -9.61,-1.88 -1.21,-0.22 -2.46,-0.54 -4.02,-0.85 0.85,-1.25 1.52,-2.19 2.15,-3.13 3.57,-5.09 7.42,-10.01 10.68,-15.28 3.93,-6.39 2.37,-10.86 -4.69,-13.67 -3.75,-1.52 -7.82,-2.32 -11.75,-3.49 -3.13,-0.94 -6.21,-1.88 -9.74,-2.95 0.76,-1.03 1.21,-1.74 1.7,-2.41 2.59,-3.26 5.18,-6.48 7.68,-9.78 1.25,-1.65 2.32,-3.44 3.31,-5.27 3.49,-6.39 2.1,-10.14 -4.87,-12.38 -4.6,-1.47 -9.29,-2.59 -13.98,-3.84 -0.89,-0.27 -1.83,-0.54 -2.99,-0.85 1.74,-3.26 3.44,-6.3 5.01,-9.38 1.47,-2.9 2.99,-5.76 4.15,-8.8 1.74,-4.6 0.27,-7.91 -4.47,-9.38 -4.16,-1.34 -8.53,-2.1 -12.82,-2.99 -2.55,-0.54 -5.14,-0.85 -7.73,-1.21 -3.53,-0.54 -5.67,0.49 -6.08,2.86 -0.45,2.37 1.3,4.07 4.74,4.69 5.45,0.98 10.86,1.97 16.26,2.95 0.8,0.13 1.56,0.45 2.68,0.76 -0.58,1.43 -1.03,2.64 -1.65,3.75 -2.32,4.47 -4.74,8.85 -7.15,13.31 -0.49,0.89 -1.03,1.79 -1.39,2.72 -1.39,3.44 -0.13,6.26 3.4,7.37 3.13,0.98 6.35,1.61 9.52,2.46 3.22,0.89 6.43,1.83 9.65,2.77 0.36,0.09 0.67,0.31 1.47,0.71z"/>
  <path class="fil0" d="M1425.11 192.05c0.04,-4.16 0.18,-7.6 0.09,-11.04 -0.18,-9.92 -0.18,-19.88 -0.67,-29.8 -0.4,-7.28 -2.81,-8.71 -9.92,-6.79 -6.17,1.65 -7.91,4.11 -7.46,10.37 1.07,14.39 3.22,28.59 6.35,42.62 0.54,2.32 1.47,4.69 2.64,6.75 1.83,3.17 4.87,4.74 8.53,4.11 2.95,-0.54 5.9,-1.47 8.67,-2.68 10.5,-4.65 19.3,-11.88 28.28,-18.81 3.48,-2.68 6.88,-5.41 10.23,-8.27 4.33,-3.75 2.99,-9.92 -2.59,-11.75 -3.04,-1.03 -6.03,-0.89 -8.71,1.03 -3.26,2.37 -6.34,4.91 -9.61,7.24 -7.28,5.14 -14.61,10.14 -21.98,15.19 -0.94,0.63 -2.06,0.98 -3.84,1.83z"/>
  <path class="fil0" d="M1522.06 663.63c1.72,-0.95 3.27,-1.73 4.69,-2.48 1.26,-7.38 2.46,-15.08 3.61,-23.1 -4.47,3.28 -8.57,6.38 -12.37,9.37 -2.06,1.56 -3.98,3.35 -5.76,5.18 -1.83,1.92 -1.74,3.13 0.05,4.96 1.65,1.61 3.22,3.35 5.14,4.6 1.38,0.89 3.31,1.07 4.65,1.47z"/>
  <path class="fil0" d="M1265.47 486.84l-0.09 0.05c-0.8,-1.48 -1.61,-2.95 -2.46,-4.33 -0.49,-0.8 -0.31,-1.21 0.45,-1.61 1.03,-0.54 1.92,-1.21 2.9,-1.79 2.77,-1.7 5.54,-3.49 8.4,-5.05 2.28,-1.25 2.46,-1.16 4.16,0.72 2.28,2.55 4.51,5.05 6.66,7.64 1.74,2.19 3.48,4.42 5,6.75 1.3,1.97 1.12,3.04 -0.67,4.29 -3.89,2.81 -8.22,4.91 -12.96,6.08 -1.3,0.31 -2.32,-0.04 -3.17,-0.98 -0.36,-0.4 -0.71,-0.8 -1.03,-1.25 -2.41,-3.49 -4.83,-6.97 -7.19,-10.5zm-3.8 1.3c2.95,4.25 5.5,8 8.09,11.71 0.45,0.63 0.94,1.12 1.47,1.65 1.65,1.7 3.62,2.28 5.99,1.88 3.26,-0.58 6.3,-1.88 9.2,-3.4 2.14,-1.16 4.29,-2.37 6.17,-3.84 2.73,-2.14 3.31,-4.56 1.79,-7.64 -0.98,-2.01 -2.32,-3.93 -3.75,-5.72 -2.99,-3.66 -6.17,-7.24 -9.29,-10.86 -0.58,-0.67 -1.3,-1.25 -2.01,-1.74 -1.56,-1.03 -3.26,-1.03 -4.83,-0.18 -3.57,1.97 -7.06,4.07 -10.59,6.12 -1.07,0.67 -2.1,1.38 -3.26,2.01 -2.64,1.43 -2.86,2.1 -1.52,5.32 0.76,1.83 1.92,3.49 2.55,4.69z"/>
  <path class="fil0" d="M1543.17 482.25c0.26,5.88 0.37,11.06 0.35,15.49 -1.34,-1.82 -2.68,-3.64 -4.03,-5.45 -1.73,-3.97 -1.42,-9 3.68,-10.04z"/>
  <path class="fil0" d="M1530.89 634.35l-14.32 7.12c-2.5,1.25 -5,2.59 -7.42,4.07 -2.5,1.56 -2.64,2.73 -0.8,5 0.94,1.12 1.88,2.28 3.04,3.22 1.83,1.47 3.93,1.12 5.9,0.27l11.43 -4.92c0.75,-4.79 1.47,-9.71 2.18,-14.75z"/>
  <path class="fil0" d="M1520.63 436.48c1.7,-0.63 2.95,-1.25 4.33,-1.61 4.72,-1.16 9.42,-2.41 14.17,-3.5 -0.27,-2.61 -0.56,-5.27 -0.85,-7.96 -2.36,0.47 -4.7,0.95 -7.02,1.41 -4.38,1.43 -8.67,2.77 -12.87,4.2 -1.21,0.4 -2.37,0.98 -3.4,1.7 -3.98,2.68 -4.47,6.97 -1.07,10.37 1.61,1.61 3.49,2.99 5.36,4.33 7.52,5.39 15.05,10.78 22.6,16.16 -0.26,-3.37 -0.54,-6.85 -0.86,-10.47l-20.4 -14.63z"/>
  <path class="fil0" d="M1267.49 609.25c-0.3,-0.71 -0.52,-1.19 -0.69,-1.58 0.69,2.88 1.46,5.94 2.28,9.14 0.62,-0.17 1.25,-0.44 1.89,-0.81 8.22,-4.83 15.19,-10.86 20.64,-18.63 3.17,-4.51 4.16,-9.52 3.4,-14.92 -0.98,-7.24 -3.49,-14.03 -7.02,-20.42 -3.53,-6.35 -7.64,-8.49 -14.65,-6.43 -5.45,1.63 -10.73,3.8 -15.96,6.07l1.4 6.89 0.15 0.75c5.26,-2.11 10.5,-4.3 15.89,-6.11 3.44,-1.16 4.65,-0.49 6.35,2.68 2.99,5.5 5.23,11.26 6.08,17.47 0.54,3.84 -0.13,7.42 -2.68,10.41 -2.59,3.04 -5.14,6.17 -8.09,8.85 -2.64,2.41 -5.76,4.29 -8.98,6.66z"/>
  <path class="fil0" d="M1362.56 46.26c0.67,-0.85 1.56,-1.74 2.28,-2.73 1.25,-1.83 2.68,-3.57 3.62,-5.54 1.93,-4.05 2.11,-7.94 0.74,-11.2l-8.48 1.41c0.46,0.47 0.86,1.05 1.17,1.74 1.38,3.17 -0.8,5.81 -2.73,8.18 -1.97,2.41 -4.16,4.6 -6.26,6.93 -1.39,1.56 -2.41,3.22 -1.65,5.41 0.8,2.19 2.73,2.64 4.74,3.13 3.35,0.89 6.84,1.7 9.92,3.13 3.26,1.52 3.48,3.84 1.34,6.7 -2.37,3.08 -5.45,5 -9.2,5.94 -0.8,0.18 -1.61,0.31 -2.37,0.58 -2.06,0.72 -3.17,2.37 -2.86,4.2 0.36,1.79 1.97,3.08 4.07,3.17 7.33,0.27 17.51,-7.33 19.21,-14.39 1.07,-4.6 -0.09,-8.62 -4.02,-11.39 -2.86,-2.01 -6.17,-3.44 -9.52,-5.27z"/>
  <path class="fil0" d="M1178.43 61.6c8.88,-3.22 19.49,-5.97 31.87,-8.28 -7.42,4.33 -15.39,7.57 -23.68,10.1 -3.6,1.13 -6.38,0.44 -8.19,-1.82z"/>
  <path class="fil0" d="M1526.58 662.16c-2.16,0.95 -2.25,1.85 -1.08,4.24l0.25 0.52c0.28,-1.57 0.55,-3.16 0.83,-4.76z"/>
  <path class="fil0" d="M1376.23 381.08c-17.92,5.9 -34.58,12.91 -50.76,20.95 -3.31,1.61 -4.16,3.98 -2.99,7.33 1.16,3.4 3.84,5.27 7.19,4.51 3.17,-0.76 6.3,-1.88 9.34,-3.08 18.01,-7.24 36.01,-14.52 54.02,-21.8 1.07,-0.45 2.32,-0.89 3.04,-1.74 0.72,-0.85 1.25,-2.23 1.16,-3.35 -0.31,-2.99 -4.47,-6.3 -7.55,-5.76 -4.78,0.8 -9.47,2.06 -13.45,2.95z"/>
  <path class="fil0" d="M1366.36 547.38l-0.18 -0.67c-1.74,-9.25 0.09,-18.18 2.32,-27.07 0.18,-0.63 1.38,-1.3 2.14,-1.34 1.07,-0.04 2.23,0.31 3.22,0.76 7.42,3.4 14.3,7.6 20.15,13.31 3.4,3.31 3.31,3.4 -0.54,6.03 -0.49,0.31 -0.94,0.76 -1.43,1.03 -6.61,3.71 -13.13,7.55 -19.88,10.95 -3.71,1.83 -4.78,0.98 -5.81,-2.99zm-7.55 2.37c0.45,1.21 0.8,2.41 1.38,3.53 2.19,4.51 6.08,6.57 10.99,5.41 2.99,-0.72 6.03,-1.79 8.76,-3.22 6.34,-3.4 12.64,-6.93 18.72,-10.77 2.23,-1.39 3.98,-3.71 5.54,-5.9 1.56,-2.14 1.21,-4.65 -0.36,-6.66 -2.06,-2.68 -4.11,-5.59 -6.79,-7.55 -5.72,-4.2 -11.75,-8.04 -17.92,-11.62 -2.41,-1.43 -5.41,-2.1 -8.22,-2.5 -4.42,-0.58 -8.18,1.39 -9.34,5.27 -3.26,10.72 -5.23,21.67 -2.95,32.93l0.27 1.07 -0.09 0z"/>
  <path class="fil0" d="M1381.73 401.41c-12.51,4.51 -25.06,8.94 -37.58,13.54 -2.86,1.03 -5.54,2.5 -8.31,3.84 -3.57,1.7 -4.87,3.53 -4.38,6.12 0.58,3.08 3.75,6.17 6.93,6.3 1.65,0.09 3.48,-0.13 5,-0.71 6.66,-2.41 13.22,-4.96 19.84,-7.51 11.84,-4.65 23.68,-9.29 35.52,-13.89 3.17,-1.25 3.84,-2.41 3.66,-6.88 -0.13,-2.28 -1.48,-4.07 -4.11,-4.56 -1.61,-0.31 -3.49,-0.27 -5.05,0.18 -3.84,1.07 -7.64,2.46 -11.44,3.71l-0.09 -0.13z"/>
  <path class="fil0" d="M1472.65 125.34c1.12,5.72 1.12,8.89 -0.45,12.33 -1.92,4.33 -5.18,6.3 -9.87,5.9 -4.24,-0.36 -8.22,-1.07 -11.53,-4.38 -2.41,-2.37 -4.33,-4.87 -4.91,-8 -1.39,-7.6 1.65,-12.6 9.34,-16.49 4.87,-2.46 9.43,-1.79 12.78,2.46 1.92,2.46 3.13,5.45 4.65,8.18z"/>
  <path class="fil0" d="M1351.7 617.88c-1.56,-8.4 -1.61,-17.2 -0.13,-26 0.85,-5 2.5,-5.72 7.01,-3.13 6.48,3.71 11.79,8.94 16.98,14.21 0.4,0.4 0.31,1.92 -0.09,2.37 -1.92,2.06 -3.89,4.11 -6.12,5.76 -4.33,3.26 -8.85,6.3 -13.31,9.29 -2.95,2.01 -3.22,1.83 -4.11,-1.65 -0.05,-0.18 -0.09,-0.31 -0.22,-0.85zm-7.33 3.26c0.54,1.25 1.16,3.26 2.19,5 2.1,3.71 5.63,4.78 9.56,3.08 1.56,-0.67 3.04,-1.52 4.47,-2.5 5.99,-4.2 12.02,-8.44 17.96,-12.73 2.73,-2.01 4.83,-4.56 5.76,-7.91 0.67,-2.41 0.45,-4.6 -1.25,-6.43 -5.99,-6.61 -12.42,-12.73 -20.15,-17.34 -2.01,-1.21 -4.33,-2.06 -6.61,-2.55 -4.51,-1.03 -8.31,0.85 -10.45,4.92 -0.8,1.52 -1.47,3.26 -1.79,4.96 -1.88,10.28 -1.79,20.55 0.31,31.5z"/>
  <path class="fil0" d="M1145.73 86.17c0.41,-0.93 0.87,-1.84 1.39,-2.74 3.36,-5.83 8.99,-10.95 16.97,-15.42 1.51,2.93 0.35,6.26 -3.17,8.22 -5,2.72 -9.78,5.85 -14.65,8.8l0.31 0.49 -0.86 0.64z"/>
  <path class="fil0" d="M1334.77 649.24c2.59,0.04 5.23,-0.31 7.73,0.09 9.07,1.43 13.22,9.78 9.11,17.96l-0.85 1.03c-3.13,1.79 -6.08,4.15 -9.47,5.23 -6.79,2.1 -13.58,-1.97 -15.37,-8.58 -1.97,-7.51 1.3,-13.22 8.85,-15.73zm-2.1 -7.02c-11.97,3.31 -17.78,13.85 -14.12,25.47 3.49,11.12 15.5,16.89 26.76,12.87 5.94,-2.15 17.38,-8.94 16.98,-16.49 -0.45,-8.13 -4.78,-17.34 -12.6,-20.69 -5.5,-2.37 -11.21,-2.77 -17.02,-1.16z"/>
  <path class="fil0" d="M1424.52 829.32c-0.24,-0.52 -0.52,-1.06 -0.83,-1.63 -0.63,-1.12 -1.25,-2.46 -2.14,-3.22 -1.03,-0.85 -2.46,-1.7 -3.53,-1.52 -7.91,1.24 -15.79,2.57 -23.68,3.98 4.53,1.48 9.16,2.5 13.9,2.94l0 0c3.48,0.36 7.01,0.36 10.54,0.09 1.95,-0.15 3.87,-0.37 5.75,-0.65z"/>
  <path class="fil0" d="M1319.8 184.05c1.39,3.35 2.5,6.79 4.16,10.01 2.32,4.56 6.34,6.43 11.21,4.83 7.1,-2.32 14.25,-4.78 21.04,-8 8.4,-3.93 10.5,-11.57 6.3,-19.93 -0.98,-1.92 -2.46,-3.22 -4.78,-2.95 -2.19,0.27 -2.9,1.83 -3.35,3.84 -0.63,3.08 -1.43,6.17 -2.37,9.16 -0.27,0.85 -1.16,1.83 -1.97,2.01 -4.47,1.16 -9.02,2.1 -13.49,3.13 -1.79,0.4 -2.81,-0.22 -3.31,-1.97 -1.16,-3.89 -2.46,-7.73 -3.53,-11.62 -0.8,-2.9 -3.17,-4.2 -5.99,-3.04 -4.6,1.88 -6.17,4.96 -4.96,9.69 0.45,1.61 0.89,3.13 1.34,4.69l-0.31 0.13z"/>
  <path class="fil0" d="M1476.72 423.21c-1.21,-2.37 -2.77,-5.09 -3.89,-7.95 -4.2,-10.81 -8.13,-21.71 -12.38,-32.48 -4.24,-11.03 -8.67,-21.98 -13.13,-32.93 -0.63,-1.61 -1.65,-3.17 -2.82,-4.47 -1.43,-1.65 -3.71,-1.74 -5.27,-0.58 -1.48,1.16 -1.61,2.9 -0.76,5 5.59,13.67 11.35,27.25 16.53,41.06 4.38,11.53 8.09,23.32 13.94,34.22 0.31,0.58 0.63,1.21 0.98,1.79 1.3,2.01 3.26,2.72 5.09,1.88 1.83,-0.8 2.55,-2.81 1.7,-5.54z"/>
  <path class="fil0" d="M1437 428.62c-2.46,-5.5 -4.92,-11.03 -7.37,-16.58 -7.64,-17.38 -15.28,-34.72 -22.97,-52.1 -0.89,-1.92 -1.88,-3.84 -2.95,-5.72 -0.45,-0.8 -0.98,-1.65 -1.7,-2.28 -1.38,-1.3 -3.04,-1.65 -4.69,-0.58 -1.65,1.07 -2.01,2.73 -1.39,4.47 0.45,1.25 1.21,2.37 1.74,3.62 7.86,17.65 15.73,35.3 23.64,52.99 2.5,5.67 5.05,11.3 7.6,16.98 0.45,0.98 1.03,1.97 1.74,2.82 1.34,1.65 3.35,2.06 4.96,1.16 1.65,-0.89 2.23,-2.73 1.39,-4.78z"/>
  <path class="fil0" d="M1264.01 44.31c-2.16,1.95 -2.19,4.81 -0.95,9.99 0.45,1.79 0.98,3.57 1.7,5.27 1.43,3.4 4.29,5.14 7.86,4.38 3.98,-0.85 7.91,-2.06 11.79,-3.31 1.88,-0.58 2.99,-2.19 2.95,-4.07 0,-2.23 -0.27,-4.51 -0.85,-6.7 -0.58,-2.19 -1.65,-4.25 -2.5,-6.39 -0.37,-0.95 -0.87,-1.72 -1.5,-2.26l-18.5 3.08z"/>
  <path class="fil0" d="M1274.19 85.44l0.18 0.63c2.19,7.82 5.23,9.25 12.78,5.99 0.63,-0.27 1.21,-0.58 1.79,-0.89 6.26,-3.48 7.68,-6.57 6.03,-13.49 -0.4,-1.7 -0.89,-3.44 -1.56,-5.09 -1.12,-2.82 -3.08,-4.25 -6.08,-3.8 -3.35,0.49 -6.7,1.39 -9.87,2.55 -2.46,0.85 -4.74,6.3 -4.29,9.38 0.22,1.56 0.67,3.17 0.98,4.74l0.04 0z"/>
  <path class="fil0" d="M1414.48 459.72c0.58,1.25 1.07,2.64 1.79,3.89 1.79,3.08 4.74,4.6 8.13,3.44 4.87,-1.7 9.74,-3.62 14.3,-6.03 4.33,-2.32 4.11,-8 -0.31,-9.96 -4.42,-2.01 -8.98,-4.02 -13.72,-5.14 -7.55,-1.74 -11.35,1.83 -10.77,9.52 0.09,1.39 0.4,2.77 0.58,4.29z"/>
  <path class="fil0" d="M1363.28 246.91c-0.4,-1.56 0.63,-3.13 2.5,-3.53 1.38,-0.31 2.73,-0.27 3.31,1.34 0.54,1.47 -0.89,4.24 -2.23,4.51 -1.48,0.31 -3.17,-0.76 -3.58,-2.32zm0.22 -10.99c-5.94,1.7 -9.47,7.42 -7.91,13 1.74,6.3 8.04,9.56 14.65,7.64 6.08,-1.79 8.53,-7.19 6.43,-14.25 -1.52,-5.23 -7.37,-8.04 -13.18,-6.39z"/>
  <path class="fil0" d="M1375.12 664.03c1.61,5.59 6.75,8.58 12.02,7.02 5.09,-1.48 8.62,-7.19 7.37,-11.84 -1.3,-4.65 -8.4,-8.18 -13.58,-6.7 -4.83,1.39 -7.33,6.35 -5.81,11.53z"/>
  <path class="fil0" d="M1364.93 749.68c1.61,5.54 6.75,8.53 12.02,7.02 5.09,-1.47 8.62,-7.24 7.37,-11.88 -1.3,-4.65 -8.4,-8.13 -13.58,-6.66 -4.83,1.34 -7.33,6.3 -5.81,11.53z"/>
  <path class="fil0" d="M1343.93 452.03c1.43,5.18 6.61,8.09 11.79,6.7 5.81,-1.52 8.44,-6.52 6.7,-12.6 -1.34,-4.78 -6.88,-8 -11.53,-6.7 -5.27,1.43 -8.49,7.24 -6.97,12.6z"/>
  <path class="fil0" d="M1329.54 138.21c-1.34,0.36 -2.77,0.58 -4.02,1.12 -2.77,1.21 -3.84,3.71 -2.59,6.39 0.98,1.97 2.19,3.84 3.49,5.59 1.56,2.06 3.8,2.55 6.21,1.88 1.16,-0.31 2.23,-0.8 3.35,-1.21 6.17,-2.19 7.6,-8.27 3.13,-13.13 -1.3,-1.43 -2.86,-2.06 -4.78,-1.74 -1.61,0.22 -3.22,0.63 -4.78,0.94l0 0.18z"/>
  <path class="fil0" d="M1377.89 127.98c-1.88,0.8 -3.8,1.43 -5.5,2.41 -2.77,1.56 -3.4,3.66 -2.46,7.02 1.07,3.93 2.77,5.72 5.94,5.54 3.04,-0.13 6.08,-0.63 9.02,-1.3 2.68,-0.58 4.29,-3.84 3.75,-6.93 -0.27,-1.47 -0.76,-2.86 -1.3,-4.24 -1.07,-2.55 -2.95,-3.57 -5.72,-3.13 -1.25,0.18 -2.46,0.54 -3.71,0.8l-0.04 -0.18z"/>
  <path class="fil0" d="M1289.33 162.07c6.84,-1.21 8,-7.86 5.54,-12.02 -1.25,-2.14 -2.99,-3.35 -5.45,-3.08 -2.37,0.27 -4.74,0.67 -7.01,1.3 -3.17,0.94 -4.42,3.4 -3.53,6.57 0.31,1.03 0.67,1.97 1.07,2.9 2.1,4.78 4.42,5.81 9.38,4.33z"/>
  <path class="fil0" d="M1307.16 142.23c-0.67,0.18 -0.8,0.22 -0.94,0.27 -3.04,0.85 -6.26,1.61 -6.75,5.45 -0.36,2.73 2.95,8 5.81,9.07 1.3,0.49 2.9,0.36 4.33,0.27 0.89,-0.09 1.79,-0.67 2.68,-1.03 2.1,-0.94 4.65,-1.56 4.87,-4.29 0.22,-3.31 -0.27,-6.61 -2.77,-8.98 -0.98,-0.94 -2.81,-1.16 -4.29,-1.3 -1.12,-0.09 -2.32,0.4 -2.95,0.54z"/>
  <path class="fil0" d="M1357.51 146.7c0.8,-0.27 1.61,-0.49 2.37,-0.76 4.92,-1.83 6.43,-7.82 2.82,-11.57 -0.8,-0.85 -2.28,-1.65 -3.31,-1.52 -2.95,0.45 -5.99,1.16 -8.76,2.23 -2.32,0.94 -2.99,3.08 -2.46,5.59 0.09,0.45 0.22,0.85 0.36,1.3 1.56,5.14 3.84,6.3 8.98,4.74z"/>
  <path class="fil0" d="M1395.09 642c0.89,3.08 4.11,4.65 7.51,3.66 3.22,-0.98 4.56,-3.89 3.44,-7.51 -0.85,-2.86 -3.89,-4.29 -7.01,-3.35 -3.13,0.94 -4.87,4.11 -3.93,7.19z"/>
  <path class="fil0" d="M1440.17 401.59c3.44,-0.94 4.96,-4.11 3.49,-7.24 -0.85,-1.88 -2.68,-2.86 -4.51,-2.41 -4.42,1.12 -6.52,2.9 -6.3,5.41 0.31,3.08 3.93,5.18 7.33,4.24z"/>
  <path class="fil0" d="M1363.14 691.51c2.77,-0.8 4.38,-3.44 3.62,-5.9 -0.8,-2.5 -3.71,-3.89 -6.52,-3.08 -2.68,0.76 -4.2,3.26 -3.48,5.76 0.71,2.59 3.57,4.07 6.39,3.22z"/>
  <path class="fil0" d="M1445.22 416.78c-2.77,0.76 -4.11,2.64 -3.4,4.96 0.76,2.59 3.71,4.11 6.43,3.31 2.64,-0.76 4.15,-3.13 3.53,-5.54 -0.72,-2.64 -3.17,-3.66 -6.57,-2.73z"/>
  <path class="fil0" d="M1343.71 175.2c1.3,-1.16 2.77,-2.15 3.8,-3.53 1.07,-1.3 0.89,-2.95 -0.22,-4.29 -1.12,-1.38 -2.59,-1.65 -4.25,-1.07 -0.89,0.31 -1.79,0.67 -2.68,1.07 -2.15,1.07 -2.95,3.08 -2.15,5.18 0.85,1.97 2.95,2.95 5.5,2.64z"/>
  <path class="fil0" d="M1429.49 369.91c-2.01,0.58 -3.08,2.5 -2.5,4.47 0.72,2.73 3.84,4.69 6.3,4.02 2.41,-0.67 3.93,-3.17 3.26,-5.5 -0.67,-2.46 -3.98,-3.84 -7.06,-2.99z"/>
  <path class="fil0" d="M1428.6 353.69c-0.71,-2.32 -3.17,-3.57 -5.5,-2.86 -2.23,0.71 -3.48,3.04 -2.81,5.32 0.67,2.19 3.04,3.4 5.36,2.73 2.37,-0.72 3.66,-2.95 2.95,-5.18z"/>
  <path class="fil0" d="M1441.69 575.61c0.58,2.06 2.73,3.17 5,2.55 2.41,-0.63 3.89,-2.99 3.31,-5.23 -0.54,-2.1 -2.68,-3.31 -4.87,-2.73 -2.46,0.67 -4.07,3.17 -3.44,5.41z"/>
  <path class="fil0" d="M1427.26 517.35c-0.63,-2.06 -3.17,-3.4 -5.41,-2.82 -2.05,0.58 -3.17,2.5 -2.59,4.47 0.63,2.1 3.13,3.4 5.36,2.82 2.05,-0.54 3.22,-2.5 2.64,-4.47z"/>
  <path class="fil0" d="M1444.1 241.51l0.31 0.8c3.57,-0.98 7.15,-2.01 10.77,-2.95 2.41,-0.63 4.47,0.09 5.85,2.14 1.56,2.41 3.31,4.83 4.33,7.46 3.04,7.73 5.72,15.68 8.71,23.46 0.94,2.37 0.18,3.53 -1.88,4.42 -7.06,3.31 -14.03,6.79 -21.27,9.83 -4.24,1.79 -8.85,2.99 -13.36,4.11 -3.53,0.89 -6.3,-0.45 -8.4,-3.57 -5.63,-8.44 -10.01,-17.42 -12.11,-27.39 -1.21,-5.54 -1.07,-6.48 4.2,-8.89 7.46,-3.4 15.19,-6.3 22.83,-9.43zm-2.59 -8.35c-8.35,3.49 -16.71,6.97 -25.11,10.41 -7.6,3.17 -8.35,6.75 -7.37,15.24 0.63,5.27 2.32,10.59 4.42,15.46 2.59,5.94 5.94,11.57 9.25,17.16 3.57,6.03 9.2,8.44 15.99,7.02 5.41,-1.16 10.77,-2.86 15.95,-4.87 6.17,-2.41 12.06,-5.41 18.1,-8.18 1.25,-0.58 2.5,-1.3 3.71,-2.01 7.82,-4.6 8.98,-7.64 5.72,-15.99 -3.4,-8.89 -6.93,-17.74 -10.45,-26.58 -0.58,-1.43 -1.38,-2.77 -2.23,-4.07 -2.15,-3.53 -5.32,-5.58 -9.52,-5.72 -2.64,-0.13 -5.36,-0.05 -8,0.36 -3.44,0.54 -6.84,1.47 -10.23,2.23l-0.22 -0.45z"/>
  <path class="fil0" d="M1457.71 816.31c-4.14,0.05 -8.28,-0.02 -12.4,-0.33 -8,-0.58 -9.92,-2.9 -10.01,-10.81 -0.13,-7.33 0,-14.61 0.09,-21.89 0.09,-4.42 0.89,-5.41 5.36,-5.5 4.56,-0.09 9.07,0.27 13.63,0.45 10.63,0.45 21.27,1.39 31.86,1.25 1.35,-0.02 2.69,-0.05 4.04,-0.1 1.5,-2.58 2.94,-5.22 4.32,-7.91 -2.29,0.12 -4.59,0.21 -6.89,0.24 -10.45,0.18 -20.95,-0.62 -31.45,-1.03 -5.23,-0.22 -10.41,-0.58 -15.64,-0.63 -1.97,0 -3.98,0.45 -5.9,1.07 -4.11,1.38 -6.79,4.33 -6.88,8.67 -0.18,9.92 -0.31,19.88 0.04,29.84 0.22,6.93 4.47,11.3 11.17,12.96 1.74,0.46 3.52,0.84 5.31,1.11 4.72,-2.05 9.16,-4.52 13.35,-7.4z"/>
  <path class="fil0" d="M1462.82 794.18c-2.01,0.54 -3.13,2.5 -2.59,4.47 0.58,2.01 2.82,3.35 4.87,2.81 1.97,-0.45 3.17,-2.37 2.68,-4.33 -0.54,-2.14 -2.81,-3.48 -4.96,-2.95z"/>
  <path class="fil0" d="M1443.61 797.4c0.49,2.01 2.64,3.26 4.65,2.82 2.1,-0.49 3.31,-2.59 2.73,-4.6 -0.58,-2.01 -2.68,-3.22 -4.74,-2.68 -1.97,0.54 -3.13,2.5 -2.64,4.47z"/>
  <path class="fil3" d="M1457.71 816.31c-4.14,0.05 -8.28,-0.02 -12.4,-0.33 -8,-0.58 -9.92,-2.9 -10.01,-10.81 -0.13,-7.33 0,-14.61 0.09,-21.89 0.09,-4.42 0.89,-5.41 5.36,-5.5 4.56,-0.09 9.07,0.27 13.63,0.45 10.63,0.45 21.27,1.39 31.86,1.25 1.35,-0.02 2.69,-0.05 4.04,-0.1 1.5,-2.58 2.94,-5.22 4.32,-7.91 -2.29,0.12 -4.59,0.21 -6.89,0.24 -10.45,0.18 -20.95,-0.62 -31.45,-1.03 -5.23,-0.22 -10.41,-0.58 -15.64,-0.63 -1.97,0 -3.98,0.45 -5.9,1.07 -4.11,1.38 -6.79,4.33 -6.88,8.67 -0.18,9.92 -0.31,19.88 0.04,29.84 0.22,6.93 4.47,11.3 11.17,12.96 1.74,0.46 3.52,0.84 5.31,1.11 4.72,-2.05 9.16,-4.52 13.35,-7.4z"/>
  <path class="fil4" d="M1462.82 794.18c-2.01,0.54 -3.13,2.5 -2.59,4.47 0.58,2.01 2.82,3.35 4.87,2.81 1.97,-0.45 3.17,-2.37 2.68,-4.33 -0.54,-2.14 -2.81,-3.48 -4.96,-2.95z"/>
  <path class="fil4" d="M1443.61 797.4c0.49,2.01 2.64,3.26 4.65,2.82 2.1,-0.49 3.31,-2.59 2.73,-4.6 -0.58,-2.01 -2.68,-3.22 -4.74,-2.68 -1.97,0.54 -3.13,2.5 -2.64,4.47z"/>
  <path class="fil0" d="M1275.44 484.38c-0.94,0.49 -1.3,1.61 -0.8,2.5 0.54,0.98 1.88,1.38 2.86,0.89 0.89,-0.49 1.21,-1.52 0.71,-2.46 -0.54,-1.03 -1.83,-1.43 -2.77,-0.94z"/>
  <path class="fil0" d="M1348.93 713.31c0.54,2.06 2.59,3.26 4.65,2.73 2.19,-0.54 3.62,-2.99 3.08,-5.18 -0.54,-1.97 -2.5,-3.08 -4.51,-2.59 -2.32,0.58 -3.8,2.9 -3.22,5.05z"/>
  <path class="fil0" d="M1278 648.21c1.56,-0.94 2.48,-2.93 2,-4.73 -0.51,-1.88 -2.29,-2.98 -4.24,-2.65 0.72,2.42 1.46,4.88 2.24,7.38z"/>
  <path class="fil0" d="M1271.86 580.12c-2.06,0.58 -3.26,2.59 -2.73,4.6 0.54,2.14 2.73,3.4 4.83,2.86 2.1,-0.58 3.26,-2.77 2.64,-4.87 -0.62,-2.01 -2.68,-3.17 -4.74,-2.59z"/>
  <path class="fil0" d="M1458.66 127.49c1.12,1.03 2.01,1.43 2.19,2.06 0.18,0.54 -0.54,1.3 -0.89,1.92 -0.67,-0.4 -1.61,-0.67 -2.01,-1.3 -0.22,-0.4 0.31,-1.3 0.71,-2.68zm9.96 -0.04c-1.38,-5.14 -6.7,-8.18 -11.79,-6.75 -5.14,1.39 -8.04,6.26 -6.84,11.04 1.52,5.99 7.86,8.58 11.97,7.46 5.18,-1.47 8.09,-6.48 6.66,-11.75z"/>
  <path class="fil0" d="M1340.8 662.87c-0.58,-1.88 -2.68,-2.95 -4.65,-2.37 -1.97,0.63 -3.08,2.64 -2.5,4.51 0.58,1.88 2.64,2.95 4.6,2.37 1.97,-0.58 3.13,-2.59 2.55,-4.51z"/>
  <path class="fil0" d="M1440.84 263.71c0.13,-0.36 0.18,-1.21 0.62,-1.56 1.79,-1.34 3.62,-2.59 5.5,-3.75l1.83 0.45c1.39,1.83 2.68,3.71 3.84,5.67 0.27,0.4 0.18,1.52 -0.13,1.65 -2.37,1.34 -4.87,2.46 -7.28,3.66 -1.3,-1.7 -2.59,-3.44 -3.89,-5.18 -0.13,-0.18 -0.22,-0.4 -0.49,-0.94zm7.68 13.4c3.8,-2.05 9.11,-3.4 12.11,-8.27 1.07,-1.74 1.47,-3.49 0.45,-5.18 -2.32,-3.8 -4.6,-7.6 -7.33,-11.08 -2.64,-3.35 -5.9,-3.8 -9.52,-1.61 -3.17,1.92 -6.3,4.02 -9.07,6.43 -3.22,2.73 -3.53,5.67 -1.56,9.34 1.34,2.55 2.72,5.09 4.42,7.42 2.5,3.4 5.72,4.33 10.5,2.95z"/>
  <path class="fil0" d="M1484.71 136.91c8.89,31.68 -21.27,25.51 -32.7,13.81 -71.44,-73.27 -170.58,8.98 -181.48,-16.67 -8.27,-19.48 -31.05,-85.83 -31.05,-85.83l159.86 -26.58c7.02,-1.16 12.96,-1.47 18.27,-0.98 14.65,1.34 25.47,9.11 33.02,23.86 13.94,27.12 26.41,64.96 34.09,92.4z"/>
  <path class="fil0" d="M1428.6 866.02c-85.6,2.41 -150.7,-204.54 -162.63,-262.93 -2.41,-11.62 -16.93,-80.51 -23.99,-114.11 -0.98,-4.56 4.78,-7.33 7.77,-3.75 28.55,34.14 103.3,113.98 155.26,81.81 52.27,-32.35 129.84,35.07 126.71,67.02 -14.39,146.19 -48.34,230.45 -103.12,231.97z"/>
  <path class="fil0" d="M1369.13 950.47c-13.18,55.31 -8.49,115.94 29.4,162.09 12.06,15.06 26.58,28.64 42.31,41.73 -85.02,-32.93 -116.88,-129.7 -71.71,-203.82zm123.04 171.25c6.97,42.22 52.32,63.8 64.25,67.51 0,0 -49.73,-38.11 -19.08,-132.11 17.65,-54.15 -9.92,-82.7 -43.61,-101.69 0,0 9.07,20.73 5.41,45.44 0,0 -7.28,-50.89 -53.44,-82.07 -26.4,18.23 -28.73,25.15 -28.73,25.15 0,0 -5.27,1.88 -6.75,-62.06 0,0 -79.21,21.71 -98.29,126.89 -6.26,-28.91 4.87,-61.88 4.87,-61.88 -128.18,231.88 190.91,301.31 287.24,266.69 -60.05,-13.18 -102.18,-33.42 -111.87,-91.86z"/>
 </g>
</svg>
