<?xml version="1.0" encoding="UTF-8"?>
<!DOCTYPE svg PUBLIC "-//W3C//DTD SVG 1.1//EN" "http://www.w3.org/Graphics/SVG/1.1/DTD/svg11.dtd">
<!-- Creator: CorelDRAW X8 -->
<svg xmlns="http://www.w3.org/2000/svg" xml:space="preserve" width="1.9444in" height="1.46973in" version="1.1" style="shape-rendering:geometricPrecision; text-rendering:geometricPrecision; image-rendering:optimizeQuality; fill-rule:evenodd; clip-rule:evenodd"
viewBox="0 0 333 251"
 xmlns:xlink="http://www.w3.org/1999/xlink">
 <defs>
  <style type="text/css">
   <![CDATA[
    .fil0 {fill:white}
    .fil1 {fill:#4949BF;fill-rule:nonzero}
   ]]>
  </style>
 </defs>
 <g id="Layer_x0020_1">
  <metadata id="CorelCorpID_0Corel-Layer"/>
  <rect class="fil0" x="12" y="67" width="160.505" height="61.6718"/>
  <path class="fil1" d="M311 76l-96 0c-12,0 -22,9 -22,20l0 155 42 -43 76 0c12,0 22,-9 22,-20l0 -92c0,-11 -10,-20 -22,-20z"/>
  <path class="fil1" d="M139 114c-10,0 -17,-8 -17,-18 0,-9 7,-17 17,-17 9,0 17,8 17,17 0,10 -8,18 -17,18zm-47 0c-9,0 -17,-8 -17,-18 0,-9 8,-17 17,-17 10,0 17,8 17,17 0,10 -7,18 -17,18zm-47 0c-9,0 -17,-8 -17,-18 0,-9 8,-17 17,-17 10,0 18,8 18,17 0,10 -8,18 -18,18zm113 -114l-129 0c-16,0 -29,13 -29,30l0 130c0,16 13,30 29,30l102 0 56 61 0 -221c0,-17 -13,-30 -29,-30z"/>
 </g>
</svg>
