<?xml version="1.0" encoding="UTF-8"?>
<!DOCTYPE svg PUBLIC "-//W3C//DTD SVG 1.1//EN" "http://www.w3.org/Graphics/SVG/1.1/DTD/svg11.dtd">
<!-- Creator: CorelDRAW X8 -->
<svg xmlns="http://www.w3.org/2000/svg" xml:space="preserve" width="1.94439in" height="1.46973in" version="1.1" style="shape-rendering:geometricPrecision; text-rendering:geometricPrecision; image-rendering:optimizeQuality; fill-rule:evenodd; clip-rule:evenodd"
viewBox="0 0 244 185"
 xmlns:xlink="http://www.w3.org/1999/xlink">
 <defs>
  <style type="text/css">
   <![CDATA[
    .fil0 {fill:white}
    .fil1 {fill:#236EAC;fill-rule:nonzero}
   ]]>
  </style>
 </defs>
 <g id="Layer_x0020_1">
  <metadata id="CorelCorpID_0Corel-Layer"/>
  <rect class="fil0" x="9" y="49" width="117.895" height="45.2994"/>
  <path class="fil1" d="M228 56l-70 0c-9,0 -16,6 -16,15l0 114 30 -32 56 0c9,0 16,-7 16,-15l0 -67c0,-9 -7,-15 -16,-15z"/>
  <path class="fil1" d="M102 84c-7,0 -13,-6 -13,-13 0,-7 6,-13 13,-13 7,0 13,6 13,13 0,7 -6,13 -13,13zm-34 0c-7,0 -13,-6 -13,-13 0,-7 6,-13 13,-13 7,0 12,6 12,13 0,7 -5,13 -12,13zm-35 0c-7,0 -12,-6 -12,-13 0,-7 5,-13 12,-13 7,0 13,6 13,13 0,7 -6,13 -13,13zm83 -84l-95 0c-11,0 -21,10 -21,22l0 96c0,12 10,21 21,21l75 0 41 46 0 -163c0,-12 -9,-22 -21,-22z"/>
 </g>
</svg>
